%TF.GenerationSoftware,KiCad,Pcbnew,10.0.0*%
%TF.CreationDate,2026-03-31T22:59:32+07:00*%
%TF.ProjectId,mixer module,6d697865-7220-46d6-9f64-756c652e6b69,rev?*%
%TF.SameCoordinates,Original*%
%TF.FileFunction,Legend,Top*%
%TF.FilePolarity,Positive*%
%FSLAX46Y46*%
G04 Gerber Fmt 4.6, Leading zero omitted, Abs format (unit mm)*
G04 Created by KiCad (PCBNEW 10.0.0) date 2026-03-31 22:59:32*
%MOMM*%
%LPD*%
G01*
G04 APERTURE LIST*
%ADD10C,0.150000*%
%ADD11C,0.120000*%
G04 APERTURE END LIST*
D10*
X158104819Y-40121428D02*
X157628628Y-40454761D01*
X158104819Y-40692856D02*
X157104819Y-40692856D01*
X157104819Y-40692856D02*
X157104819Y-40311904D01*
X157104819Y-40311904D02*
X157152438Y-40216666D01*
X157152438Y-40216666D02*
X157200057Y-40169047D01*
X157200057Y-40169047D02*
X157295295Y-40121428D01*
X157295295Y-40121428D02*
X157438152Y-40121428D01*
X157438152Y-40121428D02*
X157533390Y-40169047D01*
X157533390Y-40169047D02*
X157581009Y-40216666D01*
X157581009Y-40216666D02*
X157628628Y-40311904D01*
X157628628Y-40311904D02*
X157628628Y-40692856D01*
X157104819Y-39835713D02*
X158104819Y-39502380D01*
X158104819Y-39502380D02*
X157104819Y-39169047D01*
X158104819Y-38311904D02*
X158104819Y-38883332D01*
X158104819Y-38597618D02*
X157104819Y-38597618D01*
X157104819Y-38597618D02*
X157247676Y-38692856D01*
X157247676Y-38692856D02*
X157342914Y-38788094D01*
X157342914Y-38788094D02*
X157390533Y-38883332D01*
X157104819Y-37407142D02*
X157104819Y-37883332D01*
X157104819Y-37883332D02*
X157581009Y-37930951D01*
X157581009Y-37930951D02*
X157533390Y-37883332D01*
X157533390Y-37883332D02*
X157485771Y-37788094D01*
X157485771Y-37788094D02*
X157485771Y-37549999D01*
X157485771Y-37549999D02*
X157533390Y-37454761D01*
X157533390Y-37454761D02*
X157581009Y-37407142D01*
X157581009Y-37407142D02*
X157676247Y-37359523D01*
X157676247Y-37359523D02*
X157914342Y-37359523D01*
X157914342Y-37359523D02*
X158009580Y-37407142D01*
X158009580Y-37407142D02*
X158057200Y-37454761D01*
X158057200Y-37454761D02*
X158104819Y-37549999D01*
X158104819Y-37549999D02*
X158104819Y-37788094D01*
X158104819Y-37788094D02*
X158057200Y-37883332D01*
X158057200Y-37883332D02*
X158009580Y-37930951D01*
X108104819Y-56121428D02*
X107628628Y-56454761D01*
X108104819Y-56692856D02*
X107104819Y-56692856D01*
X107104819Y-56692856D02*
X107104819Y-56311904D01*
X107104819Y-56311904D02*
X107152438Y-56216666D01*
X107152438Y-56216666D02*
X107200057Y-56169047D01*
X107200057Y-56169047D02*
X107295295Y-56121428D01*
X107295295Y-56121428D02*
X107438152Y-56121428D01*
X107438152Y-56121428D02*
X107533390Y-56169047D01*
X107533390Y-56169047D02*
X107581009Y-56216666D01*
X107581009Y-56216666D02*
X107628628Y-56311904D01*
X107628628Y-56311904D02*
X107628628Y-56692856D01*
X107104819Y-55835713D02*
X108104819Y-55502380D01*
X108104819Y-55502380D02*
X107104819Y-55169047D01*
X108104819Y-54311904D02*
X108104819Y-54883332D01*
X108104819Y-54597618D02*
X107104819Y-54597618D01*
X107104819Y-54597618D02*
X107247676Y-54692856D01*
X107247676Y-54692856D02*
X107342914Y-54788094D01*
X107342914Y-54788094D02*
X107390533Y-54883332D01*
X108104819Y-53359523D02*
X108104819Y-53930951D01*
X108104819Y-53645237D02*
X107104819Y-53645237D01*
X107104819Y-53645237D02*
X107247676Y-53740475D01*
X107247676Y-53740475D02*
X107342914Y-53835713D01*
X107342914Y-53835713D02*
X107390533Y-53930951D01*
X148586667Y-82533200D02*
X148729524Y-82580819D01*
X148729524Y-82580819D02*
X148967619Y-82580819D01*
X148967619Y-82580819D02*
X149062857Y-82533200D01*
X149062857Y-82533200D02*
X149110476Y-82485580D01*
X149110476Y-82485580D02*
X149158095Y-82390342D01*
X149158095Y-82390342D02*
X149158095Y-82295104D01*
X149158095Y-82295104D02*
X149110476Y-82199866D01*
X149110476Y-82199866D02*
X149062857Y-82152247D01*
X149062857Y-82152247D02*
X148967619Y-82104628D01*
X148967619Y-82104628D02*
X148777143Y-82057009D01*
X148777143Y-82057009D02*
X148681905Y-82009390D01*
X148681905Y-82009390D02*
X148634286Y-81961771D01*
X148634286Y-81961771D02*
X148586667Y-81866533D01*
X148586667Y-81866533D02*
X148586667Y-81771295D01*
X148586667Y-81771295D02*
X148634286Y-81676057D01*
X148634286Y-81676057D02*
X148681905Y-81628438D01*
X148681905Y-81628438D02*
X148777143Y-81580819D01*
X148777143Y-81580819D02*
X149015238Y-81580819D01*
X149015238Y-81580819D02*
X149158095Y-81628438D01*
X149491429Y-81580819D02*
X149729524Y-82580819D01*
X149729524Y-82580819D02*
X149920000Y-81866533D01*
X149920000Y-81866533D02*
X150110476Y-82580819D01*
X150110476Y-82580819D02*
X150348572Y-81580819D01*
X151158095Y-81914152D02*
X151158095Y-82580819D01*
X150920000Y-81533200D02*
X150681905Y-82247485D01*
X150681905Y-82247485D02*
X151300952Y-82247485D01*
X181104819Y-146071428D02*
X180628628Y-146404761D01*
X181104819Y-146642856D02*
X180104819Y-146642856D01*
X180104819Y-146642856D02*
X180104819Y-146261904D01*
X180104819Y-146261904D02*
X180152438Y-146166666D01*
X180152438Y-146166666D02*
X180200057Y-146119047D01*
X180200057Y-146119047D02*
X180295295Y-146071428D01*
X180295295Y-146071428D02*
X180438152Y-146071428D01*
X180438152Y-146071428D02*
X180533390Y-146119047D01*
X180533390Y-146119047D02*
X180581009Y-146166666D01*
X180581009Y-146166666D02*
X180628628Y-146261904D01*
X180628628Y-146261904D02*
X180628628Y-146642856D01*
X180104819Y-145785713D02*
X181104819Y-145452380D01*
X181104819Y-145452380D02*
X180104819Y-145119047D01*
X180200057Y-144833332D02*
X180152438Y-144785713D01*
X180152438Y-144785713D02*
X180104819Y-144690475D01*
X180104819Y-144690475D02*
X180104819Y-144452380D01*
X180104819Y-144452380D02*
X180152438Y-144357142D01*
X180152438Y-144357142D02*
X180200057Y-144309523D01*
X180200057Y-144309523D02*
X180295295Y-144261904D01*
X180295295Y-144261904D02*
X180390533Y-144261904D01*
X180390533Y-144261904D02*
X180533390Y-144309523D01*
X180533390Y-144309523D02*
X181104819Y-144880951D01*
X181104819Y-144880951D02*
X181104819Y-144261904D01*
X180200057Y-143880951D02*
X180152438Y-143833332D01*
X180152438Y-143833332D02*
X180104819Y-143738094D01*
X180104819Y-143738094D02*
X180104819Y-143499999D01*
X180104819Y-143499999D02*
X180152438Y-143404761D01*
X180152438Y-143404761D02*
X180200057Y-143357142D01*
X180200057Y-143357142D02*
X180295295Y-143309523D01*
X180295295Y-143309523D02*
X180390533Y-143309523D01*
X180390533Y-143309523D02*
X180533390Y-143357142D01*
X180533390Y-143357142D02*
X181104819Y-143928570D01*
X181104819Y-143928570D02*
X181104819Y-143309523D01*
X181104819Y-166071428D02*
X180628628Y-166404761D01*
X181104819Y-166642856D02*
X180104819Y-166642856D01*
X180104819Y-166642856D02*
X180104819Y-166261904D01*
X180104819Y-166261904D02*
X180152438Y-166166666D01*
X180152438Y-166166666D02*
X180200057Y-166119047D01*
X180200057Y-166119047D02*
X180295295Y-166071428D01*
X180295295Y-166071428D02*
X180438152Y-166071428D01*
X180438152Y-166071428D02*
X180533390Y-166119047D01*
X180533390Y-166119047D02*
X180581009Y-166166666D01*
X180581009Y-166166666D02*
X180628628Y-166261904D01*
X180628628Y-166261904D02*
X180628628Y-166642856D01*
X180104819Y-165785713D02*
X181104819Y-165452380D01*
X181104819Y-165452380D02*
X180104819Y-165119047D01*
X180200057Y-164833332D02*
X180152438Y-164785713D01*
X180152438Y-164785713D02*
X180104819Y-164690475D01*
X180104819Y-164690475D02*
X180104819Y-164452380D01*
X180104819Y-164452380D02*
X180152438Y-164357142D01*
X180152438Y-164357142D02*
X180200057Y-164309523D01*
X180200057Y-164309523D02*
X180295295Y-164261904D01*
X180295295Y-164261904D02*
X180390533Y-164261904D01*
X180390533Y-164261904D02*
X180533390Y-164309523D01*
X180533390Y-164309523D02*
X181104819Y-164880951D01*
X181104819Y-164880951D02*
X181104819Y-164261904D01*
X180438152Y-163404761D02*
X181104819Y-163404761D01*
X180057200Y-163642856D02*
X180771485Y-163880951D01*
X180771485Y-163880951D02*
X180771485Y-163261904D01*
X183039580Y-85166666D02*
X183087200Y-85214285D01*
X183087200Y-85214285D02*
X183134819Y-85357142D01*
X183134819Y-85357142D02*
X183134819Y-85452380D01*
X183134819Y-85452380D02*
X183087200Y-85595237D01*
X183087200Y-85595237D02*
X182991961Y-85690475D01*
X182991961Y-85690475D02*
X182896723Y-85738094D01*
X182896723Y-85738094D02*
X182706247Y-85785713D01*
X182706247Y-85785713D02*
X182563390Y-85785713D01*
X182563390Y-85785713D02*
X182372914Y-85738094D01*
X182372914Y-85738094D02*
X182277676Y-85690475D01*
X182277676Y-85690475D02*
X182182438Y-85595237D01*
X182182438Y-85595237D02*
X182134819Y-85452380D01*
X182134819Y-85452380D02*
X182134819Y-85357142D01*
X182134819Y-85357142D02*
X182182438Y-85214285D01*
X182182438Y-85214285D02*
X182230057Y-85166666D01*
X182230057Y-84785713D02*
X182182438Y-84738094D01*
X182182438Y-84738094D02*
X182134819Y-84642856D01*
X182134819Y-84642856D02*
X182134819Y-84404761D01*
X182134819Y-84404761D02*
X182182438Y-84309523D01*
X182182438Y-84309523D02*
X182230057Y-84261904D01*
X182230057Y-84261904D02*
X182325295Y-84214285D01*
X182325295Y-84214285D02*
X182420533Y-84214285D01*
X182420533Y-84214285D02*
X182563390Y-84261904D01*
X182563390Y-84261904D02*
X183134819Y-84833332D01*
X183134819Y-84833332D02*
X183134819Y-84214285D01*
X133104819Y-40121428D02*
X132628628Y-40454761D01*
X133104819Y-40692856D02*
X132104819Y-40692856D01*
X132104819Y-40692856D02*
X132104819Y-40311904D01*
X132104819Y-40311904D02*
X132152438Y-40216666D01*
X132152438Y-40216666D02*
X132200057Y-40169047D01*
X132200057Y-40169047D02*
X132295295Y-40121428D01*
X132295295Y-40121428D02*
X132438152Y-40121428D01*
X132438152Y-40121428D02*
X132533390Y-40169047D01*
X132533390Y-40169047D02*
X132581009Y-40216666D01*
X132581009Y-40216666D02*
X132628628Y-40311904D01*
X132628628Y-40311904D02*
X132628628Y-40692856D01*
X132104819Y-39835713D02*
X133104819Y-39502380D01*
X133104819Y-39502380D02*
X132104819Y-39169047D01*
X133104819Y-38311904D02*
X133104819Y-38883332D01*
X133104819Y-38597618D02*
X132104819Y-38597618D01*
X132104819Y-38597618D02*
X132247676Y-38692856D01*
X132247676Y-38692856D02*
X132342914Y-38788094D01*
X132342914Y-38788094D02*
X132390533Y-38883332D01*
X132104819Y-37978570D02*
X132104819Y-37311904D01*
X132104819Y-37311904D02*
X133104819Y-37740475D01*
X158104819Y-56121428D02*
X157628628Y-56454761D01*
X158104819Y-56692856D02*
X157104819Y-56692856D01*
X157104819Y-56692856D02*
X157104819Y-56311904D01*
X157104819Y-56311904D02*
X157152438Y-56216666D01*
X157152438Y-56216666D02*
X157200057Y-56169047D01*
X157200057Y-56169047D02*
X157295295Y-56121428D01*
X157295295Y-56121428D02*
X157438152Y-56121428D01*
X157438152Y-56121428D02*
X157533390Y-56169047D01*
X157533390Y-56169047D02*
X157581009Y-56216666D01*
X157581009Y-56216666D02*
X157628628Y-56311904D01*
X157628628Y-56311904D02*
X157628628Y-56692856D01*
X157104819Y-55835713D02*
X158104819Y-55502380D01*
X158104819Y-55502380D02*
X157104819Y-55169047D01*
X158104819Y-54311904D02*
X158104819Y-54883332D01*
X158104819Y-54597618D02*
X157104819Y-54597618D01*
X157104819Y-54597618D02*
X157247676Y-54692856D01*
X157247676Y-54692856D02*
X157342914Y-54788094D01*
X157342914Y-54788094D02*
X157390533Y-54883332D01*
X157104819Y-53978570D02*
X157104819Y-53359523D01*
X157104819Y-53359523D02*
X157485771Y-53692856D01*
X157485771Y-53692856D02*
X157485771Y-53549999D01*
X157485771Y-53549999D02*
X157533390Y-53454761D01*
X157533390Y-53454761D02*
X157581009Y-53407142D01*
X157581009Y-53407142D02*
X157676247Y-53359523D01*
X157676247Y-53359523D02*
X157914342Y-53359523D01*
X157914342Y-53359523D02*
X158009580Y-53407142D01*
X158009580Y-53407142D02*
X158057200Y-53454761D01*
X158057200Y-53454761D02*
X158104819Y-53549999D01*
X158104819Y-53549999D02*
X158104819Y-53835713D01*
X158104819Y-53835713D02*
X158057200Y-53930951D01*
X158057200Y-53930951D02*
X158009580Y-53978570D01*
X181104819Y-127071428D02*
X180628628Y-127404761D01*
X181104819Y-127642856D02*
X180104819Y-127642856D01*
X180104819Y-127642856D02*
X180104819Y-127261904D01*
X180104819Y-127261904D02*
X180152438Y-127166666D01*
X180152438Y-127166666D02*
X180200057Y-127119047D01*
X180200057Y-127119047D02*
X180295295Y-127071428D01*
X180295295Y-127071428D02*
X180438152Y-127071428D01*
X180438152Y-127071428D02*
X180533390Y-127119047D01*
X180533390Y-127119047D02*
X180581009Y-127166666D01*
X180581009Y-127166666D02*
X180628628Y-127261904D01*
X180628628Y-127261904D02*
X180628628Y-127642856D01*
X180104819Y-126785713D02*
X181104819Y-126452380D01*
X181104819Y-126452380D02*
X180104819Y-126119047D01*
X180200057Y-125833332D02*
X180152438Y-125785713D01*
X180152438Y-125785713D02*
X180104819Y-125690475D01*
X180104819Y-125690475D02*
X180104819Y-125452380D01*
X180104819Y-125452380D02*
X180152438Y-125357142D01*
X180152438Y-125357142D02*
X180200057Y-125309523D01*
X180200057Y-125309523D02*
X180295295Y-125261904D01*
X180295295Y-125261904D02*
X180390533Y-125261904D01*
X180390533Y-125261904D02*
X180533390Y-125309523D01*
X180533390Y-125309523D02*
X181104819Y-125880951D01*
X181104819Y-125880951D02*
X181104819Y-125261904D01*
X180104819Y-124928570D02*
X180104819Y-124309523D01*
X180104819Y-124309523D02*
X180485771Y-124642856D01*
X180485771Y-124642856D02*
X180485771Y-124499999D01*
X180485771Y-124499999D02*
X180533390Y-124404761D01*
X180533390Y-124404761D02*
X180581009Y-124357142D01*
X180581009Y-124357142D02*
X180676247Y-124309523D01*
X180676247Y-124309523D02*
X180914342Y-124309523D01*
X180914342Y-124309523D02*
X181009580Y-124357142D01*
X181009580Y-124357142D02*
X181057200Y-124404761D01*
X181057200Y-124404761D02*
X181104819Y-124499999D01*
X181104819Y-124499999D02*
X181104819Y-124785713D01*
X181104819Y-124785713D02*
X181057200Y-124880951D01*
X181057200Y-124880951D02*
X181009580Y-124928570D01*
X172238095Y-94119819D02*
X172238095Y-94929342D01*
X172238095Y-94929342D02*
X172285714Y-95024580D01*
X172285714Y-95024580D02*
X172333333Y-95072200D01*
X172333333Y-95072200D02*
X172428571Y-95119819D01*
X172428571Y-95119819D02*
X172619047Y-95119819D01*
X172619047Y-95119819D02*
X172714285Y-95072200D01*
X172714285Y-95072200D02*
X172761904Y-95024580D01*
X172761904Y-95024580D02*
X172809523Y-94929342D01*
X172809523Y-94929342D02*
X172809523Y-94119819D01*
X173809523Y-95119819D02*
X173238095Y-95119819D01*
X173523809Y-95119819D02*
X173523809Y-94119819D01*
X173523809Y-94119819D02*
X173428571Y-94262676D01*
X173428571Y-94262676D02*
X173333333Y-94357914D01*
X173333333Y-94357914D02*
X173238095Y-94405533D01*
X83104819Y-19071428D02*
X82628628Y-19404761D01*
X83104819Y-19642856D02*
X82104819Y-19642856D01*
X82104819Y-19642856D02*
X82104819Y-19261904D01*
X82104819Y-19261904D02*
X82152438Y-19166666D01*
X82152438Y-19166666D02*
X82200057Y-19119047D01*
X82200057Y-19119047D02*
X82295295Y-19071428D01*
X82295295Y-19071428D02*
X82438152Y-19071428D01*
X82438152Y-19071428D02*
X82533390Y-19119047D01*
X82533390Y-19119047D02*
X82581009Y-19166666D01*
X82581009Y-19166666D02*
X82628628Y-19261904D01*
X82628628Y-19261904D02*
X82628628Y-19642856D01*
X82104819Y-18785713D02*
X83104819Y-18452380D01*
X83104819Y-18452380D02*
X82104819Y-18119047D01*
X83104819Y-17261904D02*
X83104819Y-17833332D01*
X83104819Y-17547618D02*
X82104819Y-17547618D01*
X82104819Y-17547618D02*
X82247676Y-17642856D01*
X82247676Y-17642856D02*
X82342914Y-17738094D01*
X82342914Y-17738094D02*
X82390533Y-17833332D01*
X82533390Y-16690475D02*
X82485771Y-16785713D01*
X82485771Y-16785713D02*
X82438152Y-16833332D01*
X82438152Y-16833332D02*
X82342914Y-16880951D01*
X82342914Y-16880951D02*
X82295295Y-16880951D01*
X82295295Y-16880951D02*
X82200057Y-16833332D01*
X82200057Y-16833332D02*
X82152438Y-16785713D01*
X82152438Y-16785713D02*
X82104819Y-16690475D01*
X82104819Y-16690475D02*
X82104819Y-16499999D01*
X82104819Y-16499999D02*
X82152438Y-16404761D01*
X82152438Y-16404761D02*
X82200057Y-16357142D01*
X82200057Y-16357142D02*
X82295295Y-16309523D01*
X82295295Y-16309523D02*
X82342914Y-16309523D01*
X82342914Y-16309523D02*
X82438152Y-16357142D01*
X82438152Y-16357142D02*
X82485771Y-16404761D01*
X82485771Y-16404761D02*
X82533390Y-16499999D01*
X82533390Y-16499999D02*
X82533390Y-16690475D01*
X82533390Y-16690475D02*
X82581009Y-16785713D01*
X82581009Y-16785713D02*
X82628628Y-16833332D01*
X82628628Y-16833332D02*
X82723866Y-16880951D01*
X82723866Y-16880951D02*
X82914342Y-16880951D01*
X82914342Y-16880951D02*
X83009580Y-16833332D01*
X83009580Y-16833332D02*
X83057200Y-16785713D01*
X83057200Y-16785713D02*
X83104819Y-16690475D01*
X83104819Y-16690475D02*
X83104819Y-16499999D01*
X83104819Y-16499999D02*
X83057200Y-16404761D01*
X83057200Y-16404761D02*
X83009580Y-16357142D01*
X83009580Y-16357142D02*
X82914342Y-16309523D01*
X82914342Y-16309523D02*
X82723866Y-16309523D01*
X82723866Y-16309523D02*
X82628628Y-16357142D01*
X82628628Y-16357142D02*
X82581009Y-16404761D01*
X82581009Y-16404761D02*
X82533390Y-16499999D01*
X83104819Y-71645238D02*
X82628628Y-71978571D01*
X83104819Y-72216666D02*
X82104819Y-72216666D01*
X82104819Y-72216666D02*
X82104819Y-71835714D01*
X82104819Y-71835714D02*
X82152438Y-71740476D01*
X82152438Y-71740476D02*
X82200057Y-71692857D01*
X82200057Y-71692857D02*
X82295295Y-71645238D01*
X82295295Y-71645238D02*
X82438152Y-71645238D01*
X82438152Y-71645238D02*
X82533390Y-71692857D01*
X82533390Y-71692857D02*
X82581009Y-71740476D01*
X82581009Y-71740476D02*
X82628628Y-71835714D01*
X82628628Y-71835714D02*
X82628628Y-72216666D01*
X82104819Y-71359523D02*
X83104819Y-71026190D01*
X83104819Y-71026190D02*
X82104819Y-70692857D01*
X82104819Y-69930952D02*
X82104819Y-70121428D01*
X82104819Y-70121428D02*
X82152438Y-70216666D01*
X82152438Y-70216666D02*
X82200057Y-70264285D01*
X82200057Y-70264285D02*
X82342914Y-70359523D01*
X82342914Y-70359523D02*
X82533390Y-70407142D01*
X82533390Y-70407142D02*
X82914342Y-70407142D01*
X82914342Y-70407142D02*
X83009580Y-70359523D01*
X83009580Y-70359523D02*
X83057200Y-70311904D01*
X83057200Y-70311904D02*
X83104819Y-70216666D01*
X83104819Y-70216666D02*
X83104819Y-70026190D01*
X83104819Y-70026190D02*
X83057200Y-69930952D01*
X83057200Y-69930952D02*
X83009580Y-69883333D01*
X83009580Y-69883333D02*
X82914342Y-69835714D01*
X82914342Y-69835714D02*
X82676247Y-69835714D01*
X82676247Y-69835714D02*
X82581009Y-69883333D01*
X82581009Y-69883333D02*
X82533390Y-69930952D01*
X82533390Y-69930952D02*
X82485771Y-70026190D01*
X82485771Y-70026190D02*
X82485771Y-70216666D01*
X82485771Y-70216666D02*
X82533390Y-70311904D01*
X82533390Y-70311904D02*
X82581009Y-70359523D01*
X82581009Y-70359523D02*
X82676247Y-70407142D01*
X108104819Y-40121428D02*
X107628628Y-40454761D01*
X108104819Y-40692856D02*
X107104819Y-40692856D01*
X107104819Y-40692856D02*
X107104819Y-40311904D01*
X107104819Y-40311904D02*
X107152438Y-40216666D01*
X107152438Y-40216666D02*
X107200057Y-40169047D01*
X107200057Y-40169047D02*
X107295295Y-40121428D01*
X107295295Y-40121428D02*
X107438152Y-40121428D01*
X107438152Y-40121428D02*
X107533390Y-40169047D01*
X107533390Y-40169047D02*
X107581009Y-40216666D01*
X107581009Y-40216666D02*
X107628628Y-40311904D01*
X107628628Y-40311904D02*
X107628628Y-40692856D01*
X107104819Y-39835713D02*
X108104819Y-39502380D01*
X108104819Y-39502380D02*
X107104819Y-39169047D01*
X108104819Y-38311904D02*
X108104819Y-38883332D01*
X108104819Y-38597618D02*
X107104819Y-38597618D01*
X107104819Y-38597618D02*
X107247676Y-38692856D01*
X107247676Y-38692856D02*
X107342914Y-38788094D01*
X107342914Y-38788094D02*
X107390533Y-38883332D01*
X107104819Y-37454761D02*
X107104819Y-37645237D01*
X107104819Y-37645237D02*
X107152438Y-37740475D01*
X107152438Y-37740475D02*
X107200057Y-37788094D01*
X107200057Y-37788094D02*
X107342914Y-37883332D01*
X107342914Y-37883332D02*
X107533390Y-37930951D01*
X107533390Y-37930951D02*
X107914342Y-37930951D01*
X107914342Y-37930951D02*
X108009580Y-37883332D01*
X108009580Y-37883332D02*
X108057200Y-37835713D01*
X108057200Y-37835713D02*
X108104819Y-37740475D01*
X108104819Y-37740475D02*
X108104819Y-37549999D01*
X108104819Y-37549999D02*
X108057200Y-37454761D01*
X108057200Y-37454761D02*
X108009580Y-37407142D01*
X108009580Y-37407142D02*
X107914342Y-37359523D01*
X107914342Y-37359523D02*
X107676247Y-37359523D01*
X107676247Y-37359523D02*
X107581009Y-37407142D01*
X107581009Y-37407142D02*
X107533390Y-37454761D01*
X107533390Y-37454761D02*
X107485771Y-37549999D01*
X107485771Y-37549999D02*
X107485771Y-37740475D01*
X107485771Y-37740475D02*
X107533390Y-37835713D01*
X107533390Y-37835713D02*
X107581009Y-37883332D01*
X107581009Y-37883332D02*
X107676247Y-37930951D01*
X133104819Y-56121428D02*
X132628628Y-56454761D01*
X133104819Y-56692856D02*
X132104819Y-56692856D01*
X132104819Y-56692856D02*
X132104819Y-56311904D01*
X132104819Y-56311904D02*
X132152438Y-56216666D01*
X132152438Y-56216666D02*
X132200057Y-56169047D01*
X132200057Y-56169047D02*
X132295295Y-56121428D01*
X132295295Y-56121428D02*
X132438152Y-56121428D01*
X132438152Y-56121428D02*
X132533390Y-56169047D01*
X132533390Y-56169047D02*
X132581009Y-56216666D01*
X132581009Y-56216666D02*
X132628628Y-56311904D01*
X132628628Y-56311904D02*
X132628628Y-56692856D01*
X132104819Y-55835713D02*
X133104819Y-55502380D01*
X133104819Y-55502380D02*
X132104819Y-55169047D01*
X133104819Y-54311904D02*
X133104819Y-54883332D01*
X133104819Y-54597618D02*
X132104819Y-54597618D01*
X132104819Y-54597618D02*
X132247676Y-54692856D01*
X132247676Y-54692856D02*
X132342914Y-54788094D01*
X132342914Y-54788094D02*
X132390533Y-54883332D01*
X132200057Y-53930951D02*
X132152438Y-53883332D01*
X132152438Y-53883332D02*
X132104819Y-53788094D01*
X132104819Y-53788094D02*
X132104819Y-53549999D01*
X132104819Y-53549999D02*
X132152438Y-53454761D01*
X132152438Y-53454761D02*
X132200057Y-53407142D01*
X132200057Y-53407142D02*
X132295295Y-53359523D01*
X132295295Y-53359523D02*
X132390533Y-53359523D01*
X132390533Y-53359523D02*
X132533390Y-53407142D01*
X132533390Y-53407142D02*
X133104819Y-53978570D01*
X133104819Y-53978570D02*
X133104819Y-53359523D01*
X98666667Y-82533200D02*
X98809524Y-82580819D01*
X98809524Y-82580819D02*
X99047619Y-82580819D01*
X99047619Y-82580819D02*
X99142857Y-82533200D01*
X99142857Y-82533200D02*
X99190476Y-82485580D01*
X99190476Y-82485580D02*
X99238095Y-82390342D01*
X99238095Y-82390342D02*
X99238095Y-82295104D01*
X99238095Y-82295104D02*
X99190476Y-82199866D01*
X99190476Y-82199866D02*
X99142857Y-82152247D01*
X99142857Y-82152247D02*
X99047619Y-82104628D01*
X99047619Y-82104628D02*
X98857143Y-82057009D01*
X98857143Y-82057009D02*
X98761905Y-82009390D01*
X98761905Y-82009390D02*
X98714286Y-81961771D01*
X98714286Y-81961771D02*
X98666667Y-81866533D01*
X98666667Y-81866533D02*
X98666667Y-81771295D01*
X98666667Y-81771295D02*
X98714286Y-81676057D01*
X98714286Y-81676057D02*
X98761905Y-81628438D01*
X98761905Y-81628438D02*
X98857143Y-81580819D01*
X98857143Y-81580819D02*
X99095238Y-81580819D01*
X99095238Y-81580819D02*
X99238095Y-81628438D01*
X99571429Y-81580819D02*
X99809524Y-82580819D01*
X99809524Y-82580819D02*
X100000000Y-81866533D01*
X100000000Y-81866533D02*
X100190476Y-82580819D01*
X100190476Y-82580819D02*
X100428572Y-81580819D01*
X100761905Y-81676057D02*
X100809524Y-81628438D01*
X100809524Y-81628438D02*
X100904762Y-81580819D01*
X100904762Y-81580819D02*
X101142857Y-81580819D01*
X101142857Y-81580819D02*
X101238095Y-81628438D01*
X101238095Y-81628438D02*
X101285714Y-81676057D01*
X101285714Y-81676057D02*
X101333333Y-81771295D01*
X101333333Y-81771295D02*
X101333333Y-81866533D01*
X101333333Y-81866533D02*
X101285714Y-82009390D01*
X101285714Y-82009390D02*
X100714286Y-82580819D01*
X100714286Y-82580819D02*
X101333333Y-82580819D01*
X106204819Y-132825238D02*
X105728628Y-133158571D01*
X106204819Y-133396666D02*
X105204819Y-133396666D01*
X105204819Y-133396666D02*
X105204819Y-133015714D01*
X105204819Y-133015714D02*
X105252438Y-132920476D01*
X105252438Y-132920476D02*
X105300057Y-132872857D01*
X105300057Y-132872857D02*
X105395295Y-132825238D01*
X105395295Y-132825238D02*
X105538152Y-132825238D01*
X105538152Y-132825238D02*
X105633390Y-132872857D01*
X105633390Y-132872857D02*
X105681009Y-132920476D01*
X105681009Y-132920476D02*
X105728628Y-133015714D01*
X105728628Y-133015714D02*
X105728628Y-133396666D01*
X105204819Y-132539523D02*
X106204819Y-132206190D01*
X106204819Y-132206190D02*
X105204819Y-131872857D01*
X105300057Y-131587142D02*
X105252438Y-131539523D01*
X105252438Y-131539523D02*
X105204819Y-131444285D01*
X105204819Y-131444285D02*
X105204819Y-131206190D01*
X105204819Y-131206190D02*
X105252438Y-131110952D01*
X105252438Y-131110952D02*
X105300057Y-131063333D01*
X105300057Y-131063333D02*
X105395295Y-131015714D01*
X105395295Y-131015714D02*
X105490533Y-131015714D01*
X105490533Y-131015714D02*
X105633390Y-131063333D01*
X105633390Y-131063333D02*
X106204819Y-131634761D01*
X106204819Y-131634761D02*
X106204819Y-131015714D01*
X83104819Y-56121428D02*
X82628628Y-56454761D01*
X83104819Y-56692856D02*
X82104819Y-56692856D01*
X82104819Y-56692856D02*
X82104819Y-56311904D01*
X82104819Y-56311904D02*
X82152438Y-56216666D01*
X82152438Y-56216666D02*
X82200057Y-56169047D01*
X82200057Y-56169047D02*
X82295295Y-56121428D01*
X82295295Y-56121428D02*
X82438152Y-56121428D01*
X82438152Y-56121428D02*
X82533390Y-56169047D01*
X82533390Y-56169047D02*
X82581009Y-56216666D01*
X82581009Y-56216666D02*
X82628628Y-56311904D01*
X82628628Y-56311904D02*
X82628628Y-56692856D01*
X82104819Y-55835713D02*
X83104819Y-55502380D01*
X83104819Y-55502380D02*
X82104819Y-55169047D01*
X83104819Y-54311904D02*
X83104819Y-54883332D01*
X83104819Y-54597618D02*
X82104819Y-54597618D01*
X82104819Y-54597618D02*
X82247676Y-54692856D01*
X82247676Y-54692856D02*
X82342914Y-54788094D01*
X82342914Y-54788094D02*
X82390533Y-54883332D01*
X82104819Y-53692856D02*
X82104819Y-53597618D01*
X82104819Y-53597618D02*
X82152438Y-53502380D01*
X82152438Y-53502380D02*
X82200057Y-53454761D01*
X82200057Y-53454761D02*
X82295295Y-53407142D01*
X82295295Y-53407142D02*
X82485771Y-53359523D01*
X82485771Y-53359523D02*
X82723866Y-53359523D01*
X82723866Y-53359523D02*
X82914342Y-53407142D01*
X82914342Y-53407142D02*
X83009580Y-53454761D01*
X83009580Y-53454761D02*
X83057200Y-53502380D01*
X83057200Y-53502380D02*
X83104819Y-53597618D01*
X83104819Y-53597618D02*
X83104819Y-53692856D01*
X83104819Y-53692856D02*
X83057200Y-53788094D01*
X83057200Y-53788094D02*
X83009580Y-53835713D01*
X83009580Y-53835713D02*
X82914342Y-53883332D01*
X82914342Y-53883332D02*
X82723866Y-53930951D01*
X82723866Y-53930951D02*
X82485771Y-53930951D01*
X82485771Y-53930951D02*
X82295295Y-53883332D01*
X82295295Y-53883332D02*
X82200057Y-53835713D01*
X82200057Y-53835713D02*
X82152438Y-53788094D01*
X82152438Y-53788094D02*
X82104819Y-53692856D01*
X73666667Y-82533200D02*
X73809524Y-82580819D01*
X73809524Y-82580819D02*
X74047619Y-82580819D01*
X74047619Y-82580819D02*
X74142857Y-82533200D01*
X74142857Y-82533200D02*
X74190476Y-82485580D01*
X74190476Y-82485580D02*
X74238095Y-82390342D01*
X74238095Y-82390342D02*
X74238095Y-82295104D01*
X74238095Y-82295104D02*
X74190476Y-82199866D01*
X74190476Y-82199866D02*
X74142857Y-82152247D01*
X74142857Y-82152247D02*
X74047619Y-82104628D01*
X74047619Y-82104628D02*
X73857143Y-82057009D01*
X73857143Y-82057009D02*
X73761905Y-82009390D01*
X73761905Y-82009390D02*
X73714286Y-81961771D01*
X73714286Y-81961771D02*
X73666667Y-81866533D01*
X73666667Y-81866533D02*
X73666667Y-81771295D01*
X73666667Y-81771295D02*
X73714286Y-81676057D01*
X73714286Y-81676057D02*
X73761905Y-81628438D01*
X73761905Y-81628438D02*
X73857143Y-81580819D01*
X73857143Y-81580819D02*
X74095238Y-81580819D01*
X74095238Y-81580819D02*
X74238095Y-81628438D01*
X74571429Y-81580819D02*
X74809524Y-82580819D01*
X74809524Y-82580819D02*
X75000000Y-81866533D01*
X75000000Y-81866533D02*
X75190476Y-82580819D01*
X75190476Y-82580819D02*
X75428572Y-81580819D01*
X76333333Y-82580819D02*
X75761905Y-82580819D01*
X76047619Y-82580819D02*
X76047619Y-81580819D01*
X76047619Y-81580819D02*
X75952381Y-81723676D01*
X75952381Y-81723676D02*
X75857143Y-81818914D01*
X75857143Y-81818914D02*
X75761905Y-81866533D01*
X158104819Y-19071428D02*
X157628628Y-19404761D01*
X158104819Y-19642856D02*
X157104819Y-19642856D01*
X157104819Y-19642856D02*
X157104819Y-19261904D01*
X157104819Y-19261904D02*
X157152438Y-19166666D01*
X157152438Y-19166666D02*
X157200057Y-19119047D01*
X157200057Y-19119047D02*
X157295295Y-19071428D01*
X157295295Y-19071428D02*
X157438152Y-19071428D01*
X157438152Y-19071428D02*
X157533390Y-19119047D01*
X157533390Y-19119047D02*
X157581009Y-19166666D01*
X157581009Y-19166666D02*
X157628628Y-19261904D01*
X157628628Y-19261904D02*
X157628628Y-19642856D01*
X157104819Y-18785713D02*
X158104819Y-18452380D01*
X158104819Y-18452380D02*
X157104819Y-18119047D01*
X157200057Y-17833332D02*
X157152438Y-17785713D01*
X157152438Y-17785713D02*
X157104819Y-17690475D01*
X157104819Y-17690475D02*
X157104819Y-17452380D01*
X157104819Y-17452380D02*
X157152438Y-17357142D01*
X157152438Y-17357142D02*
X157200057Y-17309523D01*
X157200057Y-17309523D02*
X157295295Y-17261904D01*
X157295295Y-17261904D02*
X157390533Y-17261904D01*
X157390533Y-17261904D02*
X157533390Y-17309523D01*
X157533390Y-17309523D02*
X158104819Y-17880951D01*
X158104819Y-17880951D02*
X158104819Y-17261904D01*
X158104819Y-16309523D02*
X158104819Y-16880951D01*
X158104819Y-16595237D02*
X157104819Y-16595237D01*
X157104819Y-16595237D02*
X157247676Y-16690475D01*
X157247676Y-16690475D02*
X157342914Y-16785713D01*
X157342914Y-16785713D02*
X157390533Y-16880951D01*
X184646660Y-61044104D02*
X185122850Y-61044104D01*
X184551422Y-61329819D02*
X184884755Y-60329819D01*
X184884755Y-60329819D02*
X185218088Y-61329819D01*
X186075231Y-61329819D02*
X185503803Y-61329819D01*
X185789517Y-61329819D02*
X185789517Y-60329819D01*
X185789517Y-60329819D02*
X185694279Y-60472676D01*
X185694279Y-60472676D02*
X185599041Y-60567914D01*
X185599041Y-60567914D02*
X185503803Y-60615533D01*
X83104819Y-40121428D02*
X82628628Y-40454761D01*
X83104819Y-40692856D02*
X82104819Y-40692856D01*
X82104819Y-40692856D02*
X82104819Y-40311904D01*
X82104819Y-40311904D02*
X82152438Y-40216666D01*
X82152438Y-40216666D02*
X82200057Y-40169047D01*
X82200057Y-40169047D02*
X82295295Y-40121428D01*
X82295295Y-40121428D02*
X82438152Y-40121428D01*
X82438152Y-40121428D02*
X82533390Y-40169047D01*
X82533390Y-40169047D02*
X82581009Y-40216666D01*
X82581009Y-40216666D02*
X82628628Y-40311904D01*
X82628628Y-40311904D02*
X82628628Y-40692856D01*
X82104819Y-39835713D02*
X83104819Y-39502380D01*
X83104819Y-39502380D02*
X82104819Y-39169047D01*
X83104819Y-38311904D02*
X83104819Y-38883332D01*
X83104819Y-38597618D02*
X82104819Y-38597618D01*
X82104819Y-38597618D02*
X82247676Y-38692856D01*
X82247676Y-38692856D02*
X82342914Y-38788094D01*
X82342914Y-38788094D02*
X82390533Y-38883332D01*
X82438152Y-37454761D02*
X83104819Y-37454761D01*
X82057200Y-37692856D02*
X82771485Y-37930951D01*
X82771485Y-37930951D02*
X82771485Y-37311904D01*
X123666667Y-82533200D02*
X123809524Y-82580819D01*
X123809524Y-82580819D02*
X124047619Y-82580819D01*
X124047619Y-82580819D02*
X124142857Y-82533200D01*
X124142857Y-82533200D02*
X124190476Y-82485580D01*
X124190476Y-82485580D02*
X124238095Y-82390342D01*
X124238095Y-82390342D02*
X124238095Y-82295104D01*
X124238095Y-82295104D02*
X124190476Y-82199866D01*
X124190476Y-82199866D02*
X124142857Y-82152247D01*
X124142857Y-82152247D02*
X124047619Y-82104628D01*
X124047619Y-82104628D02*
X123857143Y-82057009D01*
X123857143Y-82057009D02*
X123761905Y-82009390D01*
X123761905Y-82009390D02*
X123714286Y-81961771D01*
X123714286Y-81961771D02*
X123666667Y-81866533D01*
X123666667Y-81866533D02*
X123666667Y-81771295D01*
X123666667Y-81771295D02*
X123714286Y-81676057D01*
X123714286Y-81676057D02*
X123761905Y-81628438D01*
X123761905Y-81628438D02*
X123857143Y-81580819D01*
X123857143Y-81580819D02*
X124095238Y-81580819D01*
X124095238Y-81580819D02*
X124238095Y-81628438D01*
X124571429Y-81580819D02*
X124809524Y-82580819D01*
X124809524Y-82580819D02*
X125000000Y-81866533D01*
X125000000Y-81866533D02*
X125190476Y-82580819D01*
X125190476Y-82580819D02*
X125428572Y-81580819D01*
X125714286Y-81580819D02*
X126333333Y-81580819D01*
X126333333Y-81580819D02*
X126000000Y-81961771D01*
X126000000Y-81961771D02*
X126142857Y-81961771D01*
X126142857Y-81961771D02*
X126238095Y-82009390D01*
X126238095Y-82009390D02*
X126285714Y-82057009D01*
X126285714Y-82057009D02*
X126333333Y-82152247D01*
X126333333Y-82152247D02*
X126333333Y-82390342D01*
X126333333Y-82390342D02*
X126285714Y-82485580D01*
X126285714Y-82485580D02*
X126238095Y-82533200D01*
X126238095Y-82533200D02*
X126142857Y-82580819D01*
X126142857Y-82580819D02*
X125857143Y-82580819D01*
X125857143Y-82580819D02*
X125761905Y-82533200D01*
X125761905Y-82533200D02*
X125714286Y-82485580D01*
X172238095Y-95804819D02*
X172238095Y-96614342D01*
X172238095Y-96614342D02*
X172285714Y-96709580D01*
X172285714Y-96709580D02*
X172333333Y-96757200D01*
X172333333Y-96757200D02*
X172428571Y-96804819D01*
X172428571Y-96804819D02*
X172619047Y-96804819D01*
X172619047Y-96804819D02*
X172714285Y-96757200D01*
X172714285Y-96757200D02*
X172761904Y-96709580D01*
X172761904Y-96709580D02*
X172809523Y-96614342D01*
X172809523Y-96614342D02*
X172809523Y-95804819D01*
X173238095Y-95900057D02*
X173285714Y-95852438D01*
X173285714Y-95852438D02*
X173380952Y-95804819D01*
X173380952Y-95804819D02*
X173619047Y-95804819D01*
X173619047Y-95804819D02*
X173714285Y-95852438D01*
X173714285Y-95852438D02*
X173761904Y-95900057D01*
X173761904Y-95900057D02*
X173809523Y-95995295D01*
X173809523Y-95995295D02*
X173809523Y-96090533D01*
X173809523Y-96090533D02*
X173761904Y-96233390D01*
X173761904Y-96233390D02*
X173190476Y-96804819D01*
X173190476Y-96804819D02*
X173809523Y-96804819D01*
X183039580Y-104166666D02*
X183087200Y-104214285D01*
X183087200Y-104214285D02*
X183134819Y-104357142D01*
X183134819Y-104357142D02*
X183134819Y-104452380D01*
X183134819Y-104452380D02*
X183087200Y-104595237D01*
X183087200Y-104595237D02*
X182991961Y-104690475D01*
X182991961Y-104690475D02*
X182896723Y-104738094D01*
X182896723Y-104738094D02*
X182706247Y-104785713D01*
X182706247Y-104785713D02*
X182563390Y-104785713D01*
X182563390Y-104785713D02*
X182372914Y-104738094D01*
X182372914Y-104738094D02*
X182277676Y-104690475D01*
X182277676Y-104690475D02*
X182182438Y-104595237D01*
X182182438Y-104595237D02*
X182134819Y-104452380D01*
X182134819Y-104452380D02*
X182134819Y-104357142D01*
X182134819Y-104357142D02*
X182182438Y-104214285D01*
X182182438Y-104214285D02*
X182230057Y-104166666D01*
X182134819Y-103833332D02*
X182134819Y-103214285D01*
X182134819Y-103214285D02*
X182515771Y-103547618D01*
X182515771Y-103547618D02*
X182515771Y-103404761D01*
X182515771Y-103404761D02*
X182563390Y-103309523D01*
X182563390Y-103309523D02*
X182611009Y-103261904D01*
X182611009Y-103261904D02*
X182706247Y-103214285D01*
X182706247Y-103214285D02*
X182944342Y-103214285D01*
X182944342Y-103214285D02*
X183039580Y-103261904D01*
X183039580Y-103261904D02*
X183087200Y-103309523D01*
X183087200Y-103309523D02*
X183134819Y-103404761D01*
X183134819Y-103404761D02*
X183134819Y-103690475D01*
X183134819Y-103690475D02*
X183087200Y-103785713D01*
X183087200Y-103785713D02*
X183039580Y-103833332D01*
X133104819Y-71645238D02*
X132628628Y-71978571D01*
X133104819Y-72216666D02*
X132104819Y-72216666D01*
X132104819Y-72216666D02*
X132104819Y-71835714D01*
X132104819Y-71835714D02*
X132152438Y-71740476D01*
X132152438Y-71740476D02*
X132200057Y-71692857D01*
X132200057Y-71692857D02*
X132295295Y-71645238D01*
X132295295Y-71645238D02*
X132438152Y-71645238D01*
X132438152Y-71645238D02*
X132533390Y-71692857D01*
X132533390Y-71692857D02*
X132581009Y-71740476D01*
X132581009Y-71740476D02*
X132628628Y-71835714D01*
X132628628Y-71835714D02*
X132628628Y-72216666D01*
X132104819Y-71359523D02*
X133104819Y-71026190D01*
X133104819Y-71026190D02*
X132104819Y-70692857D01*
X132533390Y-70216666D02*
X132485771Y-70311904D01*
X132485771Y-70311904D02*
X132438152Y-70359523D01*
X132438152Y-70359523D02*
X132342914Y-70407142D01*
X132342914Y-70407142D02*
X132295295Y-70407142D01*
X132295295Y-70407142D02*
X132200057Y-70359523D01*
X132200057Y-70359523D02*
X132152438Y-70311904D01*
X132152438Y-70311904D02*
X132104819Y-70216666D01*
X132104819Y-70216666D02*
X132104819Y-70026190D01*
X132104819Y-70026190D02*
X132152438Y-69930952D01*
X132152438Y-69930952D02*
X132200057Y-69883333D01*
X132200057Y-69883333D02*
X132295295Y-69835714D01*
X132295295Y-69835714D02*
X132342914Y-69835714D01*
X132342914Y-69835714D02*
X132438152Y-69883333D01*
X132438152Y-69883333D02*
X132485771Y-69930952D01*
X132485771Y-69930952D02*
X132533390Y-70026190D01*
X132533390Y-70026190D02*
X132533390Y-70216666D01*
X132533390Y-70216666D02*
X132581009Y-70311904D01*
X132581009Y-70311904D02*
X132628628Y-70359523D01*
X132628628Y-70359523D02*
X132723866Y-70407142D01*
X132723866Y-70407142D02*
X132914342Y-70407142D01*
X132914342Y-70407142D02*
X133009580Y-70359523D01*
X133009580Y-70359523D02*
X133057200Y-70311904D01*
X133057200Y-70311904D02*
X133104819Y-70216666D01*
X133104819Y-70216666D02*
X133104819Y-70026190D01*
X133104819Y-70026190D02*
X133057200Y-69930952D01*
X133057200Y-69930952D02*
X133009580Y-69883333D01*
X133009580Y-69883333D02*
X132914342Y-69835714D01*
X132914342Y-69835714D02*
X132723866Y-69835714D01*
X132723866Y-69835714D02*
X132628628Y-69883333D01*
X132628628Y-69883333D02*
X132581009Y-69930952D01*
X132581009Y-69930952D02*
X132533390Y-70026190D01*
X108104819Y-19071428D02*
X107628628Y-19404761D01*
X108104819Y-19642856D02*
X107104819Y-19642856D01*
X107104819Y-19642856D02*
X107104819Y-19261904D01*
X107104819Y-19261904D02*
X107152438Y-19166666D01*
X107152438Y-19166666D02*
X107200057Y-19119047D01*
X107200057Y-19119047D02*
X107295295Y-19071428D01*
X107295295Y-19071428D02*
X107438152Y-19071428D01*
X107438152Y-19071428D02*
X107533390Y-19119047D01*
X107533390Y-19119047D02*
X107581009Y-19166666D01*
X107581009Y-19166666D02*
X107628628Y-19261904D01*
X107628628Y-19261904D02*
X107628628Y-19642856D01*
X107104819Y-18785713D02*
X108104819Y-18452380D01*
X108104819Y-18452380D02*
X107104819Y-18119047D01*
X108104819Y-17261904D02*
X108104819Y-17833332D01*
X108104819Y-17547618D02*
X107104819Y-17547618D01*
X107104819Y-17547618D02*
X107247676Y-17642856D01*
X107247676Y-17642856D02*
X107342914Y-17738094D01*
X107342914Y-17738094D02*
X107390533Y-17833332D01*
X108104819Y-16785713D02*
X108104819Y-16595237D01*
X108104819Y-16595237D02*
X108057200Y-16499999D01*
X108057200Y-16499999D02*
X108009580Y-16452380D01*
X108009580Y-16452380D02*
X107866723Y-16357142D01*
X107866723Y-16357142D02*
X107676247Y-16309523D01*
X107676247Y-16309523D02*
X107295295Y-16309523D01*
X107295295Y-16309523D02*
X107200057Y-16357142D01*
X107200057Y-16357142D02*
X107152438Y-16404761D01*
X107152438Y-16404761D02*
X107104819Y-16499999D01*
X107104819Y-16499999D02*
X107104819Y-16690475D01*
X107104819Y-16690475D02*
X107152438Y-16785713D01*
X107152438Y-16785713D02*
X107200057Y-16833332D01*
X107200057Y-16833332D02*
X107295295Y-16880951D01*
X107295295Y-16880951D02*
X107533390Y-16880951D01*
X107533390Y-16880951D02*
X107628628Y-16833332D01*
X107628628Y-16833332D02*
X107676247Y-16785713D01*
X107676247Y-16785713D02*
X107723866Y-16690475D01*
X107723866Y-16690475D02*
X107723866Y-16499999D01*
X107723866Y-16499999D02*
X107676247Y-16404761D01*
X107676247Y-16404761D02*
X107628628Y-16357142D01*
X107628628Y-16357142D02*
X107533390Y-16309523D01*
X173126666Y-71954819D02*
X173126666Y-72669104D01*
X173126666Y-72669104D02*
X173079047Y-72811961D01*
X173079047Y-72811961D02*
X172983809Y-72907200D01*
X172983809Y-72907200D02*
X172840952Y-72954819D01*
X172840952Y-72954819D02*
X172745714Y-72954819D01*
X174126666Y-72954819D02*
X173555238Y-72954819D01*
X173840952Y-72954819D02*
X173840952Y-71954819D01*
X173840952Y-71954819D02*
X173745714Y-72097676D01*
X173745714Y-72097676D02*
X173650476Y-72192914D01*
X173650476Y-72192914D02*
X173555238Y-72240533D01*
X131204819Y-132825238D02*
X130728628Y-133158571D01*
X131204819Y-133396666D02*
X130204819Y-133396666D01*
X130204819Y-133396666D02*
X130204819Y-133015714D01*
X130204819Y-133015714D02*
X130252438Y-132920476D01*
X130252438Y-132920476D02*
X130300057Y-132872857D01*
X130300057Y-132872857D02*
X130395295Y-132825238D01*
X130395295Y-132825238D02*
X130538152Y-132825238D01*
X130538152Y-132825238D02*
X130633390Y-132872857D01*
X130633390Y-132872857D02*
X130681009Y-132920476D01*
X130681009Y-132920476D02*
X130728628Y-133015714D01*
X130728628Y-133015714D02*
X130728628Y-133396666D01*
X130204819Y-132539523D02*
X131204819Y-132206190D01*
X131204819Y-132206190D02*
X130204819Y-131872857D01*
X130204819Y-131634761D02*
X130204819Y-131015714D01*
X130204819Y-131015714D02*
X130585771Y-131349047D01*
X130585771Y-131349047D02*
X130585771Y-131206190D01*
X130585771Y-131206190D02*
X130633390Y-131110952D01*
X130633390Y-131110952D02*
X130681009Y-131063333D01*
X130681009Y-131063333D02*
X130776247Y-131015714D01*
X130776247Y-131015714D02*
X131014342Y-131015714D01*
X131014342Y-131015714D02*
X131109580Y-131063333D01*
X131109580Y-131063333D02*
X131157200Y-131110952D01*
X131157200Y-131110952D02*
X131204819Y-131206190D01*
X131204819Y-131206190D02*
X131204819Y-131491904D01*
X131204819Y-131491904D02*
X131157200Y-131587142D01*
X131157200Y-131587142D02*
X131109580Y-131634761D01*
X133104819Y-19071428D02*
X132628628Y-19404761D01*
X133104819Y-19642856D02*
X132104819Y-19642856D01*
X132104819Y-19642856D02*
X132104819Y-19261904D01*
X132104819Y-19261904D02*
X132152438Y-19166666D01*
X132152438Y-19166666D02*
X132200057Y-19119047D01*
X132200057Y-19119047D02*
X132295295Y-19071428D01*
X132295295Y-19071428D02*
X132438152Y-19071428D01*
X132438152Y-19071428D02*
X132533390Y-19119047D01*
X132533390Y-19119047D02*
X132581009Y-19166666D01*
X132581009Y-19166666D02*
X132628628Y-19261904D01*
X132628628Y-19261904D02*
X132628628Y-19642856D01*
X132104819Y-18785713D02*
X133104819Y-18452380D01*
X133104819Y-18452380D02*
X132104819Y-18119047D01*
X132200057Y-17833332D02*
X132152438Y-17785713D01*
X132152438Y-17785713D02*
X132104819Y-17690475D01*
X132104819Y-17690475D02*
X132104819Y-17452380D01*
X132104819Y-17452380D02*
X132152438Y-17357142D01*
X132152438Y-17357142D02*
X132200057Y-17309523D01*
X132200057Y-17309523D02*
X132295295Y-17261904D01*
X132295295Y-17261904D02*
X132390533Y-17261904D01*
X132390533Y-17261904D02*
X132533390Y-17309523D01*
X132533390Y-17309523D02*
X133104819Y-17880951D01*
X133104819Y-17880951D02*
X133104819Y-17261904D01*
X132104819Y-16642856D02*
X132104819Y-16547618D01*
X132104819Y-16547618D02*
X132152438Y-16452380D01*
X132152438Y-16452380D02*
X132200057Y-16404761D01*
X132200057Y-16404761D02*
X132295295Y-16357142D01*
X132295295Y-16357142D02*
X132485771Y-16309523D01*
X132485771Y-16309523D02*
X132723866Y-16309523D01*
X132723866Y-16309523D02*
X132914342Y-16357142D01*
X132914342Y-16357142D02*
X133009580Y-16404761D01*
X133009580Y-16404761D02*
X133057200Y-16452380D01*
X133057200Y-16452380D02*
X133104819Y-16547618D01*
X133104819Y-16547618D02*
X133104819Y-16642856D01*
X133104819Y-16642856D02*
X133057200Y-16738094D01*
X133057200Y-16738094D02*
X133009580Y-16785713D01*
X133009580Y-16785713D02*
X132914342Y-16833332D01*
X132914342Y-16833332D02*
X132723866Y-16880951D01*
X132723866Y-16880951D02*
X132485771Y-16880951D01*
X132485771Y-16880951D02*
X132295295Y-16833332D01*
X132295295Y-16833332D02*
X132200057Y-16785713D01*
X132200057Y-16785713D02*
X132152438Y-16738094D01*
X132152438Y-16738094D02*
X132104819Y-16642856D01*
X111674761Y-180454819D02*
X111341428Y-179978628D01*
X111103333Y-180454819D02*
X111103333Y-179454819D01*
X111103333Y-179454819D02*
X111484285Y-179454819D01*
X111484285Y-179454819D02*
X111579523Y-179502438D01*
X111579523Y-179502438D02*
X111627142Y-179550057D01*
X111627142Y-179550057D02*
X111674761Y-179645295D01*
X111674761Y-179645295D02*
X111674761Y-179788152D01*
X111674761Y-179788152D02*
X111627142Y-179883390D01*
X111627142Y-179883390D02*
X111579523Y-179931009D01*
X111579523Y-179931009D02*
X111484285Y-179978628D01*
X111484285Y-179978628D02*
X111103333Y-179978628D01*
X111960476Y-179454819D02*
X112293809Y-180454819D01*
X112293809Y-180454819D02*
X112627142Y-179454819D01*
X113436666Y-179454819D02*
X112960476Y-179454819D01*
X112960476Y-179454819D02*
X112912857Y-179931009D01*
X112912857Y-179931009D02*
X112960476Y-179883390D01*
X112960476Y-179883390D02*
X113055714Y-179835771D01*
X113055714Y-179835771D02*
X113293809Y-179835771D01*
X113293809Y-179835771D02*
X113389047Y-179883390D01*
X113389047Y-179883390D02*
X113436666Y-179931009D01*
X113436666Y-179931009D02*
X113484285Y-180026247D01*
X113484285Y-180026247D02*
X113484285Y-180264342D01*
X113484285Y-180264342D02*
X113436666Y-180359580D01*
X113436666Y-180359580D02*
X113389047Y-180407200D01*
X113389047Y-180407200D02*
X113293809Y-180454819D01*
X113293809Y-180454819D02*
X113055714Y-180454819D01*
X113055714Y-180454819D02*
X112960476Y-180407200D01*
X112960476Y-180407200D02*
X112912857Y-180359580D01*
X108104819Y-71645238D02*
X107628628Y-71978571D01*
X108104819Y-72216666D02*
X107104819Y-72216666D01*
X107104819Y-72216666D02*
X107104819Y-71835714D01*
X107104819Y-71835714D02*
X107152438Y-71740476D01*
X107152438Y-71740476D02*
X107200057Y-71692857D01*
X107200057Y-71692857D02*
X107295295Y-71645238D01*
X107295295Y-71645238D02*
X107438152Y-71645238D01*
X107438152Y-71645238D02*
X107533390Y-71692857D01*
X107533390Y-71692857D02*
X107581009Y-71740476D01*
X107581009Y-71740476D02*
X107628628Y-71835714D01*
X107628628Y-71835714D02*
X107628628Y-72216666D01*
X107104819Y-71359523D02*
X108104819Y-71026190D01*
X108104819Y-71026190D02*
X107104819Y-70692857D01*
X107104819Y-70454761D02*
X107104819Y-69788095D01*
X107104819Y-69788095D02*
X108104819Y-70216666D01*
X158104819Y-71645238D02*
X157628628Y-71978571D01*
X158104819Y-72216666D02*
X157104819Y-72216666D01*
X157104819Y-72216666D02*
X157104819Y-71835714D01*
X157104819Y-71835714D02*
X157152438Y-71740476D01*
X157152438Y-71740476D02*
X157200057Y-71692857D01*
X157200057Y-71692857D02*
X157295295Y-71645238D01*
X157295295Y-71645238D02*
X157438152Y-71645238D01*
X157438152Y-71645238D02*
X157533390Y-71692857D01*
X157533390Y-71692857D02*
X157581009Y-71740476D01*
X157581009Y-71740476D02*
X157628628Y-71835714D01*
X157628628Y-71835714D02*
X157628628Y-72216666D01*
X157104819Y-71359523D02*
X158104819Y-71026190D01*
X158104819Y-71026190D02*
X157104819Y-70692857D01*
X158104819Y-70311904D02*
X158104819Y-70121428D01*
X158104819Y-70121428D02*
X158057200Y-70026190D01*
X158057200Y-70026190D02*
X158009580Y-69978571D01*
X158009580Y-69978571D02*
X157866723Y-69883333D01*
X157866723Y-69883333D02*
X157676247Y-69835714D01*
X157676247Y-69835714D02*
X157295295Y-69835714D01*
X157295295Y-69835714D02*
X157200057Y-69883333D01*
X157200057Y-69883333D02*
X157152438Y-69930952D01*
X157152438Y-69930952D02*
X157104819Y-70026190D01*
X157104819Y-70026190D02*
X157104819Y-70216666D01*
X157104819Y-70216666D02*
X157152438Y-70311904D01*
X157152438Y-70311904D02*
X157200057Y-70359523D01*
X157200057Y-70359523D02*
X157295295Y-70407142D01*
X157295295Y-70407142D02*
X157533390Y-70407142D01*
X157533390Y-70407142D02*
X157628628Y-70359523D01*
X157628628Y-70359523D02*
X157676247Y-70311904D01*
X157676247Y-70311904D02*
X157723866Y-70216666D01*
X157723866Y-70216666D02*
X157723866Y-70026190D01*
X157723866Y-70026190D02*
X157676247Y-69930952D01*
X157676247Y-69930952D02*
X157628628Y-69883333D01*
X157628628Y-69883333D02*
X157533390Y-69835714D01*
X156204819Y-132825238D02*
X155728628Y-133158571D01*
X156204819Y-133396666D02*
X155204819Y-133396666D01*
X155204819Y-133396666D02*
X155204819Y-133015714D01*
X155204819Y-133015714D02*
X155252438Y-132920476D01*
X155252438Y-132920476D02*
X155300057Y-132872857D01*
X155300057Y-132872857D02*
X155395295Y-132825238D01*
X155395295Y-132825238D02*
X155538152Y-132825238D01*
X155538152Y-132825238D02*
X155633390Y-132872857D01*
X155633390Y-132872857D02*
X155681009Y-132920476D01*
X155681009Y-132920476D02*
X155728628Y-133015714D01*
X155728628Y-133015714D02*
X155728628Y-133396666D01*
X155204819Y-132539523D02*
X156204819Y-132206190D01*
X156204819Y-132206190D02*
X155204819Y-131872857D01*
X155538152Y-131110952D02*
X156204819Y-131110952D01*
X155157200Y-131349047D02*
X155871485Y-131587142D01*
X155871485Y-131587142D02*
X155871485Y-130968095D01*
X81204819Y-132825238D02*
X80728628Y-133158571D01*
X81204819Y-133396666D02*
X80204819Y-133396666D01*
X80204819Y-133396666D02*
X80204819Y-133015714D01*
X80204819Y-133015714D02*
X80252438Y-132920476D01*
X80252438Y-132920476D02*
X80300057Y-132872857D01*
X80300057Y-132872857D02*
X80395295Y-132825238D01*
X80395295Y-132825238D02*
X80538152Y-132825238D01*
X80538152Y-132825238D02*
X80633390Y-132872857D01*
X80633390Y-132872857D02*
X80681009Y-132920476D01*
X80681009Y-132920476D02*
X80728628Y-133015714D01*
X80728628Y-133015714D02*
X80728628Y-133396666D01*
X80204819Y-132539523D02*
X81204819Y-132206190D01*
X81204819Y-132206190D02*
X80204819Y-131872857D01*
X81204819Y-131015714D02*
X81204819Y-131587142D01*
X81204819Y-131301428D02*
X80204819Y-131301428D01*
X80204819Y-131301428D02*
X80347676Y-131396666D01*
X80347676Y-131396666D02*
X80442914Y-131491904D01*
X80442914Y-131491904D02*
X80490533Y-131587142D01*
%TO.C,RV15*%
D11*
X145030000Y-33880000D02*
X145030000Y-37745000D01*
X145030000Y-42255000D02*
X145030000Y-46120000D01*
X146630000Y-33880000D02*
X145030000Y-33880000D01*
X149129000Y-33880000D02*
X148370000Y-33880000D01*
X151629000Y-33880000D02*
X150870000Y-33880000D01*
X154970000Y-33880000D02*
X153371000Y-33880000D01*
X154970000Y-33880000D02*
X154970000Y-37745000D01*
X154970000Y-42255000D02*
X154970000Y-46120000D01*
X154970000Y-46120000D02*
X145030000Y-46120000D01*
%TO.C,RV11*%
X95030000Y-49880000D02*
X95030000Y-53745000D01*
X95030000Y-58255000D02*
X95030000Y-62120000D01*
X96630000Y-49880000D02*
X95030000Y-49880000D01*
X99129000Y-49880000D02*
X98370000Y-49880000D01*
X101629000Y-49880000D02*
X100870000Y-49880000D01*
X104970000Y-49880000D02*
X103371000Y-49880000D01*
X104970000Y-49880000D02*
X104970000Y-53745000D01*
X104970000Y-58255000D02*
X104970000Y-62120000D01*
X104970000Y-62120000D02*
X95030000Y-62120000D01*
%TO.C,SW4*%
X142935000Y-83015000D02*
X156905000Y-83015000D01*
X142935000Y-96985000D02*
X142935000Y-83015000D01*
X156905000Y-83015000D02*
X156905000Y-96985000D01*
X156905000Y-96985000D02*
X142935000Y-96985000D01*
%TO.C,RV22*%
X168030000Y-139830000D02*
X168030000Y-143695000D01*
X168030000Y-148205000D02*
X168030000Y-152070000D01*
X169630000Y-139830000D02*
X168030000Y-139830000D01*
X172129000Y-139830000D02*
X171370000Y-139830000D01*
X174629000Y-139830000D02*
X173870000Y-139830000D01*
X177970000Y-139830000D02*
X176371000Y-139830000D01*
X177970000Y-139830000D02*
X177970000Y-143695000D01*
X177970000Y-148205000D02*
X177970000Y-152070000D01*
X177970000Y-152070000D02*
X168030000Y-152070000D01*
%TO.C,RV24*%
X168030000Y-159830000D02*
X168030000Y-163695000D01*
X168030000Y-168205000D02*
X168030000Y-172070000D01*
X169630000Y-159830000D02*
X168030000Y-159830000D01*
X172129000Y-159830000D02*
X171370000Y-159830000D01*
X174629000Y-159830000D02*
X173870000Y-159830000D01*
X177970000Y-159830000D02*
X176371000Y-159830000D01*
X177970000Y-159830000D02*
X177970000Y-163695000D01*
X177970000Y-168205000D02*
X177970000Y-172070000D01*
X177970000Y-172070000D02*
X168030000Y-172070000D01*
%TO.C,C2*%
X180265000Y-84738748D02*
X180265000Y-85261252D01*
X181735000Y-84738748D02*
X181735000Y-85261252D01*
%TO.C,RV17*%
X120030000Y-33880000D02*
X120030000Y-37745000D01*
X120030000Y-42255000D02*
X120030000Y-46120000D01*
X121630000Y-33880000D02*
X120030000Y-33880000D01*
X124129000Y-33880000D02*
X123370000Y-33880000D01*
X126629000Y-33880000D02*
X125870000Y-33880000D01*
X129970000Y-33880000D02*
X128371000Y-33880000D01*
X129970000Y-33880000D02*
X129970000Y-37745000D01*
X129970000Y-42255000D02*
X129970000Y-46120000D01*
X129970000Y-46120000D02*
X120030000Y-46120000D01*
%TO.C,RV13*%
X145030000Y-49880000D02*
X145030000Y-53745000D01*
X145030000Y-58255000D02*
X145030000Y-62120000D01*
X146630000Y-49880000D02*
X145030000Y-49880000D01*
X149129000Y-49880000D02*
X148370000Y-49880000D01*
X151629000Y-49880000D02*
X150870000Y-49880000D01*
X154970000Y-49880000D02*
X153371000Y-49880000D01*
X154970000Y-49880000D02*
X154970000Y-53745000D01*
X154970000Y-58255000D02*
X154970000Y-62120000D01*
X154970000Y-62120000D02*
X145030000Y-62120000D01*
%TO.C,RV23*%
X168030000Y-120830000D02*
X168030000Y-124695000D01*
X168030000Y-129205000D02*
X168030000Y-133070000D01*
X169630000Y-120830000D02*
X168030000Y-120830000D01*
X172129000Y-120830000D02*
X171370000Y-120830000D01*
X174629000Y-120830000D02*
X173870000Y-120830000D01*
X177970000Y-120830000D02*
X176371000Y-120830000D01*
X177970000Y-120830000D02*
X177970000Y-124695000D01*
X177970000Y-129205000D02*
X177970000Y-133070000D01*
X177970000Y-133070000D02*
X168030000Y-133070000D01*
%TO.C,U1*%
X169140000Y-78205000D02*
X176860000Y-78205000D01*
X169140000Y-78470000D02*
X169140000Y-78205000D01*
X169140000Y-93825000D02*
X169140000Y-93560000D01*
X176860000Y-78205000D02*
X176860000Y-78470000D01*
X176860000Y-93560000D02*
X176860000Y-93825000D01*
X176860000Y-93825000D02*
X169140000Y-93825000D01*
X177990000Y-94035000D02*
X177310000Y-94035000D01*
X177650000Y-93565000D01*
X177990000Y-94035000D01*
G36*
X177990000Y-94035000D02*
G01*
X177310000Y-94035000D01*
X177650000Y-93565000D01*
X177990000Y-94035000D01*
G37*
%TO.C,RV18*%
X70030000Y-12830000D02*
X70030000Y-16695000D01*
X70030000Y-21205000D02*
X70030000Y-25070000D01*
X71630000Y-12830000D02*
X70030000Y-12830000D01*
X74129000Y-12830000D02*
X73370000Y-12830000D01*
X76629000Y-12830000D02*
X75870000Y-12830000D01*
X79970000Y-12830000D02*
X78371000Y-12830000D01*
X79970000Y-12830000D02*
X79970000Y-16695000D01*
X79970000Y-21205000D02*
X79970000Y-25070000D01*
X79970000Y-25070000D02*
X70030000Y-25070000D01*
%TO.C,RV6*%
X70030000Y-65880000D02*
X70030000Y-69745000D01*
X70030000Y-74255000D02*
X70030000Y-78120000D01*
X71630000Y-65880000D02*
X70030000Y-65880000D01*
X74129000Y-65880000D02*
X73370000Y-65880000D01*
X76629000Y-65880000D02*
X75870000Y-65880000D01*
X79970000Y-65880000D02*
X78371000Y-65880000D01*
X79970000Y-65880000D02*
X79970000Y-69745000D01*
X79970000Y-74255000D02*
X79970000Y-78120000D01*
X79970000Y-78120000D02*
X70030000Y-78120000D01*
%TO.C,RV16*%
X95030000Y-33880000D02*
X95030000Y-37745000D01*
X95030000Y-42255000D02*
X95030000Y-46120000D01*
X96630000Y-33880000D02*
X95030000Y-33880000D01*
X99129000Y-33880000D02*
X98370000Y-33880000D01*
X101629000Y-33880000D02*
X100870000Y-33880000D01*
X104970000Y-33880000D02*
X103371000Y-33880000D01*
X104970000Y-33880000D02*
X104970000Y-37745000D01*
X104970000Y-42255000D02*
X104970000Y-46120000D01*
X104970000Y-46120000D02*
X95030000Y-46120000D01*
%TO.C,RV12*%
X120030000Y-49880000D02*
X120030000Y-53745000D01*
X120030000Y-58255000D02*
X120030000Y-62120000D01*
X121630000Y-49880000D02*
X120030000Y-49880000D01*
X124129000Y-49880000D02*
X123370000Y-49880000D01*
X126629000Y-49880000D02*
X125870000Y-49880000D01*
X129970000Y-49880000D02*
X128371000Y-49880000D01*
X129970000Y-49880000D02*
X129970000Y-53745000D01*
X129970000Y-58255000D02*
X129970000Y-62120000D01*
X129970000Y-62120000D02*
X120030000Y-62120000D01*
%TO.C,SW2*%
X93015000Y-83015000D02*
X106985000Y-83015000D01*
X93015000Y-96985000D02*
X93015000Y-83015000D01*
X106985000Y-83015000D02*
X106985000Y-96985000D01*
X106985000Y-96985000D02*
X93015000Y-96985000D01*
%TO.C,RV2*%
X95380000Y-102110000D02*
X95380000Y-105495000D01*
X95380000Y-108766000D02*
X95380000Y-155695000D01*
X95380000Y-158966000D02*
X95380000Y-162350000D01*
X97427000Y-102110000D02*
X95380000Y-102110000D01*
X100000000Y-109730000D02*
X99250000Y-110480000D01*
X100000000Y-109730000D02*
X100000000Y-154730000D01*
X100000000Y-154730000D02*
X99250000Y-153980000D01*
X100575000Y-102110000D02*
X99072000Y-102110000D01*
X100750000Y-110480000D02*
X100000000Y-109730000D01*
X100750000Y-153980000D02*
X100000000Y-154730000D01*
X100927000Y-162350000D02*
X95380000Y-162350000D01*
X101250000Y-101305000D02*
X101750000Y-101805000D01*
X101500000Y-109730000D02*
X98500000Y-109730000D01*
X101500000Y-154730000D02*
X98500000Y-154730000D01*
X101750000Y-101805000D02*
X102250000Y-101305000D01*
X102250000Y-101305000D02*
X101250000Y-101305000D01*
X104620000Y-102110000D02*
X102925000Y-102110000D01*
X104620000Y-102110000D02*
X104620000Y-106695000D01*
X104620000Y-109966000D02*
X104620000Y-154495000D01*
X104620000Y-157766000D02*
X104620000Y-162350000D01*
X104620000Y-162350000D02*
X102573000Y-162350000D01*
%TO.C,RV10*%
X70030000Y-49880000D02*
X70030000Y-53745000D01*
X70030000Y-58255000D02*
X70030000Y-62120000D01*
X71630000Y-49880000D02*
X70030000Y-49880000D01*
X74129000Y-49880000D02*
X73370000Y-49880000D01*
X76629000Y-49880000D02*
X75870000Y-49880000D01*
X79970000Y-49880000D02*
X78371000Y-49880000D01*
X79970000Y-49880000D02*
X79970000Y-53745000D01*
X79970000Y-58255000D02*
X79970000Y-62120000D01*
X79970000Y-62120000D02*
X70030000Y-62120000D01*
%TO.C,SW1*%
X68015000Y-83015000D02*
X81985000Y-83015000D01*
X68015000Y-96985000D02*
X68015000Y-83015000D01*
X81985000Y-83015000D02*
X81985000Y-96985000D01*
X81985000Y-96985000D02*
X68015000Y-96985000D01*
%TO.C,RV21*%
X145030000Y-12830000D02*
X145030000Y-16695000D01*
X145030000Y-21205000D02*
X145030000Y-25070000D01*
X146630000Y-12830000D02*
X145030000Y-12830000D01*
X149129000Y-12830000D02*
X148370000Y-12830000D01*
X151629000Y-12830000D02*
X150870000Y-12830000D01*
X154970000Y-12830000D02*
X153371000Y-12830000D01*
X154970000Y-12830000D02*
X154970000Y-16695000D01*
X154970000Y-21205000D02*
X154970000Y-25070000D01*
X154970000Y-25070000D02*
X145030000Y-25070000D01*
%TO.C,A1*%
X162000000Y-13040000D02*
X161520000Y-13040000D01*
X162000000Y-13040000D02*
X162000000Y-13460000D01*
X162000000Y-15580000D02*
X162000000Y-16000000D01*
X162000000Y-18120000D02*
X162000000Y-18540000D01*
X162000000Y-20660000D02*
X162000000Y-21080000D01*
X162000000Y-23200000D02*
X162000000Y-23620000D01*
X162000000Y-25740000D02*
X162000000Y-26160000D01*
X162000000Y-28280000D02*
X162000000Y-28700000D01*
X162000000Y-30820000D02*
X162000000Y-31240000D01*
X162000000Y-33360000D02*
X162000000Y-33780000D01*
X162000000Y-35900000D02*
X162000000Y-36320000D01*
X162000000Y-38440000D02*
X162000000Y-38860000D01*
X162000000Y-40980000D02*
X162000000Y-41400000D01*
X162000000Y-43520000D02*
X162000000Y-43940000D01*
X162000000Y-46060000D02*
X162000000Y-46480000D01*
X162000000Y-48600000D02*
X162000000Y-49020000D01*
X162000000Y-51140000D02*
X162000000Y-51560000D01*
X162000000Y-53680000D02*
X162000000Y-54100000D01*
X162000000Y-56220000D02*
X162000000Y-56640000D01*
X162000000Y-58760000D02*
X162000000Y-59180000D01*
X162030324Y-10920000D02*
X161520000Y-10920000D01*
X162340000Y-10920063D02*
X162340000Y-10563000D01*
X162340000Y-13040000D02*
X162340000Y-13460000D01*
X162340000Y-15580000D02*
X162340000Y-16000000D01*
X162340000Y-18120000D02*
X162340000Y-18540000D01*
X162340000Y-20660000D02*
X162340000Y-21080000D01*
X162340000Y-23200000D02*
X162340000Y-23620000D01*
X162340000Y-25740000D02*
X162340000Y-26160000D01*
X162340000Y-28280000D02*
X162340000Y-28700000D01*
X162340000Y-30820000D02*
X162340000Y-31240000D01*
X162340000Y-33360000D02*
X162340000Y-33780000D01*
X162340000Y-35900000D02*
X162340000Y-36320000D01*
X162340000Y-38440000D02*
X162340000Y-38860000D01*
X162340000Y-40980000D02*
X162340000Y-41400000D01*
X162340000Y-43520000D02*
X162340000Y-43940000D01*
X162340000Y-46060000D02*
X162340000Y-46480000D01*
X162340000Y-48600000D02*
X162340000Y-49020000D01*
X162340000Y-51140000D02*
X162340000Y-51560000D01*
X162340000Y-53680000D02*
X162340000Y-54100000D01*
X162340000Y-56220000D02*
X162340000Y-56640000D01*
X162340000Y-58760000D02*
X162340000Y-59180000D01*
X162340000Y-61299937D02*
X162340000Y-61657000D01*
X162610000Y-10500000D02*
X165100000Y-10500000D01*
X162610000Y-61720000D02*
X166447939Y-61720000D01*
X165100000Y-10500000D02*
X165100000Y-11413520D01*
X165100000Y-10500000D02*
X166447940Y-10500000D01*
X165100000Y-13806480D02*
X165100000Y-58413520D01*
X165100000Y-60806480D02*
X165100000Y-61720000D01*
X167372061Y-10500000D02*
X168375000Y-10500000D01*
X168375000Y-10500000D02*
X176845000Y-10500000D01*
X168710000Y-10500000D02*
X168710000Y-11416000D01*
X168710000Y-13804000D02*
X168710000Y-15020000D01*
X168710000Y-15020000D02*
X169006090Y-15020000D01*
X169010000Y-61720000D02*
X167372061Y-61720000D01*
X171363910Y-15020000D02*
X173856090Y-15020000D01*
X176210000Y-61720000D02*
X169010000Y-61720000D01*
X176213910Y-15020000D02*
X176510000Y-15020000D01*
X176510000Y-10500000D02*
X176510000Y-11416000D01*
X176510000Y-13804000D02*
X176510000Y-15020000D01*
X176845000Y-10500000D02*
X177847939Y-10500000D01*
X177847939Y-61720000D02*
X176210000Y-61720000D01*
X178772061Y-10500000D02*
X180120000Y-10500000D01*
X178772061Y-61720000D02*
X182610000Y-61720000D01*
X180120000Y-10500000D02*
X180120000Y-11413520D01*
X180120000Y-13806480D02*
X180120000Y-58413520D01*
X180120000Y-60806480D02*
X180120000Y-61720000D01*
X182610000Y-10500000D02*
X180120000Y-10500000D01*
X182880000Y-10920063D02*
X182880000Y-10563000D01*
X182880000Y-13040000D02*
X182880000Y-13460000D01*
X182880000Y-15580000D02*
X182880000Y-16000000D01*
X182880000Y-18120000D02*
X182880000Y-18540000D01*
X182880000Y-20660000D02*
X182880000Y-21080000D01*
X182880000Y-23200000D02*
X182880000Y-23620000D01*
X182880000Y-25740000D02*
X182880000Y-26160000D01*
X182880000Y-28280000D02*
X182880000Y-28700000D01*
X182880000Y-30820000D02*
X182880000Y-31240000D01*
X182880000Y-33360000D02*
X182880000Y-33780000D01*
X182880000Y-35900000D02*
X182880000Y-36320000D01*
X182880000Y-38440000D02*
X182880000Y-38860000D01*
X182880000Y-40980000D02*
X182880000Y-41400000D01*
X182880000Y-43520000D02*
X182880000Y-43940000D01*
X182880000Y-46060000D02*
X182880000Y-46480000D01*
X182880000Y-48600000D02*
X182880000Y-49020000D01*
X182880000Y-51140000D02*
X182880000Y-51560000D01*
X182880000Y-53680000D02*
X182880000Y-54100000D01*
X182880000Y-56220000D02*
X182880000Y-56640000D01*
X182880000Y-58760000D02*
X182880000Y-59180000D01*
X182880000Y-61299937D02*
X182880000Y-61657000D01*
X183220000Y-13040000D02*
X183220000Y-13460000D01*
X183220000Y-15580000D02*
X183220000Y-16000000D01*
X183220000Y-18120000D02*
X183220000Y-18540000D01*
X183220000Y-20660000D02*
X183220000Y-21080000D01*
X183220000Y-23200000D02*
X183220000Y-23620000D01*
X183220000Y-25740000D02*
X183220000Y-26160000D01*
X183220000Y-28280000D02*
X183220000Y-28700000D01*
X183220000Y-30820000D02*
X183220000Y-31240000D01*
X183220000Y-33360000D02*
X183220000Y-33780000D01*
X183220000Y-35900000D02*
X183220000Y-36320000D01*
X183220000Y-38440000D02*
X183220000Y-38860000D01*
X183220000Y-40980000D02*
X183220000Y-41400000D01*
X183220000Y-43520000D02*
X183220000Y-43940000D01*
X183220000Y-46060000D02*
X183220000Y-46480000D01*
X183220000Y-48600000D02*
X183220000Y-49020000D01*
X183220000Y-51140000D02*
X183220000Y-51560000D01*
X183220000Y-53680000D02*
X183220000Y-54100000D01*
X183220000Y-56220000D02*
X183220000Y-56640000D01*
X183220000Y-58760000D02*
X183220000Y-59180000D01*
X162030324Y-10920000D02*
G75*
G02*
X162610000Y-10500000I579692J-190051D01*
G01*
X162610000Y-61720000D02*
G75*
G02*
X162030324Y-61299937I1J610002D01*
G01*
X182610000Y-10500000D02*
G75*
G02*
X183189676Y-10920063I0J-610000D01*
G01*
X183189676Y-61299937D02*
G75*
G02*
X182610000Y-61720069I-579676J189837D01*
G01*
%TO.C,RV14*%
X70030000Y-33880000D02*
X70030000Y-37745000D01*
X70030000Y-42255000D02*
X70030000Y-46120000D01*
X71630000Y-33880000D02*
X70030000Y-33880000D01*
X74129000Y-33880000D02*
X73370000Y-33880000D01*
X76629000Y-33880000D02*
X75870000Y-33880000D01*
X79970000Y-33880000D02*
X78371000Y-33880000D01*
X79970000Y-33880000D02*
X79970000Y-37745000D01*
X79970000Y-42255000D02*
X79970000Y-46120000D01*
X79970000Y-46120000D02*
X70030000Y-46120000D01*
%TO.C,SW3*%
X118015000Y-83015000D02*
X131985000Y-83015000D01*
X118015000Y-96985000D02*
X118015000Y-83015000D01*
X131985000Y-83015000D02*
X131985000Y-96985000D01*
X131985000Y-96985000D02*
X118015000Y-96985000D01*
%TO.C,U2*%
X169140000Y-97190000D02*
X176860000Y-97190000D01*
X169140000Y-97455000D02*
X169140000Y-97190000D01*
X169140000Y-112810000D02*
X169140000Y-112545000D01*
X176860000Y-97190000D02*
X176860000Y-97455000D01*
X176860000Y-112545000D02*
X176860000Y-112810000D01*
X176860000Y-112810000D02*
X169140000Y-112810000D01*
X168350000Y-97450000D02*
X168010000Y-96980000D01*
X168690000Y-96980000D01*
X168350000Y-97450000D01*
G36*
X168350000Y-97450000D02*
G01*
X168010000Y-96980000D01*
X168690000Y-96980000D01*
X168350000Y-97450000D01*
G37*
%TO.C,C3*%
X180265000Y-103738748D02*
X180265000Y-104261252D01*
X181735000Y-103738748D02*
X181735000Y-104261252D01*
%TO.C,RV8*%
X120030000Y-65880000D02*
X120030000Y-69745000D01*
X120030000Y-74255000D02*
X120030000Y-78120000D01*
X121630000Y-65880000D02*
X120030000Y-65880000D01*
X124129000Y-65880000D02*
X123370000Y-65880000D01*
X126629000Y-65880000D02*
X125870000Y-65880000D01*
X129970000Y-65880000D02*
X128371000Y-65880000D01*
X129970000Y-65880000D02*
X129970000Y-69745000D01*
X129970000Y-74255000D02*
X129970000Y-78120000D01*
X129970000Y-78120000D02*
X120030000Y-78120000D01*
%TO.C,RV19*%
X95030000Y-12830000D02*
X95030000Y-16695000D01*
X95030000Y-21205000D02*
X95030000Y-25070000D01*
X96630000Y-12830000D02*
X95030000Y-12830000D01*
X99129000Y-12830000D02*
X98370000Y-12830000D01*
X101629000Y-12830000D02*
X100870000Y-12830000D01*
X104970000Y-12830000D02*
X103371000Y-12830000D01*
X104970000Y-12830000D02*
X104970000Y-16695000D01*
X104970000Y-21205000D02*
X104970000Y-25070000D01*
X104970000Y-25070000D02*
X95030000Y-25070000D01*
%TO.C,J1*%
X168080000Y-75000000D02*
X168080000Y-76380000D01*
X169460000Y-76380000D02*
X168080000Y-76380000D01*
X167270000Y-73500000D02*
X179270000Y-73500000D01*
X179270000Y-111500000D01*
X167270000Y-111500000D01*
X167270000Y-73500000D01*
%TO.C,RV3*%
X120380000Y-102110000D02*
X120380000Y-105495000D01*
X120380000Y-108766000D02*
X120380000Y-155695000D01*
X120380000Y-158966000D02*
X120380000Y-162350000D01*
X122427000Y-102110000D02*
X120380000Y-102110000D01*
X125000000Y-109730000D02*
X124250000Y-110480000D01*
X125000000Y-109730000D02*
X125000000Y-154730000D01*
X125000000Y-154730000D02*
X124250000Y-153980000D01*
X125575000Y-102110000D02*
X124072000Y-102110000D01*
X125750000Y-110480000D02*
X125000000Y-109730000D01*
X125750000Y-153980000D02*
X125000000Y-154730000D01*
X125927000Y-162350000D02*
X120380000Y-162350000D01*
X126250000Y-101305000D02*
X126750000Y-101805000D01*
X126500000Y-109730000D02*
X123500000Y-109730000D01*
X126500000Y-154730000D02*
X123500000Y-154730000D01*
X126750000Y-101805000D02*
X127250000Y-101305000D01*
X127250000Y-101305000D02*
X126250000Y-101305000D01*
X129620000Y-102110000D02*
X127925000Y-102110000D01*
X129620000Y-102110000D02*
X129620000Y-106695000D01*
X129620000Y-109966000D02*
X129620000Y-154495000D01*
X129620000Y-157766000D02*
X129620000Y-162350000D01*
X129620000Y-162350000D02*
X127573000Y-162350000D01*
%TO.C,RV20*%
X120030000Y-12830000D02*
X120030000Y-16695000D01*
X120030000Y-21205000D02*
X120030000Y-25070000D01*
X121630000Y-12830000D02*
X120030000Y-12830000D01*
X124129000Y-12830000D02*
X123370000Y-12830000D01*
X126629000Y-12830000D02*
X125870000Y-12830000D01*
X129970000Y-12830000D02*
X128371000Y-12830000D01*
X129970000Y-12830000D02*
X129970000Y-16695000D01*
X129970000Y-21205000D02*
X129970000Y-25070000D01*
X129970000Y-25070000D02*
X120030000Y-25070000D01*
%TO.C,RV5*%
X82150000Y-175177000D02*
X82150000Y-169630000D01*
X82150000Y-178870000D02*
X82150000Y-176823000D01*
X85534000Y-169630000D02*
X82150000Y-169630000D01*
X86734000Y-178870000D02*
X82150000Y-178870000D01*
X89770000Y-174250000D02*
X90520000Y-173500000D01*
X89770000Y-175750000D02*
X89770000Y-172750000D01*
X90520000Y-175000000D02*
X89770000Y-174250000D01*
X134020000Y-175000000D02*
X134770000Y-174250000D01*
X134534000Y-178870000D02*
X90005000Y-178870000D01*
X134770000Y-174250000D02*
X89770000Y-174250000D01*
X134770000Y-174250000D02*
X134020000Y-173500000D01*
X134770000Y-175750000D02*
X134770000Y-172750000D01*
X135734000Y-169630000D02*
X88805000Y-169630000D01*
X142390000Y-169630000D02*
X139005000Y-169630000D01*
X142390000Y-171677000D02*
X142390000Y-169630000D01*
X142390000Y-174825000D02*
X142390000Y-173322000D01*
X142390000Y-178870000D02*
X137805000Y-178870000D01*
X142390000Y-178870000D02*
X142390000Y-177175000D01*
X142695000Y-176000000D02*
X143195000Y-176500000D01*
X143195000Y-175500000D02*
X142695000Y-176000000D01*
X143195000Y-176500000D02*
X143195000Y-175500000D01*
%TO.C,RV7*%
X95030000Y-65880000D02*
X95030000Y-69745000D01*
X95030000Y-74255000D02*
X95030000Y-78120000D01*
X96630000Y-65880000D02*
X95030000Y-65880000D01*
X99129000Y-65880000D02*
X98370000Y-65880000D01*
X101629000Y-65880000D02*
X100870000Y-65880000D01*
X104970000Y-65880000D02*
X103371000Y-65880000D01*
X104970000Y-65880000D02*
X104970000Y-69745000D01*
X104970000Y-74255000D02*
X104970000Y-78120000D01*
X104970000Y-78120000D02*
X95030000Y-78120000D01*
%TO.C,RV9*%
X145030000Y-65880000D02*
X145030000Y-69745000D01*
X145030000Y-74255000D02*
X145030000Y-78120000D01*
X146630000Y-65880000D02*
X145030000Y-65880000D01*
X149129000Y-65880000D02*
X148370000Y-65880000D01*
X151629000Y-65880000D02*
X150870000Y-65880000D01*
X154970000Y-65880000D02*
X153371000Y-65880000D01*
X154970000Y-65880000D02*
X154970000Y-69745000D01*
X154970000Y-74255000D02*
X154970000Y-78120000D01*
X154970000Y-78120000D02*
X145030000Y-78120000D01*
%TO.C,RV4*%
X145380000Y-102110000D02*
X145380000Y-105495000D01*
X145380000Y-108766000D02*
X145380000Y-155695000D01*
X145380000Y-158966000D02*
X145380000Y-162350000D01*
X147427000Y-102110000D02*
X145380000Y-102110000D01*
X150000000Y-109730000D02*
X149250000Y-110480000D01*
X150000000Y-109730000D02*
X150000000Y-154730000D01*
X150000000Y-154730000D02*
X149250000Y-153980000D01*
X150575000Y-102110000D02*
X149072000Y-102110000D01*
X150750000Y-110480000D02*
X150000000Y-109730000D01*
X150750000Y-153980000D02*
X150000000Y-154730000D01*
X150927000Y-162350000D02*
X145380000Y-162350000D01*
X151250000Y-101305000D02*
X151750000Y-101805000D01*
X151500000Y-109730000D02*
X148500000Y-109730000D01*
X151500000Y-154730000D02*
X148500000Y-154730000D01*
X151750000Y-101805000D02*
X152250000Y-101305000D01*
X152250000Y-101305000D02*
X151250000Y-101305000D01*
X154620000Y-102110000D02*
X152925000Y-102110000D01*
X154620000Y-102110000D02*
X154620000Y-106695000D01*
X154620000Y-109966000D02*
X154620000Y-154495000D01*
X154620000Y-157766000D02*
X154620000Y-162350000D01*
X154620000Y-162350000D02*
X152573000Y-162350000D01*
%TO.C,RV1*%
X70380000Y-102110000D02*
X70380000Y-105495000D01*
X70380000Y-108766000D02*
X70380000Y-155695000D01*
X70380000Y-158966000D02*
X70380000Y-162350000D01*
X72427000Y-102110000D02*
X70380000Y-102110000D01*
X75000000Y-109730000D02*
X74250000Y-110480000D01*
X75000000Y-109730000D02*
X75000000Y-154730000D01*
X75000000Y-154730000D02*
X74250000Y-153980000D01*
X75575000Y-102110000D02*
X74072000Y-102110000D01*
X75750000Y-110480000D02*
X75000000Y-109730000D01*
X75750000Y-153980000D02*
X75000000Y-154730000D01*
X75927000Y-162350000D02*
X70380000Y-162350000D01*
X76250000Y-101305000D02*
X76750000Y-101805000D01*
X76500000Y-109730000D02*
X73500000Y-109730000D01*
X76500000Y-154730000D02*
X73500000Y-154730000D01*
X76750000Y-101805000D02*
X77250000Y-101305000D01*
X77250000Y-101305000D02*
X76250000Y-101305000D01*
X79620000Y-102110000D02*
X77925000Y-102110000D01*
X79620000Y-102110000D02*
X79620000Y-106695000D01*
X79620000Y-109966000D02*
X79620000Y-154495000D01*
X79620000Y-157766000D02*
X79620000Y-162350000D01*
X79620000Y-162350000D02*
X77573000Y-162350000D01*
%TD*%
M02*
