%TF.GenerationSoftware,KiCad,Pcbnew,10.0.0*%
%TF.CreationDate,2026-03-31T22:59:32+07:00*%
%TF.ProjectId,mixer module,6d697865-7220-46d6-9f64-756c652e6b69,rev?*%
%TF.SameCoordinates,Original*%
%TF.FileFunction,Paste,Top*%
%TF.FilePolarity,Positive*%
%FSLAX46Y46*%
G04 Gerber Fmt 4.6, Leading zero omitted, Abs format (unit mm)*
G04 Created by KiCad (PCBNEW 10.0.0) date 2026-03-31 22:59:32*
%MOMM*%
%LPD*%
G01*
G04 APERTURE LIST*
G04 Aperture macros list*
%AMRoundRect*
0 Rectangle with rounded corners*
0 $1 Rounding radius*
0 $2 $3 $4 $5 $6 $7 $8 $9 X,Y pos of 4 corners*
0 Add a 4 corners polygon primitive as box body*
4,1,4,$2,$3,$4,$5,$6,$7,$8,$9,$2,$3,0*
0 Add four circle primitives for the rounded corners*
1,1,$1+$1,$2,$3*
1,1,$1+$1,$4,$5*
1,1,$1+$1,$6,$7*
1,1,$1+$1,$8,$9*
0 Add four rect primitives between the rounded corners*
20,1,$1+$1,$2,$3,$4,$5,0*
20,1,$1+$1,$4,$5,$6,$7,0*
20,1,$1+$1,$6,$7,$8,$9,0*
20,1,$1+$1,$8,$9,$2,$3,0*%
G04 Aperture macros list end*
%ADD10RoundRect,0.250000X-0.475000X0.337500X-0.475000X-0.337500X0.475000X-0.337500X0.475000X0.337500X0*%
%ADD11RoundRect,0.150000X0.875000X0.150000X-0.875000X0.150000X-0.875000X-0.150000X0.875000X-0.150000X0*%
%ADD12RoundRect,0.150000X-0.875000X-0.150000X0.875000X-0.150000X0.875000X0.150000X-0.875000X0.150000X0*%
G04 APERTURE END LIST*
D10*
%TO.C,C2*%
X181000000Y-83962500D03*
X181000000Y-86037500D03*
%TD*%
D11*
%TO.C,U1*%
X177650000Y-93000000D03*
X177650000Y-91730000D03*
X177650000Y-90460000D03*
X177650000Y-89190000D03*
X177650000Y-87920000D03*
X177650000Y-86650000D03*
X177650000Y-85380000D03*
X177650000Y-84110000D03*
X177650000Y-82840000D03*
X177650000Y-81570000D03*
X177650000Y-80300000D03*
X177650000Y-79030000D03*
X168350000Y-79030000D03*
X168350000Y-80300000D03*
X168350000Y-81570000D03*
X168350000Y-82840000D03*
X168350000Y-84110000D03*
X168350000Y-85380000D03*
X168350000Y-86650000D03*
X168350000Y-87920000D03*
X168350000Y-89190000D03*
X168350000Y-90460000D03*
X168350000Y-91730000D03*
X168350000Y-93000000D03*
%TD*%
D12*
%TO.C,U2*%
X168350000Y-98015000D03*
X168350000Y-99285000D03*
X168350000Y-100555000D03*
X168350000Y-101825000D03*
X168350000Y-103095000D03*
X168350000Y-104365000D03*
X168350000Y-105635000D03*
X168350000Y-106905000D03*
X168350000Y-108175000D03*
X168350000Y-109445000D03*
X168350000Y-110715000D03*
X168350000Y-111985000D03*
X177650000Y-111985000D03*
X177650000Y-110715000D03*
X177650000Y-109445000D03*
X177650000Y-108175000D03*
X177650000Y-106905000D03*
X177650000Y-105635000D03*
X177650000Y-104365000D03*
X177650000Y-103095000D03*
X177650000Y-101825000D03*
X177650000Y-100555000D03*
X177650000Y-99285000D03*
X177650000Y-98015000D03*
%TD*%
D10*
%TO.C,C3*%
X181000000Y-102962500D03*
X181000000Y-105037500D03*
%TD*%
M02*
