%TF.GenerationSoftware,KiCad,Pcbnew,10.0.0*%
%TF.CreationDate,2026-03-31T22:34:40+07:00*%
%TF.ProjectId,deck module,6465636b-206d-46f6-9475-6c652e6b6963,rev?*%
%TF.SameCoordinates,Original*%
%TF.FileFunction,Legend,Top*%
%TF.FilePolarity,Positive*%
%FSLAX46Y46*%
G04 Gerber Fmt 4.6, Leading zero omitted, Abs format (unit mm)*
G04 Created by KiCad (PCBNEW 10.0.0) date 2026-03-31 22:34:40*
%MOMM*%
%LPD*%
G01*
G04 APERTURE LIST*
%ADD10C,0.150000*%
%ADD11C,0.120000*%
G04 APERTURE END LIST*
D10*
X158110476Y-57533200D02*
X158253333Y-57580819D01*
X158253333Y-57580819D02*
X158491428Y-57580819D01*
X158491428Y-57580819D02*
X158586666Y-57533200D01*
X158586666Y-57533200D02*
X158634285Y-57485580D01*
X158634285Y-57485580D02*
X158681904Y-57390342D01*
X158681904Y-57390342D02*
X158681904Y-57295104D01*
X158681904Y-57295104D02*
X158634285Y-57199866D01*
X158634285Y-57199866D02*
X158586666Y-57152247D01*
X158586666Y-57152247D02*
X158491428Y-57104628D01*
X158491428Y-57104628D02*
X158300952Y-57057009D01*
X158300952Y-57057009D02*
X158205714Y-57009390D01*
X158205714Y-57009390D02*
X158158095Y-56961771D01*
X158158095Y-56961771D02*
X158110476Y-56866533D01*
X158110476Y-56866533D02*
X158110476Y-56771295D01*
X158110476Y-56771295D02*
X158158095Y-56676057D01*
X158158095Y-56676057D02*
X158205714Y-56628438D01*
X158205714Y-56628438D02*
X158300952Y-56580819D01*
X158300952Y-56580819D02*
X158539047Y-56580819D01*
X158539047Y-56580819D02*
X158681904Y-56628438D01*
X159015238Y-56580819D02*
X159253333Y-57580819D01*
X159253333Y-57580819D02*
X159443809Y-56866533D01*
X159443809Y-56866533D02*
X159634285Y-57580819D01*
X159634285Y-57580819D02*
X159872381Y-56580819D01*
X160777142Y-57580819D02*
X160205714Y-57580819D01*
X160491428Y-57580819D02*
X160491428Y-56580819D01*
X160491428Y-56580819D02*
X160396190Y-56723676D01*
X160396190Y-56723676D02*
X160300952Y-56818914D01*
X160300952Y-56818914D02*
X160205714Y-56866533D01*
X161681904Y-56580819D02*
X161205714Y-56580819D01*
X161205714Y-56580819D02*
X161158095Y-57057009D01*
X161158095Y-57057009D02*
X161205714Y-57009390D01*
X161205714Y-57009390D02*
X161300952Y-56961771D01*
X161300952Y-56961771D02*
X161539047Y-56961771D01*
X161539047Y-56961771D02*
X161634285Y-57009390D01*
X161634285Y-57009390D02*
X161681904Y-57057009D01*
X161681904Y-57057009D02*
X161729523Y-57152247D01*
X161729523Y-57152247D02*
X161729523Y-57390342D01*
X161729523Y-57390342D02*
X161681904Y-57485580D01*
X161681904Y-57485580D02*
X161634285Y-57533200D01*
X161634285Y-57533200D02*
X161539047Y-57580819D01*
X161539047Y-57580819D02*
X161300952Y-57580819D01*
X161300952Y-57580819D02*
X161205714Y-57533200D01*
X161205714Y-57533200D02*
X161158095Y-57485580D01*
X133110476Y-107533200D02*
X133253333Y-107580819D01*
X133253333Y-107580819D02*
X133491428Y-107580819D01*
X133491428Y-107580819D02*
X133586666Y-107533200D01*
X133586666Y-107533200D02*
X133634285Y-107485580D01*
X133634285Y-107485580D02*
X133681904Y-107390342D01*
X133681904Y-107390342D02*
X133681904Y-107295104D01*
X133681904Y-107295104D02*
X133634285Y-107199866D01*
X133634285Y-107199866D02*
X133586666Y-107152247D01*
X133586666Y-107152247D02*
X133491428Y-107104628D01*
X133491428Y-107104628D02*
X133300952Y-107057009D01*
X133300952Y-107057009D02*
X133205714Y-107009390D01*
X133205714Y-107009390D02*
X133158095Y-106961771D01*
X133158095Y-106961771D02*
X133110476Y-106866533D01*
X133110476Y-106866533D02*
X133110476Y-106771295D01*
X133110476Y-106771295D02*
X133158095Y-106676057D01*
X133158095Y-106676057D02*
X133205714Y-106628438D01*
X133205714Y-106628438D02*
X133300952Y-106580819D01*
X133300952Y-106580819D02*
X133539047Y-106580819D01*
X133539047Y-106580819D02*
X133681904Y-106628438D01*
X134015238Y-106580819D02*
X134253333Y-107580819D01*
X134253333Y-107580819D02*
X134443809Y-106866533D01*
X134443809Y-106866533D02*
X134634285Y-107580819D01*
X134634285Y-107580819D02*
X134872381Y-106580819D01*
X135777142Y-107580819D02*
X135205714Y-107580819D01*
X135491428Y-107580819D02*
X135491428Y-106580819D01*
X135491428Y-106580819D02*
X135396190Y-106723676D01*
X135396190Y-106723676D02*
X135300952Y-106818914D01*
X135300952Y-106818914D02*
X135205714Y-106866533D01*
X136396190Y-106580819D02*
X136491428Y-106580819D01*
X136491428Y-106580819D02*
X136586666Y-106628438D01*
X136586666Y-106628438D02*
X136634285Y-106676057D01*
X136634285Y-106676057D02*
X136681904Y-106771295D01*
X136681904Y-106771295D02*
X136729523Y-106961771D01*
X136729523Y-106961771D02*
X136729523Y-107199866D01*
X136729523Y-107199866D02*
X136681904Y-107390342D01*
X136681904Y-107390342D02*
X136634285Y-107485580D01*
X136634285Y-107485580D02*
X136586666Y-107533200D01*
X136586666Y-107533200D02*
X136491428Y-107580819D01*
X136491428Y-107580819D02*
X136396190Y-107580819D01*
X136396190Y-107580819D02*
X136300952Y-107533200D01*
X136300952Y-107533200D02*
X136253333Y-107485580D01*
X136253333Y-107485580D02*
X136205714Y-107390342D01*
X136205714Y-107390342D02*
X136158095Y-107199866D01*
X136158095Y-107199866D02*
X136158095Y-106961771D01*
X136158095Y-106961771D02*
X136205714Y-106771295D01*
X136205714Y-106771295D02*
X136253333Y-106676057D01*
X136253333Y-106676057D02*
X136300952Y-106628438D01*
X136300952Y-106628438D02*
X136396190Y-106580819D01*
X183586667Y-162533200D02*
X183729524Y-162580819D01*
X183729524Y-162580819D02*
X183967619Y-162580819D01*
X183967619Y-162580819D02*
X184062857Y-162533200D01*
X184062857Y-162533200D02*
X184110476Y-162485580D01*
X184110476Y-162485580D02*
X184158095Y-162390342D01*
X184158095Y-162390342D02*
X184158095Y-162295104D01*
X184158095Y-162295104D02*
X184110476Y-162199866D01*
X184110476Y-162199866D02*
X184062857Y-162152247D01*
X184062857Y-162152247D02*
X183967619Y-162104628D01*
X183967619Y-162104628D02*
X183777143Y-162057009D01*
X183777143Y-162057009D02*
X183681905Y-162009390D01*
X183681905Y-162009390D02*
X183634286Y-161961771D01*
X183634286Y-161961771D02*
X183586667Y-161866533D01*
X183586667Y-161866533D02*
X183586667Y-161771295D01*
X183586667Y-161771295D02*
X183634286Y-161676057D01*
X183634286Y-161676057D02*
X183681905Y-161628438D01*
X183681905Y-161628438D02*
X183777143Y-161580819D01*
X183777143Y-161580819D02*
X184015238Y-161580819D01*
X184015238Y-161580819D02*
X184158095Y-161628438D01*
X184491429Y-161580819D02*
X184729524Y-162580819D01*
X184729524Y-162580819D02*
X184920000Y-161866533D01*
X184920000Y-161866533D02*
X185110476Y-162580819D01*
X185110476Y-162580819D02*
X185348572Y-161580819D01*
X185872381Y-162009390D02*
X185777143Y-161961771D01*
X185777143Y-161961771D02*
X185729524Y-161914152D01*
X185729524Y-161914152D02*
X185681905Y-161818914D01*
X185681905Y-161818914D02*
X185681905Y-161771295D01*
X185681905Y-161771295D02*
X185729524Y-161676057D01*
X185729524Y-161676057D02*
X185777143Y-161628438D01*
X185777143Y-161628438D02*
X185872381Y-161580819D01*
X185872381Y-161580819D02*
X186062857Y-161580819D01*
X186062857Y-161580819D02*
X186158095Y-161628438D01*
X186158095Y-161628438D02*
X186205714Y-161676057D01*
X186205714Y-161676057D02*
X186253333Y-161771295D01*
X186253333Y-161771295D02*
X186253333Y-161818914D01*
X186253333Y-161818914D02*
X186205714Y-161914152D01*
X186205714Y-161914152D02*
X186158095Y-161961771D01*
X186158095Y-161961771D02*
X186062857Y-162009390D01*
X186062857Y-162009390D02*
X185872381Y-162009390D01*
X185872381Y-162009390D02*
X185777143Y-162057009D01*
X185777143Y-162057009D02*
X185729524Y-162104628D01*
X185729524Y-162104628D02*
X185681905Y-162199866D01*
X185681905Y-162199866D02*
X185681905Y-162390342D01*
X185681905Y-162390342D02*
X185729524Y-162485580D01*
X185729524Y-162485580D02*
X185777143Y-162533200D01*
X185777143Y-162533200D02*
X185872381Y-162580819D01*
X185872381Y-162580819D02*
X186062857Y-162580819D01*
X186062857Y-162580819D02*
X186158095Y-162533200D01*
X186158095Y-162533200D02*
X186205714Y-162485580D01*
X186205714Y-162485580D02*
X186253333Y-162390342D01*
X186253333Y-162390342D02*
X186253333Y-162199866D01*
X186253333Y-162199866D02*
X186205714Y-162104628D01*
X186205714Y-162104628D02*
X186158095Y-162057009D01*
X186158095Y-162057009D02*
X186062857Y-162009390D01*
X158586667Y-137533200D02*
X158729524Y-137580819D01*
X158729524Y-137580819D02*
X158967619Y-137580819D01*
X158967619Y-137580819D02*
X159062857Y-137533200D01*
X159062857Y-137533200D02*
X159110476Y-137485580D01*
X159110476Y-137485580D02*
X159158095Y-137390342D01*
X159158095Y-137390342D02*
X159158095Y-137295104D01*
X159158095Y-137295104D02*
X159110476Y-137199866D01*
X159110476Y-137199866D02*
X159062857Y-137152247D01*
X159062857Y-137152247D02*
X158967619Y-137104628D01*
X158967619Y-137104628D02*
X158777143Y-137057009D01*
X158777143Y-137057009D02*
X158681905Y-137009390D01*
X158681905Y-137009390D02*
X158634286Y-136961771D01*
X158634286Y-136961771D02*
X158586667Y-136866533D01*
X158586667Y-136866533D02*
X158586667Y-136771295D01*
X158586667Y-136771295D02*
X158634286Y-136676057D01*
X158634286Y-136676057D02*
X158681905Y-136628438D01*
X158681905Y-136628438D02*
X158777143Y-136580819D01*
X158777143Y-136580819D02*
X159015238Y-136580819D01*
X159015238Y-136580819D02*
X159158095Y-136628438D01*
X159491429Y-136580819D02*
X159729524Y-137580819D01*
X159729524Y-137580819D02*
X159920000Y-136866533D01*
X159920000Y-136866533D02*
X160110476Y-137580819D01*
X160110476Y-137580819D02*
X160348572Y-136580819D01*
X160634286Y-136580819D02*
X161253333Y-136580819D01*
X161253333Y-136580819D02*
X160920000Y-136961771D01*
X160920000Y-136961771D02*
X161062857Y-136961771D01*
X161062857Y-136961771D02*
X161158095Y-137009390D01*
X161158095Y-137009390D02*
X161205714Y-137057009D01*
X161205714Y-137057009D02*
X161253333Y-137152247D01*
X161253333Y-137152247D02*
X161253333Y-137390342D01*
X161253333Y-137390342D02*
X161205714Y-137485580D01*
X161205714Y-137485580D02*
X161158095Y-137533200D01*
X161158095Y-137533200D02*
X161062857Y-137580819D01*
X161062857Y-137580819D02*
X160777143Y-137580819D01*
X160777143Y-137580819D02*
X160681905Y-137533200D01*
X160681905Y-137533200D02*
X160634286Y-137485580D01*
X183110476Y-57533200D02*
X183253333Y-57580819D01*
X183253333Y-57580819D02*
X183491428Y-57580819D01*
X183491428Y-57580819D02*
X183586666Y-57533200D01*
X183586666Y-57533200D02*
X183634285Y-57485580D01*
X183634285Y-57485580D02*
X183681904Y-57390342D01*
X183681904Y-57390342D02*
X183681904Y-57295104D01*
X183681904Y-57295104D02*
X183634285Y-57199866D01*
X183634285Y-57199866D02*
X183586666Y-57152247D01*
X183586666Y-57152247D02*
X183491428Y-57104628D01*
X183491428Y-57104628D02*
X183300952Y-57057009D01*
X183300952Y-57057009D02*
X183205714Y-57009390D01*
X183205714Y-57009390D02*
X183158095Y-56961771D01*
X183158095Y-56961771D02*
X183110476Y-56866533D01*
X183110476Y-56866533D02*
X183110476Y-56771295D01*
X183110476Y-56771295D02*
X183158095Y-56676057D01*
X183158095Y-56676057D02*
X183205714Y-56628438D01*
X183205714Y-56628438D02*
X183300952Y-56580819D01*
X183300952Y-56580819D02*
X183539047Y-56580819D01*
X183539047Y-56580819D02*
X183681904Y-56628438D01*
X184015238Y-56580819D02*
X184253333Y-57580819D01*
X184253333Y-57580819D02*
X184443809Y-56866533D01*
X184443809Y-56866533D02*
X184634285Y-57580819D01*
X184634285Y-57580819D02*
X184872381Y-56580819D01*
X185777142Y-57580819D02*
X185205714Y-57580819D01*
X185491428Y-57580819D02*
X185491428Y-56580819D01*
X185491428Y-56580819D02*
X185396190Y-56723676D01*
X185396190Y-56723676D02*
X185300952Y-56818914D01*
X185300952Y-56818914D02*
X185205714Y-56866533D01*
X186634285Y-56580819D02*
X186443809Y-56580819D01*
X186443809Y-56580819D02*
X186348571Y-56628438D01*
X186348571Y-56628438D02*
X186300952Y-56676057D01*
X186300952Y-56676057D02*
X186205714Y-56818914D01*
X186205714Y-56818914D02*
X186158095Y-57009390D01*
X186158095Y-57009390D02*
X186158095Y-57390342D01*
X186158095Y-57390342D02*
X186205714Y-57485580D01*
X186205714Y-57485580D02*
X186253333Y-57533200D01*
X186253333Y-57533200D02*
X186348571Y-57580819D01*
X186348571Y-57580819D02*
X186539047Y-57580819D01*
X186539047Y-57580819D02*
X186634285Y-57533200D01*
X186634285Y-57533200D02*
X186681904Y-57485580D01*
X186681904Y-57485580D02*
X186729523Y-57390342D01*
X186729523Y-57390342D02*
X186729523Y-57152247D01*
X186729523Y-57152247D02*
X186681904Y-57057009D01*
X186681904Y-57057009D02*
X186634285Y-57009390D01*
X186634285Y-57009390D02*
X186539047Y-56961771D01*
X186539047Y-56961771D02*
X186348571Y-56961771D01*
X186348571Y-56961771D02*
X186253333Y-57009390D01*
X186253333Y-57009390D02*
X186205714Y-57057009D01*
X186205714Y-57057009D02*
X186158095Y-57152247D01*
X184888095Y-15359819D02*
X184888095Y-16169342D01*
X184888095Y-16169342D02*
X184935714Y-16264580D01*
X184935714Y-16264580D02*
X184983333Y-16312200D01*
X184983333Y-16312200D02*
X185078571Y-16359819D01*
X185078571Y-16359819D02*
X185269047Y-16359819D01*
X185269047Y-16359819D02*
X185364285Y-16312200D01*
X185364285Y-16312200D02*
X185411904Y-16264580D01*
X185411904Y-16264580D02*
X185459523Y-16169342D01*
X185459523Y-16169342D02*
X185459523Y-15359819D01*
X186459523Y-16359819D02*
X185888095Y-16359819D01*
X186173809Y-16359819D02*
X186173809Y-15359819D01*
X186173809Y-15359819D02*
X186078571Y-15502676D01*
X186078571Y-15502676D02*
X185983333Y-15597914D01*
X185983333Y-15597914D02*
X185888095Y-15645533D01*
X127804819Y-46545238D02*
X127328628Y-46878571D01*
X127804819Y-47116666D02*
X126804819Y-47116666D01*
X126804819Y-47116666D02*
X126804819Y-46735714D01*
X126804819Y-46735714D02*
X126852438Y-46640476D01*
X126852438Y-46640476D02*
X126900057Y-46592857D01*
X126900057Y-46592857D02*
X126995295Y-46545238D01*
X126995295Y-46545238D02*
X127138152Y-46545238D01*
X127138152Y-46545238D02*
X127233390Y-46592857D01*
X127233390Y-46592857D02*
X127281009Y-46640476D01*
X127281009Y-46640476D02*
X127328628Y-46735714D01*
X127328628Y-46735714D02*
X127328628Y-47116666D01*
X126804819Y-46259523D02*
X127804819Y-45926190D01*
X127804819Y-45926190D02*
X126804819Y-45592857D01*
X126804819Y-45354761D02*
X126804819Y-44735714D01*
X126804819Y-44735714D02*
X127185771Y-45069047D01*
X127185771Y-45069047D02*
X127185771Y-44926190D01*
X127185771Y-44926190D02*
X127233390Y-44830952D01*
X127233390Y-44830952D02*
X127281009Y-44783333D01*
X127281009Y-44783333D02*
X127376247Y-44735714D01*
X127376247Y-44735714D02*
X127614342Y-44735714D01*
X127614342Y-44735714D02*
X127709580Y-44783333D01*
X127709580Y-44783333D02*
X127757200Y-44830952D01*
X127757200Y-44830952D02*
X127804819Y-44926190D01*
X127804819Y-44926190D02*
X127804819Y-45211904D01*
X127804819Y-45211904D02*
X127757200Y-45307142D01*
X127757200Y-45307142D02*
X127709580Y-45354761D01*
X127254819Y-23238333D02*
X127969104Y-23238333D01*
X127969104Y-23238333D02*
X128111961Y-23285952D01*
X128111961Y-23285952D02*
X128207200Y-23381190D01*
X128207200Y-23381190D02*
X128254819Y-23524047D01*
X128254819Y-23524047D02*
X128254819Y-23619285D01*
X128254819Y-22238333D02*
X128254819Y-22809761D01*
X128254819Y-22524047D02*
X127254819Y-22524047D01*
X127254819Y-22524047D02*
X127397676Y-22619285D01*
X127397676Y-22619285D02*
X127492914Y-22714523D01*
X127492914Y-22714523D02*
X127540533Y-22809761D01*
X138490476Y-82607200D02*
X138633333Y-82654819D01*
X138633333Y-82654819D02*
X138871428Y-82654819D01*
X138871428Y-82654819D02*
X138966666Y-82607200D01*
X138966666Y-82607200D02*
X139014285Y-82559580D01*
X139014285Y-82559580D02*
X139061904Y-82464342D01*
X139061904Y-82464342D02*
X139061904Y-82369104D01*
X139061904Y-82369104D02*
X139014285Y-82273866D01*
X139014285Y-82273866D02*
X138966666Y-82226247D01*
X138966666Y-82226247D02*
X138871428Y-82178628D01*
X138871428Y-82178628D02*
X138680952Y-82131009D01*
X138680952Y-82131009D02*
X138585714Y-82083390D01*
X138585714Y-82083390D02*
X138538095Y-82035771D01*
X138538095Y-82035771D02*
X138490476Y-81940533D01*
X138490476Y-81940533D02*
X138490476Y-81845295D01*
X138490476Y-81845295D02*
X138538095Y-81750057D01*
X138538095Y-81750057D02*
X138585714Y-81702438D01*
X138585714Y-81702438D02*
X138680952Y-81654819D01*
X138680952Y-81654819D02*
X138919047Y-81654819D01*
X138919047Y-81654819D02*
X139061904Y-81702438D01*
X139395238Y-81654819D02*
X139633333Y-82654819D01*
X139633333Y-82654819D02*
X139823809Y-81940533D01*
X139823809Y-81940533D02*
X140014285Y-82654819D01*
X140014285Y-82654819D02*
X140252381Y-81654819D01*
X140585714Y-81750057D02*
X140633333Y-81702438D01*
X140633333Y-81702438D02*
X140728571Y-81654819D01*
X140728571Y-81654819D02*
X140966666Y-81654819D01*
X140966666Y-81654819D02*
X141061904Y-81702438D01*
X141061904Y-81702438D02*
X141109523Y-81750057D01*
X141109523Y-81750057D02*
X141157142Y-81845295D01*
X141157142Y-81845295D02*
X141157142Y-81940533D01*
X141157142Y-81940533D02*
X141109523Y-82083390D01*
X141109523Y-82083390D02*
X140538095Y-82654819D01*
X140538095Y-82654819D02*
X141157142Y-82654819D01*
X141776190Y-81654819D02*
X141871428Y-81654819D01*
X141871428Y-81654819D02*
X141966666Y-81702438D01*
X141966666Y-81702438D02*
X142014285Y-81750057D01*
X142014285Y-81750057D02*
X142061904Y-81845295D01*
X142061904Y-81845295D02*
X142109523Y-82035771D01*
X142109523Y-82035771D02*
X142109523Y-82273866D01*
X142109523Y-82273866D02*
X142061904Y-82464342D01*
X142061904Y-82464342D02*
X142014285Y-82559580D01*
X142014285Y-82559580D02*
X141966666Y-82607200D01*
X141966666Y-82607200D02*
X141871428Y-82654819D01*
X141871428Y-82654819D02*
X141776190Y-82654819D01*
X141776190Y-82654819D02*
X141680952Y-82607200D01*
X141680952Y-82607200D02*
X141633333Y-82559580D01*
X141633333Y-82559580D02*
X141585714Y-82464342D01*
X141585714Y-82464342D02*
X141538095Y-82273866D01*
X141538095Y-82273866D02*
X141538095Y-82035771D01*
X141538095Y-82035771D02*
X141585714Y-81845295D01*
X141585714Y-81845295D02*
X141633333Y-81750057D01*
X141633333Y-81750057D02*
X141680952Y-81702438D01*
X141680952Y-81702438D02*
X141776190Y-81654819D01*
X177804819Y-46545238D02*
X177328628Y-46878571D01*
X177804819Y-47116666D02*
X176804819Y-47116666D01*
X176804819Y-47116666D02*
X176804819Y-46735714D01*
X176804819Y-46735714D02*
X176852438Y-46640476D01*
X176852438Y-46640476D02*
X176900057Y-46592857D01*
X176900057Y-46592857D02*
X176995295Y-46545238D01*
X176995295Y-46545238D02*
X177138152Y-46545238D01*
X177138152Y-46545238D02*
X177233390Y-46592857D01*
X177233390Y-46592857D02*
X177281009Y-46640476D01*
X177281009Y-46640476D02*
X177328628Y-46735714D01*
X177328628Y-46735714D02*
X177328628Y-47116666D01*
X176804819Y-46259523D02*
X177804819Y-45926190D01*
X177804819Y-45926190D02*
X176804819Y-45592857D01*
X176804819Y-44783333D02*
X176804819Y-45259523D01*
X176804819Y-45259523D02*
X177281009Y-45307142D01*
X177281009Y-45307142D02*
X177233390Y-45259523D01*
X177233390Y-45259523D02*
X177185771Y-45164285D01*
X177185771Y-45164285D02*
X177185771Y-44926190D01*
X177185771Y-44926190D02*
X177233390Y-44830952D01*
X177233390Y-44830952D02*
X177281009Y-44783333D01*
X177281009Y-44783333D02*
X177376247Y-44735714D01*
X177376247Y-44735714D02*
X177614342Y-44735714D01*
X177614342Y-44735714D02*
X177709580Y-44783333D01*
X177709580Y-44783333D02*
X177757200Y-44830952D01*
X177757200Y-44830952D02*
X177804819Y-44926190D01*
X177804819Y-44926190D02*
X177804819Y-45164285D01*
X177804819Y-45164285D02*
X177757200Y-45259523D01*
X177757200Y-45259523D02*
X177709580Y-45307142D01*
X158110476Y-107533200D02*
X158253333Y-107580819D01*
X158253333Y-107580819D02*
X158491428Y-107580819D01*
X158491428Y-107580819D02*
X158586666Y-107533200D01*
X158586666Y-107533200D02*
X158634285Y-107485580D01*
X158634285Y-107485580D02*
X158681904Y-107390342D01*
X158681904Y-107390342D02*
X158681904Y-107295104D01*
X158681904Y-107295104D02*
X158634285Y-107199866D01*
X158634285Y-107199866D02*
X158586666Y-107152247D01*
X158586666Y-107152247D02*
X158491428Y-107104628D01*
X158491428Y-107104628D02*
X158300952Y-107057009D01*
X158300952Y-107057009D02*
X158205714Y-107009390D01*
X158205714Y-107009390D02*
X158158095Y-106961771D01*
X158158095Y-106961771D02*
X158110476Y-106866533D01*
X158110476Y-106866533D02*
X158110476Y-106771295D01*
X158110476Y-106771295D02*
X158158095Y-106676057D01*
X158158095Y-106676057D02*
X158205714Y-106628438D01*
X158205714Y-106628438D02*
X158300952Y-106580819D01*
X158300952Y-106580819D02*
X158539047Y-106580819D01*
X158539047Y-106580819D02*
X158681904Y-106628438D01*
X159015238Y-106580819D02*
X159253333Y-107580819D01*
X159253333Y-107580819D02*
X159443809Y-106866533D01*
X159443809Y-106866533D02*
X159634285Y-107580819D01*
X159634285Y-107580819D02*
X159872381Y-106580819D01*
X160777142Y-107580819D02*
X160205714Y-107580819D01*
X160491428Y-107580819D02*
X160491428Y-106580819D01*
X160491428Y-106580819D02*
X160396190Y-106723676D01*
X160396190Y-106723676D02*
X160300952Y-106818914D01*
X160300952Y-106818914D02*
X160205714Y-106866533D01*
X161729523Y-107580819D02*
X161158095Y-107580819D01*
X161443809Y-107580819D02*
X161443809Y-106580819D01*
X161443809Y-106580819D02*
X161348571Y-106723676D01*
X161348571Y-106723676D02*
X161253333Y-106818914D01*
X161253333Y-106818914D02*
X161158095Y-106866533D01*
X218004819Y-119195238D02*
X217528628Y-119528571D01*
X218004819Y-119766666D02*
X217004819Y-119766666D01*
X217004819Y-119766666D02*
X217004819Y-119385714D01*
X217004819Y-119385714D02*
X217052438Y-119290476D01*
X217052438Y-119290476D02*
X217100057Y-119242857D01*
X217100057Y-119242857D02*
X217195295Y-119195238D01*
X217195295Y-119195238D02*
X217338152Y-119195238D01*
X217338152Y-119195238D02*
X217433390Y-119242857D01*
X217433390Y-119242857D02*
X217481009Y-119290476D01*
X217481009Y-119290476D02*
X217528628Y-119385714D01*
X217528628Y-119385714D02*
X217528628Y-119766666D01*
X217004819Y-118909523D02*
X218004819Y-118576190D01*
X218004819Y-118576190D02*
X217004819Y-118242857D01*
X218004819Y-117385714D02*
X218004819Y-117957142D01*
X218004819Y-117671428D02*
X217004819Y-117671428D01*
X217004819Y-117671428D02*
X217147676Y-117766666D01*
X217147676Y-117766666D02*
X217242914Y-117861904D01*
X217242914Y-117861904D02*
X217290533Y-117957142D01*
X108586667Y-137533200D02*
X108729524Y-137580819D01*
X108729524Y-137580819D02*
X108967619Y-137580819D01*
X108967619Y-137580819D02*
X109062857Y-137533200D01*
X109062857Y-137533200D02*
X109110476Y-137485580D01*
X109110476Y-137485580D02*
X109158095Y-137390342D01*
X109158095Y-137390342D02*
X109158095Y-137295104D01*
X109158095Y-137295104D02*
X109110476Y-137199866D01*
X109110476Y-137199866D02*
X109062857Y-137152247D01*
X109062857Y-137152247D02*
X108967619Y-137104628D01*
X108967619Y-137104628D02*
X108777143Y-137057009D01*
X108777143Y-137057009D02*
X108681905Y-137009390D01*
X108681905Y-137009390D02*
X108634286Y-136961771D01*
X108634286Y-136961771D02*
X108586667Y-136866533D01*
X108586667Y-136866533D02*
X108586667Y-136771295D01*
X108586667Y-136771295D02*
X108634286Y-136676057D01*
X108634286Y-136676057D02*
X108681905Y-136628438D01*
X108681905Y-136628438D02*
X108777143Y-136580819D01*
X108777143Y-136580819D02*
X109015238Y-136580819D01*
X109015238Y-136580819D02*
X109158095Y-136628438D01*
X109491429Y-136580819D02*
X109729524Y-137580819D01*
X109729524Y-137580819D02*
X109920000Y-136866533D01*
X109920000Y-136866533D02*
X110110476Y-137580819D01*
X110110476Y-137580819D02*
X110348572Y-136580819D01*
X111253333Y-137580819D02*
X110681905Y-137580819D01*
X110967619Y-137580819D02*
X110967619Y-136580819D01*
X110967619Y-136580819D02*
X110872381Y-136723676D01*
X110872381Y-136723676D02*
X110777143Y-136818914D01*
X110777143Y-136818914D02*
X110681905Y-136866533D01*
X103490476Y-16607200D02*
X103633333Y-16654819D01*
X103633333Y-16654819D02*
X103871428Y-16654819D01*
X103871428Y-16654819D02*
X103966666Y-16607200D01*
X103966666Y-16607200D02*
X104014285Y-16559580D01*
X104014285Y-16559580D02*
X104061904Y-16464342D01*
X104061904Y-16464342D02*
X104061904Y-16369104D01*
X104061904Y-16369104D02*
X104014285Y-16273866D01*
X104014285Y-16273866D02*
X103966666Y-16226247D01*
X103966666Y-16226247D02*
X103871428Y-16178628D01*
X103871428Y-16178628D02*
X103680952Y-16131009D01*
X103680952Y-16131009D02*
X103585714Y-16083390D01*
X103585714Y-16083390D02*
X103538095Y-16035771D01*
X103538095Y-16035771D02*
X103490476Y-15940533D01*
X103490476Y-15940533D02*
X103490476Y-15845295D01*
X103490476Y-15845295D02*
X103538095Y-15750057D01*
X103538095Y-15750057D02*
X103585714Y-15702438D01*
X103585714Y-15702438D02*
X103680952Y-15654819D01*
X103680952Y-15654819D02*
X103919047Y-15654819D01*
X103919047Y-15654819D02*
X104061904Y-15702438D01*
X104395238Y-15654819D02*
X104633333Y-16654819D01*
X104633333Y-16654819D02*
X104823809Y-15940533D01*
X104823809Y-15940533D02*
X105014285Y-16654819D01*
X105014285Y-16654819D02*
X105252381Y-15654819D01*
X106157142Y-16654819D02*
X105585714Y-16654819D01*
X105871428Y-16654819D02*
X105871428Y-15654819D01*
X105871428Y-15654819D02*
X105776190Y-15797676D01*
X105776190Y-15797676D02*
X105680952Y-15892914D01*
X105680952Y-15892914D02*
X105585714Y-15940533D01*
X106490476Y-15654819D02*
X107157142Y-15654819D01*
X107157142Y-15654819D02*
X106728571Y-16654819D01*
X108586667Y-162533200D02*
X108729524Y-162580819D01*
X108729524Y-162580819D02*
X108967619Y-162580819D01*
X108967619Y-162580819D02*
X109062857Y-162533200D01*
X109062857Y-162533200D02*
X109110476Y-162485580D01*
X109110476Y-162485580D02*
X109158095Y-162390342D01*
X109158095Y-162390342D02*
X109158095Y-162295104D01*
X109158095Y-162295104D02*
X109110476Y-162199866D01*
X109110476Y-162199866D02*
X109062857Y-162152247D01*
X109062857Y-162152247D02*
X108967619Y-162104628D01*
X108967619Y-162104628D02*
X108777143Y-162057009D01*
X108777143Y-162057009D02*
X108681905Y-162009390D01*
X108681905Y-162009390D02*
X108634286Y-161961771D01*
X108634286Y-161961771D02*
X108586667Y-161866533D01*
X108586667Y-161866533D02*
X108586667Y-161771295D01*
X108586667Y-161771295D02*
X108634286Y-161676057D01*
X108634286Y-161676057D02*
X108681905Y-161628438D01*
X108681905Y-161628438D02*
X108777143Y-161580819D01*
X108777143Y-161580819D02*
X109015238Y-161580819D01*
X109015238Y-161580819D02*
X109158095Y-161628438D01*
X109491429Y-161580819D02*
X109729524Y-162580819D01*
X109729524Y-162580819D02*
X109920000Y-161866533D01*
X109920000Y-161866533D02*
X110110476Y-162580819D01*
X110110476Y-162580819D02*
X110348572Y-161580819D01*
X111205714Y-161580819D02*
X110729524Y-161580819D01*
X110729524Y-161580819D02*
X110681905Y-162057009D01*
X110681905Y-162057009D02*
X110729524Y-162009390D01*
X110729524Y-162009390D02*
X110824762Y-161961771D01*
X110824762Y-161961771D02*
X111062857Y-161961771D01*
X111062857Y-161961771D02*
X111158095Y-162009390D01*
X111158095Y-162009390D02*
X111205714Y-162057009D01*
X111205714Y-162057009D02*
X111253333Y-162152247D01*
X111253333Y-162152247D02*
X111253333Y-162390342D01*
X111253333Y-162390342D02*
X111205714Y-162485580D01*
X111205714Y-162485580D02*
X111158095Y-162533200D01*
X111158095Y-162533200D02*
X111062857Y-162580819D01*
X111062857Y-162580819D02*
X110824762Y-162580819D01*
X110824762Y-162580819D02*
X110729524Y-162533200D01*
X110729524Y-162533200D02*
X110681905Y-162485580D01*
X183586667Y-137533200D02*
X183729524Y-137580819D01*
X183729524Y-137580819D02*
X183967619Y-137580819D01*
X183967619Y-137580819D02*
X184062857Y-137533200D01*
X184062857Y-137533200D02*
X184110476Y-137485580D01*
X184110476Y-137485580D02*
X184158095Y-137390342D01*
X184158095Y-137390342D02*
X184158095Y-137295104D01*
X184158095Y-137295104D02*
X184110476Y-137199866D01*
X184110476Y-137199866D02*
X184062857Y-137152247D01*
X184062857Y-137152247D02*
X183967619Y-137104628D01*
X183967619Y-137104628D02*
X183777143Y-137057009D01*
X183777143Y-137057009D02*
X183681905Y-137009390D01*
X183681905Y-137009390D02*
X183634286Y-136961771D01*
X183634286Y-136961771D02*
X183586667Y-136866533D01*
X183586667Y-136866533D02*
X183586667Y-136771295D01*
X183586667Y-136771295D02*
X183634286Y-136676057D01*
X183634286Y-136676057D02*
X183681905Y-136628438D01*
X183681905Y-136628438D02*
X183777143Y-136580819D01*
X183777143Y-136580819D02*
X184015238Y-136580819D01*
X184015238Y-136580819D02*
X184158095Y-136628438D01*
X184491429Y-136580819D02*
X184729524Y-137580819D01*
X184729524Y-137580819D02*
X184920000Y-136866533D01*
X184920000Y-136866533D02*
X185110476Y-137580819D01*
X185110476Y-137580819D02*
X185348572Y-136580819D01*
X186158095Y-136914152D02*
X186158095Y-137580819D01*
X185920000Y-136533200D02*
X185681905Y-137247485D01*
X185681905Y-137247485D02*
X186300952Y-137247485D01*
X108586667Y-107533200D02*
X108729524Y-107580819D01*
X108729524Y-107580819D02*
X108967619Y-107580819D01*
X108967619Y-107580819D02*
X109062857Y-107533200D01*
X109062857Y-107533200D02*
X109110476Y-107485580D01*
X109110476Y-107485580D02*
X109158095Y-107390342D01*
X109158095Y-107390342D02*
X109158095Y-107295104D01*
X109158095Y-107295104D02*
X109110476Y-107199866D01*
X109110476Y-107199866D02*
X109062857Y-107152247D01*
X109062857Y-107152247D02*
X108967619Y-107104628D01*
X108967619Y-107104628D02*
X108777143Y-107057009D01*
X108777143Y-107057009D02*
X108681905Y-107009390D01*
X108681905Y-107009390D02*
X108634286Y-106961771D01*
X108634286Y-106961771D02*
X108586667Y-106866533D01*
X108586667Y-106866533D02*
X108586667Y-106771295D01*
X108586667Y-106771295D02*
X108634286Y-106676057D01*
X108634286Y-106676057D02*
X108681905Y-106628438D01*
X108681905Y-106628438D02*
X108777143Y-106580819D01*
X108777143Y-106580819D02*
X109015238Y-106580819D01*
X109015238Y-106580819D02*
X109158095Y-106628438D01*
X109491429Y-106580819D02*
X109729524Y-107580819D01*
X109729524Y-107580819D02*
X109920000Y-106866533D01*
X109920000Y-106866533D02*
X110110476Y-107580819D01*
X110110476Y-107580819D02*
X110348572Y-106580819D01*
X110777143Y-107580819D02*
X110967619Y-107580819D01*
X110967619Y-107580819D02*
X111062857Y-107533200D01*
X111062857Y-107533200D02*
X111110476Y-107485580D01*
X111110476Y-107485580D02*
X111205714Y-107342723D01*
X111205714Y-107342723D02*
X111253333Y-107152247D01*
X111253333Y-107152247D02*
X111253333Y-106771295D01*
X111253333Y-106771295D02*
X111205714Y-106676057D01*
X111205714Y-106676057D02*
X111158095Y-106628438D01*
X111158095Y-106628438D02*
X111062857Y-106580819D01*
X111062857Y-106580819D02*
X110872381Y-106580819D01*
X110872381Y-106580819D02*
X110777143Y-106628438D01*
X110777143Y-106628438D02*
X110729524Y-106676057D01*
X110729524Y-106676057D02*
X110681905Y-106771295D01*
X110681905Y-106771295D02*
X110681905Y-107009390D01*
X110681905Y-107009390D02*
X110729524Y-107104628D01*
X110729524Y-107104628D02*
X110777143Y-107152247D01*
X110777143Y-107152247D02*
X110872381Y-107199866D01*
X110872381Y-107199866D02*
X111062857Y-107199866D01*
X111062857Y-107199866D02*
X111158095Y-107152247D01*
X111158095Y-107152247D02*
X111205714Y-107104628D01*
X111205714Y-107104628D02*
X111253333Y-107009390D01*
X133586667Y-162533200D02*
X133729524Y-162580819D01*
X133729524Y-162580819D02*
X133967619Y-162580819D01*
X133967619Y-162580819D02*
X134062857Y-162533200D01*
X134062857Y-162533200D02*
X134110476Y-162485580D01*
X134110476Y-162485580D02*
X134158095Y-162390342D01*
X134158095Y-162390342D02*
X134158095Y-162295104D01*
X134158095Y-162295104D02*
X134110476Y-162199866D01*
X134110476Y-162199866D02*
X134062857Y-162152247D01*
X134062857Y-162152247D02*
X133967619Y-162104628D01*
X133967619Y-162104628D02*
X133777143Y-162057009D01*
X133777143Y-162057009D02*
X133681905Y-162009390D01*
X133681905Y-162009390D02*
X133634286Y-161961771D01*
X133634286Y-161961771D02*
X133586667Y-161866533D01*
X133586667Y-161866533D02*
X133586667Y-161771295D01*
X133586667Y-161771295D02*
X133634286Y-161676057D01*
X133634286Y-161676057D02*
X133681905Y-161628438D01*
X133681905Y-161628438D02*
X133777143Y-161580819D01*
X133777143Y-161580819D02*
X134015238Y-161580819D01*
X134015238Y-161580819D02*
X134158095Y-161628438D01*
X134491429Y-161580819D02*
X134729524Y-162580819D01*
X134729524Y-162580819D02*
X134920000Y-161866533D01*
X134920000Y-161866533D02*
X135110476Y-162580819D01*
X135110476Y-162580819D02*
X135348572Y-161580819D01*
X136158095Y-161580819D02*
X135967619Y-161580819D01*
X135967619Y-161580819D02*
X135872381Y-161628438D01*
X135872381Y-161628438D02*
X135824762Y-161676057D01*
X135824762Y-161676057D02*
X135729524Y-161818914D01*
X135729524Y-161818914D02*
X135681905Y-162009390D01*
X135681905Y-162009390D02*
X135681905Y-162390342D01*
X135681905Y-162390342D02*
X135729524Y-162485580D01*
X135729524Y-162485580D02*
X135777143Y-162533200D01*
X135777143Y-162533200D02*
X135872381Y-162580819D01*
X135872381Y-162580819D02*
X136062857Y-162580819D01*
X136062857Y-162580819D02*
X136158095Y-162533200D01*
X136158095Y-162533200D02*
X136205714Y-162485580D01*
X136205714Y-162485580D02*
X136253333Y-162390342D01*
X136253333Y-162390342D02*
X136253333Y-162152247D01*
X136253333Y-162152247D02*
X136205714Y-162057009D01*
X136205714Y-162057009D02*
X136158095Y-162009390D01*
X136158095Y-162009390D02*
X136062857Y-161961771D01*
X136062857Y-161961771D02*
X135872381Y-161961771D01*
X135872381Y-161961771D02*
X135777143Y-162009390D01*
X135777143Y-162009390D02*
X135729524Y-162057009D01*
X135729524Y-162057009D02*
X135681905Y-162152247D01*
X223926660Y-64664104D02*
X224402850Y-64664104D01*
X223831422Y-64949819D02*
X224164755Y-63949819D01*
X224164755Y-63949819D02*
X224498088Y-64949819D01*
X225355231Y-64949819D02*
X224783803Y-64949819D01*
X225069517Y-64949819D02*
X225069517Y-63949819D01*
X225069517Y-63949819D02*
X224974279Y-64092676D01*
X224974279Y-64092676D02*
X224879041Y-64187914D01*
X224879041Y-64187914D02*
X224783803Y-64235533D01*
X152804819Y-46545238D02*
X152328628Y-46878571D01*
X152804819Y-47116666D02*
X151804819Y-47116666D01*
X151804819Y-47116666D02*
X151804819Y-46735714D01*
X151804819Y-46735714D02*
X151852438Y-46640476D01*
X151852438Y-46640476D02*
X151900057Y-46592857D01*
X151900057Y-46592857D02*
X151995295Y-46545238D01*
X151995295Y-46545238D02*
X152138152Y-46545238D01*
X152138152Y-46545238D02*
X152233390Y-46592857D01*
X152233390Y-46592857D02*
X152281009Y-46640476D01*
X152281009Y-46640476D02*
X152328628Y-46735714D01*
X152328628Y-46735714D02*
X152328628Y-47116666D01*
X151804819Y-46259523D02*
X152804819Y-45926190D01*
X152804819Y-45926190D02*
X151804819Y-45592857D01*
X152138152Y-44830952D02*
X152804819Y-44830952D01*
X151757200Y-45069047D02*
X152471485Y-45307142D01*
X152471485Y-45307142D02*
X152471485Y-44688095D01*
X178740476Y-83207200D02*
X178883333Y-83254819D01*
X178883333Y-83254819D02*
X179121428Y-83254819D01*
X179121428Y-83254819D02*
X179216666Y-83207200D01*
X179216666Y-83207200D02*
X179264285Y-83159580D01*
X179264285Y-83159580D02*
X179311904Y-83064342D01*
X179311904Y-83064342D02*
X179311904Y-82969104D01*
X179311904Y-82969104D02*
X179264285Y-82873866D01*
X179264285Y-82873866D02*
X179216666Y-82826247D01*
X179216666Y-82826247D02*
X179121428Y-82778628D01*
X179121428Y-82778628D02*
X178930952Y-82731009D01*
X178930952Y-82731009D02*
X178835714Y-82683390D01*
X178835714Y-82683390D02*
X178788095Y-82635771D01*
X178788095Y-82635771D02*
X178740476Y-82540533D01*
X178740476Y-82540533D02*
X178740476Y-82445295D01*
X178740476Y-82445295D02*
X178788095Y-82350057D01*
X178788095Y-82350057D02*
X178835714Y-82302438D01*
X178835714Y-82302438D02*
X178930952Y-82254819D01*
X178930952Y-82254819D02*
X179169047Y-82254819D01*
X179169047Y-82254819D02*
X179311904Y-82302438D01*
X179645238Y-82254819D02*
X179883333Y-83254819D01*
X179883333Y-83254819D02*
X180073809Y-82540533D01*
X180073809Y-82540533D02*
X180264285Y-83254819D01*
X180264285Y-83254819D02*
X180502381Y-82254819D01*
X180835714Y-82350057D02*
X180883333Y-82302438D01*
X180883333Y-82302438D02*
X180978571Y-82254819D01*
X180978571Y-82254819D02*
X181216666Y-82254819D01*
X181216666Y-82254819D02*
X181311904Y-82302438D01*
X181311904Y-82302438D02*
X181359523Y-82350057D01*
X181359523Y-82350057D02*
X181407142Y-82445295D01*
X181407142Y-82445295D02*
X181407142Y-82540533D01*
X181407142Y-82540533D02*
X181359523Y-82683390D01*
X181359523Y-82683390D02*
X180788095Y-83254819D01*
X180788095Y-83254819D02*
X181407142Y-83254819D01*
X182359523Y-83254819D02*
X181788095Y-83254819D01*
X182073809Y-83254819D02*
X182073809Y-82254819D01*
X182073809Y-82254819D02*
X181978571Y-82397676D01*
X181978571Y-82397676D02*
X181883333Y-82492914D01*
X181883333Y-82492914D02*
X181788095Y-82540533D01*
X133586667Y-137533200D02*
X133729524Y-137580819D01*
X133729524Y-137580819D02*
X133967619Y-137580819D01*
X133967619Y-137580819D02*
X134062857Y-137533200D01*
X134062857Y-137533200D02*
X134110476Y-137485580D01*
X134110476Y-137485580D02*
X134158095Y-137390342D01*
X134158095Y-137390342D02*
X134158095Y-137295104D01*
X134158095Y-137295104D02*
X134110476Y-137199866D01*
X134110476Y-137199866D02*
X134062857Y-137152247D01*
X134062857Y-137152247D02*
X133967619Y-137104628D01*
X133967619Y-137104628D02*
X133777143Y-137057009D01*
X133777143Y-137057009D02*
X133681905Y-137009390D01*
X133681905Y-137009390D02*
X133634286Y-136961771D01*
X133634286Y-136961771D02*
X133586667Y-136866533D01*
X133586667Y-136866533D02*
X133586667Y-136771295D01*
X133586667Y-136771295D02*
X133634286Y-136676057D01*
X133634286Y-136676057D02*
X133681905Y-136628438D01*
X133681905Y-136628438D02*
X133777143Y-136580819D01*
X133777143Y-136580819D02*
X134015238Y-136580819D01*
X134015238Y-136580819D02*
X134158095Y-136628438D01*
X134491429Y-136580819D02*
X134729524Y-137580819D01*
X134729524Y-137580819D02*
X134920000Y-136866533D01*
X134920000Y-136866533D02*
X135110476Y-137580819D01*
X135110476Y-137580819D02*
X135348572Y-136580819D01*
X135681905Y-136676057D02*
X135729524Y-136628438D01*
X135729524Y-136628438D02*
X135824762Y-136580819D01*
X135824762Y-136580819D02*
X136062857Y-136580819D01*
X136062857Y-136580819D02*
X136158095Y-136628438D01*
X136158095Y-136628438D02*
X136205714Y-136676057D01*
X136205714Y-136676057D02*
X136253333Y-136771295D01*
X136253333Y-136771295D02*
X136253333Y-136866533D01*
X136253333Y-136866533D02*
X136205714Y-137009390D01*
X136205714Y-137009390D02*
X135634286Y-137580819D01*
X135634286Y-137580819D02*
X136253333Y-137580819D01*
X108110476Y-57533200D02*
X108253333Y-57580819D01*
X108253333Y-57580819D02*
X108491428Y-57580819D01*
X108491428Y-57580819D02*
X108586666Y-57533200D01*
X108586666Y-57533200D02*
X108634285Y-57485580D01*
X108634285Y-57485580D02*
X108681904Y-57390342D01*
X108681904Y-57390342D02*
X108681904Y-57295104D01*
X108681904Y-57295104D02*
X108634285Y-57199866D01*
X108634285Y-57199866D02*
X108586666Y-57152247D01*
X108586666Y-57152247D02*
X108491428Y-57104628D01*
X108491428Y-57104628D02*
X108300952Y-57057009D01*
X108300952Y-57057009D02*
X108205714Y-57009390D01*
X108205714Y-57009390D02*
X108158095Y-56961771D01*
X108158095Y-56961771D02*
X108110476Y-56866533D01*
X108110476Y-56866533D02*
X108110476Y-56771295D01*
X108110476Y-56771295D02*
X108158095Y-56676057D01*
X108158095Y-56676057D02*
X108205714Y-56628438D01*
X108205714Y-56628438D02*
X108300952Y-56580819D01*
X108300952Y-56580819D02*
X108539047Y-56580819D01*
X108539047Y-56580819D02*
X108681904Y-56628438D01*
X109015238Y-56580819D02*
X109253333Y-57580819D01*
X109253333Y-57580819D02*
X109443809Y-56866533D01*
X109443809Y-56866533D02*
X109634285Y-57580819D01*
X109634285Y-57580819D02*
X109872381Y-56580819D01*
X110777142Y-57580819D02*
X110205714Y-57580819D01*
X110491428Y-57580819D02*
X110491428Y-56580819D01*
X110491428Y-56580819D02*
X110396190Y-56723676D01*
X110396190Y-56723676D02*
X110300952Y-56818914D01*
X110300952Y-56818914D02*
X110205714Y-56866533D01*
X111110476Y-56580819D02*
X111729523Y-56580819D01*
X111729523Y-56580819D02*
X111396190Y-56961771D01*
X111396190Y-56961771D02*
X111539047Y-56961771D01*
X111539047Y-56961771D02*
X111634285Y-57009390D01*
X111634285Y-57009390D02*
X111681904Y-57057009D01*
X111681904Y-57057009D02*
X111729523Y-57152247D01*
X111729523Y-57152247D02*
X111729523Y-57390342D01*
X111729523Y-57390342D02*
X111681904Y-57485580D01*
X111681904Y-57485580D02*
X111634285Y-57533200D01*
X111634285Y-57533200D02*
X111539047Y-57580819D01*
X111539047Y-57580819D02*
X111253333Y-57580819D01*
X111253333Y-57580819D02*
X111158095Y-57533200D01*
X111158095Y-57533200D02*
X111110476Y-57485580D01*
X158586667Y-162533200D02*
X158729524Y-162580819D01*
X158729524Y-162580819D02*
X158967619Y-162580819D01*
X158967619Y-162580819D02*
X159062857Y-162533200D01*
X159062857Y-162533200D02*
X159110476Y-162485580D01*
X159110476Y-162485580D02*
X159158095Y-162390342D01*
X159158095Y-162390342D02*
X159158095Y-162295104D01*
X159158095Y-162295104D02*
X159110476Y-162199866D01*
X159110476Y-162199866D02*
X159062857Y-162152247D01*
X159062857Y-162152247D02*
X158967619Y-162104628D01*
X158967619Y-162104628D02*
X158777143Y-162057009D01*
X158777143Y-162057009D02*
X158681905Y-162009390D01*
X158681905Y-162009390D02*
X158634286Y-161961771D01*
X158634286Y-161961771D02*
X158586667Y-161866533D01*
X158586667Y-161866533D02*
X158586667Y-161771295D01*
X158586667Y-161771295D02*
X158634286Y-161676057D01*
X158634286Y-161676057D02*
X158681905Y-161628438D01*
X158681905Y-161628438D02*
X158777143Y-161580819D01*
X158777143Y-161580819D02*
X159015238Y-161580819D01*
X159015238Y-161580819D02*
X159158095Y-161628438D01*
X159491429Y-161580819D02*
X159729524Y-162580819D01*
X159729524Y-162580819D02*
X159920000Y-161866533D01*
X159920000Y-161866533D02*
X160110476Y-162580819D01*
X160110476Y-162580819D02*
X160348572Y-161580819D01*
X160634286Y-161580819D02*
X161300952Y-161580819D01*
X161300952Y-161580819D02*
X160872381Y-162580819D01*
X108110476Y-82533200D02*
X108253333Y-82580819D01*
X108253333Y-82580819D02*
X108491428Y-82580819D01*
X108491428Y-82580819D02*
X108586666Y-82533200D01*
X108586666Y-82533200D02*
X108634285Y-82485580D01*
X108634285Y-82485580D02*
X108681904Y-82390342D01*
X108681904Y-82390342D02*
X108681904Y-82295104D01*
X108681904Y-82295104D02*
X108634285Y-82199866D01*
X108634285Y-82199866D02*
X108586666Y-82152247D01*
X108586666Y-82152247D02*
X108491428Y-82104628D01*
X108491428Y-82104628D02*
X108300952Y-82057009D01*
X108300952Y-82057009D02*
X108205714Y-82009390D01*
X108205714Y-82009390D02*
X108158095Y-81961771D01*
X108158095Y-81961771D02*
X108110476Y-81866533D01*
X108110476Y-81866533D02*
X108110476Y-81771295D01*
X108110476Y-81771295D02*
X108158095Y-81676057D01*
X108158095Y-81676057D02*
X108205714Y-81628438D01*
X108205714Y-81628438D02*
X108300952Y-81580819D01*
X108300952Y-81580819D02*
X108539047Y-81580819D01*
X108539047Y-81580819D02*
X108681904Y-81628438D01*
X109015238Y-81580819D02*
X109253333Y-82580819D01*
X109253333Y-82580819D02*
X109443809Y-81866533D01*
X109443809Y-81866533D02*
X109634285Y-82580819D01*
X109634285Y-82580819D02*
X109872381Y-81580819D01*
X110777142Y-82580819D02*
X110205714Y-82580819D01*
X110491428Y-82580819D02*
X110491428Y-81580819D01*
X110491428Y-81580819D02*
X110396190Y-81723676D01*
X110396190Y-81723676D02*
X110300952Y-81818914D01*
X110300952Y-81818914D02*
X110205714Y-81866533D01*
X111348571Y-82009390D02*
X111253333Y-81961771D01*
X111253333Y-81961771D02*
X111205714Y-81914152D01*
X111205714Y-81914152D02*
X111158095Y-81818914D01*
X111158095Y-81818914D02*
X111158095Y-81771295D01*
X111158095Y-81771295D02*
X111205714Y-81676057D01*
X111205714Y-81676057D02*
X111253333Y-81628438D01*
X111253333Y-81628438D02*
X111348571Y-81580819D01*
X111348571Y-81580819D02*
X111539047Y-81580819D01*
X111539047Y-81580819D02*
X111634285Y-81628438D01*
X111634285Y-81628438D02*
X111681904Y-81676057D01*
X111681904Y-81676057D02*
X111729523Y-81771295D01*
X111729523Y-81771295D02*
X111729523Y-81818914D01*
X111729523Y-81818914D02*
X111681904Y-81914152D01*
X111681904Y-81914152D02*
X111634285Y-81961771D01*
X111634285Y-81961771D02*
X111539047Y-82009390D01*
X111539047Y-82009390D02*
X111348571Y-82009390D01*
X111348571Y-82009390D02*
X111253333Y-82057009D01*
X111253333Y-82057009D02*
X111205714Y-82104628D01*
X111205714Y-82104628D02*
X111158095Y-82199866D01*
X111158095Y-82199866D02*
X111158095Y-82390342D01*
X111158095Y-82390342D02*
X111205714Y-82485580D01*
X111205714Y-82485580D02*
X111253333Y-82533200D01*
X111253333Y-82533200D02*
X111348571Y-82580819D01*
X111348571Y-82580819D02*
X111539047Y-82580819D01*
X111539047Y-82580819D02*
X111634285Y-82533200D01*
X111634285Y-82533200D02*
X111681904Y-82485580D01*
X111681904Y-82485580D02*
X111729523Y-82390342D01*
X111729523Y-82390342D02*
X111729523Y-82199866D01*
X111729523Y-82199866D02*
X111681904Y-82104628D01*
X111681904Y-82104628D02*
X111634285Y-82057009D01*
X111634285Y-82057009D02*
X111539047Y-82009390D01*
X102804819Y-46545238D02*
X102328628Y-46878571D01*
X102804819Y-47116666D02*
X101804819Y-47116666D01*
X101804819Y-47116666D02*
X101804819Y-46735714D01*
X101804819Y-46735714D02*
X101852438Y-46640476D01*
X101852438Y-46640476D02*
X101900057Y-46592857D01*
X101900057Y-46592857D02*
X101995295Y-46545238D01*
X101995295Y-46545238D02*
X102138152Y-46545238D01*
X102138152Y-46545238D02*
X102233390Y-46592857D01*
X102233390Y-46592857D02*
X102281009Y-46640476D01*
X102281009Y-46640476D02*
X102328628Y-46735714D01*
X102328628Y-46735714D02*
X102328628Y-47116666D01*
X101804819Y-46259523D02*
X102804819Y-45926190D01*
X102804819Y-45926190D02*
X101804819Y-45592857D01*
X101900057Y-45307142D02*
X101852438Y-45259523D01*
X101852438Y-45259523D02*
X101804819Y-45164285D01*
X101804819Y-45164285D02*
X101804819Y-44926190D01*
X101804819Y-44926190D02*
X101852438Y-44830952D01*
X101852438Y-44830952D02*
X101900057Y-44783333D01*
X101900057Y-44783333D02*
X101995295Y-44735714D01*
X101995295Y-44735714D02*
X102090533Y-44735714D01*
X102090533Y-44735714D02*
X102233390Y-44783333D01*
X102233390Y-44783333D02*
X102804819Y-45354761D01*
X102804819Y-45354761D02*
X102804819Y-44735714D01*
X183110476Y-107533200D02*
X183253333Y-107580819D01*
X183253333Y-107580819D02*
X183491428Y-107580819D01*
X183491428Y-107580819D02*
X183586666Y-107533200D01*
X183586666Y-107533200D02*
X183634285Y-107485580D01*
X183634285Y-107485580D02*
X183681904Y-107390342D01*
X183681904Y-107390342D02*
X183681904Y-107295104D01*
X183681904Y-107295104D02*
X183634285Y-107199866D01*
X183634285Y-107199866D02*
X183586666Y-107152247D01*
X183586666Y-107152247D02*
X183491428Y-107104628D01*
X183491428Y-107104628D02*
X183300952Y-107057009D01*
X183300952Y-107057009D02*
X183205714Y-107009390D01*
X183205714Y-107009390D02*
X183158095Y-106961771D01*
X183158095Y-106961771D02*
X183110476Y-106866533D01*
X183110476Y-106866533D02*
X183110476Y-106771295D01*
X183110476Y-106771295D02*
X183158095Y-106676057D01*
X183158095Y-106676057D02*
X183205714Y-106628438D01*
X183205714Y-106628438D02*
X183300952Y-106580819D01*
X183300952Y-106580819D02*
X183539047Y-106580819D01*
X183539047Y-106580819D02*
X183681904Y-106628438D01*
X184015238Y-106580819D02*
X184253333Y-107580819D01*
X184253333Y-107580819D02*
X184443809Y-106866533D01*
X184443809Y-106866533D02*
X184634285Y-107580819D01*
X184634285Y-107580819D02*
X184872381Y-106580819D01*
X185777142Y-107580819D02*
X185205714Y-107580819D01*
X185491428Y-107580819D02*
X185491428Y-106580819D01*
X185491428Y-106580819D02*
X185396190Y-106723676D01*
X185396190Y-106723676D02*
X185300952Y-106818914D01*
X185300952Y-106818914D02*
X185205714Y-106866533D01*
X186158095Y-106676057D02*
X186205714Y-106628438D01*
X186205714Y-106628438D02*
X186300952Y-106580819D01*
X186300952Y-106580819D02*
X186539047Y-106580819D01*
X186539047Y-106580819D02*
X186634285Y-106628438D01*
X186634285Y-106628438D02*
X186681904Y-106676057D01*
X186681904Y-106676057D02*
X186729523Y-106771295D01*
X186729523Y-106771295D02*
X186729523Y-106866533D01*
X186729523Y-106866533D02*
X186681904Y-107009390D01*
X186681904Y-107009390D02*
X186110476Y-107580819D01*
X186110476Y-107580819D02*
X186729523Y-107580819D01*
X133110476Y-57533200D02*
X133253333Y-57580819D01*
X133253333Y-57580819D02*
X133491428Y-57580819D01*
X133491428Y-57580819D02*
X133586666Y-57533200D01*
X133586666Y-57533200D02*
X133634285Y-57485580D01*
X133634285Y-57485580D02*
X133681904Y-57390342D01*
X133681904Y-57390342D02*
X133681904Y-57295104D01*
X133681904Y-57295104D02*
X133634285Y-57199866D01*
X133634285Y-57199866D02*
X133586666Y-57152247D01*
X133586666Y-57152247D02*
X133491428Y-57104628D01*
X133491428Y-57104628D02*
X133300952Y-57057009D01*
X133300952Y-57057009D02*
X133205714Y-57009390D01*
X133205714Y-57009390D02*
X133158095Y-56961771D01*
X133158095Y-56961771D02*
X133110476Y-56866533D01*
X133110476Y-56866533D02*
X133110476Y-56771295D01*
X133110476Y-56771295D02*
X133158095Y-56676057D01*
X133158095Y-56676057D02*
X133205714Y-56628438D01*
X133205714Y-56628438D02*
X133300952Y-56580819D01*
X133300952Y-56580819D02*
X133539047Y-56580819D01*
X133539047Y-56580819D02*
X133681904Y-56628438D01*
X134015238Y-56580819D02*
X134253333Y-57580819D01*
X134253333Y-57580819D02*
X134443809Y-56866533D01*
X134443809Y-56866533D02*
X134634285Y-57580819D01*
X134634285Y-57580819D02*
X134872381Y-56580819D01*
X135777142Y-57580819D02*
X135205714Y-57580819D01*
X135491428Y-57580819D02*
X135491428Y-56580819D01*
X135491428Y-56580819D02*
X135396190Y-56723676D01*
X135396190Y-56723676D02*
X135300952Y-56818914D01*
X135300952Y-56818914D02*
X135205714Y-56866533D01*
X136634285Y-56914152D02*
X136634285Y-57580819D01*
X136396190Y-56533200D02*
X136158095Y-57247485D01*
X136158095Y-57247485D02*
X136777142Y-57247485D01*
%TO.C,SW15*%
D11*
X152935000Y-58015000D02*
X166905000Y-58015000D01*
X152935000Y-71985000D02*
X152935000Y-58015000D01*
X166905000Y-58015000D02*
X166905000Y-71985000D01*
X166905000Y-71985000D02*
X152935000Y-71985000D01*
%TO.C,SW10*%
X127935000Y-108015000D02*
X141905000Y-108015000D01*
X127935000Y-121985000D02*
X127935000Y-108015000D01*
X141905000Y-108015000D02*
X141905000Y-121985000D01*
X141905000Y-121985000D02*
X127935000Y-121985000D01*
%TO.C,SW8*%
X177935000Y-163015000D02*
X191905000Y-163015000D01*
X177935000Y-176985000D02*
X177935000Y-163015000D01*
X191905000Y-163015000D02*
X191905000Y-176985000D01*
X191905000Y-176985000D02*
X177935000Y-176985000D01*
%TO.C,SW3*%
X152935000Y-138015000D02*
X166905000Y-138015000D01*
X152935000Y-151985000D02*
X152935000Y-138015000D01*
X166905000Y-138015000D02*
X166905000Y-151985000D01*
X166905000Y-151985000D02*
X152935000Y-151985000D01*
%TO.C,SW16*%
X177935000Y-58015000D02*
X191905000Y-58015000D01*
X177935000Y-71985000D02*
X177935000Y-58015000D01*
X191905000Y-58015000D02*
X191905000Y-71985000D01*
X191905000Y-71985000D02*
X177935000Y-71985000D01*
%TO.C,U1*%
X181790000Y-16745000D02*
X189510000Y-16745000D01*
X181790000Y-17010000D02*
X181790000Y-16745000D01*
X181790000Y-32365000D02*
X181790000Y-32100000D01*
X189510000Y-16745000D02*
X189510000Y-17010000D01*
X189510000Y-32100000D02*
X189510000Y-32365000D01*
X189510000Y-32365000D02*
X181790000Y-32365000D01*
X181000000Y-17005000D02*
X180660000Y-16535000D01*
X181340000Y-16535000D01*
X181000000Y-17005000D01*
G36*
X181000000Y-17005000D02*
G01*
X180660000Y-16535000D01*
X181340000Y-16535000D01*
X181000000Y-17005000D01*
G37*
%TO.C,RV3*%
X130030000Y-38880000D02*
X139970000Y-38880000D01*
X130030000Y-42745000D02*
X130030000Y-38880000D01*
X130030000Y-51120000D02*
X130030000Y-47255000D01*
X130030000Y-51120000D02*
X131629000Y-51120000D01*
X133371000Y-51120000D02*
X134130000Y-51120000D01*
X135871000Y-51120000D02*
X136630000Y-51120000D01*
X138370000Y-51120000D02*
X139970000Y-51120000D01*
X139970000Y-42745000D02*
X139970000Y-38880000D01*
X139970000Y-51120000D02*
X139970000Y-47255000D01*
%TO.C,J1*%
X130300000Y-28285000D02*
X131680000Y-28285000D01*
X131680000Y-26905000D02*
X131680000Y-28285000D01*
X128800000Y-17095000D02*
X166800000Y-17095000D01*
X166800000Y-29095000D01*
X128800000Y-29095000D01*
X128800000Y-17095000D01*
%TO.C,SW20*%
X137200000Y-85300000D02*
X137800000Y-85300000D01*
X137500000Y-85600000D02*
X137200000Y-85300000D01*
X137800000Y-85300000D02*
X137500000Y-85600000D01*
X138900000Y-83500000D02*
X138900000Y-95300000D01*
X143000000Y-83500000D02*
X138900000Y-83500000D01*
X143000000Y-95300000D02*
X138900000Y-95300000D01*
X144500000Y-89400000D02*
X145500000Y-89400000D01*
X145000000Y-88900000D02*
X145000000Y-89900000D01*
X147000000Y-83500000D02*
X151100000Y-83500000D01*
X151100000Y-83500000D02*
X151100000Y-85900000D01*
X151100000Y-88100000D02*
X151100000Y-90700000D01*
X151100000Y-92900000D02*
X151100000Y-95300000D01*
X151100000Y-95300000D02*
X147000000Y-95300000D01*
X148000000Y-89400000D02*
G75*
G02*
X142000000Y-89400000I-3000000J0D01*
G01*
X142000000Y-89400000D02*
G75*
G02*
X148000000Y-89400000I3000000J0D01*
G01*
%TO.C,RV5*%
X180030000Y-38880000D02*
X189970000Y-38880000D01*
X180030000Y-42745000D02*
X180030000Y-38880000D01*
X180030000Y-51120000D02*
X180030000Y-47255000D01*
X180030000Y-51120000D02*
X181629000Y-51120000D01*
X183371000Y-51120000D02*
X184130000Y-51120000D01*
X185871000Y-51120000D02*
X186630000Y-51120000D01*
X188370000Y-51120000D02*
X189970000Y-51120000D01*
X189970000Y-42745000D02*
X189970000Y-38880000D01*
X189970000Y-51120000D02*
X189970000Y-47255000D01*
%TO.C,C3*%
X194738748Y-18265000D02*
X195261252Y-18265000D01*
X194738748Y-19735000D02*
X195261252Y-19735000D01*
%TO.C,SW11*%
X152935000Y-108015000D02*
X166905000Y-108015000D01*
X152935000Y-121985000D02*
X152935000Y-108015000D01*
X166905000Y-108015000D02*
X166905000Y-121985000D01*
X166905000Y-121985000D02*
X152935000Y-121985000D01*
%TO.C,RV1*%
X207180000Y-80980000D02*
X207180000Y-84365000D01*
X207180000Y-87636000D02*
X207180000Y-149565000D01*
X207180000Y-152836000D02*
X207180000Y-156220000D01*
X209227000Y-80980000D02*
X207180000Y-80980000D01*
X211800000Y-88600000D02*
X211050000Y-89350000D01*
X211800000Y-88600000D02*
X211800000Y-148600000D01*
X211800000Y-148600000D02*
X211050000Y-147850000D01*
X212375000Y-80980000D02*
X210872000Y-80980000D01*
X212550000Y-89350000D02*
X211800000Y-88600000D01*
X212550000Y-147850000D02*
X211800000Y-148600000D01*
X212727000Y-156220000D02*
X207180000Y-156220000D01*
X213050000Y-80175000D02*
X213550000Y-80675000D01*
X213300000Y-88600000D02*
X210300000Y-88600000D01*
X213300000Y-148600000D02*
X210300000Y-148600000D01*
X213550000Y-80675000D02*
X214050000Y-80175000D01*
X214050000Y-80175000D02*
X213050000Y-80175000D01*
X216420000Y-80980000D02*
X214725000Y-80980000D01*
X216420000Y-80980000D02*
X216420000Y-85565000D01*
X216420000Y-88836000D02*
X216420000Y-148365000D01*
X216420000Y-151636000D02*
X216420000Y-156220000D01*
X216420000Y-156220000D02*
X214373000Y-156220000D01*
%TO.C,SW1*%
X102935000Y-138015000D02*
X116905000Y-138015000D01*
X102935000Y-151985000D02*
X102935000Y-138015000D01*
X116905000Y-138015000D02*
X116905000Y-151985000D01*
X116905000Y-151985000D02*
X102935000Y-151985000D01*
%TO.C,SW17*%
X102200000Y-19300000D02*
X102800000Y-19300000D01*
X102500000Y-19600000D02*
X102200000Y-19300000D01*
X102800000Y-19300000D02*
X102500000Y-19600000D01*
X103900000Y-17500000D02*
X103900000Y-29300000D01*
X108000000Y-17500000D02*
X103900000Y-17500000D01*
X108000000Y-29300000D02*
X103900000Y-29300000D01*
X109500000Y-23400000D02*
X110500000Y-23400000D01*
X110000000Y-22900000D02*
X110000000Y-23900000D01*
X112000000Y-17500000D02*
X116100000Y-17500000D01*
X116100000Y-17500000D02*
X116100000Y-19900000D01*
X116100000Y-22100000D02*
X116100000Y-24700000D01*
X116100000Y-26900000D02*
X116100000Y-29300000D01*
X116100000Y-29300000D02*
X112000000Y-29300000D01*
X113000000Y-23400000D02*
G75*
G02*
X107000000Y-23400000I-3000000J0D01*
G01*
X107000000Y-23400000D02*
G75*
G02*
X113000000Y-23400000I3000000J0D01*
G01*
%TO.C,SW5*%
X102935000Y-163015000D02*
X116905000Y-163015000D01*
X102935000Y-176985000D02*
X102935000Y-163015000D01*
X116905000Y-163015000D02*
X116905000Y-176985000D01*
X116905000Y-176985000D02*
X102935000Y-176985000D01*
%TO.C,SW4*%
X177935000Y-138015000D02*
X191905000Y-138015000D01*
X177935000Y-151985000D02*
X177935000Y-138015000D01*
X191905000Y-138015000D02*
X191905000Y-151985000D01*
X191905000Y-151985000D02*
X177935000Y-151985000D01*
%TO.C,SW9*%
X102935000Y-108015000D02*
X116905000Y-108015000D01*
X102935000Y-121985000D02*
X102935000Y-108015000D01*
X116905000Y-108015000D02*
X116905000Y-121985000D01*
X116905000Y-121985000D02*
X102935000Y-121985000D01*
%TO.C,SW6*%
X127935000Y-163015000D02*
X141905000Y-163015000D01*
X127935000Y-176985000D02*
X127935000Y-163015000D01*
X141905000Y-163015000D02*
X141905000Y-176985000D01*
X141905000Y-176985000D02*
X127935000Y-176985000D01*
%TO.C,A1*%
X201280000Y-16660000D02*
X200800000Y-16660000D01*
X201280000Y-16660000D02*
X201280000Y-17080000D01*
X201280000Y-19200000D02*
X201280000Y-19620000D01*
X201280000Y-21740000D02*
X201280000Y-22160000D01*
X201280000Y-24280000D02*
X201280000Y-24700000D01*
X201280000Y-26820000D02*
X201280000Y-27240000D01*
X201280000Y-29360000D02*
X201280000Y-29780000D01*
X201280000Y-31900000D02*
X201280000Y-32320000D01*
X201280000Y-34440000D02*
X201280000Y-34860000D01*
X201280000Y-36980000D02*
X201280000Y-37400000D01*
X201280000Y-39520000D02*
X201280000Y-39940000D01*
X201280000Y-42060000D02*
X201280000Y-42480000D01*
X201280000Y-44600000D02*
X201280000Y-45020000D01*
X201280000Y-47140000D02*
X201280000Y-47560000D01*
X201280000Y-49680000D02*
X201280000Y-50100000D01*
X201280000Y-52220000D02*
X201280000Y-52640000D01*
X201280000Y-54760000D02*
X201280000Y-55180000D01*
X201280000Y-57300000D02*
X201280000Y-57720000D01*
X201280000Y-59840000D02*
X201280000Y-60260000D01*
X201280000Y-62380000D02*
X201280000Y-62800000D01*
X201310324Y-14540000D02*
X200800000Y-14540000D01*
X201620000Y-14540063D02*
X201620000Y-14183000D01*
X201620000Y-16660000D02*
X201620000Y-17080000D01*
X201620000Y-19200000D02*
X201620000Y-19620000D01*
X201620000Y-21740000D02*
X201620000Y-22160000D01*
X201620000Y-24280000D02*
X201620000Y-24700000D01*
X201620000Y-26820000D02*
X201620000Y-27240000D01*
X201620000Y-29360000D02*
X201620000Y-29780000D01*
X201620000Y-31900000D02*
X201620000Y-32320000D01*
X201620000Y-34440000D02*
X201620000Y-34860000D01*
X201620000Y-36980000D02*
X201620000Y-37400000D01*
X201620000Y-39520000D02*
X201620000Y-39940000D01*
X201620000Y-42060000D02*
X201620000Y-42480000D01*
X201620000Y-44600000D02*
X201620000Y-45020000D01*
X201620000Y-47140000D02*
X201620000Y-47560000D01*
X201620000Y-49680000D02*
X201620000Y-50100000D01*
X201620000Y-52220000D02*
X201620000Y-52640000D01*
X201620000Y-54760000D02*
X201620000Y-55180000D01*
X201620000Y-57300000D02*
X201620000Y-57720000D01*
X201620000Y-59840000D02*
X201620000Y-60260000D01*
X201620000Y-62380000D02*
X201620000Y-62800000D01*
X201620000Y-64919937D02*
X201620000Y-65277000D01*
X201890000Y-14120000D02*
X204380000Y-14120000D01*
X201890000Y-65340000D02*
X205727939Y-65340000D01*
X204380000Y-14120000D02*
X204380000Y-15033520D01*
X204380000Y-14120000D02*
X205727940Y-14120000D01*
X204380000Y-17426480D02*
X204380000Y-62033520D01*
X204380000Y-64426480D02*
X204380000Y-65340000D01*
X206652061Y-14120000D02*
X207655000Y-14120000D01*
X207655000Y-14120000D02*
X216125000Y-14120000D01*
X207990000Y-14120000D02*
X207990000Y-15036000D01*
X207990000Y-17424000D02*
X207990000Y-18640000D01*
X207990000Y-18640000D02*
X208286090Y-18640000D01*
X208290000Y-65340000D02*
X206652061Y-65340000D01*
X210643910Y-18640000D02*
X213136090Y-18640000D01*
X215490000Y-65340000D02*
X208290000Y-65340000D01*
X215493910Y-18640000D02*
X215790000Y-18640000D01*
X215790000Y-14120000D02*
X215790000Y-15036000D01*
X215790000Y-17424000D02*
X215790000Y-18640000D01*
X216125000Y-14120000D02*
X217127939Y-14120000D01*
X217127939Y-65340000D02*
X215490000Y-65340000D01*
X218052061Y-14120000D02*
X219400000Y-14120000D01*
X218052061Y-65340000D02*
X221890000Y-65340000D01*
X219400000Y-14120000D02*
X219400000Y-15033520D01*
X219400000Y-17426480D02*
X219400000Y-62033520D01*
X219400000Y-64426480D02*
X219400000Y-65340000D01*
X221890000Y-14120000D02*
X219400000Y-14120000D01*
X222160000Y-14540063D02*
X222160000Y-14183000D01*
X222160000Y-16660000D02*
X222160000Y-17080000D01*
X222160000Y-19200000D02*
X222160000Y-19620000D01*
X222160000Y-21740000D02*
X222160000Y-22160000D01*
X222160000Y-24280000D02*
X222160000Y-24700000D01*
X222160000Y-26820000D02*
X222160000Y-27240000D01*
X222160000Y-29360000D02*
X222160000Y-29780000D01*
X222160000Y-31900000D02*
X222160000Y-32320000D01*
X222160000Y-34440000D02*
X222160000Y-34860000D01*
X222160000Y-36980000D02*
X222160000Y-37400000D01*
X222160000Y-39520000D02*
X222160000Y-39940000D01*
X222160000Y-42060000D02*
X222160000Y-42480000D01*
X222160000Y-44600000D02*
X222160000Y-45020000D01*
X222160000Y-47140000D02*
X222160000Y-47560000D01*
X222160000Y-49680000D02*
X222160000Y-50100000D01*
X222160000Y-52220000D02*
X222160000Y-52640000D01*
X222160000Y-54760000D02*
X222160000Y-55180000D01*
X222160000Y-57300000D02*
X222160000Y-57720000D01*
X222160000Y-59840000D02*
X222160000Y-60260000D01*
X222160000Y-62380000D02*
X222160000Y-62800000D01*
X222160000Y-64919937D02*
X222160000Y-65277000D01*
X222500000Y-16660000D02*
X222500000Y-17080000D01*
X222500000Y-19200000D02*
X222500000Y-19620000D01*
X222500000Y-21740000D02*
X222500000Y-22160000D01*
X222500000Y-24280000D02*
X222500000Y-24700000D01*
X222500000Y-26820000D02*
X222500000Y-27240000D01*
X222500000Y-29360000D02*
X222500000Y-29780000D01*
X222500000Y-31900000D02*
X222500000Y-32320000D01*
X222500000Y-34440000D02*
X222500000Y-34860000D01*
X222500000Y-36980000D02*
X222500000Y-37400000D01*
X222500000Y-39520000D02*
X222500000Y-39940000D01*
X222500000Y-42060000D02*
X222500000Y-42480000D01*
X222500000Y-44600000D02*
X222500000Y-45020000D01*
X222500000Y-47140000D02*
X222500000Y-47560000D01*
X222500000Y-49680000D02*
X222500000Y-50100000D01*
X222500000Y-52220000D02*
X222500000Y-52640000D01*
X222500000Y-54760000D02*
X222500000Y-55180000D01*
X222500000Y-57300000D02*
X222500000Y-57720000D01*
X222500000Y-59840000D02*
X222500000Y-60260000D01*
X222500000Y-62380000D02*
X222500000Y-62800000D01*
X201310324Y-14540000D02*
G75*
G02*
X201890000Y-14120000I579692J-190051D01*
G01*
X201890000Y-65340000D02*
G75*
G02*
X201310324Y-64919937I1J610002D01*
G01*
X221890000Y-14120000D02*
G75*
G02*
X222469676Y-14540063I0J-610000D01*
G01*
X222469676Y-64919937D02*
G75*
G02*
X221890000Y-65340069I-579676J189837D01*
G01*
%TO.C,RV4*%
X155030000Y-38880000D02*
X164970000Y-38880000D01*
X155030000Y-42745000D02*
X155030000Y-38880000D01*
X155030000Y-51120000D02*
X155030000Y-47255000D01*
X155030000Y-51120000D02*
X156629000Y-51120000D01*
X158371000Y-51120000D02*
X159130000Y-51120000D01*
X160871000Y-51120000D02*
X161630000Y-51120000D01*
X163370000Y-51120000D02*
X164970000Y-51120000D01*
X164970000Y-42745000D02*
X164970000Y-38880000D01*
X164970000Y-51120000D02*
X164970000Y-47255000D01*
%TO.C,SW21*%
X177450000Y-85900000D02*
X178050000Y-85900000D01*
X177750000Y-86200000D02*
X177450000Y-85900000D01*
X178050000Y-85900000D02*
X177750000Y-86200000D01*
X179150000Y-84100000D02*
X179150000Y-95900000D01*
X183250000Y-84100000D02*
X179150000Y-84100000D01*
X183250000Y-95900000D02*
X179150000Y-95900000D01*
X184750000Y-90000000D02*
X185750000Y-90000000D01*
X185250000Y-89500000D02*
X185250000Y-90500000D01*
X187250000Y-84100000D02*
X191350000Y-84100000D01*
X191350000Y-84100000D02*
X191350000Y-86500000D01*
X191350000Y-88700000D02*
X191350000Y-91300000D01*
X191350000Y-93500000D02*
X191350000Y-95900000D01*
X191350000Y-95900000D02*
X187250000Y-95900000D01*
X188250000Y-90000000D02*
G75*
G02*
X182250000Y-90000000I-3000000J0D01*
G01*
X182250000Y-90000000D02*
G75*
G02*
X188250000Y-90000000I3000000J0D01*
G01*
%TO.C,SW2*%
X127935000Y-138015000D02*
X141905000Y-138015000D01*
X127935000Y-151985000D02*
X127935000Y-138015000D01*
X141905000Y-138015000D02*
X141905000Y-151985000D01*
X141905000Y-151985000D02*
X127935000Y-151985000D01*
%TO.C,SW13*%
X102935000Y-58015000D02*
X116905000Y-58015000D01*
X102935000Y-71985000D02*
X102935000Y-58015000D01*
X116905000Y-58015000D02*
X116905000Y-71985000D01*
X116905000Y-71985000D02*
X102935000Y-71985000D01*
%TO.C,SW7*%
X152935000Y-163015000D02*
X166905000Y-163015000D01*
X152935000Y-176985000D02*
X152935000Y-163015000D01*
X166905000Y-163015000D02*
X166905000Y-176985000D01*
X166905000Y-176985000D02*
X152935000Y-176985000D01*
%TO.C,SW18*%
X102935000Y-83015000D02*
X116905000Y-83015000D01*
X102935000Y-96985000D02*
X102935000Y-83015000D01*
X116905000Y-83015000D02*
X116905000Y-96985000D01*
X116905000Y-96985000D02*
X102935000Y-96985000D01*
%TO.C,RV2*%
X105030000Y-38880000D02*
X114970000Y-38880000D01*
X105030000Y-42745000D02*
X105030000Y-38880000D01*
X105030000Y-51120000D02*
X105030000Y-47255000D01*
X105030000Y-51120000D02*
X106629000Y-51120000D01*
X108371000Y-51120000D02*
X109130000Y-51120000D01*
X110871000Y-51120000D02*
X111630000Y-51120000D01*
X113370000Y-51120000D02*
X114970000Y-51120000D01*
X114970000Y-42745000D02*
X114970000Y-38880000D01*
X114970000Y-51120000D02*
X114970000Y-47255000D01*
%TO.C,SW12*%
X177935000Y-108015000D02*
X191905000Y-108015000D01*
X177935000Y-121985000D02*
X177935000Y-108015000D01*
X191905000Y-108015000D02*
X191905000Y-121985000D01*
X191905000Y-121985000D02*
X177935000Y-121985000D01*
%TO.C,SW14*%
X127935000Y-58015000D02*
X141905000Y-58015000D01*
X127935000Y-71985000D02*
X127935000Y-58015000D01*
X141905000Y-58015000D02*
X141905000Y-71985000D01*
X141905000Y-71985000D02*
X127935000Y-71985000D01*
%TD*%
M02*
