%TF.GenerationSoftware,KiCad,Pcbnew,10.0.0*%
%TF.CreationDate,2026-04-24T22:29:45+07:00*%
%TF.ProjectId,deck module,6465636b-206d-46f6-9475-6c652e6b6963,rev?*%
%TF.SameCoordinates,Original*%
%TF.FileFunction,Other,ECO2*%
%FSLAX46Y46*%
G04 Gerber Fmt 4.6, Leading zero omitted, Abs format (unit mm)*
G04 Created by KiCad (PCBNEW 10.0.0) date 2026-04-24 22:29:45*
%MOMM*%
%LPD*%
G01*
G04 APERTURE LIST*
%ADD10C,0.050000*%
G04 APERTURE END LIST*
%TO.C,SW4*%
D10*
X191947236Y-151498884D02*
G75*
G02*
X191447236Y-151998936I-500036J-16D01*
G01*
X191450000Y-138000000D02*
G75*
G02*
X191950000Y-138500000I0J-500000D01*
G01*
X178450000Y-152000000D02*
G75*
G02*
X177950000Y-151500000I1J500001D01*
G01*
X177950000Y-138500000D02*
G75*
G02*
X178450000Y-138000000I500001J-1D01*
G01*
X191950000Y-138500000D02*
X191950000Y-151500000D01*
X191450000Y-152000000D02*
X178450000Y-152000000D01*
X178450000Y-138000000D02*
X191450000Y-138000000D01*
X177950000Y-151500000D02*
X177950000Y-138500000D01*
%TO.C,SW18*%
X102950000Y-96500000D02*
X102950000Y-83500000D01*
X103450000Y-83000000D02*
X116450000Y-83000000D01*
X116450000Y-97000000D02*
X103450000Y-97000000D01*
X116950000Y-83500000D02*
X116950000Y-96500000D01*
X102950000Y-83500000D02*
G75*
G02*
X103450000Y-83000000I500001J-1D01*
G01*
X103450000Y-97000000D02*
G75*
G02*
X102950000Y-96500000I1J500001D01*
G01*
X116450000Y-83000000D02*
G75*
G02*
X116950000Y-83500000I0J-500000D01*
G01*
X116947236Y-96498884D02*
G75*
G02*
X116447236Y-96998936I-500036J-16D01*
G01*
%TO.C,SW16*%
X177950000Y-71500000D02*
X177950000Y-58500000D01*
X178450000Y-58000000D02*
X191450000Y-58000000D01*
X191450000Y-72000000D02*
X178450000Y-72000000D01*
X191950000Y-58500000D02*
X191950000Y-71500000D01*
X177950000Y-58500000D02*
G75*
G02*
X178450000Y-58000000I500001J-1D01*
G01*
X178450000Y-72000000D02*
G75*
G02*
X177950000Y-71500000I1J500001D01*
G01*
X191450000Y-58000000D02*
G75*
G02*
X191950000Y-58500000I0J-500000D01*
G01*
X191947236Y-71498884D02*
G75*
G02*
X191447236Y-71998936I-500036J-16D01*
G01*
%TO.C,SW15*%
X152950000Y-71500000D02*
X152950000Y-58500000D01*
X153450000Y-58000000D02*
X166450000Y-58000000D01*
X166450000Y-72000000D02*
X153450000Y-72000000D01*
X166950000Y-58500000D02*
X166950000Y-71500000D01*
X152950000Y-58500000D02*
G75*
G02*
X153450000Y-58000000I500001J-1D01*
G01*
X153450000Y-72000000D02*
G75*
G02*
X152950000Y-71500000I1J500001D01*
G01*
X166450000Y-58000000D02*
G75*
G02*
X166950000Y-58500000I0J-500000D01*
G01*
X166947236Y-71498884D02*
G75*
G02*
X166447236Y-71998936I-500036J-16D01*
G01*
%TO.C,SW14*%
X127950000Y-71500000D02*
X127950000Y-58500000D01*
X128450000Y-58000000D02*
X141450000Y-58000000D01*
X141450000Y-72000000D02*
X128450000Y-72000000D01*
X141950000Y-58500000D02*
X141950000Y-71500000D01*
X127950000Y-58500000D02*
G75*
G02*
X128450000Y-58000000I500001J-1D01*
G01*
X128450000Y-72000000D02*
G75*
G02*
X127950000Y-71500000I1J500001D01*
G01*
X141450000Y-58000000D02*
G75*
G02*
X141950000Y-58500000I0J-500000D01*
G01*
X141947236Y-71498884D02*
G75*
G02*
X141447236Y-71998936I-500036J-16D01*
G01*
%TO.C,SW13*%
X102950000Y-71500000D02*
X102950000Y-58500000D01*
X103450000Y-58000000D02*
X116450000Y-58000000D01*
X116450000Y-72000000D02*
X103450000Y-72000000D01*
X116950000Y-58500000D02*
X116950000Y-71500000D01*
X102950000Y-58500000D02*
G75*
G02*
X103450000Y-58000000I500001J-1D01*
G01*
X103450000Y-72000000D02*
G75*
G02*
X102950000Y-71500000I1J500001D01*
G01*
X116450000Y-58000000D02*
G75*
G02*
X116950000Y-58500000I0J-500000D01*
G01*
X116947236Y-71498884D02*
G75*
G02*
X116447236Y-71998936I-500036J-16D01*
G01*
%TO.C,SW12*%
X177950000Y-121500000D02*
X177950000Y-108500000D01*
X178450000Y-108000000D02*
X191450000Y-108000000D01*
X191450000Y-122000000D02*
X178450000Y-122000000D01*
X191950000Y-108500000D02*
X191950000Y-121500000D01*
X177950000Y-108500000D02*
G75*
G02*
X178450000Y-108000000I500001J-1D01*
G01*
X178450000Y-122000000D02*
G75*
G02*
X177950000Y-121500000I1J500001D01*
G01*
X191450000Y-108000000D02*
G75*
G02*
X191950000Y-108500000I0J-500000D01*
G01*
X191947236Y-121498884D02*
G75*
G02*
X191447236Y-121998936I-500036J-16D01*
G01*
%TO.C,SW11*%
X152950000Y-121500000D02*
X152950000Y-108500000D01*
X153450000Y-108000000D02*
X166450000Y-108000000D01*
X166450000Y-122000000D02*
X153450000Y-122000000D01*
X166950000Y-108500000D02*
X166950000Y-121500000D01*
X152950000Y-108500000D02*
G75*
G02*
X153450000Y-108000000I500001J-1D01*
G01*
X153450000Y-122000000D02*
G75*
G02*
X152950000Y-121500000I1J500001D01*
G01*
X166450000Y-108000000D02*
G75*
G02*
X166950000Y-108500000I0J-500000D01*
G01*
X166947236Y-121498884D02*
G75*
G02*
X166447236Y-121998936I-500036J-16D01*
G01*
%TO.C,SW10*%
X127950000Y-121500000D02*
X127950000Y-108500000D01*
X128450000Y-108000000D02*
X141450000Y-108000000D01*
X141450000Y-122000000D02*
X128450000Y-122000000D01*
X141950000Y-108500000D02*
X141950000Y-121500000D01*
X127950000Y-108500000D02*
G75*
G02*
X128450000Y-108000000I500001J-1D01*
G01*
X128450000Y-122000000D02*
G75*
G02*
X127950000Y-121500000I1J500001D01*
G01*
X141450000Y-108000000D02*
G75*
G02*
X141950000Y-108500000I0J-500000D01*
G01*
X141947236Y-121498884D02*
G75*
G02*
X141447236Y-121998936I-500036J-16D01*
G01*
%TO.C,SW9*%
X102950000Y-121500000D02*
X102950000Y-108500000D01*
X103450000Y-108000000D02*
X116450000Y-108000000D01*
X116450000Y-122000000D02*
X103450000Y-122000000D01*
X116950000Y-108500000D02*
X116950000Y-121500000D01*
X102950000Y-108500000D02*
G75*
G02*
X103450000Y-108000000I500001J-1D01*
G01*
X103450000Y-122000000D02*
G75*
G02*
X102950000Y-121500000I1J500001D01*
G01*
X116450000Y-108000000D02*
G75*
G02*
X116950000Y-108500000I0J-500000D01*
G01*
X116947236Y-121498884D02*
G75*
G02*
X116447236Y-121998936I-500036J-16D01*
G01*
%TO.C,SW8*%
X177950000Y-176500000D02*
X177950000Y-163500000D01*
X178450000Y-163000000D02*
X191450000Y-163000000D01*
X191450000Y-177000000D02*
X178450000Y-177000000D01*
X191950000Y-163500000D02*
X191950000Y-176500000D01*
X177950000Y-163500000D02*
G75*
G02*
X178450000Y-163000000I500001J-1D01*
G01*
X178450000Y-177000000D02*
G75*
G02*
X177950000Y-176500000I1J500001D01*
G01*
X191450000Y-163000000D02*
G75*
G02*
X191950000Y-163500000I0J-500000D01*
G01*
X191947236Y-176498884D02*
G75*
G02*
X191447236Y-176998936I-500036J-16D01*
G01*
%TO.C,SW7*%
X152950000Y-176500000D02*
X152950000Y-163500000D01*
X153450000Y-163000000D02*
X166450000Y-163000000D01*
X166450000Y-177000000D02*
X153450000Y-177000000D01*
X166950000Y-163500000D02*
X166950000Y-176500000D01*
X152950000Y-163500000D02*
G75*
G02*
X153450000Y-163000000I500001J-1D01*
G01*
X153450000Y-177000000D02*
G75*
G02*
X152950000Y-176500000I1J500001D01*
G01*
X166450000Y-163000000D02*
G75*
G02*
X166950000Y-163500000I0J-500000D01*
G01*
X166947236Y-176498884D02*
G75*
G02*
X166447236Y-176998936I-500036J-16D01*
G01*
%TO.C,SW6*%
X127950000Y-176500000D02*
X127950000Y-163500000D01*
X128450000Y-163000000D02*
X141450000Y-163000000D01*
X141450000Y-177000000D02*
X128450000Y-177000000D01*
X141950000Y-163500000D02*
X141950000Y-176500000D01*
X127950000Y-163500000D02*
G75*
G02*
X128450000Y-163000000I500001J-1D01*
G01*
X128450000Y-177000000D02*
G75*
G02*
X127950000Y-176500000I1J500001D01*
G01*
X141450000Y-163000000D02*
G75*
G02*
X141950000Y-163500000I0J-500000D01*
G01*
X141947236Y-176498884D02*
G75*
G02*
X141447236Y-176998936I-500036J-16D01*
G01*
%TO.C,SW5*%
X102950000Y-176500000D02*
X102950000Y-163500000D01*
X103450000Y-163000000D02*
X116450000Y-163000000D01*
X116450000Y-177000000D02*
X103450000Y-177000000D01*
X116950000Y-163500000D02*
X116950000Y-176500000D01*
X102950000Y-163500000D02*
G75*
G02*
X103450000Y-163000000I500001J-1D01*
G01*
X103450000Y-177000000D02*
G75*
G02*
X102950000Y-176500000I1J500001D01*
G01*
X116450000Y-163000000D02*
G75*
G02*
X116950000Y-163500000I0J-500000D01*
G01*
X116947236Y-176498884D02*
G75*
G02*
X116447236Y-176998936I-500036J-16D01*
G01*
%TO.C,SW3*%
X152950000Y-151500000D02*
X152950000Y-138500000D01*
X153450000Y-138000000D02*
X166450000Y-138000000D01*
X166450000Y-152000000D02*
X153450000Y-152000000D01*
X166950000Y-138500000D02*
X166950000Y-151500000D01*
X152950000Y-138500000D02*
G75*
G02*
X153450000Y-138000000I500001J-1D01*
G01*
X153450000Y-152000000D02*
G75*
G02*
X152950000Y-151500000I1J500001D01*
G01*
X166450000Y-138000000D02*
G75*
G02*
X166950000Y-138500000I0J-500000D01*
G01*
X166947236Y-151498884D02*
G75*
G02*
X166447236Y-151998936I-500036J-16D01*
G01*
%TO.C,SW2*%
X127950000Y-151500000D02*
X127950000Y-138500000D01*
X128450000Y-138000000D02*
X141450000Y-138000000D01*
X141450000Y-152000000D02*
X128450000Y-152000000D01*
X141950000Y-138500000D02*
X141950000Y-151500000D01*
X127950000Y-138500000D02*
G75*
G02*
X128450000Y-138000000I500001J-1D01*
G01*
X128450000Y-152000000D02*
G75*
G02*
X127950000Y-151500000I1J500001D01*
G01*
X141450000Y-138000000D02*
G75*
G02*
X141950000Y-138500000I0J-500000D01*
G01*
X141947236Y-151498884D02*
G75*
G02*
X141447236Y-151998936I-500036J-16D01*
G01*
%TO.C,SW1*%
X102950000Y-151500000D02*
X102950000Y-138500000D01*
X103450000Y-138000000D02*
X116450000Y-138000000D01*
X116450000Y-152000000D02*
X103450000Y-152000000D01*
X116950000Y-138500000D02*
X116950000Y-151500000D01*
X102950000Y-138500000D02*
G75*
G02*
X103450000Y-138000000I500001J-1D01*
G01*
X103450000Y-152000000D02*
G75*
G02*
X102950000Y-151500000I1J500001D01*
G01*
X116450000Y-138000000D02*
G75*
G02*
X116950000Y-138500000I0J-500000D01*
G01*
X116947236Y-151498884D02*
G75*
G02*
X116447236Y-151998936I-500036J-16D01*
G01*
%TD*%
M02*
