%TF.GenerationSoftware,KiCad,Pcbnew,10.0.0*%
%TF.CreationDate,2026-03-31T22:34:40+07:00*%
%TF.ProjectId,deck module,6465636b-206d-46f6-9475-6c652e6b6963,rev?*%
%TF.SameCoordinates,Original*%
%TF.FileFunction,Soldermask,Bot*%
%TF.FilePolarity,Negative*%
%FSLAX46Y46*%
G04 Gerber Fmt 4.6, Leading zero omitted, Abs format (unit mm)*
G04 Created by KiCad (PCBNEW 10.0.0) date 2026-03-31 22:34:40*
%MOMM*%
%LPD*%
G01*
G04 APERTURE LIST*
G04 Aperture macros list*
%AMRoundRect*
0 Rectangle with rounded corners*
0 $1 Rounding radius*
0 $2 $3 $4 $5 $6 $7 $8 $9 X,Y pos of 4 corners*
0 Add a 4 corners polygon primitive as box body*
4,1,4,$2,$3,$4,$5,$6,$7,$8,$9,$2,$3,0*
0 Add four circle primitives for the rounded corners*
1,1,$1+$1,$2,$3*
1,1,$1+$1,$4,$5*
1,1,$1+$1,$6,$7*
1,1,$1+$1,$8,$9*
0 Add four rect primitives between the rounded corners*
20,1,$1+$1,$2,$3,$4,$5,0*
20,1,$1+$1,$4,$5,$6,$7,0*
20,1,$1+$1,$6,$7,$8,$9,0*
20,1,$1+$1,$8,$9,$2,$3,0*%
%AMFreePoly0*
4,1,37,0.603843,0.796157,0.639018,0.796157,0.711114,0.766294,0.766294,0.711114,0.796157,0.639018,0.796157,0.603843,0.800000,0.600000,0.800000,-0.600000,0.796157,-0.603843,0.796157,-0.639018,0.766294,-0.711114,0.711114,-0.766294,0.639018,-0.796157,0.603843,-0.796157,0.600000,-0.800000,0.000000,-0.800000,0.000000,-0.796148,-0.078414,-0.796148,-0.232228,-0.765552,-0.377117,-0.705537,
-0.507515,-0.618408,-0.618408,-0.507515,-0.705537,-0.377117,-0.765552,-0.232228,-0.796148,-0.078414,-0.796148,0.078414,-0.765552,0.232228,-0.705537,0.377117,-0.618408,0.507515,-0.507515,0.618408,-0.377117,0.705537,-0.232228,0.765552,-0.078414,0.796148,0.000000,0.796148,0.000000,0.800000,0.600000,0.800000,0.603843,0.796157,0.603843,0.796157,$1*%
%AMFreePoly1*
4,1,37,0.000000,0.796148,0.078414,0.796148,0.232228,0.765552,0.377117,0.705537,0.507515,0.618408,0.618408,0.507515,0.705537,0.377117,0.765552,0.232228,0.796148,0.078414,0.796148,-0.078414,0.765552,-0.232228,0.705537,-0.377117,0.618408,-0.507515,0.507515,-0.618408,0.377117,-0.705537,0.232228,-0.765552,0.078414,-0.796148,0.000000,-0.796148,0.000000,-0.800000,-0.600000,-0.800000,
-0.603843,-0.796157,-0.639018,-0.796157,-0.711114,-0.766294,-0.766294,-0.711114,-0.796157,-0.639018,-0.796157,-0.603843,-0.800000,-0.600000,-0.800000,0.600000,-0.796157,0.603843,-0.796157,0.639018,-0.766294,0.711114,-0.711114,0.766294,-0.639018,0.796157,-0.603843,0.796157,-0.600000,0.800000,0.000000,0.800000,0.000000,0.796148,0.000000,0.796148,$1*%
G04 Aperture macros list end*
%ADD10C,1.700000*%
%ADD11C,4.000000*%
%ADD12C,2.200000*%
%ADD13C,1.800000*%
%ADD14RoundRect,0.170000X0.680000X-0.680000X0.680000X0.680000X-0.680000X0.680000X-0.680000X-0.680000X0*%
%ADD15R,2.000000X2.000000*%
%ADD16C,2.000000*%
%ADD17R,3.200000X2.000000*%
%ADD18R,1.750000X1.750000*%
%ADD19C,1.750000*%
%ADD20C,2.700000*%
%ADD21C,1.850000*%
%ADD22RoundRect,0.200000X-0.600000X-0.600000X0.600000X-0.600000X0.600000X0.600000X-0.600000X0.600000X0*%
%ADD23C,1.600000*%
%ADD24FreePoly0,0.000000*%
%ADD25FreePoly1,0.000000*%
%ADD26RoundRect,0.250000X-0.550000X0.550000X-0.550000X-0.550000X0.550000X-0.550000X0.550000X0.550000X0*%
%ADD27RoundRect,0.250000X-0.250000X-0.475000X0.250000X-0.475000X0.250000X0.475000X-0.250000X0.475000X0*%
%ADD28RoundRect,0.250000X-0.475000X0.250000X-0.475000X-0.250000X0.475000X-0.250000X0.475000X0.250000X0*%
G04 APERTURE END LIST*
D10*
%TO.C,SW15*%
X154840000Y-65000000D03*
D11*
X159920000Y-65000000D03*
D10*
X165000000Y-65000000D03*
D12*
X162460000Y-59920000D03*
X156110000Y-62460000D03*
%TD*%
D10*
%TO.C,SW10*%
X129840000Y-115000000D03*
D11*
X134920000Y-115000000D03*
D10*
X140000000Y-115000000D03*
D12*
X137460000Y-109920000D03*
X131110000Y-112460000D03*
%TD*%
D10*
%TO.C,SW8*%
X179840000Y-170000000D03*
D11*
X184920000Y-170000000D03*
D10*
X190000000Y-170000000D03*
D12*
X187460000Y-164920000D03*
X181110000Y-167460000D03*
%TD*%
D10*
%TO.C,SW3*%
X154840000Y-145000000D03*
D11*
X159920000Y-145000000D03*
D10*
X165000000Y-145000000D03*
D12*
X162460000Y-139920000D03*
X156110000Y-142460000D03*
%TD*%
D10*
%TO.C,SW16*%
X179840000Y-65000000D03*
D11*
X184920000Y-65000000D03*
D10*
X190000000Y-65000000D03*
D12*
X187460000Y-59920000D03*
X181110000Y-62460000D03*
%TD*%
D11*
%TO.C,RV3*%
X130600000Y-45000000D03*
X139400000Y-45000000D03*
D13*
X137500000Y-52000000D03*
X135000000Y-52000000D03*
X132500000Y-52000000D03*
%TD*%
D14*
%TO.C,J1*%
X130300000Y-26905000D03*
D10*
X130300000Y-24365000D03*
X130300000Y-21825000D03*
X130300000Y-19285000D03*
%TD*%
D15*
%TO.C,SW20*%
X137500000Y-86900000D03*
D16*
X137500000Y-91900000D03*
X137500000Y-89400000D03*
D17*
X145000000Y-83800000D03*
X145000000Y-95000000D03*
D16*
X152000000Y-91900000D03*
X152000000Y-86900000D03*
%TD*%
D11*
%TO.C,RV5*%
X180600000Y-45000000D03*
X189400000Y-45000000D03*
D13*
X187500000Y-52000000D03*
X185000000Y-52000000D03*
X182500000Y-52000000D03*
%TD*%
D10*
%TO.C,SW11*%
X154840000Y-115000000D03*
D11*
X159920000Y-115000000D03*
D10*
X165000000Y-115000000D03*
D12*
X162460000Y-109920000D03*
X156110000Y-112460000D03*
%TD*%
D18*
%TO.C,RV1*%
X213550000Y-81850000D03*
D19*
X210050000Y-81850000D03*
X213550000Y-155350000D03*
D20*
X207600000Y-86000000D03*
X216000000Y-87200000D03*
X216000000Y-150000000D03*
X207600000Y-151200000D03*
%TD*%
D10*
%TO.C,SW1*%
X104840000Y-145000000D03*
D11*
X109920000Y-145000000D03*
D10*
X115000000Y-145000000D03*
D12*
X112460000Y-139920000D03*
X106110000Y-142460000D03*
%TD*%
D15*
%TO.C,SW17*%
X102500000Y-20900000D03*
D16*
X102500000Y-25900000D03*
X102500000Y-23400000D03*
D17*
X110000000Y-17800000D03*
X110000000Y-29000000D03*
D16*
X117000000Y-25900000D03*
X117000000Y-20900000D03*
%TD*%
D10*
%TO.C,SW5*%
X104840000Y-170000000D03*
D11*
X109920000Y-170000000D03*
D10*
X115000000Y-170000000D03*
D12*
X112460000Y-164920000D03*
X106110000Y-167460000D03*
%TD*%
D10*
%TO.C,SW4*%
X179840000Y-145000000D03*
D11*
X184920000Y-145000000D03*
D10*
X190000000Y-145000000D03*
D12*
X187460000Y-139920000D03*
X181110000Y-142460000D03*
%TD*%
D10*
%TO.C,SW9*%
X104840000Y-115000000D03*
D11*
X109920000Y-115000000D03*
D10*
X115000000Y-115000000D03*
D12*
X112460000Y-109920000D03*
X106110000Y-112460000D03*
%TD*%
D10*
%TO.C,SW6*%
X129840000Y-170000000D03*
D11*
X134920000Y-170000000D03*
D10*
X140000000Y-170000000D03*
D12*
X137460000Y-164920000D03*
X131110000Y-167460000D03*
%TD*%
%TO.C,A1*%
X209165000Y-15730000D03*
D21*
X209465000Y-18760000D03*
X214315000Y-18760000D03*
D12*
X214615000Y-15730000D03*
D22*
X203000000Y-15600000D03*
D23*
X203000000Y-18140000D03*
D24*
X203000000Y-20680000D03*
D23*
X203000000Y-23220000D03*
X203000000Y-25760000D03*
X203000000Y-28300000D03*
X203000000Y-30840000D03*
D24*
X203000000Y-33380000D03*
D23*
X203000000Y-35920000D03*
X203000000Y-38460000D03*
X203000000Y-41000000D03*
X203000000Y-43540000D03*
D24*
X203000000Y-46080000D03*
D23*
X203000000Y-48620000D03*
X203000000Y-51160000D03*
X203000000Y-53700000D03*
X203000000Y-56240000D03*
D24*
X203000000Y-58780000D03*
D23*
X203000000Y-61320000D03*
X203000000Y-63860000D03*
X220780000Y-63860000D03*
X220780000Y-61320000D03*
D25*
X220780000Y-58780000D03*
D23*
X220780000Y-56240000D03*
X220780000Y-53700000D03*
X220780000Y-51160000D03*
X220780000Y-48620000D03*
D25*
X220780000Y-46080000D03*
D23*
X220780000Y-43540000D03*
X220780000Y-41000000D03*
X220780000Y-38460000D03*
X220780000Y-35920000D03*
D25*
X220780000Y-33380000D03*
D23*
X220780000Y-30840000D03*
X220780000Y-28300000D03*
X220780000Y-25760000D03*
X220780000Y-23220000D03*
D25*
X220780000Y-20680000D03*
D23*
X220780000Y-18140000D03*
X220780000Y-15600000D03*
%TD*%
D11*
%TO.C,RV4*%
X155600000Y-45000000D03*
X164400000Y-45000000D03*
D13*
X162500000Y-52000000D03*
X160000000Y-52000000D03*
X157500000Y-52000000D03*
%TD*%
D15*
%TO.C,SW21*%
X177750000Y-87500000D03*
D16*
X177750000Y-92500000D03*
X177750000Y-90000000D03*
D17*
X185250000Y-84400000D03*
X185250000Y-95600000D03*
D16*
X192250000Y-92500000D03*
X192250000Y-87500000D03*
%TD*%
D10*
%TO.C,SW2*%
X129840000Y-145000000D03*
D11*
X134920000Y-145000000D03*
D10*
X140000000Y-145000000D03*
D12*
X137460000Y-139920000D03*
X131110000Y-142460000D03*
%TD*%
D10*
%TO.C,SW13*%
X104840000Y-65000000D03*
D11*
X109920000Y-65000000D03*
D10*
X115000000Y-65000000D03*
D12*
X112460000Y-59920000D03*
X106110000Y-62460000D03*
%TD*%
D10*
%TO.C,SW7*%
X154840000Y-170000000D03*
D11*
X159920000Y-170000000D03*
D10*
X165000000Y-170000000D03*
D12*
X162460000Y-164920000D03*
X156110000Y-167460000D03*
%TD*%
D10*
%TO.C,SW18*%
X104840000Y-90000000D03*
D11*
X109920000Y-90000000D03*
D10*
X115000000Y-90000000D03*
D12*
X112460000Y-84920000D03*
X106110000Y-87460000D03*
%TD*%
D11*
%TO.C,RV2*%
X105600000Y-45000000D03*
X114400000Y-45000000D03*
D13*
X112500000Y-52000000D03*
X110000000Y-52000000D03*
X107500000Y-52000000D03*
%TD*%
D10*
%TO.C,SW12*%
X179840000Y-115000000D03*
D11*
X184920000Y-115000000D03*
D10*
X190000000Y-115000000D03*
D12*
X187460000Y-109920000D03*
X181110000Y-112460000D03*
%TD*%
D10*
%TO.C,SW14*%
X129840000Y-65000000D03*
D11*
X134920000Y-65000000D03*
D10*
X140000000Y-65000000D03*
D12*
X137460000Y-59920000D03*
X131110000Y-62460000D03*
%TD*%
D26*
%TO.C,D3*%
X156000000Y-83380000D03*
D23*
X156000000Y-91000000D03*
%TD*%
D26*
%TO.C,D16*%
X98000000Y-164190000D03*
D23*
X98000000Y-171810000D03*
%TD*%
D26*
%TO.C,D4*%
X196000000Y-83190000D03*
D23*
X196000000Y-90810000D03*
%TD*%
D26*
%TO.C,D11*%
X149000000Y-139190000D03*
D23*
X149000000Y-146810000D03*
%TD*%
D26*
%TO.C,D13*%
X174000000Y-164190000D03*
D23*
X174000000Y-171810000D03*
%TD*%
D26*
%TO.C,D19*%
X149000000Y-59380000D03*
D23*
X149000000Y-67000000D03*
%TD*%
D26*
%TO.C,D14*%
X149000000Y-164190000D03*
D23*
X149000000Y-171810000D03*
%TD*%
D27*
%TO.C,C1*%
X213050000Y-50000000D03*
X214950000Y-50000000D03*
%TD*%
D26*
%TO.C,D12*%
X174000000Y-139190000D03*
D23*
X174000000Y-146810000D03*
%TD*%
D26*
%TO.C,D9*%
X99000000Y-139190000D03*
D23*
X99000000Y-146810000D03*
%TD*%
D26*
%TO.C,D18*%
X124000000Y-59380000D03*
D23*
X124000000Y-67000000D03*
%TD*%
D26*
%TO.C,D20*%
X174000000Y-59380000D03*
D23*
X174000000Y-67000000D03*
%TD*%
D26*
%TO.C,D2*%
X121000000Y-17380000D03*
D23*
X121000000Y-25000000D03*
%TD*%
D28*
%TO.C,C2*%
X217000000Y-32050000D03*
X217000000Y-33950000D03*
%TD*%
D26*
%TO.C,D6*%
X149000000Y-109380000D03*
D23*
X149000000Y-117000000D03*
%TD*%
D26*
%TO.C,D15*%
X124000000Y-164190000D03*
D23*
X124000000Y-171810000D03*
%TD*%
D26*
%TO.C,D5*%
X174000000Y-109380000D03*
D23*
X174000000Y-117000000D03*
%TD*%
D26*
%TO.C,D7*%
X124000000Y-109380000D03*
D23*
X124000000Y-117000000D03*
%TD*%
D26*
%TO.C,D10*%
X124000000Y-139190000D03*
D23*
X124000000Y-146810000D03*
%TD*%
D26*
%TO.C,D17*%
X99000000Y-59380000D03*
D23*
X99000000Y-67000000D03*
%TD*%
D26*
%TO.C,D8*%
X99000000Y-109190000D03*
D23*
X99000000Y-116810000D03*
%TD*%
D26*
%TO.C,D1*%
X99000000Y-84190000D03*
D23*
X99000000Y-91810000D03*
%TD*%
M02*
