  0
SECTION
  2
HEADER
  9
$ANGBASE
  50
0.0
  9
$ANGDIR
  70
1
  9
$MEASUREMENT
  70
0
  9
$INSUNITS
  70
1
  0
ENDSEC
  0
SECTION
  2
TABLES
  0
TABLE
  2
LTYPE
  70
4
  0
LTYPE
  5
40F
  2
CONTINUOUS
  70
0
  3
Solid line
  72
65
  73
0
  40
0.0
  0
LTYPE
  5
410
  2
DASHDOT
 70
0
  3
Dash Dot ____ _ ____ _
 72
65
 73
4
 40
2.0
 49
1.25
 49
-0.25
 49
0.25
 49
-0.25
  0
LTYPE
  5
411
  2
DASHED
 70
0
  3
Dashed __ __ __ __ __
 72
65
 73
2
 40
0.75
 49
0.5
 49
-0.25
  0
LTYPE
  5
43B
  2
DOTTED
 70
0
  3
Dotted .  .  .  .
 72
65
 73
2
 40
0.2
 49
0.0
 49
-0.2
  0
ENDTAB
  0
TABLE
  2
STYLE
  70
4
  0
STYLE
  2
KICAD
  70
0
  40
0
  41
1
  42
1
  50
0
  71
0
  3
isocp.shx
  0
STYLE
  2
KICADB
  70
0
  40
0
  41
1
  42
1
  50
0
  71
0
  3
isocp.shx
  0
STYLE
  2
KICADI
  70
0
  40
0
  41
1
  42
1
  50
15
  71
0
  3
isocp.shx
  0
STYLE
  2
KICADBI
  70
0
  40
0
  41
1
  42
1
  50
15
  71
0
  3
isocp.shx
  0
ENDTAB
  0
TABLE
  2
LAYER
  70
1
  0
LAYER
  2
User.Eco2
  70
0
  62
31
  420
14207058
  6
CONTINUOUS
  0
ENDTAB
  0
ENDSEC
  0
SECTION
  2
ENTITIES
0
LINE
8
User.Eco2
6
CONTINUOUS
10
4.5846456692913389
20
-6.4163385826771648
11
4.589245
21
-6.4168568110236217
0
LINE
8
User.Eco2
6
CONTINUOUS
10
4.589245
20
-6.4168568110236217
11
4.5936137401574806
21
-6.4183855118110236
0
LINE
8
User.Eco2
6
CONTINUOUS
10
4.5936137401574806
20
-6.4183855118110236
11
4.5975327559055117
21
-6.4208479921259842
0
LINE
8
User.Eco2
6
CONTINUOUS
10
4.5975327559055117
20
-6.4208479921259842
11
4.6008055511811019
21
-6.4241207874015744
0
LINE
8
User.Eco2
6
CONTINUOUS
10
4.6008055511811019
20
-6.4241207874015744
11
4.6032680314960626
21
-6.4280398031496064
0
LINE
8
User.Eco2
6
CONTINUOUS
10
4.6032680314960626
20
-6.4280398031496064
11
4.6047967322834644
21
-6.4324085433070861
0
LINE
8
User.Eco2
6
CONTINUOUS
10
4.6047967322834644
20
-6.4324085433070861
11
4.6053149606299213
21
-6.4370078740157481
0
LINE
8
User.Eco2
6
CONTINUOUS
10
4.6053149606299213
20
-6.4370078740157481
11
4.6053149606299213
21
-6.9488188976377954
0
LINE
8
User.Eco2
6
CONTINUOUS
10
4.6053149606299213
20
-6.9488188976377954
11
4.605240039370079
21
-6.9491955511811021
0
LINE
8
User.Eco2
6
CONTINUOUS
10
4.605240039370079
20
-6.9491955511811021
11
4.60514842519685
21
-6.9492871259842515
0
LINE
8
User.Eco2
6
CONTINUOUS
10
4.60514842519685
20
-6.9492871259842515
11
4.6046879133858267
21
-6.9533742913385828
0
LINE
8
User.Eco2
6
CONTINUOUS
10
4.6046879133858267
20
-6.9533742913385828
11
4.6031592125984249
21
-6.9577430314960624
0
LINE
8
User.Eco2
6
CONTINUOUS
10
4.6031592125984249
20
-6.9577430314960624
11
4.6006967322834642
21
-6.9616620472440944
0
LINE
8
User.Eco2
6
CONTINUOUS
10
4.6006967322834642
20
-6.9616620472440944
11
4.597423937007874
21
-6.9649348425196846
0
LINE
8
User.Eco2
6
CONTINUOUS
10
4.597423937007874
20
-6.9649348425196846
11
4.593504921259842
21
-6.9673973228346453
0
LINE
8
User.Eco2
6
CONTINUOUS
10
4.593504921259842
20
-6.9673973228346453
11
4.5891361811023623
21
-6.9689260236220472
0
LINE
8
User.Eco2
6
CONTINUOUS
10
4.5891361811023623
20
-6.9689260236220472
11
4.585049015748031
21
-6.9693865354330704
0
LINE
8
User.Eco2
6
CONTINUOUS
10
4.585049015748031
20
-6.9693865354330704
11
4.5850223228346456
21
-6.9694132677165355
0
LINE
8
User.Eco2
6
CONTINUOUS
10
4.5850223228346456
20
-6.9694132677165355
11
4.5846456692913389
21
-6.9694881889763778
0
LINE
8
User.Eco2
6
CONTINUOUS
10
4.5846456692913389
20
-6.9694881889763778
11
4.0728346456692917
21
-6.9694881889763778
0
LINE
8
User.Eco2
6
CONTINUOUS
10
4.0728346456692917
20
-6.9694881889763778
11
4.0682353149606296
21
-6.9689699606299209
0
LINE
8
User.Eco2
6
CONTINUOUS
10
4.0682353149606296
20
-6.9689699606299209
11
4.0638665748031499
21
-6.9674412598425199
0
LINE
8
User.Eco2
6
CONTINUOUS
10
4.0638665748031499
20
-6.9674412598425199
11
4.0599475590551179
21
-6.9649787795275593
0
LINE
8
User.Eco2
6
CONTINUOUS
10
4.0599475590551179
20
-6.9649787795275593
11
4.0566747637795277
21
-6.9617059842519682
0
LINE
8
User.Eco2
6
CONTINUOUS
10
4.0566747637795277
20
-6.9617059842519682
11
4.0542122834645671
21
-6.9577869685039371
0
LINE
8
User.Eco2
6
CONTINUOUS
10
4.0542122834645671
20
-6.9577869685039371
11
4.0526835826771652
21
-6.9534182283464565
0
LINE
8
User.Eco2
6
CONTINUOUS
10
4.0526835826771652
20
-6.9534182283464565
11
4.0521653543307083
21
-6.9488188976377954
0
LINE
8
User.Eco2
6
CONTINUOUS
10
4.0521653543307083
20
-6.9488188976377954
11
4.0521653543307083
21
-6.4370078740157481
0
LINE
8
User.Eco2
6
CONTINUOUS
10
4.0521653543307083
20
-6.4370078740157481
11
4.0526835826771652
21
-6.4324085433070861
0
LINE
8
User.Eco2
6
CONTINUOUS
10
4.0526835826771652
20
-6.4324085433070861
11
4.0542122834645671
21
-6.4280398031496064
0
LINE
8
User.Eco2
6
CONTINUOUS
10
4.0542122834645671
20
-6.4280398031496064
11
4.0566747637795277
21
-6.4241207874015744
0
LINE
8
User.Eco2
6
CONTINUOUS
10
4.0566747637795277
20
-6.4241207874015744
11
4.0599475590551179
21
-6.4208479921259842
0
LINE
8
User.Eco2
6
CONTINUOUS
10
4.0599475590551179
20
-6.4208479921259842
11
4.0638665748031499
21
-6.4183855118110236
0
LINE
8
User.Eco2
6
CONTINUOUS
10
4.0638665748031499
20
-6.4183855118110236
11
4.0682353149606296
21
-6.4168568110236217
0
LINE
8
User.Eco2
6
CONTINUOUS
10
4.0682353149606296
20
-6.4168568110236217
11
4.0728346456692917
21
-6.4163385826771648
0
LINE
8
User.Eco2
6
CONTINUOUS
10
4.0728346456692917
20
-6.4163385826771648
11
4.5846456692913389
21
-6.4163385826771648
0
LINE
8
User.Eco2
6
CONTINUOUS
10
4.0728346456692917
20
-6.4183070866141732
11
4.0703726377952751
21
-6.4183070866141732
0
LINE
8
User.Eco2
6
CONTINUOUS
10
4.0703726377952751
20
-6.4183070866141732
11
4.0656164173228344
21
-6.4195815354330703
0
LINE
8
User.Eco2
6
CONTINUOUS
10
4.0656164173228344
20
-6.4195815354330703
11
4.061352086614173
21
-6.4220435433070868
0
LINE
8
User.Eco2
6
CONTINUOUS
10
4.061352086614173
20
-6.4220435433070868
11
4.0578703149606294
21
-6.4255253149606295
0
LINE
8
User.Eco2
6
CONTINUOUS
10
4.0578703149606294
20
-6.4255253149606295
11
4.0554083070866138
21
-6.4297896456692909
0
LINE
8
User.Eco2
6
CONTINUOUS
10
4.0554083070866138
20
-6.4297896456692909
11
4.0541338582677167
21
-6.4345458661417325
0
LINE
8
User.Eco2
6
CONTINUOUS
10
4.0541338582677167
20
-6.4345458661417325
11
4.0541338582677167
21
-6.4370078740157481
0
LINE
8
User.Eco2
6
CONTINUOUS
10
4.0541338582677167
20
-6.4370078740157481
11
4.0541338582677167
21
-6.9488188976377954
0
LINE
8
User.Eco2
6
CONTINUOUS
10
4.0541338582677167
20
-6.9488188976377954
11
4.0541338582677167
21
-6.951280905511811
0
LINE
8
User.Eco2
6
CONTINUOUS
10
4.0541338582677167
20
-6.951280905511811
11
4.0554083070866138
21
-6.9560371259842517
0
LINE
8
User.Eco2
6
CONTINUOUS
10
4.0554083070866138
20
-6.9560371259842517
11
4.0578703149606294
21
-6.9603014566929131
0
LINE
8
User.Eco2
6
CONTINUOUS
10
4.0578703149606294
20
-6.9603014566929131
11
4.061352086614173
21
-6.9637832283464567
0
LINE
8
User.Eco2
6
CONTINUOUS
10
4.061352086614173
20
-6.9637832283464567
11
4.0656164173228344
21
-6.9662452362204723
0
LINE
8
User.Eco2
6
CONTINUOUS
10
4.0656164173228344
20
-6.9662452362204723
11
4.0703726377952751
21
-6.9675196850393704
0
LINE
8
User.Eco2
6
CONTINUOUS
10
4.0703726377952751
20
-6.9675196850393704
11
4.0728346456692917
21
-6.9675196850393704
0
LINE
8
User.Eco2
6
CONTINUOUS
10
4.0728346456692917
20
-6.9675196850393704
11
4.5844016535433072
21
-6.9675196850393704
0
LINE
8
User.Eco2
6
CONTINUOUS
10
4.5844016535433072
20
-6.9675196850393704
11
4.5845368503937003
21
-6.9674757480314957
0
LINE
8
User.Eco2
6
CONTINUOUS
10
4.5845368503937003
20
-6.9674757480314957
11
4.5869988582677168
21
-6.9674757480314957
0
LINE
8
User.Eco2
6
CONTINUOUS
10
4.5869988582677168
20
-6.9674757480314957
11
4.5917550787401575
21
-6.9662012992125986
0
LINE
8
User.Eco2
6
CONTINUOUS
10
4.5917550787401575
20
-6.9662012992125986
11
4.5960194094488189
21
-6.9637392913385829
0
LINE
8
User.Eco2
6
CONTINUOUS
10
4.5960194094488189
20
-6.9637392913385829
11
4.5995011811023625
21
-6.9602575196850394
0
LINE
8
User.Eco2
6
CONTINUOUS
10
4.5995011811023625
20
-6.9602575196850394
11
4.6019631889763781
21
-6.955993188976378
0
LINE
8
User.Eco2
6
CONTINUOUS
10
4.6019631889763781
20
-6.955993188976378
11
4.6032376377952753
21
-6.9512369685039372
0
LINE
8
User.Eco2
6
CONTINUOUS
10
4.6032376377952753
20
-6.9512369685039372
11
4.6032376377952753
21
-6.9487749606299207
0
LINE
8
User.Eco2
6
CONTINUOUS
10
4.6032376377952753
20
-6.9487749606299207
11
4.603346456692913
21
-6.9484400393700785
0
LINE
8
User.Eco2
6
CONTINUOUS
10
4.603346456692913
20
-6.9484400393700785
11
4.603346456692913
21
-6.4370078740157481
0
LINE
8
User.Eco2
6
CONTINUOUS
10
4.603346456692913
20
-6.4370078740157481
11
4.603346456692913
21
-6.4345458661417325
0
LINE
8
User.Eco2
6
CONTINUOUS
10
4.603346456692913
20
-6.4345458661417325
11
4.6020720078740158
21
-6.4297896456692909
0
LINE
8
User.Eco2
6
CONTINUOUS
10
4.6020720078740158
20
-6.4297896456692909
11
4.5996100000000002
21
-6.4255253149606295
0
LINE
8
User.Eco2
6
CONTINUOUS
10
4.5996100000000002
20
-6.4255253149606295
11
4.5961282283464566
21
-6.4220435433070868
0
LINE
8
User.Eco2
6
CONTINUOUS
10
4.5961282283464566
20
-6.4220435433070868
11
4.5918638976377952
21
-6.4195815354330703
0
LINE
8
User.Eco2
6
CONTINUOUS
10
4.5918638976377952
20
-6.4195815354330703
11
4.5871076771653545
21
-6.4183070866141732
0
LINE
8
User.Eco2
6
CONTINUOUS
10
4.5871076771653545
20
-6.4183070866141732
11
4.5846456692913389
21
-6.4183070866141732
0
LINE
8
User.Eco2
6
CONTINUOUS
10
4.5846456692913389
20
-6.4183070866141732
11
4.0728346456692917
21
-6.4183070866141732
0
LINE
8
User.Eco2
6
CONTINUOUS
10
5.568897637795275
20
-6.4163385826771648
11
5.5734969685039371
21
-6.4168568110236217
0
LINE
8
User.Eco2
6
CONTINUOUS
10
5.5734969685039371
20
-6.4168568110236217
11
5.5778657086614176
21
-6.4183855118110236
0
LINE
8
User.Eco2
6
CONTINUOUS
10
5.5778657086614176
20
-6.4183855118110236
11
5.5817847244094487
21
-6.4208479921259842
0
LINE
8
User.Eco2
6
CONTINUOUS
10
5.5817847244094487
20
-6.4208479921259842
11
5.5850575196850389
21
-6.4241207874015744
0
LINE
8
User.Eco2
6
CONTINUOUS
10
5.5850575196850389
20
-6.4241207874015744
11
5.5875199999999996
21
-6.4280398031496064
0
LINE
8
User.Eco2
6
CONTINUOUS
10
5.5875199999999996
20
-6.4280398031496064
11
5.5890487007874015
21
-6.4324085433070861
0
LINE
8
User.Eco2
6
CONTINUOUS
10
5.5890487007874015
20
-6.4324085433070861
11
5.5895669291338583
21
-6.4370078740157481
0
LINE
8
User.Eco2
6
CONTINUOUS
10
5.5895669291338583
20
-6.4370078740157481
11
5.5895669291338583
21
-6.9488188976377954
0
LINE
8
User.Eco2
6
CONTINUOUS
10
5.5895669291338583
20
-6.9488188976377954
11
5.589492007874016
21
-6.9491955511811021
0
LINE
8
User.Eco2
6
CONTINUOUS
10
5.589492007874016
20
-6.9491955511811021
11
5.589400393700787
21
-6.9492871259842515
0
LINE
8
User.Eco2
6
CONTINUOUS
10
5.589400393700787
20
-6.9492871259842515
11
5.5889398818897638
21
-6.9533742913385828
0
LINE
8
User.Eco2
6
CONTINUOUS
10
5.5889398818897638
20
-6.9533742913385828
11
5.5874111811023619
21
-6.9577430314960624
0
LINE
8
User.Eco2
6
CONTINUOUS
10
5.5874111811023619
20
-6.9577430314960624
11
5.5849487007874012
21
-6.9616620472440944
0
LINE
8
User.Eco2
6
CONTINUOUS
10
5.5849487007874012
20
-6.9616620472440944
11
5.581675905511811
21
-6.9649348425196846
0
LINE
8
User.Eco2
6
CONTINUOUS
10
5.581675905511811
20
-6.9649348425196846
11
5.577756889763779
21
-6.9673973228346453
0
LINE
8
User.Eco2
6
CONTINUOUS
10
5.577756889763779
20
-6.9673973228346453
11
5.5733881496062994
21
-6.9689260236220472
0
LINE
8
User.Eco2
6
CONTINUOUS
10
5.5733881496062994
20
-6.9689260236220472
11
5.5693009842519681
21
-6.9693865354330704
0
LINE
8
User.Eco2
6
CONTINUOUS
10
5.5693009842519681
20
-6.9693865354330704
11
5.5692742913385826
21
-6.9694132677165355
0
LINE
8
User.Eco2
6
CONTINUOUS
10
5.5692742913385826
20
-6.9694132677165355
11
5.568897637795275
21
-6.9694881889763778
0
LINE
8
User.Eco2
6
CONTINUOUS
10
5.568897637795275
20
-6.9694881889763778
11
5.0570866141732278
21
-6.9694881889763778
0
LINE
8
User.Eco2
6
CONTINUOUS
10
5.0570866141732278
20
-6.9694881889763778
11
5.0524872834645667
21
-6.9689699606299209
0
LINE
8
User.Eco2
6
CONTINUOUS
10
5.0524872834645667
20
-6.9689699606299209
11
5.0481185433070861
21
-6.9674412598425199
0
LINE
8
User.Eco2
6
CONTINUOUS
10
5.0481185433070861
20
-6.9674412598425199
11
5.044199527559055
21
-6.9649787795275593
0
LINE
8
User.Eco2
6
CONTINUOUS
10
5.044199527559055
20
-6.9649787795275593
11
5.0409267322834648
21
-6.9617059842519682
0
LINE
8
User.Eco2
6
CONTINUOUS
10
5.0409267322834648
20
-6.9617059842519682
11
5.0384642519685041
21
-6.9577869685039371
0
LINE
8
User.Eco2
6
CONTINUOUS
10
5.0384642519685041
20
-6.9577869685039371
11
5.0369355511811023
21
-6.9534182283464565
0
LINE
8
User.Eco2
6
CONTINUOUS
10
5.0369355511811023
20
-6.9534182283464565
11
5.0364173228346454
21
-6.9488188976377954
0
LINE
8
User.Eco2
6
CONTINUOUS
10
5.0364173228346454
20
-6.9488188976377954
11
5.0364173228346454
21
-6.4370078740157481
0
LINE
8
User.Eco2
6
CONTINUOUS
10
5.0364173228346454
20
-6.4370078740157481
11
5.0369355511811023
21
-6.4324085433070861
0
LINE
8
User.Eco2
6
CONTINUOUS
10
5.0369355511811023
20
-6.4324085433070861
11
5.0384642519685041
21
-6.4280398031496064
0
LINE
8
User.Eco2
6
CONTINUOUS
10
5.0384642519685041
20
-6.4280398031496064
11
5.0409267322834648
21
-6.4241207874015744
0
LINE
8
User.Eco2
6
CONTINUOUS
10
5.0409267322834648
20
-6.4241207874015744
11
5.044199527559055
21
-6.4208479921259842
0
LINE
8
User.Eco2
6
CONTINUOUS
10
5.044199527559055
20
-6.4208479921259842
11
5.0481185433070861
21
-6.4183855118110236
0
LINE
8
User.Eco2
6
CONTINUOUS
10
5.0481185433070861
20
-6.4183855118110236
11
5.0524872834645667
21
-6.4168568110236217
0
LINE
8
User.Eco2
6
CONTINUOUS
10
5.0524872834645667
20
-6.4168568110236217
11
5.0570866141732278
21
-6.4163385826771648
0
LINE
8
User.Eco2
6
CONTINUOUS
10
5.0570866141732278
20
-6.4163385826771648
11
5.568897637795275
21
-6.4163385826771648
0
LINE
8
User.Eco2
6
CONTINUOUS
10
5.0570866141732278
20
-6.4183070866141732
11
5.0546246062992122
21
-6.4183070866141732
0
LINE
8
User.Eco2
6
CONTINUOUS
10
5.0546246062992122
20
-6.4183070866141732
11
5.0498683858267714
21
-6.4195815354330703
0
LINE
8
User.Eco2
6
CONTINUOUS
10
5.0498683858267714
20
-6.4195815354330703
11
5.0456040551181101
21
-6.4220435433070868
0
LINE
8
User.Eco2
6
CONTINUOUS
10
5.0456040551181101
20
-6.4220435433070868
11
5.0421222834645665
21
-6.4255253149606295
0
LINE
8
User.Eco2
6
CONTINUOUS
10
5.0421222834645665
20
-6.4255253149606295
11
5.0396602755905509
21
-6.4297896456692909
0
LINE
8
User.Eco2
6
CONTINUOUS
10
5.0396602755905509
20
-6.4297896456692909
11
5.0383858267716537
21
-6.4345458661417325
0
LINE
8
User.Eco2
6
CONTINUOUS
10
5.0383858267716537
20
-6.4345458661417325
11
5.0383858267716537
21
-6.4370078740157481
0
LINE
8
User.Eco2
6
CONTINUOUS
10
5.0383858267716537
20
-6.4370078740157481
11
5.0383858267716537
21
-6.9488188976377954
0
LINE
8
User.Eco2
6
CONTINUOUS
10
5.0383858267716537
20
-6.9488188976377954
11
5.0383858267716537
21
-6.951280905511811
0
LINE
8
User.Eco2
6
CONTINUOUS
10
5.0383858267716537
20
-6.951280905511811
11
5.0396602755905509
21
-6.9560371259842517
0
LINE
8
User.Eco2
6
CONTINUOUS
10
5.0396602755905509
20
-6.9560371259842517
11
5.0421222834645665
21
-6.9603014566929131
0
LINE
8
User.Eco2
6
CONTINUOUS
10
5.0421222834645665
20
-6.9603014566929131
11
5.0456040551181101
21
-6.9637832283464567
0
LINE
8
User.Eco2
6
CONTINUOUS
10
5.0456040551181101
20
-6.9637832283464567
11
5.0498683858267714
21
-6.9662452362204723
0
LINE
8
User.Eco2
6
CONTINUOUS
10
5.0498683858267714
20
-6.9662452362204723
11
5.0546246062992122
21
-6.9675196850393704
0
LINE
8
User.Eco2
6
CONTINUOUS
10
5.0546246062992122
20
-6.9675196850393704
11
5.0570866141732278
21
-6.9675196850393704
0
LINE
8
User.Eco2
6
CONTINUOUS
10
5.0570866141732278
20
-6.9675196850393704
11
5.5686536220472442
21
-6.9675196850393704
0
LINE
8
User.Eco2
6
CONTINUOUS
10
5.5686536220472442
20
-6.9675196850393704
11
5.5687888188976373
21
-6.9674757480314957
0
LINE
8
User.Eco2
6
CONTINUOUS
10
5.5687888188976373
20
-6.9674757480314957
11
5.5712508267716538
21
-6.9674757480314957
0
LINE
8
User.Eco2
6
CONTINUOUS
10
5.5712508267716538
20
-6.9674757480314957
11
5.5760070472440946
21
-6.9662012992125986
0
LINE
8
User.Eco2
6
CONTINUOUS
10
5.5760070472440946
20
-6.9662012992125986
11
5.580271377952756
21
-6.9637392913385829
0
LINE
8
User.Eco2
6
CONTINUOUS
10
5.580271377952756
20
-6.9637392913385829
11
5.5837531496062986
21
-6.9602575196850394
0
LINE
8
User.Eco2
6
CONTINUOUS
10
5.5837531496062986
20
-6.9602575196850394
11
5.5862151574803152
21
-6.955993188976378
0
LINE
8
User.Eco2
6
CONTINUOUS
10
5.5862151574803152
20
-6.955993188976378
11
5.5874896062992123
21
-6.9512369685039372
0
LINE
8
User.Eco2
6
CONTINUOUS
10
5.5874896062992123
20
-6.9512369685039372
11
5.5874896062992123
21
-6.9487749606299207
0
LINE
8
User.Eco2
6
CONTINUOUS
10
5.5874896062992123
20
-6.9487749606299207
11
5.58759842519685
21
-6.9484400393700785
0
LINE
8
User.Eco2
6
CONTINUOUS
10
5.58759842519685
20
-6.9484400393700785
11
5.58759842519685
21
-6.4370078740157481
0
LINE
8
User.Eco2
6
CONTINUOUS
10
5.58759842519685
20
-6.4370078740157481
11
5.58759842519685
21
-6.4345458661417325
0
LINE
8
User.Eco2
6
CONTINUOUS
10
5.58759842519685
20
-6.4345458661417325
11
5.5863239763779529
21
-6.4297896456692909
0
LINE
8
User.Eco2
6
CONTINUOUS
10
5.5863239763779529
20
-6.4297896456692909
11
5.5838619685039372
21
-6.4255253149606295
0
LINE
8
User.Eco2
6
CONTINUOUS
10
5.5838619685039372
20
-6.4255253149606295
11
5.5803801968503937
21
-6.4220435433070868
0
LINE
8
User.Eco2
6
CONTINUOUS
10
5.5803801968503937
20
-6.4220435433070868
11
5.5761158661417323
21
-6.4195815354330703
0
LINE
8
User.Eco2
6
CONTINUOUS
10
5.5761158661417323
20
-6.4195815354330703
11
5.5713596456692915
21
-6.4183070866141732
0
LINE
8
User.Eco2
6
CONTINUOUS
10
5.5713596456692915
20
-6.4183070866141732
11
5.568897637795275
21
-6.4183070866141732
0
LINE
8
User.Eco2
6
CONTINUOUS
10
5.568897637795275
20
-6.4183070866141732
11
5.0570866141732278
21
-6.4183070866141732
0
LINE
8
User.Eco2
6
CONTINUOUS
10
6.5531496062992121
20
-6.4163385826771648
11
6.5577489370078741
21
-6.4168568110236217
0
LINE
8
User.Eco2
6
CONTINUOUS
10
6.5577489370078741
20
-6.4168568110236217
11
6.5621176771653538
21
-6.4183855118110236
0
LINE
8
User.Eco2
6
CONTINUOUS
10
6.5621176771653538
20
-6.4183855118110236
11
6.5660366929133858
21
-6.4208479921259842
0
LINE
8
User.Eco2
6
CONTINUOUS
10
6.5660366929133858
20
-6.4208479921259842
11
6.569309488188976
21
-6.4241207874015744
0
LINE
8
User.Eco2
6
CONTINUOUS
10
6.569309488188976
20
-6.4241207874015744
11
6.5717719685039366
21
-6.4280398031496064
0
LINE
8
User.Eco2
6
CONTINUOUS
10
6.5717719685039366
20
-6.4280398031496064
11
6.5733006692913385
21
-6.4324085433070861
0
LINE
8
User.Eco2
6
CONTINUOUS
10
6.5733006692913385
20
-6.4324085433070861
11
6.5738188976377954
21
-6.4370078740157481
0
LINE
8
User.Eco2
6
CONTINUOUS
10
6.5738188976377954
20
-6.4370078740157481
11
6.5738188976377954
21
-6.9488188976377954
0
LINE
8
User.Eco2
6
CONTINUOUS
10
6.5738188976377954
20
-6.9488188976377954
11
6.573743976377953
21
-6.9491955511811021
0
LINE
8
User.Eco2
6
CONTINUOUS
10
6.573743976377953
20
-6.9491955511811021
11
6.573652362204724
21
-6.9492871259842515
0
LINE
8
User.Eco2
6
CONTINUOUS
10
6.573652362204724
20
-6.9492871259842515
11
6.5731918503937008
21
-6.9533742913385828
0
LINE
8
User.Eco2
6
CONTINUOUS
10
6.5731918503937008
20
-6.9533742913385828
11
6.5716631496062989
21
-6.9577430314960624
0
LINE
8
User.Eco2
6
CONTINUOUS
10
6.5716631496062989
20
-6.9577430314960624
11
6.5692006692913383
21
-6.9616620472440944
0
LINE
8
User.Eco2
6
CONTINUOUS
10
6.5692006692913383
20
-6.9616620472440944
11
6.5659278740157481
21
-6.9649348425196846
0
LINE
8
User.Eco2
6
CONTINUOUS
10
6.5659278740157481
20
-6.9649348425196846
11
6.5620088582677161
21
-6.9673973228346453
0
LINE
8
User.Eco2
6
CONTINUOUS
10
6.5620088582677161
20
-6.9673973228346453
11
6.5576401181102364
21
-6.9689260236220472
0
LINE
8
User.Eco2
6
CONTINUOUS
10
6.5576401181102364
20
-6.9689260236220472
11
6.5535529527559051
21
-6.9693865354330704
0
LINE
8
User.Eco2
6
CONTINUOUS
10
6.5535529527559051
20
-6.9693865354330704
11
6.5535262598425197
21
-6.9694132677165355
0
LINE
8
User.Eco2
6
CONTINUOUS
10
6.5535262598425197
20
-6.9694132677165355
11
6.5531496062992121
21
-6.9694881889763778
0
LINE
8
User.Eco2
6
CONTINUOUS
10
6.5531496062992121
20
-6.9694881889763778
11
6.0413385826771648
21
-6.9694881889763778
0
LINE
8
User.Eco2
6
CONTINUOUS
10
6.0413385826771648
20
-6.9694881889763778
11
6.0367392519685037
21
-6.9689699606299209
0
LINE
8
User.Eco2
6
CONTINUOUS
10
6.0367392519685037
20
-6.9689699606299209
11
6.0323705118110231
21
-6.9674412598425199
0
LINE
8
User.Eco2
6
CONTINUOUS
10
6.0323705118110231
20
-6.9674412598425199
11
6.028451496062992
21
-6.9649787795275593
0
LINE
8
User.Eco2
6
CONTINUOUS
10
6.028451496062992
20
-6.9649787795275593
11
6.0251787007874018
21
-6.9617059842519682
0
LINE
8
User.Eco2
6
CONTINUOUS
10
6.0251787007874018
20
-6.9617059842519682
11
6.0227162204724412
21
-6.9577869685039371
0
LINE
8
User.Eco2
6
CONTINUOUS
10
6.0227162204724412
20
-6.9577869685039371
11
6.0211875196850393
21
-6.9534182283464565
0
LINE
8
User.Eco2
6
CONTINUOUS
10
6.0211875196850393
20
-6.9534182283464565
11
6.0206692913385824
21
-6.9488188976377954
0
LINE
8
User.Eco2
6
CONTINUOUS
10
6.0206692913385824
20
-6.9488188976377954
11
6.0206692913385824
21
-6.4370078740157481
0
LINE
8
User.Eco2
6
CONTINUOUS
10
6.0206692913385824
20
-6.4370078740157481
11
6.0211875196850393
21
-6.4324085433070861
0
LINE
8
User.Eco2
6
CONTINUOUS
10
6.0211875196850393
20
-6.4324085433070861
11
6.0227162204724412
21
-6.4280398031496064
0
LINE
8
User.Eco2
6
CONTINUOUS
10
6.0227162204724412
20
-6.4280398031496064
11
6.0251787007874018
21
-6.4241207874015744
0
LINE
8
User.Eco2
6
CONTINUOUS
10
6.0251787007874018
20
-6.4241207874015744
11
6.028451496062992
21
-6.4208479921259842
0
LINE
8
User.Eco2
6
CONTINUOUS
10
6.028451496062992
20
-6.4208479921259842
11
6.0323705118110231
21
-6.4183855118110236
0
LINE
8
User.Eco2
6
CONTINUOUS
10
6.0323705118110231
20
-6.4183855118110236
11
6.0367392519685037
21
-6.4168568110236217
0
LINE
8
User.Eco2
6
CONTINUOUS
10
6.0367392519685037
20
-6.4168568110236217
11
6.0413385826771648
21
-6.4163385826771648
0
LINE
8
User.Eco2
6
CONTINUOUS
10
6.0413385826771648
20
-6.4163385826771648
11
6.5531496062992121
21
-6.4163385826771648
0
LINE
8
User.Eco2
6
CONTINUOUS
10
6.0413385826771648
20
-6.4183070866141732
11
6.0388765748031492
21
-6.4183070866141732
0
LINE
8
User.Eco2
6
CONTINUOUS
10
6.0388765748031492
20
-6.4183070866141732
11
6.0341203543307085
21
-6.4195815354330703
0
LINE
8
User.Eco2
6
CONTINUOUS
10
6.0341203543307085
20
-6.4195815354330703
11
6.0298560236220471
21
-6.4220435433070868
0
LINE
8
User.Eco2
6
CONTINUOUS
10
6.0298560236220471
20
-6.4220435433070868
11
6.0263742519685035
21
-6.4255253149606295
0
LINE
8
User.Eco2
6
CONTINUOUS
10
6.0263742519685035
20
-6.4255253149606295
11
6.0239122440944879
21
-6.4297896456692909
0
LINE
8
User.Eco2
6
CONTINUOUS
10
6.0239122440944879
20
-6.4297896456692909
11
6.0226377952755907
21
-6.4345458661417325
0
LINE
8
User.Eco2
6
CONTINUOUS
10
6.0226377952755907
20
-6.4345458661417325
11
6.0226377952755907
21
-6.4370078740157481
0
LINE
8
User.Eco2
6
CONTINUOUS
10
6.0226377952755907
20
-6.4370078740157481
11
6.0226377952755907
21
-6.9488188976377954
0
LINE
8
User.Eco2
6
CONTINUOUS
10
6.0226377952755907
20
-6.9488188976377954
11
6.0226377952755907
21
-6.951280905511811
0
LINE
8
User.Eco2
6
CONTINUOUS
10
6.0226377952755907
20
-6.951280905511811
11
6.0239122440944879
21
-6.9560371259842517
0
LINE
8
User.Eco2
6
CONTINUOUS
10
6.0239122440944879
20
-6.9560371259842517
11
6.0263742519685035
21
-6.9603014566929131
0
LINE
8
User.Eco2
6
CONTINUOUS
10
6.0263742519685035
20
-6.9603014566929131
11
6.0298560236220471
21
-6.9637832283464567
0
LINE
8
User.Eco2
6
CONTINUOUS
10
6.0298560236220471
20
-6.9637832283464567
11
6.0341203543307085
21
-6.9662452362204723
0
LINE
8
User.Eco2
6
CONTINUOUS
10
6.0341203543307085
20
-6.9662452362204723
11
6.0388765748031492
21
-6.9675196850393704
0
LINE
8
User.Eco2
6
CONTINUOUS
10
6.0388765748031492
20
-6.9675196850393704
11
6.0413385826771648
21
-6.9675196850393704
0
LINE
8
User.Eco2
6
CONTINUOUS
10
6.0413385826771648
20
-6.9675196850393704
11
6.5529055905511813
21
-6.9675196850393704
0
LINE
8
User.Eco2
6
CONTINUOUS
10
6.5529055905511813
20
-6.9675196850393704
11
6.5530407874015744
21
-6.9674757480314957
0
LINE
8
User.Eco2
6
CONTINUOUS
10
6.5530407874015744
20
-6.9674757480314957
11
6.55550279527559
21
-6.9674757480314957
0
LINE
8
User.Eco2
6
CONTINUOUS
10
6.55550279527559
20
-6.9674757480314957
11
6.5602590157480316
21
-6.9662012992125986
0
LINE
8
User.Eco2
6
CONTINUOUS
10
6.5602590157480316
20
-6.9662012992125986
11
6.564523346456693
21
-6.9637392913385829
0
LINE
8
User.Eco2
6
CONTINUOUS
10
6.564523346456693
20
-6.9637392913385829
11
6.5680051181102357
21
-6.9602575196850394
0
LINE
8
User.Eco2
6
CONTINUOUS
10
6.5680051181102357
20
-6.9602575196850394
11
6.5704671259842522
21
-6.955993188976378
0
LINE
8
User.Eco2
6
CONTINUOUS
10
6.5704671259842522
20
-6.955993188976378
11
6.5717415748031494
21
-6.9512369685039372
0
LINE
8
User.Eco2
6
CONTINUOUS
10
6.5717415748031494
20
-6.9512369685039372
11
6.5717415748031494
21
-6.9487749606299207
0
LINE
8
User.Eco2
6
CONTINUOUS
10
6.5717415748031494
20
-6.9487749606299207
11
6.5718503937007871
21
-6.9484400393700785
0
LINE
8
User.Eco2
6
CONTINUOUS
10
6.5718503937007871
20
-6.9484400393700785
11
6.5718503937007871
21
-6.4370078740157481
0
LINE
8
User.Eco2
6
CONTINUOUS
10
6.5718503937007871
20
-6.4370078740157481
11
6.5718503937007871
21
-6.4345458661417325
0
LINE
8
User.Eco2
6
CONTINUOUS
10
6.5718503937007871
20
-6.4345458661417325
11
6.5705759448818899
21
-6.4297896456692909
0
LINE
8
User.Eco2
6
CONTINUOUS
10
6.5705759448818899
20
-6.4297896456692909
11
6.5681139370078743
21
-6.4255253149606295
0
LINE
8
User.Eco2
6
CONTINUOUS
10
6.5681139370078743
20
-6.4255253149606295
11
6.5646321653543307
21
-6.4220435433070868
0
LINE
8
User.Eco2
6
CONTINUOUS
10
6.5646321653543307
20
-6.4220435433070868
11
6.5603678346456693
21
-6.4195815354330703
0
LINE
8
User.Eco2
6
CONTINUOUS
10
6.5603678346456693
20
-6.4195815354330703
11
6.5556116141732286
21
-6.4183070866141732
0
LINE
8
User.Eco2
6
CONTINUOUS
10
6.5556116141732286
20
-6.4183070866141732
11
6.5531496062992121
21
-6.4183070866141732
0
LINE
8
User.Eco2
6
CONTINUOUS
10
6.5531496062992121
20
-6.4183070866141732
11
6.0413385826771648
21
-6.4183070866141732
0
LINE
8
User.Eco2
6
CONTINUOUS
10
7.5374015748031491
20
-6.4163385826771648
11
7.5420009055118111
21
-6.4168568110236217
0
LINE
8
User.Eco2
6
CONTINUOUS
10
7.5420009055118111
20
-6.4168568110236217
11
7.5463696456692908
21
-6.4183855118110236
0
LINE
8
User.Eco2
6
CONTINUOUS
10
7.5463696456692908
20
-6.4183855118110236
11
7.5502886614173228
21
-6.4208479921259842
0
LINE
8
User.Eco2
6
CONTINUOUS
10
7.5502886614173228
20
-6.4208479921259842
11
7.553561456692913
21
-6.4241207874015744
0
LINE
8
User.Eco2
6
CONTINUOUS
10
7.553561456692913
20
-6.4241207874015744
11
7.5560239370078737
21
-6.4280398031496064
0
LINE
8
User.Eco2
6
CONTINUOUS
10
7.5560239370078737
20
-6.4280398031496064
11
7.5575526377952755
21
-6.4324085433070861
0
LINE
8
User.Eco2
6
CONTINUOUS
10
7.5575526377952755
20
-6.4324085433070861
11
7.5580708661417324
21
-6.4370078740157481
0
LINE
8
User.Eco2
6
CONTINUOUS
10
7.5580708661417324
20
-6.4370078740157481
11
7.5580708661417324
21
-6.9488188976377954
0
LINE
8
User.Eco2
6
CONTINUOUS
10
7.5580708661417324
20
-6.9488188976377954
11
7.5579959448818892
21
-6.9491955511811021
0
LINE
8
User.Eco2
6
CONTINUOUS
10
7.5579959448818892
20
-6.9491955511811021
11
7.5579043307086611
21
-6.9492871259842515
0
LINE
8
User.Eco2
6
CONTINUOUS
10
7.5579043307086611
20
-6.9492871259842515
11
7.5574438188976378
21
-6.9533742913385828
0
LINE
8
User.Eco2
6
CONTINUOUS
10
7.5574438188976378
20
-6.9533742913385828
11
7.555915118110236
21
-6.9577430314960624
0
LINE
8
User.Eco2
6
CONTINUOUS
10
7.555915118110236
20
-6.9577430314960624
11
7.5534526377952753
21
-6.9616620472440944
0
LINE
8
User.Eco2
6
CONTINUOUS
10
7.5534526377952753
20
-6.9616620472440944
11
7.5501798425196851
21
-6.9649348425196846
0
LINE
8
User.Eco2
6
CONTINUOUS
10
7.5501798425196851
20
-6.9649348425196846
11
7.5462608267716531
21
-6.9673973228346453
0
LINE
8
User.Eco2
6
CONTINUOUS
10
7.5462608267716531
20
-6.9673973228346453
11
7.5418920866141734
21
-6.9689260236220472
0
LINE
8
User.Eco2
6
CONTINUOUS
10
7.5418920866141734
20
-6.9689260236220472
11
7.5378049212598421
21
-6.9693865354330704
0
LINE
8
User.Eco2
6
CONTINUOUS
10
7.5378049212598421
20
-6.9693865354330704
11
7.5377782283464567
21
-6.9694132677165355
0
LINE
8
User.Eco2
6
CONTINUOUS
10
7.5377782283464567
20
-6.9694132677165355
11
7.5374015748031491
21
-6.9694881889763778
0
LINE
8
User.Eco2
6
CONTINUOUS
10
7.5374015748031491
20
-6.9694881889763778
11
7.0255905511811019
21
-6.9694881889763778
0
LINE
8
User.Eco2
6
CONTINUOUS
10
7.0255905511811019
20
-6.9694881889763778
11
7.0209912204724407
21
-6.9689699606299209
0
LINE
8
User.Eco2
6
CONTINUOUS
10
7.0209912204724407
20
-6.9689699606299209
11
7.0166224803149602
21
-6.9674412598425199
0
LINE
8
User.Eco2
6
CONTINUOUS
10
7.0166224803149602
20
-6.9674412598425199
11
7.0127034645669291
21
-6.9649787795275593
0
LINE
8
User.Eco2
6
CONTINUOUS
10
7.0127034645669291
20
-6.9649787795275593
11
7.0094306692913388
21
-6.9617059842519682
0
LINE
8
User.Eco2
6
CONTINUOUS
10
7.0094306692913388
20
-6.9617059842519682
11
7.0069681889763782
21
-6.9577869685039371
0
LINE
8
User.Eco2
6
CONTINUOUS
10
7.0069681889763782
20
-6.9577869685039371
11
7.0054394881889763
21
-6.9534182283464565
0
LINE
8
User.Eco2
6
CONTINUOUS
10
7.0054394881889763
20
-6.9534182283464565
11
7.0049212598425195
21
-6.9488188976377954
0
LINE
8
User.Eco2
6
CONTINUOUS
10
7.0049212598425195
20
-6.9488188976377954
11
7.0049212598425195
21
-6.4370078740157481
0
LINE
8
User.Eco2
6
CONTINUOUS
10
7.0049212598425195
20
-6.4370078740157481
11
7.0054394881889763
21
-6.4324085433070861
0
LINE
8
User.Eco2
6
CONTINUOUS
10
7.0054394881889763
20
-6.4324085433070861
11
7.0069681889763782
21
-6.4280398031496064
0
LINE
8
User.Eco2
6
CONTINUOUS
10
7.0069681889763782
20
-6.4280398031496064
11
7.0094306692913388
21
-6.4241207874015744
0
LINE
8
User.Eco2
6
CONTINUOUS
10
7.0094306692913388
20
-6.4241207874015744
11
7.0127034645669291
21
-6.4208479921259842
0
LINE
8
User.Eco2
6
CONTINUOUS
10
7.0127034645669291
20
-6.4208479921259842
11
7.0166224803149602
21
-6.4183855118110236
0
LINE
8
User.Eco2
6
CONTINUOUS
10
7.0166224803149602
20
-6.4183855118110236
11
7.0209912204724407
21
-6.4168568110236217
0
LINE
8
User.Eco2
6
CONTINUOUS
10
7.0209912204724407
20
-6.4168568110236217
11
7.0255905511811019
21
-6.4163385826771648
0
LINE
8
User.Eco2
6
CONTINUOUS
10
7.0255905511811019
20
-6.4163385826771648
11
7.5374015748031491
21
-6.4163385826771648
0
LINE
8
User.Eco2
6
CONTINUOUS
10
7.0255905511811019
20
-6.4183070866141732
11
7.0231285433070862
21
-6.4183070866141732
0
LINE
8
User.Eco2
6
CONTINUOUS
10
7.0231285433070862
20
-6.4183070866141732
11
7.0183723228346455
21
-6.4195815354330703
0
LINE
8
User.Eco2
6
CONTINUOUS
10
7.0183723228346455
20
-6.4195815354330703
11
7.0141079921259841
21
-6.4220435433070868
0
LINE
8
User.Eco2
6
CONTINUOUS
10
7.0141079921259841
20
-6.4220435433070868
11
7.0106262204724406
21
-6.4255253149606295
0
LINE
8
User.Eco2
6
CONTINUOUS
10
7.0106262204724406
20
-6.4255253149606295
11
7.0081642125984249
21
-6.4297896456692909
0
LINE
8
User.Eco2
6
CONTINUOUS
10
7.0081642125984249
20
-6.4297896456692909
11
7.0068897637795278
21
-6.4345458661417325
0
LINE
8
User.Eco2
6
CONTINUOUS
10
7.0068897637795278
20
-6.4345458661417325
11
7.0068897637795278
21
-6.4370078740157481
0
LINE
8
User.Eco2
6
CONTINUOUS
10
7.0068897637795278
20
-6.4370078740157481
11
7.0068897637795278
21
-6.9488188976377954
0
LINE
8
User.Eco2
6
CONTINUOUS
10
7.0068897637795278
20
-6.9488188976377954
11
7.0068897637795278
21
-6.951280905511811
0
LINE
8
User.Eco2
6
CONTINUOUS
10
7.0068897637795278
20
-6.951280905511811
11
7.0081642125984249
21
-6.9560371259842517
0
LINE
8
User.Eco2
6
CONTINUOUS
10
7.0081642125984249
20
-6.9560371259842517
11
7.0106262204724406
21
-6.9603014566929131
0
LINE
8
User.Eco2
6
CONTINUOUS
10
7.0106262204724406
20
-6.9603014566929131
11
7.0141079921259841
21
-6.9637832283464567
0
LINE
8
User.Eco2
6
CONTINUOUS
10
7.0141079921259841
20
-6.9637832283464567
11
7.0183723228346455
21
-6.9662452362204723
0
LINE
8
User.Eco2
6
CONTINUOUS
10
7.0183723228346455
20
-6.9662452362204723
11
7.0231285433070862
21
-6.9675196850393704
0
LINE
8
User.Eco2
6
CONTINUOUS
10
7.0231285433070862
20
-6.9675196850393704
11
7.0255905511811019
21
-6.9675196850393704
0
LINE
8
User.Eco2
6
CONTINUOUS
10
7.0255905511811019
20
-6.9675196850393704
11
7.5371575590551183
21
-6.9675196850393704
0
LINE
8
User.Eco2
6
CONTINUOUS
10
7.5371575590551183
20
-6.9675196850393704
11
7.5372927559055114
21
-6.9674757480314957
0
LINE
8
User.Eco2
6
CONTINUOUS
10
7.5372927559055114
20
-6.9674757480314957
11
7.539754763779527
21
-6.9674757480314957
0
LINE
8
User.Eco2
6
CONTINUOUS
10
7.539754763779527
20
-6.9674757480314957
11
7.5445109842519686
21
-6.9662012992125986
0
LINE
8
User.Eco2
6
CONTINUOUS
10
7.5445109842519686
20
-6.9662012992125986
11
7.54877531496063
21
-6.9637392913385829
0
LINE
8
User.Eco2
6
CONTINUOUS
10
7.54877531496063
20
-6.9637392913385829
11
7.5522570866141727
21
-6.9602575196850394
0
LINE
8
User.Eco2
6
CONTINUOUS
10
7.5522570866141727
20
-6.9602575196850394
11
7.5547190944881892
21
-6.955993188976378
0
LINE
8
User.Eco2
6
CONTINUOUS
10
7.5547190944881892
20
-6.955993188976378
11
7.5559935433070864
21
-6.9512369685039372
0
LINE
8
User.Eco2
6
CONTINUOUS
10
7.5559935433070864
20
-6.9512369685039372
11
7.5559935433070864
21
-6.9487749606299207
0
LINE
8
User.Eco2
6
CONTINUOUS
10
7.5559935433070864
20
-6.9487749606299207
11
7.5561023622047241
21
-6.9484400393700785
0
LINE
8
User.Eco2
6
CONTINUOUS
10
7.5561023622047241
20
-6.9484400393700785
11
7.5561023622047241
21
-6.4370078740157481
0
LINE
8
User.Eco2
6
CONTINUOUS
10
7.5561023622047241
20
-6.4370078740157481
11
7.5561023622047241
21
-6.4345458661417325
0
LINE
8
User.Eco2
6
CONTINUOUS
10
7.5561023622047241
20
-6.4345458661417325
11
7.5548279133858269
21
-6.4297896456692909
0
LINE
8
User.Eco2
6
CONTINUOUS
10
7.5548279133858269
20
-6.4297896456692909
11
7.5523659055118104
21
-6.4255253149606295
0
LINE
8
User.Eco2
6
CONTINUOUS
10
7.5523659055118104
20
-6.4255253149606295
11
7.5488841338582677
21
-6.4220435433070868
0
LINE
8
User.Eco2
6
CONTINUOUS
10
7.5488841338582677
20
-6.4220435433070868
11
7.5446198031496063
21
-6.4195815354330703
0
LINE
8
User.Eco2
6
CONTINUOUS
10
7.5446198031496063
20
-6.4195815354330703
11
7.5398635826771656
21
-6.4183070866141732
0
LINE
8
User.Eco2
6
CONTINUOUS
10
7.5398635826771656
20
-6.4183070866141732
11
7.5374015748031491
21
-6.4183070866141732
0
LINE
8
User.Eco2
6
CONTINUOUS
10
7.5374015748031491
20
-6.4183070866141732
11
7.0255905511811019
21
-6.4183070866141732
0
LINE
8
User.Eco2
6
CONTINUOUS
10
4.5846456692913389
20
-5.4320866141732278
11
4.589245
21
-5.4326048425196847
0
LINE
8
User.Eco2
6
CONTINUOUS
10
4.589245
20
-5.4326048425196847
11
4.5936137401574806
21
-5.4341335433070865
0
LINE
8
User.Eco2
6
CONTINUOUS
10
4.5936137401574806
20
-5.4341335433070865
11
4.5975327559055117
21
-5.4365960236220472
0
LINE
8
User.Eco2
6
CONTINUOUS
10
4.5975327559055117
20
-5.4365960236220472
11
4.6008055511811019
21
-5.4398688188976374
0
LINE
8
User.Eco2
6
CONTINUOUS
10
4.6008055511811019
20
-5.4398688188976374
11
4.6032680314960626
21
-5.4437878346456694
0
LINE
8
User.Eco2
6
CONTINUOUS
10
4.6032680314960626
20
-5.4437878346456694
11
4.6047967322834644
21
-5.4481565748031491
0
LINE
8
User.Eco2
6
CONTINUOUS
10
4.6047967322834644
20
-5.4481565748031491
11
4.6053149606299213
21
-5.4527559055118111
0
LINE
8
User.Eco2
6
CONTINUOUS
10
4.6053149606299213
20
-5.4527559055118111
11
4.6053149606299213
21
-5.9645669291338583
0
LINE
8
User.Eco2
6
CONTINUOUS
10
4.6053149606299213
20
-5.9645669291338583
11
4.605240039370079
21
-5.9649435826771651
0
LINE
8
User.Eco2
6
CONTINUOUS
10
4.605240039370079
20
-5.9649435826771651
11
4.60514842519685
21
-5.9650351574803144
0
LINE
8
User.Eco2
6
CONTINUOUS
10
4.60514842519685
20
-5.9650351574803144
11
4.6046879133858267
21
-5.9691223228346457
0
LINE
8
User.Eco2
6
CONTINUOUS
10
4.6046879133858267
20
-5.9691223228346457
11
4.6031592125984249
21
-5.9734910629921263
0
LINE
8
User.Eco2
6
CONTINUOUS
10
4.6031592125984249
20
-5.9734910629921263
11
4.6006967322834642
21
-5.9774100787401574
0
LINE
8
User.Eco2
6
CONTINUOUS
10
4.6006967322834642
20
-5.9774100787401574
11
4.597423937007874
21
-5.9806828740157476
0
LINE
8
User.Eco2
6
CONTINUOUS
10
4.597423937007874
20
-5.9806828740157476
11
4.593504921259842
21
-5.9831453543307083
0
LINE
8
User.Eco2
6
CONTINUOUS
10
4.593504921259842
20
-5.9831453543307083
11
4.5891361811023623
21
-5.9846740551181101
0
LINE
8
User.Eco2
6
CONTINUOUS
10
4.5891361811023623
20
-5.9846740551181101
11
4.585049015748031
21
-5.9851345669291334
0
LINE
8
User.Eco2
6
CONTINUOUS
10
4.585049015748031
20
-5.9851345669291334
11
4.5850223228346456
21
-5.9851612992125984
0
LINE
8
User.Eco2
6
CONTINUOUS
10
4.5850223228346456
20
-5.9851612992125984
11
4.5846456692913389
21
-5.9852362204724407
0
LINE
8
User.Eco2
6
CONTINUOUS
10
4.5846456692913389
20
-5.9852362204724407
11
4.0728346456692917
21
-5.9852362204724407
0
LINE
8
User.Eco2
6
CONTINUOUS
10
4.0728346456692917
20
-5.9852362204724407
11
4.0682353149606296
21
-5.9847179921259839
0
LINE
8
User.Eco2
6
CONTINUOUS
10
4.0682353149606296
20
-5.9847179921259839
11
4.0638665748031499
21
-5.9831892913385829
0
LINE
8
User.Eco2
6
CONTINUOUS
10
4.0638665748031499
20
-5.9831892913385829
11
4.0599475590551179
21
-5.9807268110236222
0
LINE
8
User.Eco2
6
CONTINUOUS
10
4.0599475590551179
20
-5.9807268110236222
11
4.0566747637795277
21
-5.9774540157480311
0
LINE
8
User.Eco2
6
CONTINUOUS
10
4.0566747637795277
20
-5.9774540157480311
11
4.0542122834645671
21
-5.973535
0
LINE
8
User.Eco2
6
CONTINUOUS
10
4.0542122834645671
20
-5.973535
11
4.0526835826771652
21
-5.9691662598425195
0
LINE
8
User.Eco2
6
CONTINUOUS
10
4.0526835826771652
20
-5.9691662598425195
11
4.0521653543307083
21
-5.9645669291338583
0
LINE
8
User.Eco2
6
CONTINUOUS
10
4.0521653543307083
20
-5.9645669291338583
11
4.0521653543307083
21
-5.4527559055118111
0
LINE
8
User.Eco2
6
CONTINUOUS
10
4.0521653543307083
20
-5.4527559055118111
11
4.0526835826771652
21
-5.4481565748031491
0
LINE
8
User.Eco2
6
CONTINUOUS
10
4.0526835826771652
20
-5.4481565748031491
11
4.0542122834645671
21
-5.4437878346456694
0
LINE
8
User.Eco2
6
CONTINUOUS
10
4.0542122834645671
20
-5.4437878346456694
11
4.0566747637795277
21
-5.4398688188976374
0
LINE
8
User.Eco2
6
CONTINUOUS
10
4.0566747637795277
20
-5.4398688188976374
11
4.0599475590551179
21
-5.4365960236220472
0
LINE
8
User.Eco2
6
CONTINUOUS
10
4.0599475590551179
20
-5.4365960236220472
11
4.0638665748031499
21
-5.4341335433070865
0
LINE
8
User.Eco2
6
CONTINUOUS
10
4.0638665748031499
20
-5.4341335433070865
11
4.0682353149606296
21
-5.4326048425196847
0
LINE
8
User.Eco2
6
CONTINUOUS
10
4.0682353149606296
20
-5.4326048425196847
11
4.0728346456692917
21
-5.4320866141732278
0
LINE
8
User.Eco2
6
CONTINUOUS
10
4.0728346456692917
20
-5.4320866141732278
11
4.5846456692913389
21
-5.4320866141732278
0
LINE
8
User.Eco2
6
CONTINUOUS
10
4.0728346456692917
20
-5.4340551181102361
11
4.0703726377952751
21
-5.4340551181102361
0
LINE
8
User.Eco2
6
CONTINUOUS
10
4.0703726377952751
20
-5.4340551181102361
11
4.0656164173228344
21
-5.4353295669291342
0
LINE
8
User.Eco2
6
CONTINUOUS
10
4.0656164173228344
20
-5.4353295669291342
11
4.061352086614173
21
-5.4377915748031498
0
LINE
8
User.Eco2
6
CONTINUOUS
10
4.061352086614173
20
-5.4377915748031498
11
4.0578703149606294
21
-5.4412733464566925
0
LINE
8
User.Eco2
6
CONTINUOUS
10
4.0578703149606294
20
-5.4412733464566925
11
4.0554083070866138
21
-5.4455376771653539
0
LINE
8
User.Eco2
6
CONTINUOUS
10
4.0554083070866138
20
-5.4455376771653539
11
4.0541338582677167
21
-5.4502938976377955
0
LINE
8
User.Eco2
6
CONTINUOUS
10
4.0541338582677167
20
-5.4502938976377955
11
4.0541338582677167
21
-5.4527559055118111
0
LINE
8
User.Eco2
6
CONTINUOUS
10
4.0541338582677167
20
-5.4527559055118111
11
4.0541338582677167
21
-5.9645669291338583
0
LINE
8
User.Eco2
6
CONTINUOUS
10
4.0541338582677167
20
-5.9645669291338583
11
4.0541338582677167
21
-5.967028937007874
0
LINE
8
User.Eco2
6
CONTINUOUS
10
4.0541338582677167
20
-5.967028937007874
11
4.0554083070866138
21
-5.9717851574803147
0
LINE
8
User.Eco2
6
CONTINUOUS
10
4.0554083070866138
20
-5.9717851574803147
11
4.0578703149606294
21
-5.9760494881889761
0
LINE
8
User.Eco2
6
CONTINUOUS
10
4.0578703149606294
20
-5.9760494881889761
11
4.061352086614173
21
-5.9795312598425197
0
LINE
8
User.Eco2
6
CONTINUOUS
10
4.061352086614173
20
-5.9795312598425197
11
4.0656164173228344
21
-5.9819932677165353
0
LINE
8
User.Eco2
6
CONTINUOUS
10
4.0656164173228344
20
-5.9819932677165353
11
4.0703726377952751
21
-5.9832677165354333
0
LINE
8
User.Eco2
6
CONTINUOUS
10
4.0703726377952751
20
-5.9832677165354333
11
4.0728346456692917
21
-5.9832677165354333
0
LINE
8
User.Eco2
6
CONTINUOUS
10
4.0728346456692917
20
-5.9832677165354333
11
4.5844016535433072
21
-5.9832677165354333
0
LINE
8
User.Eco2
6
CONTINUOUS
10
4.5844016535433072
20
-5.9832677165354333
11
4.5845368503937003
21
-5.9832237795275587
0
LINE
8
User.Eco2
6
CONTINUOUS
10
4.5845368503937003
20
-5.9832237795275587
11
4.5869988582677168
21
-5.9832237795275587
0
LINE
8
User.Eco2
6
CONTINUOUS
10
4.5869988582677168
20
-5.9832237795275587
11
4.5917550787401575
21
-5.9819493307086615
0
LINE
8
User.Eco2
6
CONTINUOUS
10
4.5917550787401575
20
-5.9819493307086615
11
4.5960194094488189
21
-5.9794873228346459
0
LINE
8
User.Eco2
6
CONTINUOUS
10
4.5960194094488189
20
-5.9794873228346459
11
4.5995011811023625
21
-5.9760055511811023
0
LINE
8
User.Eco2
6
CONTINUOUS
10
4.5995011811023625
20
-5.9760055511811023
11
4.6019631889763781
21
-5.9717412204724409
0
LINE
8
User.Eco2
6
CONTINUOUS
10
4.6019631889763781
20
-5.9717412204724409
11
4.6032376377952753
21
-5.9669850000000002
0
LINE
8
User.Eco2
6
CONTINUOUS
10
4.6032376377952753
20
-5.9669850000000002
11
4.6032376377952753
21
-5.9645229921259837
0
LINE
8
User.Eco2
6
CONTINUOUS
10
4.6032376377952753
20
-5.9645229921259837
11
4.603346456692913
21
-5.9641880708661414
0
LINE
8
User.Eco2
6
CONTINUOUS
10
4.603346456692913
20
-5.9641880708661414
11
4.603346456692913
21
-5.4527559055118111
0
LINE
8
User.Eco2
6
CONTINUOUS
10
4.603346456692913
20
-5.4527559055118111
11
4.603346456692913
21
-5.4502938976377955
0
LINE
8
User.Eco2
6
CONTINUOUS
10
4.603346456692913
20
-5.4502938976377955
11
4.6020720078740158
21
-5.4455376771653539
0
LINE
8
User.Eco2
6
CONTINUOUS
10
4.6020720078740158
20
-5.4455376771653539
11
4.5996100000000002
21
-5.4412733464566925
0
LINE
8
User.Eco2
6
CONTINUOUS
10
4.5996100000000002
20
-5.4412733464566925
11
4.5961282283464566
21
-5.4377915748031498
0
LINE
8
User.Eco2
6
CONTINUOUS
10
4.5961282283464566
20
-5.4377915748031498
11
4.5918638976377952
21
-5.4353295669291342
0
LINE
8
User.Eco2
6
CONTINUOUS
10
4.5918638976377952
20
-5.4353295669291342
11
4.5871076771653545
21
-5.4340551181102361
0
LINE
8
User.Eco2
6
CONTINUOUS
10
4.5871076771653545
20
-5.4340551181102361
11
4.5846456692913389
21
-5.4340551181102361
0
LINE
8
User.Eco2
6
CONTINUOUS
10
4.5846456692913389
20
-5.4340551181102361
11
4.0728346456692917
21
-5.4340551181102361
0
LINE
8
User.Eco2
6
CONTINUOUS
10
5.568897637795275
20
-5.4320866141732278
11
5.5734969685039371
21
-5.4326048425196847
0
LINE
8
User.Eco2
6
CONTINUOUS
10
5.5734969685039371
20
-5.4326048425196847
11
5.5778657086614176
21
-5.4341335433070865
0
LINE
8
User.Eco2
6
CONTINUOUS
10
5.5778657086614176
20
-5.4341335433070865
11
5.5817847244094487
21
-5.4365960236220472
0
LINE
8
User.Eco2
6
CONTINUOUS
10
5.5817847244094487
20
-5.4365960236220472
11
5.5850575196850389
21
-5.4398688188976374
0
LINE
8
User.Eco2
6
CONTINUOUS
10
5.5850575196850389
20
-5.4398688188976374
11
5.5875199999999996
21
-5.4437878346456694
0
LINE
8
User.Eco2
6
CONTINUOUS
10
5.5875199999999996
20
-5.4437878346456694
11
5.5890487007874015
21
-5.4481565748031491
0
LINE
8
User.Eco2
6
CONTINUOUS
10
5.5890487007874015
20
-5.4481565748031491
11
5.5895669291338583
21
-5.4527559055118111
0
LINE
8
User.Eco2
6
CONTINUOUS
10
5.5895669291338583
20
-5.4527559055118111
11
5.5895669291338583
21
-5.9645669291338583
0
LINE
8
User.Eco2
6
CONTINUOUS
10
5.5895669291338583
20
-5.9645669291338583
11
5.589492007874016
21
-5.9649435826771651
0
LINE
8
User.Eco2
6
CONTINUOUS
10
5.589492007874016
20
-5.9649435826771651
11
5.589400393700787
21
-5.9650351574803144
0
LINE
8
User.Eco2
6
CONTINUOUS
10
5.589400393700787
20
-5.9650351574803144
11
5.5889398818897638
21
-5.9691223228346457
0
LINE
8
User.Eco2
6
CONTINUOUS
10
5.5889398818897638
20
-5.9691223228346457
11
5.5874111811023619
21
-5.9734910629921263
0
LINE
8
User.Eco2
6
CONTINUOUS
10
5.5874111811023619
20
-5.9734910629921263
11
5.5849487007874012
21
-5.9774100787401574
0
LINE
8
User.Eco2
6
CONTINUOUS
10
5.5849487007874012
20
-5.9774100787401574
11
5.581675905511811
21
-5.9806828740157476
0
LINE
8
User.Eco2
6
CONTINUOUS
10
5.581675905511811
20
-5.9806828740157476
11
5.577756889763779
21
-5.9831453543307083
0
LINE
8
User.Eco2
6
CONTINUOUS
10
5.577756889763779
20
-5.9831453543307083
11
5.5733881496062994
21
-5.9846740551181101
0
LINE
8
User.Eco2
6
CONTINUOUS
10
5.5733881496062994
20
-5.9846740551181101
11
5.5693009842519681
21
-5.9851345669291334
0
LINE
8
User.Eco2
6
CONTINUOUS
10
5.5693009842519681
20
-5.9851345669291334
11
5.5692742913385826
21
-5.9851612992125984
0
LINE
8
User.Eco2
6
CONTINUOUS
10
5.5692742913385826
20
-5.9851612992125984
11
5.568897637795275
21
-5.9852362204724407
0
LINE
8
User.Eco2
6
CONTINUOUS
10
5.568897637795275
20
-5.9852362204724407
11
5.0570866141732278
21
-5.9852362204724407
0
LINE
8
User.Eco2
6
CONTINUOUS
10
5.0570866141732278
20
-5.9852362204724407
11
5.0524872834645667
21
-5.9847179921259839
0
LINE
8
User.Eco2
6
CONTINUOUS
10
5.0524872834645667
20
-5.9847179921259839
11
5.0481185433070861
21
-5.9831892913385829
0
LINE
8
User.Eco2
6
CONTINUOUS
10
5.0481185433070861
20
-5.9831892913385829
11
5.044199527559055
21
-5.9807268110236222
0
LINE
8
User.Eco2
6
CONTINUOUS
10
5.044199527559055
20
-5.9807268110236222
11
5.0409267322834648
21
-5.9774540157480311
0
LINE
8
User.Eco2
6
CONTINUOUS
10
5.0409267322834648
20
-5.9774540157480311
11
5.0384642519685041
21
-5.973535
0
LINE
8
User.Eco2
6
CONTINUOUS
10
5.0384642519685041
20
-5.973535
11
5.0369355511811023
21
-5.9691662598425195
0
LINE
8
User.Eco2
6
CONTINUOUS
10
5.0369355511811023
20
-5.9691662598425195
11
5.0364173228346454
21
-5.9645669291338583
0
LINE
8
User.Eco2
6
CONTINUOUS
10
5.0364173228346454
20
-5.9645669291338583
11
5.0364173228346454
21
-5.4527559055118111
0
LINE
8
User.Eco2
6
CONTINUOUS
10
5.0364173228346454
20
-5.4527559055118111
11
5.0369355511811023
21
-5.4481565748031491
0
LINE
8
User.Eco2
6
CONTINUOUS
10
5.0369355511811023
20
-5.4481565748031491
11
5.0384642519685041
21
-5.4437878346456694
0
LINE
8
User.Eco2
6
CONTINUOUS
10
5.0384642519685041
20
-5.4437878346456694
11
5.0409267322834648
21
-5.4398688188976374
0
LINE
8
User.Eco2
6
CONTINUOUS
10
5.0409267322834648
20
-5.4398688188976374
11
5.044199527559055
21
-5.4365960236220472
0
LINE
8
User.Eco2
6
CONTINUOUS
10
5.044199527559055
20
-5.4365960236220472
11
5.0481185433070861
21
-5.4341335433070865
0
LINE
8
User.Eco2
6
CONTINUOUS
10
5.0481185433070861
20
-5.4341335433070865
11
5.0524872834645667
21
-5.4326048425196847
0
LINE
8
User.Eco2
6
CONTINUOUS
10
5.0524872834645667
20
-5.4326048425196847
11
5.0570866141732278
21
-5.4320866141732278
0
LINE
8
User.Eco2
6
CONTINUOUS
10
5.0570866141732278
20
-5.4320866141732278
11
5.568897637795275
21
-5.4320866141732278
0
LINE
8
User.Eco2
6
CONTINUOUS
10
5.0570866141732278
20
-5.4340551181102361
11
5.0546246062992122
21
-5.4340551181102361
0
LINE
8
User.Eco2
6
CONTINUOUS
10
5.0546246062992122
20
-5.4340551181102361
11
5.0498683858267714
21
-5.4353295669291342
0
LINE
8
User.Eco2
6
CONTINUOUS
10
5.0498683858267714
20
-5.4353295669291342
11
5.0456040551181101
21
-5.4377915748031498
0
LINE
8
User.Eco2
6
CONTINUOUS
10
5.0456040551181101
20
-5.4377915748031498
11
5.0421222834645665
21
-5.4412733464566925
0
LINE
8
User.Eco2
6
CONTINUOUS
10
5.0421222834645665
20
-5.4412733464566925
11
5.0396602755905509
21
-5.4455376771653539
0
LINE
8
User.Eco2
6
CONTINUOUS
10
5.0396602755905509
20
-5.4455376771653539
11
5.0383858267716537
21
-5.4502938976377955
0
LINE
8
User.Eco2
6
CONTINUOUS
10
5.0383858267716537
20
-5.4502938976377955
11
5.0383858267716537
21
-5.4527559055118111
0
LINE
8
User.Eco2
6
CONTINUOUS
10
5.0383858267716537
20
-5.4527559055118111
11
5.0383858267716537
21
-5.9645669291338583
0
LINE
8
User.Eco2
6
CONTINUOUS
10
5.0383858267716537
20
-5.9645669291338583
11
5.0383858267716537
21
-5.967028937007874
0
LINE
8
User.Eco2
6
CONTINUOUS
10
5.0383858267716537
20
-5.967028937007874
11
5.0396602755905509
21
-5.9717851574803147
0
LINE
8
User.Eco2
6
CONTINUOUS
10
5.0396602755905509
20
-5.9717851574803147
11
5.0421222834645665
21
-5.9760494881889761
0
LINE
8
User.Eco2
6
CONTINUOUS
10
5.0421222834645665
20
-5.9760494881889761
11
5.0456040551181101
21
-5.9795312598425197
0
LINE
8
User.Eco2
6
CONTINUOUS
10
5.0456040551181101
20
-5.9795312598425197
11
5.0498683858267714
21
-5.9819932677165353
0
LINE
8
User.Eco2
6
CONTINUOUS
10
5.0498683858267714
20
-5.9819932677165353
11
5.0546246062992122
21
-5.9832677165354333
0
LINE
8
User.Eco2
6
CONTINUOUS
10
5.0546246062992122
20
-5.9832677165354333
11
5.0570866141732278
21
-5.9832677165354333
0
LINE
8
User.Eco2
6
CONTINUOUS
10
5.0570866141732278
20
-5.9832677165354333
11
5.5686536220472442
21
-5.9832677165354333
0
LINE
8
User.Eco2
6
CONTINUOUS
10
5.5686536220472442
20
-5.9832677165354333
11
5.5687888188976373
21
-5.9832237795275587
0
LINE
8
User.Eco2
6
CONTINUOUS
10
5.5687888188976373
20
-5.9832237795275587
11
5.5712508267716538
21
-5.9832237795275587
0
LINE
8
User.Eco2
6
CONTINUOUS
10
5.5712508267716538
20
-5.9832237795275587
11
5.5760070472440946
21
-5.9819493307086615
0
LINE
8
User.Eco2
6
CONTINUOUS
10
5.5760070472440946
20
-5.9819493307086615
11
5.580271377952756
21
-5.9794873228346459
0
LINE
8
User.Eco2
6
CONTINUOUS
10
5.580271377952756
20
-5.9794873228346459
11
5.5837531496062986
21
-5.9760055511811023
0
LINE
8
User.Eco2
6
CONTINUOUS
10
5.5837531496062986
20
-5.9760055511811023
11
5.5862151574803152
21
-5.9717412204724409
0
LINE
8
User.Eco2
6
CONTINUOUS
10
5.5862151574803152
20
-5.9717412204724409
11
5.5874896062992123
21
-5.9669850000000002
0
LINE
8
User.Eco2
6
CONTINUOUS
10
5.5874896062992123
20
-5.9669850000000002
11
5.5874896062992123
21
-5.9645229921259837
0
LINE
8
User.Eco2
6
CONTINUOUS
10
5.5874896062992123
20
-5.9645229921259837
11
5.58759842519685
21
-5.9641880708661414
0
LINE
8
User.Eco2
6
CONTINUOUS
10
5.58759842519685
20
-5.9641880708661414
11
5.58759842519685
21
-5.4527559055118111
0
LINE
8
User.Eco2
6
CONTINUOUS
10
5.58759842519685
20
-5.4527559055118111
11
5.58759842519685
21
-5.4502938976377955
0
LINE
8
User.Eco2
6
CONTINUOUS
10
5.58759842519685
20
-5.4502938976377955
11
5.5863239763779529
21
-5.4455376771653539
0
LINE
8
User.Eco2
6
CONTINUOUS
10
5.5863239763779529
20
-5.4455376771653539
11
5.5838619685039372
21
-5.4412733464566925
0
LINE
8
User.Eco2
6
CONTINUOUS
10
5.5838619685039372
20
-5.4412733464566925
11
5.5803801968503937
21
-5.4377915748031498
0
LINE
8
User.Eco2
6
CONTINUOUS
10
5.5803801968503937
20
-5.4377915748031498
11
5.5761158661417323
21
-5.4353295669291342
0
LINE
8
User.Eco2
6
CONTINUOUS
10
5.5761158661417323
20
-5.4353295669291342
11
5.5713596456692915
21
-5.4340551181102361
0
LINE
8
User.Eco2
6
CONTINUOUS
10
5.5713596456692915
20
-5.4340551181102361
11
5.568897637795275
21
-5.4340551181102361
0
LINE
8
User.Eco2
6
CONTINUOUS
10
5.568897637795275
20
-5.4340551181102361
11
5.0570866141732278
21
-5.4340551181102361
0
LINE
8
User.Eco2
6
CONTINUOUS
10
6.5531496062992121
20
-5.4320866141732278
11
6.5577489370078741
21
-5.4326048425196847
0
LINE
8
User.Eco2
6
CONTINUOUS
10
6.5577489370078741
20
-5.4326048425196847
11
6.5621176771653538
21
-5.4341335433070865
0
LINE
8
User.Eco2
6
CONTINUOUS
10
6.5621176771653538
20
-5.4341335433070865
11
6.5660366929133858
21
-5.4365960236220472
0
LINE
8
User.Eco2
6
CONTINUOUS
10
6.5660366929133858
20
-5.4365960236220472
11
6.569309488188976
21
-5.4398688188976374
0
LINE
8
User.Eco2
6
CONTINUOUS
10
6.569309488188976
20
-5.4398688188976374
11
6.5717719685039366
21
-5.4437878346456694
0
LINE
8
User.Eco2
6
CONTINUOUS
10
6.5717719685039366
20
-5.4437878346456694
11
6.5733006692913385
21
-5.4481565748031491
0
LINE
8
User.Eco2
6
CONTINUOUS
10
6.5733006692913385
20
-5.4481565748031491
11
6.5738188976377954
21
-5.4527559055118111
0
LINE
8
User.Eco2
6
CONTINUOUS
10
6.5738188976377954
20
-5.4527559055118111
11
6.5738188976377954
21
-5.9645669291338583
0
LINE
8
User.Eco2
6
CONTINUOUS
10
6.5738188976377954
20
-5.9645669291338583
11
6.573743976377953
21
-5.9649435826771651
0
LINE
8
User.Eco2
6
CONTINUOUS
10
6.573743976377953
20
-5.9649435826771651
11
6.573652362204724
21
-5.9650351574803144
0
LINE
8
User.Eco2
6
CONTINUOUS
10
6.573652362204724
20
-5.9650351574803144
11
6.5731918503937008
21
-5.9691223228346457
0
LINE
8
User.Eco2
6
CONTINUOUS
10
6.5731918503937008
20
-5.9691223228346457
11
6.5716631496062989
21
-5.9734910629921263
0
LINE
8
User.Eco2
6
CONTINUOUS
10
6.5716631496062989
20
-5.9734910629921263
11
6.5692006692913383
21
-5.9774100787401574
0
LINE
8
User.Eco2
6
CONTINUOUS
10
6.5692006692913383
20
-5.9774100787401574
11
6.5659278740157481
21
-5.9806828740157476
0
LINE
8
User.Eco2
6
CONTINUOUS
10
6.5659278740157481
20
-5.9806828740157476
11
6.5620088582677161
21
-5.9831453543307083
0
LINE
8
User.Eco2
6
CONTINUOUS
10
6.5620088582677161
20
-5.9831453543307083
11
6.5576401181102364
21
-5.9846740551181101
0
LINE
8
User.Eco2
6
CONTINUOUS
10
6.5576401181102364
20
-5.9846740551181101
11
6.5535529527559051
21
-5.9851345669291334
0
LINE
8
User.Eco2
6
CONTINUOUS
10
6.5535529527559051
20
-5.9851345669291334
11
6.5535262598425197
21
-5.9851612992125984
0
LINE
8
User.Eco2
6
CONTINUOUS
10
6.5535262598425197
20
-5.9851612992125984
11
6.5531496062992121
21
-5.9852362204724407
0
LINE
8
User.Eco2
6
CONTINUOUS
10
6.5531496062992121
20
-5.9852362204724407
11
6.0413385826771648
21
-5.9852362204724407
0
LINE
8
User.Eco2
6
CONTINUOUS
10
6.0413385826771648
20
-5.9852362204724407
11
6.0367392519685037
21
-5.9847179921259839
0
LINE
8
User.Eco2
6
CONTINUOUS
10
6.0367392519685037
20
-5.9847179921259839
11
6.0323705118110231
21
-5.9831892913385829
0
LINE
8
User.Eco2
6
CONTINUOUS
10
6.0323705118110231
20
-5.9831892913385829
11
6.028451496062992
21
-5.9807268110236222
0
LINE
8
User.Eco2
6
CONTINUOUS
10
6.028451496062992
20
-5.9807268110236222
11
6.0251787007874018
21
-5.9774540157480311
0
LINE
8
User.Eco2
6
CONTINUOUS
10
6.0251787007874018
20
-5.9774540157480311
11
6.0227162204724412
21
-5.973535
0
LINE
8
User.Eco2
6
CONTINUOUS
10
6.0227162204724412
20
-5.973535
11
6.0211875196850393
21
-5.9691662598425195
0
LINE
8
User.Eco2
6
CONTINUOUS
10
6.0211875196850393
20
-5.9691662598425195
11
6.0206692913385824
21
-5.9645669291338583
0
LINE
8
User.Eco2
6
CONTINUOUS
10
6.0206692913385824
20
-5.9645669291338583
11
6.0206692913385824
21
-5.4527559055118111
0
LINE
8
User.Eco2
6
CONTINUOUS
10
6.0206692913385824
20
-5.4527559055118111
11
6.0211875196850393
21
-5.4481565748031491
0
LINE
8
User.Eco2
6
CONTINUOUS
10
6.0211875196850393
20
-5.4481565748031491
11
6.0227162204724412
21
-5.4437878346456694
0
LINE
8
User.Eco2
6
CONTINUOUS
10
6.0227162204724412
20
-5.4437878346456694
11
6.0251787007874018
21
-5.4398688188976374
0
LINE
8
User.Eco2
6
CONTINUOUS
10
6.0251787007874018
20
-5.4398688188976374
11
6.028451496062992
21
-5.4365960236220472
0
LINE
8
User.Eco2
6
CONTINUOUS
10
6.028451496062992
20
-5.4365960236220472
11
6.0323705118110231
21
-5.4341335433070865
0
LINE
8
User.Eco2
6
CONTINUOUS
10
6.0323705118110231
20
-5.4341335433070865
11
6.0367392519685037
21
-5.4326048425196847
0
LINE
8
User.Eco2
6
CONTINUOUS
10
6.0367392519685037
20
-5.4326048425196847
11
6.0413385826771648
21
-5.4320866141732278
0
LINE
8
User.Eco2
6
CONTINUOUS
10
6.0413385826771648
20
-5.4320866141732278
11
6.5531496062992121
21
-5.4320866141732278
0
LINE
8
User.Eco2
6
CONTINUOUS
10
6.0413385826771648
20
-5.4340551181102361
11
6.0388765748031492
21
-5.4340551181102361
0
LINE
8
User.Eco2
6
CONTINUOUS
10
6.0388765748031492
20
-5.4340551181102361
11
6.0341203543307085
21
-5.4353295669291342
0
LINE
8
User.Eco2
6
CONTINUOUS
10
6.0341203543307085
20
-5.4353295669291342
11
6.0298560236220471
21
-5.4377915748031498
0
LINE
8
User.Eco2
6
CONTINUOUS
10
6.0298560236220471
20
-5.4377915748031498
11
6.0263742519685035
21
-5.4412733464566925
0
LINE
8
User.Eco2
6
CONTINUOUS
10
6.0263742519685035
20
-5.4412733464566925
11
6.0239122440944879
21
-5.4455376771653539
0
LINE
8
User.Eco2
6
CONTINUOUS
10
6.0239122440944879
20
-5.4455376771653539
11
6.0226377952755907
21
-5.4502938976377955
0
LINE
8
User.Eco2
6
CONTINUOUS
10
6.0226377952755907
20
-5.4502938976377955
11
6.0226377952755907
21
-5.4527559055118111
0
LINE
8
User.Eco2
6
CONTINUOUS
10
6.0226377952755907
20
-5.4527559055118111
11
6.0226377952755907
21
-5.9645669291338583
0
LINE
8
User.Eco2
6
CONTINUOUS
10
6.0226377952755907
20
-5.9645669291338583
11
6.0226377952755907
21
-5.967028937007874
0
LINE
8
User.Eco2
6
CONTINUOUS
10
6.0226377952755907
20
-5.967028937007874
11
6.0239122440944879
21
-5.9717851574803147
0
LINE
8
User.Eco2
6
CONTINUOUS
10
6.0239122440944879
20
-5.9717851574803147
11
6.0263742519685035
21
-5.9760494881889761
0
LINE
8
User.Eco2
6
CONTINUOUS
10
6.0263742519685035
20
-5.9760494881889761
11
6.0298560236220471
21
-5.9795312598425197
0
LINE
8
User.Eco2
6
CONTINUOUS
10
6.0298560236220471
20
-5.9795312598425197
11
6.0341203543307085
21
-5.9819932677165353
0
LINE
8
User.Eco2
6
CONTINUOUS
10
6.0341203543307085
20
-5.9819932677165353
11
6.0388765748031492
21
-5.9832677165354333
0
LINE
8
User.Eco2
6
CONTINUOUS
10
6.0388765748031492
20
-5.9832677165354333
11
6.0413385826771648
21
-5.9832677165354333
0
LINE
8
User.Eco2
6
CONTINUOUS
10
6.0413385826771648
20
-5.9832677165354333
11
6.5529055905511813
21
-5.9832677165354333
0
LINE
8
User.Eco2
6
CONTINUOUS
10
6.5529055905511813
20
-5.9832677165354333
11
6.5530407874015744
21
-5.9832237795275587
0
LINE
8
User.Eco2
6
CONTINUOUS
10
6.5530407874015744
20
-5.9832237795275587
11
6.55550279527559
21
-5.9832237795275587
0
LINE
8
User.Eco2
6
CONTINUOUS
10
6.55550279527559
20
-5.9832237795275587
11
6.5602590157480316
21
-5.9819493307086615
0
LINE
8
User.Eco2
6
CONTINUOUS
10
6.5602590157480316
20
-5.9819493307086615
11
6.564523346456693
21
-5.9794873228346459
0
LINE
8
User.Eco2
6
CONTINUOUS
10
6.564523346456693
20
-5.9794873228346459
11
6.5680051181102357
21
-5.9760055511811023
0
LINE
8
User.Eco2
6
CONTINUOUS
10
6.5680051181102357
20
-5.9760055511811023
11
6.5704671259842522
21
-5.9717412204724409
0
LINE
8
User.Eco2
6
CONTINUOUS
10
6.5704671259842522
20
-5.9717412204724409
11
6.5717415748031494
21
-5.9669850000000002
0
LINE
8
User.Eco2
6
CONTINUOUS
10
6.5717415748031494
20
-5.9669850000000002
11
6.5717415748031494
21
-5.9645229921259837
0
LINE
8
User.Eco2
6
CONTINUOUS
10
6.5717415748031494
20
-5.9645229921259837
11
6.5718503937007871
21
-5.9641880708661414
0
LINE
8
User.Eco2
6
CONTINUOUS
10
6.5718503937007871
20
-5.9641880708661414
11
6.5718503937007871
21
-5.4527559055118111
0
LINE
8
User.Eco2
6
CONTINUOUS
10
6.5718503937007871
20
-5.4527559055118111
11
6.5718503937007871
21
-5.4502938976377955
0
LINE
8
User.Eco2
6
CONTINUOUS
10
6.5718503937007871
20
-5.4502938976377955
11
6.5705759448818899
21
-5.4455376771653539
0
LINE
8
User.Eco2
6
CONTINUOUS
10
6.5705759448818899
20
-5.4455376771653539
11
6.5681139370078743
21
-5.4412733464566925
0
LINE
8
User.Eco2
6
CONTINUOUS
10
6.5681139370078743
20
-5.4412733464566925
11
6.5646321653543307
21
-5.4377915748031498
0
LINE
8
User.Eco2
6
CONTINUOUS
10
6.5646321653543307
20
-5.4377915748031498
11
6.5603678346456693
21
-5.4353295669291342
0
LINE
8
User.Eco2
6
CONTINUOUS
10
6.5603678346456693
20
-5.4353295669291342
11
6.5556116141732286
21
-5.4340551181102361
0
LINE
8
User.Eco2
6
CONTINUOUS
10
6.5556116141732286
20
-5.4340551181102361
11
6.5531496062992121
21
-5.4340551181102361
0
LINE
8
User.Eco2
6
CONTINUOUS
10
6.5531496062992121
20
-5.4340551181102361
11
6.0413385826771648
21
-5.4340551181102361
0
LINE
8
User.Eco2
6
CONTINUOUS
10
7.5374015748031491
20
-5.4320866141732278
11
7.5420009055118111
21
-5.4326048425196847
0
LINE
8
User.Eco2
6
CONTINUOUS
10
7.5420009055118111
20
-5.4326048425196847
11
7.5463696456692908
21
-5.4341335433070865
0
LINE
8
User.Eco2
6
CONTINUOUS
10
7.5463696456692908
20
-5.4341335433070865
11
7.5502886614173228
21
-5.4365960236220472
0
LINE
8
User.Eco2
6
CONTINUOUS
10
7.5502886614173228
20
-5.4365960236220472
11
7.553561456692913
21
-5.4398688188976374
0
LINE
8
User.Eco2
6
CONTINUOUS
10
7.553561456692913
20
-5.4398688188976374
11
7.5560239370078737
21
-5.4437878346456694
0
LINE
8
User.Eco2
6
CONTINUOUS
10
7.5560239370078737
20
-5.4437878346456694
11
7.5575526377952755
21
-5.4481565748031491
0
LINE
8
User.Eco2
6
CONTINUOUS
10
7.5575526377952755
20
-5.4481565748031491
11
7.5580708661417324
21
-5.4527559055118111
0
LINE
8
User.Eco2
6
CONTINUOUS
10
7.5580708661417324
20
-5.4527559055118111
11
7.5580708661417324
21
-5.9645669291338583
0
LINE
8
User.Eco2
6
CONTINUOUS
10
7.5580708661417324
20
-5.9645669291338583
11
7.5579959448818892
21
-5.9649435826771651
0
LINE
8
User.Eco2
6
CONTINUOUS
10
7.5579959448818892
20
-5.9649435826771651
11
7.5579043307086611
21
-5.9650351574803144
0
LINE
8
User.Eco2
6
CONTINUOUS
10
7.5579043307086611
20
-5.9650351574803144
11
7.5574438188976378
21
-5.9691223228346457
0
LINE
8
User.Eco2
6
CONTINUOUS
10
7.5574438188976378
20
-5.9691223228346457
11
7.555915118110236
21
-5.9734910629921263
0
LINE
8
User.Eco2
6
CONTINUOUS
10
7.555915118110236
20
-5.9734910629921263
11
7.5534526377952753
21
-5.9774100787401574
0
LINE
8
User.Eco2
6
CONTINUOUS
10
7.5534526377952753
20
-5.9774100787401574
11
7.5501798425196851
21
-5.9806828740157476
0
LINE
8
User.Eco2
6
CONTINUOUS
10
7.5501798425196851
20
-5.9806828740157476
11
7.5462608267716531
21
-5.9831453543307083
0
LINE
8
User.Eco2
6
CONTINUOUS
10
7.5462608267716531
20
-5.9831453543307083
11
7.5418920866141734
21
-5.9846740551181101
0
LINE
8
User.Eco2
6
CONTINUOUS
10
7.5418920866141734
20
-5.9846740551181101
11
7.5378049212598421
21
-5.9851345669291334
0
LINE
8
User.Eco2
6
CONTINUOUS
10
7.5378049212598421
20
-5.9851345669291334
11
7.5377782283464567
21
-5.9851612992125984
0
LINE
8
User.Eco2
6
CONTINUOUS
10
7.5377782283464567
20
-5.9851612992125984
11
7.5374015748031491
21
-5.9852362204724407
0
LINE
8
User.Eco2
6
CONTINUOUS
10
7.5374015748031491
20
-5.9852362204724407
11
7.0255905511811019
21
-5.9852362204724407
0
LINE
8
User.Eco2
6
CONTINUOUS
10
7.0255905511811019
20
-5.9852362204724407
11
7.0209912204724407
21
-5.9847179921259839
0
LINE
8
User.Eco2
6
CONTINUOUS
10
7.0209912204724407
20
-5.9847179921259839
11
7.0166224803149602
21
-5.9831892913385829
0
LINE
8
User.Eco2
6
CONTINUOUS
10
7.0166224803149602
20
-5.9831892913385829
11
7.0127034645669291
21
-5.9807268110236222
0
LINE
8
User.Eco2
6
CONTINUOUS
10
7.0127034645669291
20
-5.9807268110236222
11
7.0094306692913388
21
-5.9774540157480311
0
LINE
8
User.Eco2
6
CONTINUOUS
10
7.0094306692913388
20
-5.9774540157480311
11
7.0069681889763782
21
-5.973535
0
LINE
8
User.Eco2
6
CONTINUOUS
10
7.0069681889763782
20
-5.973535
11
7.0054394881889763
21
-5.9691662598425195
0
LINE
8
User.Eco2
6
CONTINUOUS
10
7.0054394881889763
20
-5.9691662598425195
11
7.0049212598425195
21
-5.9645669291338583
0
LINE
8
User.Eco2
6
CONTINUOUS
10
7.0049212598425195
20
-5.9645669291338583
11
7.0049212598425195
21
-5.4527559055118111
0
LINE
8
User.Eco2
6
CONTINUOUS
10
7.0049212598425195
20
-5.4527559055118111
11
7.0054394881889763
21
-5.4481565748031491
0
LINE
8
User.Eco2
6
CONTINUOUS
10
7.0054394881889763
20
-5.4481565748031491
11
7.0069681889763782
21
-5.4437878346456694
0
LINE
8
User.Eco2
6
CONTINUOUS
10
7.0069681889763782
20
-5.4437878346456694
11
7.0094306692913388
21
-5.4398688188976374
0
LINE
8
User.Eco2
6
CONTINUOUS
10
7.0094306692913388
20
-5.4398688188976374
11
7.0127034645669291
21
-5.4365960236220472
0
LINE
8
User.Eco2
6
CONTINUOUS
10
7.0127034645669291
20
-5.4365960236220472
11
7.0166224803149602
21
-5.4341335433070865
0
LINE
8
User.Eco2
6
CONTINUOUS
10
7.0166224803149602
20
-5.4341335433070865
11
7.0209912204724407
21
-5.4326048425196847
0
LINE
8
User.Eco2
6
CONTINUOUS
10
7.0209912204724407
20
-5.4326048425196847
11
7.0255905511811019
21
-5.4320866141732278
0
LINE
8
User.Eco2
6
CONTINUOUS
10
7.0255905511811019
20
-5.4320866141732278
11
7.5374015748031491
21
-5.4320866141732278
0
LINE
8
User.Eco2
6
CONTINUOUS
10
7.0255905511811019
20
-5.4340551181102361
11
7.0231285433070862
21
-5.4340551181102361
0
LINE
8
User.Eco2
6
CONTINUOUS
10
7.0231285433070862
20
-5.4340551181102361
11
7.0183723228346455
21
-5.4353295669291342
0
LINE
8
User.Eco2
6
CONTINUOUS
10
7.0183723228346455
20
-5.4353295669291342
11
7.0141079921259841
21
-5.4377915748031498
0
LINE
8
User.Eco2
6
CONTINUOUS
10
7.0141079921259841
20
-5.4377915748031498
11
7.0106262204724406
21
-5.4412733464566925
0
LINE
8
User.Eco2
6
CONTINUOUS
10
7.0106262204724406
20
-5.4412733464566925
11
7.0081642125984249
21
-5.4455376771653539
0
LINE
8
User.Eco2
6
CONTINUOUS
10
7.0081642125984249
20
-5.4455376771653539
11
7.0068897637795278
21
-5.4502938976377955
0
LINE
8
User.Eco2
6
CONTINUOUS
10
7.0068897637795278
20
-5.4502938976377955
11
7.0068897637795278
21
-5.4527559055118111
0
LINE
8
User.Eco2
6
CONTINUOUS
10
7.0068897637795278
20
-5.4527559055118111
11
7.0068897637795278
21
-5.9645669291338583
0
LINE
8
User.Eco2
6
CONTINUOUS
10
7.0068897637795278
20
-5.9645669291338583
11
7.0068897637795278
21
-5.967028937007874
0
LINE
8
User.Eco2
6
CONTINUOUS
10
7.0068897637795278
20
-5.967028937007874
11
7.0081642125984249
21
-5.9717851574803147
0
LINE
8
User.Eco2
6
CONTINUOUS
10
7.0081642125984249
20
-5.9717851574803147
11
7.0106262204724406
21
-5.9760494881889761
0
LINE
8
User.Eco2
6
CONTINUOUS
10
7.0106262204724406
20
-5.9760494881889761
11
7.0141079921259841
21
-5.9795312598425197
0
LINE
8
User.Eco2
6
CONTINUOUS
10
7.0141079921259841
20
-5.9795312598425197
11
7.0183723228346455
21
-5.9819932677165353
0
LINE
8
User.Eco2
6
CONTINUOUS
10
7.0183723228346455
20
-5.9819932677165353
11
7.0231285433070862
21
-5.9832677165354333
0
LINE
8
User.Eco2
6
CONTINUOUS
10
7.0231285433070862
20
-5.9832677165354333
11
7.0255905511811019
21
-5.9832677165354333
0
LINE
8
User.Eco2
6
CONTINUOUS
10
7.0255905511811019
20
-5.9832677165354333
11
7.5371575590551183
21
-5.9832677165354333
0
LINE
8
User.Eco2
6
CONTINUOUS
10
7.5371575590551183
20
-5.9832677165354333
11
7.5372927559055114
21
-5.9832237795275587
0
LINE
8
User.Eco2
6
CONTINUOUS
10
7.5372927559055114
20
-5.9832237795275587
11
7.539754763779527
21
-5.9832237795275587
0
LINE
8
User.Eco2
6
CONTINUOUS
10
7.539754763779527
20
-5.9832237795275587
11
7.5445109842519686
21
-5.9819493307086615
0
LINE
8
User.Eco2
6
CONTINUOUS
10
7.5445109842519686
20
-5.9819493307086615
11
7.54877531496063
21
-5.9794873228346459
0
LINE
8
User.Eco2
6
CONTINUOUS
10
7.54877531496063
20
-5.9794873228346459
11
7.5522570866141727
21
-5.9760055511811023
0
LINE
8
User.Eco2
6
CONTINUOUS
10
7.5522570866141727
20
-5.9760055511811023
11
7.5547190944881892
21
-5.9717412204724409
0
LINE
8
User.Eco2
6
CONTINUOUS
10
7.5547190944881892
20
-5.9717412204724409
11
7.5559935433070864
21
-5.9669850000000002
0
LINE
8
User.Eco2
6
CONTINUOUS
10
7.5559935433070864
20
-5.9669850000000002
11
7.5559935433070864
21
-5.9645229921259837
0
LINE
8
User.Eco2
6
CONTINUOUS
10
7.5559935433070864
20
-5.9645229921259837
11
7.5561023622047241
21
-5.9641880708661414
0
LINE
8
User.Eco2
6
CONTINUOUS
10
7.5561023622047241
20
-5.9641880708661414
11
7.5561023622047241
21
-5.4527559055118111
0
LINE
8
User.Eco2
6
CONTINUOUS
10
7.5561023622047241
20
-5.4527559055118111
11
7.5561023622047241
21
-5.4502938976377955
0
LINE
8
User.Eco2
6
CONTINUOUS
10
7.5561023622047241
20
-5.4502938976377955
11
7.5548279133858269
21
-5.4455376771653539
0
LINE
8
User.Eco2
6
CONTINUOUS
10
7.5548279133858269
20
-5.4455376771653539
11
7.5523659055118104
21
-5.4412733464566925
0
LINE
8
User.Eco2
6
CONTINUOUS
10
7.5523659055118104
20
-5.4412733464566925
11
7.5488841338582677
21
-5.4377915748031498
0
LINE
8
User.Eco2
6
CONTINUOUS
10
7.5488841338582677
20
-5.4377915748031498
11
7.5446198031496063
21
-5.4353295669291342
0
LINE
8
User.Eco2
6
CONTINUOUS
10
7.5446198031496063
20
-5.4353295669291342
11
7.5398635826771656
21
-5.4340551181102361
0
LINE
8
User.Eco2
6
CONTINUOUS
10
7.5398635826771656
20
-5.4340551181102361
11
7.5374015748031491
21
-5.4340551181102361
0
LINE
8
User.Eco2
6
CONTINUOUS
10
7.5374015748031491
20
-5.4340551181102361
11
7.0255905511811019
21
-5.4340551181102361
0
LINE
8
User.Eco2
6
CONTINUOUS
10
4.5846456692913389
20
-4.2509842519685037
11
4.589245
21
-4.2515024803149606
0
LINE
8
User.Eco2
6
CONTINUOUS
10
4.589245
20
-4.2515024803149606
11
4.5936137401574806
21
-4.2530311811023624
0
LINE
8
User.Eco2
6
CONTINUOUS
10
4.5936137401574806
20
-4.2530311811023624
11
4.5975327559055117
21
-4.2554936614173231
0
LINE
8
User.Eco2
6
CONTINUOUS
10
4.5975327559055117
20
-4.2554936614173231
11
4.6008055511811019
21
-4.2587664566929133
0
LINE
8
User.Eco2
6
CONTINUOUS
10
4.6008055511811019
20
-4.2587664566929133
11
4.6032680314960626
21
-4.2626854724409444
0
LINE
8
User.Eco2
6
CONTINUOUS
10
4.6032680314960626
20
-4.2626854724409444
11
4.6047967322834644
21
-4.267054212598425
0
LINE
8
User.Eco2
6
CONTINUOUS
10
4.6047967322834644
20
-4.267054212598425
11
4.6053149606299213
21
-4.2716535433070861
0
LINE
8
User.Eco2
6
CONTINUOUS
10
4.6053149606299213
20
-4.2716535433070861
11
4.6053149606299213
21
-4.7834645669291334
0
LINE
8
User.Eco2
6
CONTINUOUS
10
4.6053149606299213
20
-4.7834645669291334
11
4.605240039370079
21
-4.783841220472441
0
LINE
8
User.Eco2
6
CONTINUOUS
10
4.605240039370079
20
-4.783841220472441
11
4.60514842519685
21
-4.7839327952755903
0
LINE
8
User.Eco2
6
CONTINUOUS
10
4.60514842519685
20
-4.7839327952755903
11
4.6046879133858267
21
-4.7880199606299207
0
LINE
8
User.Eco2
6
CONTINUOUS
10
4.6046879133858267
20
-4.7880199606299207
11
4.6031592125984249
21
-4.7923887007874013
0
LINE
8
User.Eco2
6
CONTINUOUS
10
4.6031592125984249
20
-4.7923887007874013
11
4.6006967322834642
21
-4.7963077165354333
0
LINE
8
User.Eco2
6
CONTINUOUS
10
4.6006967322834642
20
-4.7963077165354333
11
4.597423937007874
21
-4.7995805118110235
0
LINE
8
User.Eco2
6
CONTINUOUS
10
4.597423937007874
20
-4.7995805118110235
11
4.593504921259842
21
-4.8020429921259842
0
LINE
8
User.Eco2
6
CONTINUOUS
10
4.593504921259842
20
-4.8020429921259842
11
4.5891361811023623
21
-4.803571692913386
0
LINE
8
User.Eco2
6
CONTINUOUS
10
4.5891361811023623
20
-4.803571692913386
11
4.585049015748031
21
-4.8040322047244093
0
LINE
8
User.Eco2
6
CONTINUOUS
10
4.585049015748031
20
-4.8040322047244093
11
4.5850223228346456
21
-4.8040589370078743
0
LINE
8
User.Eco2
6
CONTINUOUS
10
4.5850223228346456
20
-4.8040589370078743
11
4.5846456692913389
21
-4.8041338582677167
0
LINE
8
User.Eco2
6
CONTINUOUS
10
4.5846456692913389
20
-4.8041338582677167
11
4.0728346456692917
21
-4.8041338582677167
0
LINE
8
User.Eco2
6
CONTINUOUS
10
4.0728346456692917
20
-4.8041338582677167
11
4.0682353149606296
21
-4.8036156299212598
0
LINE
8
User.Eco2
6
CONTINUOUS
10
4.0682353149606296
20
-4.8036156299212598
11
4.0638665748031499
21
-4.8020869291338579
0
LINE
8
User.Eco2
6
CONTINUOUS
10
4.0638665748031499
20
-4.8020869291338579
11
4.0599475590551179
21
-4.7996244488188973
0
LINE
8
User.Eco2
6
CONTINUOUS
10
4.0599475590551179
20
-4.7996244488188973
11
4.0566747637795277
21
-4.7963516535433071
0
LINE
8
User.Eco2
6
CONTINUOUS
10
4.0566747637795277
20
-4.7963516535433071
11
4.0542122834645671
21
-4.7924326377952751
0
LINE
8
User.Eco2
6
CONTINUOUS
10
4.0542122834645671
20
-4.7924326377952751
11
4.0526835826771652
21
-4.7880638976377954
0
LINE
8
User.Eco2
6
CONTINUOUS
10
4.0526835826771652
20
-4.7880638976377954
11
4.0521653543307083
21
-4.7834645669291334
0
LINE
8
User.Eco2
6
CONTINUOUS
10
4.0521653543307083
20
-4.7834645669291334
11
4.0521653543307083
21
-4.2716535433070861
0
LINE
8
User.Eco2
6
CONTINUOUS
10
4.0521653543307083
20
-4.2716535433070861
11
4.0526835826771652
21
-4.267054212598425
0
LINE
8
User.Eco2
6
CONTINUOUS
10
4.0526835826771652
20
-4.267054212598425
11
4.0542122834645671
21
-4.2626854724409444
0
LINE
8
User.Eco2
6
CONTINUOUS
10
4.0542122834645671
20
-4.2626854724409444
11
4.0566747637795277
21
-4.2587664566929133
0
LINE
8
User.Eco2
6
CONTINUOUS
10
4.0566747637795277
20
-4.2587664566929133
11
4.0599475590551179
21
-4.2554936614173231
0
LINE
8
User.Eco2
6
CONTINUOUS
10
4.0599475590551179
20
-4.2554936614173231
11
4.0638665748031499
21
-4.2530311811023624
0
LINE
8
User.Eco2
6
CONTINUOUS
10
4.0638665748031499
20
-4.2530311811023624
11
4.0682353149606296
21
-4.2515024803149606
0
LINE
8
User.Eco2
6
CONTINUOUS
10
4.0682353149606296
20
-4.2515024803149606
11
4.0728346456692917
21
-4.2509842519685037
0
LINE
8
User.Eco2
6
CONTINUOUS
10
4.0728346456692917
20
-4.2509842519685037
11
4.5846456692913389
21
-4.2509842519685037
0
LINE
8
User.Eco2
6
CONTINUOUS
10
4.0728346456692917
20
-4.252952755905512
11
4.0703726377952751
21
-4.252952755905512
0
LINE
8
User.Eco2
6
CONTINUOUS
10
4.0703726377952751
20
-4.252952755905512
11
4.0656164173228344
21
-4.2542272047244092
0
LINE
8
User.Eco2
6
CONTINUOUS
10
4.0656164173228344
20
-4.2542272047244092
11
4.061352086614173
21
-4.2566892125984248
0
LINE
8
User.Eco2
6
CONTINUOUS
10
4.061352086614173
20
-4.2566892125984248
11
4.0578703149606294
21
-4.2601709842519684
0
LINE
8
User.Eco2
6
CONTINUOUS
10
4.0578703149606294
20
-4.2601709842519684
11
4.0554083070866138
21
-4.2644353149606298
0
LINE
8
User.Eco2
6
CONTINUOUS
10
4.0554083070866138
20
-4.2644353149606298
11
4.0541338582677167
21
-4.2691915354330705
0
LINE
8
User.Eco2
6
CONTINUOUS
10
4.0541338582677167
20
-4.2691915354330705
11
4.0541338582677167
21
-4.2716535433070861
0
LINE
8
User.Eco2
6
CONTINUOUS
10
4.0541338582677167
20
-4.2716535433070861
11
4.0541338582677167
21
-4.7834645669291334
0
LINE
8
User.Eco2
6
CONTINUOUS
10
4.0541338582677167
20
-4.7834645669291334
11
4.0541338582677167
21
-4.7859265748031499
0
LINE
8
User.Eco2
6
CONTINUOUS
10
4.0541338582677167
20
-4.7859265748031499
11
4.0554083070866138
21
-4.7906827952755906
0
LINE
8
User.Eco2
6
CONTINUOUS
10
4.0554083070866138
20
-4.7906827952755906
11
4.0578703149606294
21
-4.794947125984252
0
LINE
8
User.Eco2
6
CONTINUOUS
10
4.0578703149606294
20
-4.794947125984252
11
4.061352086614173
21
-4.7984288976377956
0
LINE
8
User.Eco2
6
CONTINUOUS
10
4.061352086614173
20
-4.7984288976377956
11
4.0656164173228344
21
-4.8008909055118112
0
LINE
8
User.Eco2
6
CONTINUOUS
10
4.0656164173228344
20
-4.8008909055118112
11
4.0703726377952751
21
-4.8021653543307083
0
LINE
8
User.Eco2
6
CONTINUOUS
10
4.0703726377952751
20
-4.8021653543307083
11
4.0728346456692917
21
-4.8021653543307083
0
LINE
8
User.Eco2
6
CONTINUOUS
10
4.0728346456692917
20
-4.8021653543307083
11
4.5844016535433072
21
-4.8021653543307083
0
LINE
8
User.Eco2
6
CONTINUOUS
10
4.5844016535433072
20
-4.8021653543307083
11
4.5845368503937003
21
-4.8021214173228346
0
LINE
8
User.Eco2
6
CONTINUOUS
10
4.5845368503937003
20
-4.8021214173228346
11
4.5869988582677168
21
-4.8021214173228346
0
LINE
8
User.Eco2
6
CONTINUOUS
10
4.5869988582677168
20
-4.8021214173228346
11
4.5917550787401575
21
-4.8008469685039366
0
LINE
8
User.Eco2
6
CONTINUOUS
10
4.5917550787401575
20
-4.8008469685039366
11
4.5960194094488189
21
-4.7983849606299209
0
LINE
8
User.Eco2
6
CONTINUOUS
10
4.5960194094488189
20
-4.7983849606299209
11
4.5995011811023625
21
-4.7949031889763782
0
LINE
8
User.Eco2
6
CONTINUOUS
10
4.5995011811023625
20
-4.7949031889763782
11
4.6019631889763781
21
-4.7906388582677168
0
LINE
8
User.Eco2
6
CONTINUOUS
10
4.6019631889763781
20
-4.7906388582677168
11
4.6032376377952753
21
-4.7858826377952752
0
LINE
8
User.Eco2
6
CONTINUOUS
10
4.6032376377952753
20
-4.7858826377952752
11
4.6032376377952753
21
-4.7834206299212596
0
LINE
8
User.Eco2
6
CONTINUOUS
10
4.6032376377952753
20
-4.7834206299212596
11
4.603346456692913
21
-4.7830857086614174
0
LINE
8
User.Eco2
6
CONTINUOUS
10
4.603346456692913
20
-4.7830857086614174
11
4.603346456692913
21
-4.2716535433070861
0
LINE
8
User.Eco2
6
CONTINUOUS
10
4.603346456692913
20
-4.2716535433070861
11
4.603346456692913
21
-4.2691915354330705
0
LINE
8
User.Eco2
6
CONTINUOUS
10
4.603346456692913
20
-4.2691915354330705
11
4.6020720078740158
21
-4.2644353149606298
0
LINE
8
User.Eco2
6
CONTINUOUS
10
4.6020720078740158
20
-4.2644353149606298
11
4.5996100000000002
21
-4.2601709842519684
0
LINE
8
User.Eco2
6
CONTINUOUS
10
4.5996100000000002
20
-4.2601709842519684
11
4.5961282283464566
21
-4.2566892125984248
0
LINE
8
User.Eco2
6
CONTINUOUS
10
4.5961282283464566
20
-4.2566892125984248
11
4.5918638976377952
21
-4.2542272047244092
0
LINE
8
User.Eco2
6
CONTINUOUS
10
4.5918638976377952
20
-4.2542272047244092
11
4.5871076771653545
21
-4.252952755905512
0
LINE
8
User.Eco2
6
CONTINUOUS
10
4.5871076771653545
20
-4.252952755905512
11
4.5846456692913389
21
-4.252952755905512
0
LINE
8
User.Eco2
6
CONTINUOUS
10
4.5846456692913389
20
-4.252952755905512
11
4.0728346456692917
21
-4.252952755905512
0
LINE
8
User.Eco2
6
CONTINUOUS
10
5.568897637795275
20
-4.2509842519685037
11
5.5734969685039371
21
-4.2515024803149606
0
LINE
8
User.Eco2
6
CONTINUOUS
10
5.5734969685039371
20
-4.2515024803149606
11
5.5778657086614176
21
-4.2530311811023624
0
LINE
8
User.Eco2
6
CONTINUOUS
10
5.5778657086614176
20
-4.2530311811023624
11
5.5817847244094487
21
-4.2554936614173231
0
LINE
8
User.Eco2
6
CONTINUOUS
10
5.5817847244094487
20
-4.2554936614173231
11
5.5850575196850389
21
-4.2587664566929133
0
LINE
8
User.Eco2
6
CONTINUOUS
10
5.5850575196850389
20
-4.2587664566929133
11
5.5875199999999996
21
-4.2626854724409444
0
LINE
8
User.Eco2
6
CONTINUOUS
10
5.5875199999999996
20
-4.2626854724409444
11
5.5890487007874015
21
-4.267054212598425
0
LINE
8
User.Eco2
6
CONTINUOUS
10
5.5890487007874015
20
-4.267054212598425
11
5.5895669291338583
21
-4.2716535433070861
0
LINE
8
User.Eco2
6
CONTINUOUS
10
5.5895669291338583
20
-4.2716535433070861
11
5.5895669291338583
21
-4.7834645669291334
0
LINE
8
User.Eco2
6
CONTINUOUS
10
5.5895669291338583
20
-4.7834645669291334
11
5.589492007874016
21
-4.783841220472441
0
LINE
8
User.Eco2
6
CONTINUOUS
10
5.589492007874016
20
-4.783841220472441
11
5.589400393700787
21
-4.7839327952755903
0
LINE
8
User.Eco2
6
CONTINUOUS
10
5.589400393700787
20
-4.7839327952755903
11
5.5889398818897638
21
-4.7880199606299207
0
LINE
8
User.Eco2
6
CONTINUOUS
10
5.5889398818897638
20
-4.7880199606299207
11
5.5874111811023619
21
-4.7923887007874013
0
LINE
8
User.Eco2
6
CONTINUOUS
10
5.5874111811023619
20
-4.7923887007874013
11
5.5849487007874012
21
-4.7963077165354333
0
LINE
8
User.Eco2
6
CONTINUOUS
10
5.5849487007874012
20
-4.7963077165354333
11
5.581675905511811
21
-4.7995805118110235
0
LINE
8
User.Eco2
6
CONTINUOUS
10
5.581675905511811
20
-4.7995805118110235
11
5.577756889763779
21
-4.8020429921259842
0
LINE
8
User.Eco2
6
CONTINUOUS
10
5.577756889763779
20
-4.8020429921259842
11
5.5733881496062994
21
-4.803571692913386
0
LINE
8
User.Eco2
6
CONTINUOUS
10
5.5733881496062994
20
-4.803571692913386
11
5.5693009842519681
21
-4.8040322047244093
0
LINE
8
User.Eco2
6
CONTINUOUS
10
5.5693009842519681
20
-4.8040322047244093
11
5.5692742913385826
21
-4.8040589370078743
0
LINE
8
User.Eco2
6
CONTINUOUS
10
5.5692742913385826
20
-4.8040589370078743
11
5.568897637795275
21
-4.8041338582677167
0
LINE
8
User.Eco2
6
CONTINUOUS
10
5.568897637795275
20
-4.8041338582677167
11
5.0570866141732278
21
-4.8041338582677167
0
LINE
8
User.Eco2
6
CONTINUOUS
10
5.0570866141732278
20
-4.8041338582677167
11
5.0524872834645667
21
-4.8036156299212598
0
LINE
8
User.Eco2
6
CONTINUOUS
10
5.0524872834645667
20
-4.8036156299212598
11
5.0481185433070861
21
-4.8020869291338579
0
LINE
8
User.Eco2
6
CONTINUOUS
10
5.0481185433070861
20
-4.8020869291338579
11
5.044199527559055
21
-4.7996244488188973
0
LINE
8
User.Eco2
6
CONTINUOUS
10
5.044199527559055
20
-4.7996244488188973
11
5.0409267322834648
21
-4.7963516535433071
0
LINE
8
User.Eco2
6
CONTINUOUS
10
5.0409267322834648
20
-4.7963516535433071
11
5.0384642519685041
21
-4.7924326377952751
0
LINE
8
User.Eco2
6
CONTINUOUS
10
5.0384642519685041
20
-4.7924326377952751
11
5.0369355511811023
21
-4.7880638976377954
0
LINE
8
User.Eco2
6
CONTINUOUS
10
5.0369355511811023
20
-4.7880638976377954
11
5.0364173228346454
21
-4.7834645669291334
0
LINE
8
User.Eco2
6
CONTINUOUS
10
5.0364173228346454
20
-4.7834645669291334
11
5.0364173228346454
21
-4.2716535433070861
0
LINE
8
User.Eco2
6
CONTINUOUS
10
5.0364173228346454
20
-4.2716535433070861
11
5.0369355511811023
21
-4.267054212598425
0
LINE
8
User.Eco2
6
CONTINUOUS
10
5.0369355511811023
20
-4.267054212598425
11
5.0384642519685041
21
-4.2626854724409444
0
LINE
8
User.Eco2
6
CONTINUOUS
10
5.0384642519685041
20
-4.2626854724409444
11
5.0409267322834648
21
-4.2587664566929133
0
LINE
8
User.Eco2
6
CONTINUOUS
10
5.0409267322834648
20
-4.2587664566929133
11
5.044199527559055
21
-4.2554936614173231
0
LINE
8
User.Eco2
6
CONTINUOUS
10
5.044199527559055
20
-4.2554936614173231
11
5.0481185433070861
21
-4.2530311811023624
0
LINE
8
User.Eco2
6
CONTINUOUS
10
5.0481185433070861
20
-4.2530311811023624
11
5.0524872834645667
21
-4.2515024803149606
0
LINE
8
User.Eco2
6
CONTINUOUS
10
5.0524872834645667
20
-4.2515024803149606
11
5.0570866141732278
21
-4.2509842519685037
0
LINE
8
User.Eco2
6
CONTINUOUS
10
5.0570866141732278
20
-4.2509842519685037
11
5.568897637795275
21
-4.2509842519685037
0
LINE
8
User.Eco2
6
CONTINUOUS
10
5.0570866141732278
20
-4.252952755905512
11
5.0546246062992122
21
-4.252952755905512
0
LINE
8
User.Eco2
6
CONTINUOUS
10
5.0546246062992122
20
-4.252952755905512
11
5.0498683858267714
21
-4.2542272047244092
0
LINE
8
User.Eco2
6
CONTINUOUS
10
5.0498683858267714
20
-4.2542272047244092
11
5.0456040551181101
21
-4.2566892125984248
0
LINE
8
User.Eco2
6
CONTINUOUS
10
5.0456040551181101
20
-4.2566892125984248
11
5.0421222834645665
21
-4.2601709842519684
0
LINE
8
User.Eco2
6
CONTINUOUS
10
5.0421222834645665
20
-4.2601709842519684
11
5.0396602755905509
21
-4.2644353149606298
0
LINE
8
User.Eco2
6
CONTINUOUS
10
5.0396602755905509
20
-4.2644353149606298
11
5.0383858267716537
21
-4.2691915354330705
0
LINE
8
User.Eco2
6
CONTINUOUS
10
5.0383858267716537
20
-4.2691915354330705
11
5.0383858267716537
21
-4.2716535433070861
0
LINE
8
User.Eco2
6
CONTINUOUS
10
5.0383858267716537
20
-4.2716535433070861
11
5.0383858267716537
21
-4.7834645669291334
0
LINE
8
User.Eco2
6
CONTINUOUS
10
5.0383858267716537
20
-4.7834645669291334
11
5.0383858267716537
21
-4.7859265748031499
0
LINE
8
User.Eco2
6
CONTINUOUS
10
5.0383858267716537
20
-4.7859265748031499
11
5.0396602755905509
21
-4.7906827952755906
0
LINE
8
User.Eco2
6
CONTINUOUS
10
5.0396602755905509
20
-4.7906827952755906
11
5.0421222834645665
21
-4.794947125984252
0
LINE
8
User.Eco2
6
CONTINUOUS
10
5.0421222834645665
20
-4.794947125984252
11
5.0456040551181101
21
-4.7984288976377956
0
LINE
8
User.Eco2
6
CONTINUOUS
10
5.0456040551181101
20
-4.7984288976377956
11
5.0498683858267714
21
-4.8008909055118112
0
LINE
8
User.Eco2
6
CONTINUOUS
10
5.0498683858267714
20
-4.8008909055118112
11
5.0546246062992122
21
-4.8021653543307083
0
LINE
8
User.Eco2
6
CONTINUOUS
10
5.0546246062992122
20
-4.8021653543307083
11
5.0570866141732278
21
-4.8021653543307083
0
LINE
8
User.Eco2
6
CONTINUOUS
10
5.0570866141732278
20
-4.8021653543307083
11
5.5686536220472442
21
-4.8021653543307083
0
LINE
8
User.Eco2
6
CONTINUOUS
10
5.5686536220472442
20
-4.8021653543307083
11
5.5687888188976373
21
-4.8021214173228346
0
LINE
8
User.Eco2
6
CONTINUOUS
10
5.5687888188976373
20
-4.8021214173228346
11
5.5712508267716538
21
-4.8021214173228346
0
LINE
8
User.Eco2
6
CONTINUOUS
10
5.5712508267716538
20
-4.8021214173228346
11
5.5760070472440946
21
-4.8008469685039366
0
LINE
8
User.Eco2
6
CONTINUOUS
10
5.5760070472440946
20
-4.8008469685039366
11
5.580271377952756
21
-4.7983849606299209
0
LINE
8
User.Eco2
6
CONTINUOUS
10
5.580271377952756
20
-4.7983849606299209
11
5.5837531496062986
21
-4.7949031889763782
0
LINE
8
User.Eco2
6
CONTINUOUS
10
5.5837531496062986
20
-4.7949031889763782
11
5.5862151574803152
21
-4.7906388582677168
0
LINE
8
User.Eco2
6
CONTINUOUS
10
5.5862151574803152
20
-4.7906388582677168
11
5.5874896062992123
21
-4.7858826377952752
0
LINE
8
User.Eco2
6
CONTINUOUS
10
5.5874896062992123
20
-4.7858826377952752
11
5.5874896062992123
21
-4.7834206299212596
0
LINE
8
User.Eco2
6
CONTINUOUS
10
5.5874896062992123
20
-4.7834206299212596
11
5.58759842519685
21
-4.7830857086614174
0
LINE
8
User.Eco2
6
CONTINUOUS
10
5.58759842519685
20
-4.7830857086614174
11
5.58759842519685
21
-4.2716535433070861
0
LINE
8
User.Eco2
6
CONTINUOUS
10
5.58759842519685
20
-4.2716535433070861
11
5.58759842519685
21
-4.2691915354330705
0
LINE
8
User.Eco2
6
CONTINUOUS
10
5.58759842519685
20
-4.2691915354330705
11
5.5863239763779529
21
-4.2644353149606298
0
LINE
8
User.Eco2
6
CONTINUOUS
10
5.5863239763779529
20
-4.2644353149606298
11
5.5838619685039372
21
-4.2601709842519684
0
LINE
8
User.Eco2
6
CONTINUOUS
10
5.5838619685039372
20
-4.2601709842519684
11
5.5803801968503937
21
-4.2566892125984248
0
LINE
8
User.Eco2
6
CONTINUOUS
10
5.5803801968503937
20
-4.2566892125984248
11
5.5761158661417323
21
-4.2542272047244092
0
LINE
8
User.Eco2
6
CONTINUOUS
10
5.5761158661417323
20
-4.2542272047244092
11
5.5713596456692915
21
-4.252952755905512
0
LINE
8
User.Eco2
6
CONTINUOUS
10
5.5713596456692915
20
-4.252952755905512
11
5.568897637795275
21
-4.252952755905512
0
LINE
8
User.Eco2
6
CONTINUOUS
10
5.568897637795275
20
-4.252952755905512
11
5.0570866141732278
21
-4.252952755905512
0
LINE
8
User.Eco2
6
CONTINUOUS
10
6.5531496062992121
20
-4.2509842519685037
11
6.5577489370078741
21
-4.2515024803149606
0
LINE
8
User.Eco2
6
CONTINUOUS
10
6.5577489370078741
20
-4.2515024803149606
11
6.5621176771653538
21
-4.2530311811023624
0
LINE
8
User.Eco2
6
CONTINUOUS
10
6.5621176771653538
20
-4.2530311811023624
11
6.5660366929133858
21
-4.2554936614173231
0
LINE
8
User.Eco2
6
CONTINUOUS
10
6.5660366929133858
20
-4.2554936614173231
11
6.569309488188976
21
-4.2587664566929133
0
LINE
8
User.Eco2
6
CONTINUOUS
10
6.569309488188976
20
-4.2587664566929133
11
6.5717719685039366
21
-4.2626854724409444
0
LINE
8
User.Eco2
6
CONTINUOUS
10
6.5717719685039366
20
-4.2626854724409444
11
6.5733006692913385
21
-4.267054212598425
0
LINE
8
User.Eco2
6
CONTINUOUS
10
6.5733006692913385
20
-4.267054212598425
11
6.5738188976377954
21
-4.2716535433070861
0
LINE
8
User.Eco2
6
CONTINUOUS
10
6.5738188976377954
20
-4.2716535433070861
11
6.5738188976377954
21
-4.7834645669291334
0
LINE
8
User.Eco2
6
CONTINUOUS
10
6.5738188976377954
20
-4.7834645669291334
11
6.573743976377953
21
-4.783841220472441
0
LINE
8
User.Eco2
6
CONTINUOUS
10
6.573743976377953
20
-4.783841220472441
11
6.573652362204724
21
-4.7839327952755903
0
LINE
8
User.Eco2
6
CONTINUOUS
10
6.573652362204724
20
-4.7839327952755903
11
6.5731918503937008
21
-4.7880199606299207
0
LINE
8
User.Eco2
6
CONTINUOUS
10
6.5731918503937008
20
-4.7880199606299207
11
6.5716631496062989
21
-4.7923887007874013
0
LINE
8
User.Eco2
6
CONTINUOUS
10
6.5716631496062989
20
-4.7923887007874013
11
6.5692006692913383
21
-4.7963077165354333
0
LINE
8
User.Eco2
6
CONTINUOUS
10
6.5692006692913383
20
-4.7963077165354333
11
6.5659278740157481
21
-4.7995805118110235
0
LINE
8
User.Eco2
6
CONTINUOUS
10
6.5659278740157481
20
-4.7995805118110235
11
6.5620088582677161
21
-4.8020429921259842
0
LINE
8
User.Eco2
6
CONTINUOUS
10
6.5620088582677161
20
-4.8020429921259842
11
6.5576401181102364
21
-4.803571692913386
0
LINE
8
User.Eco2
6
CONTINUOUS
10
6.5576401181102364
20
-4.803571692913386
11
6.5535529527559051
21
-4.8040322047244093
0
LINE
8
User.Eco2
6
CONTINUOUS
10
6.5535529527559051
20
-4.8040322047244093
11
6.5535262598425197
21
-4.8040589370078743
0
LINE
8
User.Eco2
6
CONTINUOUS
10
6.5535262598425197
20
-4.8040589370078743
11
6.5531496062992121
21
-4.8041338582677167
0
LINE
8
User.Eco2
6
CONTINUOUS
10
6.5531496062992121
20
-4.8041338582677167
11
6.0413385826771648
21
-4.8041338582677167
0
LINE
8
User.Eco2
6
CONTINUOUS
10
6.0413385826771648
20
-4.8041338582677167
11
6.0367392519685037
21
-4.8036156299212598
0
LINE
8
User.Eco2
6
CONTINUOUS
10
6.0367392519685037
20
-4.8036156299212598
11
6.0323705118110231
21
-4.8020869291338579
0
LINE
8
User.Eco2
6
CONTINUOUS
10
6.0323705118110231
20
-4.8020869291338579
11
6.028451496062992
21
-4.7996244488188973
0
LINE
8
User.Eco2
6
CONTINUOUS
10
6.028451496062992
20
-4.7996244488188973
11
6.0251787007874018
21
-4.7963516535433071
0
LINE
8
User.Eco2
6
CONTINUOUS
10
6.0251787007874018
20
-4.7963516535433071
11
6.0227162204724412
21
-4.7924326377952751
0
LINE
8
User.Eco2
6
CONTINUOUS
10
6.0227162204724412
20
-4.7924326377952751
11
6.0211875196850393
21
-4.7880638976377954
0
LINE
8
User.Eco2
6
CONTINUOUS
10
6.0211875196850393
20
-4.7880638976377954
11
6.0206692913385824
21
-4.7834645669291334
0
LINE
8
User.Eco2
6
CONTINUOUS
10
6.0206692913385824
20
-4.7834645669291334
11
6.0206692913385824
21
-4.2716535433070861
0
LINE
8
User.Eco2
6
CONTINUOUS
10
6.0206692913385824
20
-4.2716535433070861
11
6.0211875196850393
21
-4.267054212598425
0
LINE
8
User.Eco2
6
CONTINUOUS
10
6.0211875196850393
20
-4.267054212598425
11
6.0227162204724412
21
-4.2626854724409444
0
LINE
8
User.Eco2
6
CONTINUOUS
10
6.0227162204724412
20
-4.2626854724409444
11
6.0251787007874018
21
-4.2587664566929133
0
LINE
8
User.Eco2
6
CONTINUOUS
10
6.0251787007874018
20
-4.2587664566929133
11
6.028451496062992
21
-4.2554936614173231
0
LINE
8
User.Eco2
6
CONTINUOUS
10
6.028451496062992
20
-4.2554936614173231
11
6.0323705118110231
21
-4.2530311811023624
0
LINE
8
User.Eco2
6
CONTINUOUS
10
6.0323705118110231
20
-4.2530311811023624
11
6.0367392519685037
21
-4.2515024803149606
0
LINE
8
User.Eco2
6
CONTINUOUS
10
6.0367392519685037
20
-4.2515024803149606
11
6.0413385826771648
21
-4.2509842519685037
0
LINE
8
User.Eco2
6
CONTINUOUS
10
6.0413385826771648
20
-4.2509842519685037
11
6.5531496062992121
21
-4.2509842519685037
0
LINE
8
User.Eco2
6
CONTINUOUS
10
6.0413385826771648
20
-4.252952755905512
11
6.0388765748031492
21
-4.252952755905512
0
LINE
8
User.Eco2
6
CONTINUOUS
10
6.0388765748031492
20
-4.252952755905512
11
6.0341203543307085
21
-4.2542272047244092
0
LINE
8
User.Eco2
6
CONTINUOUS
10
6.0341203543307085
20
-4.2542272047244092
11
6.0298560236220471
21
-4.2566892125984248
0
LINE
8
User.Eco2
6
CONTINUOUS
10
6.0298560236220471
20
-4.2566892125984248
11
6.0263742519685035
21
-4.2601709842519684
0
LINE
8
User.Eco2
6
CONTINUOUS
10
6.0263742519685035
20
-4.2601709842519684
11
6.0239122440944879
21
-4.2644353149606298
0
LINE
8
User.Eco2
6
CONTINUOUS
10
6.0239122440944879
20
-4.2644353149606298
11
6.0226377952755907
21
-4.2691915354330705
0
LINE
8
User.Eco2
6
CONTINUOUS
10
6.0226377952755907
20
-4.2691915354330705
11
6.0226377952755907
21
-4.2716535433070861
0
LINE
8
User.Eco2
6
CONTINUOUS
10
6.0226377952755907
20
-4.2716535433070861
11
6.0226377952755907
21
-4.7834645669291334
0
LINE
8
User.Eco2
6
CONTINUOUS
10
6.0226377952755907
20
-4.7834645669291334
11
6.0226377952755907
21
-4.7859265748031499
0
LINE
8
User.Eco2
6
CONTINUOUS
10
6.0226377952755907
20
-4.7859265748031499
11
6.0239122440944879
21
-4.7906827952755906
0
LINE
8
User.Eco2
6
CONTINUOUS
10
6.0239122440944879
20
-4.7906827952755906
11
6.0263742519685035
21
-4.794947125984252
0
LINE
8
User.Eco2
6
CONTINUOUS
10
6.0263742519685035
20
-4.794947125984252
11
6.0298560236220471
21
-4.7984288976377956
0
LINE
8
User.Eco2
6
CONTINUOUS
10
6.0298560236220471
20
-4.7984288976377956
11
6.0341203543307085
21
-4.8008909055118112
0
LINE
8
User.Eco2
6
CONTINUOUS
10
6.0341203543307085
20
-4.8008909055118112
11
6.0388765748031492
21
-4.8021653543307083
0
LINE
8
User.Eco2
6
CONTINUOUS
10
6.0388765748031492
20
-4.8021653543307083
11
6.0413385826771648
21
-4.8021653543307083
0
LINE
8
User.Eco2
6
CONTINUOUS
10
6.0413385826771648
20
-4.8021653543307083
11
6.5529055905511813
21
-4.8021653543307083
0
LINE
8
User.Eco2
6
CONTINUOUS
10
6.5529055905511813
20
-4.8021653543307083
11
6.5530407874015744
21
-4.8021214173228346
0
LINE
8
User.Eco2
6
CONTINUOUS
10
6.5530407874015744
20
-4.8021214173228346
11
6.55550279527559
21
-4.8021214173228346
0
LINE
8
User.Eco2
6
CONTINUOUS
10
6.55550279527559
20
-4.8021214173228346
11
6.5602590157480316
21
-4.8008469685039366
0
LINE
8
User.Eco2
6
CONTINUOUS
10
6.5602590157480316
20
-4.8008469685039366
11
6.564523346456693
21
-4.7983849606299209
0
LINE
8
User.Eco2
6
CONTINUOUS
10
6.564523346456693
20
-4.7983849606299209
11
6.5680051181102357
21
-4.7949031889763782
0
LINE
8
User.Eco2
6
CONTINUOUS
10
6.5680051181102357
20
-4.7949031889763782
11
6.5704671259842522
21
-4.7906388582677168
0
LINE
8
User.Eco2
6
CONTINUOUS
10
6.5704671259842522
20
-4.7906388582677168
11
6.5717415748031494
21
-4.7858826377952752
0
LINE
8
User.Eco2
6
CONTINUOUS
10
6.5717415748031494
20
-4.7858826377952752
11
6.5717415748031494
21
-4.7834206299212596
0
LINE
8
User.Eco2
6
CONTINUOUS
10
6.5717415748031494
20
-4.7834206299212596
11
6.5718503937007871
21
-4.7830857086614174
0
LINE
8
User.Eco2
6
CONTINUOUS
10
6.5718503937007871
20
-4.7830857086614174
11
6.5718503937007871
21
-4.2716535433070861
0
LINE
8
User.Eco2
6
CONTINUOUS
10
6.5718503937007871
20
-4.2716535433070861
11
6.5718503937007871
21
-4.2691915354330705
0
LINE
8
User.Eco2
6
CONTINUOUS
10
6.5718503937007871
20
-4.2691915354330705
11
6.5705759448818899
21
-4.2644353149606298
0
LINE
8
User.Eco2
6
CONTINUOUS
10
6.5705759448818899
20
-4.2644353149606298
11
6.5681139370078743
21
-4.2601709842519684
0
LINE
8
User.Eco2
6
CONTINUOUS
10
6.5681139370078743
20
-4.2601709842519684
11
6.5646321653543307
21
-4.2566892125984248
0
LINE
8
User.Eco2
6
CONTINUOUS
10
6.5646321653543307
20
-4.2566892125984248
11
6.5603678346456693
21
-4.2542272047244092
0
LINE
8
User.Eco2
6
CONTINUOUS
10
6.5603678346456693
20
-4.2542272047244092
11
6.5556116141732286
21
-4.252952755905512
0
LINE
8
User.Eco2
6
CONTINUOUS
10
6.5556116141732286
20
-4.252952755905512
11
6.5531496062992121
21
-4.252952755905512
0
LINE
8
User.Eco2
6
CONTINUOUS
10
6.5531496062992121
20
-4.252952755905512
11
6.0413385826771648
21
-4.252952755905512
0
LINE
8
User.Eco2
6
CONTINUOUS
10
7.5374015748031491
20
-4.2509842519685037
11
7.5420009055118111
21
-4.2515024803149606
0
LINE
8
User.Eco2
6
CONTINUOUS
10
7.5420009055118111
20
-4.2515024803149606
11
7.5463696456692908
21
-4.2530311811023624
0
LINE
8
User.Eco2
6
CONTINUOUS
10
7.5463696456692908
20
-4.2530311811023624
11
7.5502886614173228
21
-4.2554936614173231
0
LINE
8
User.Eco2
6
CONTINUOUS
10
7.5502886614173228
20
-4.2554936614173231
11
7.553561456692913
21
-4.2587664566929133
0
LINE
8
User.Eco2
6
CONTINUOUS
10
7.553561456692913
20
-4.2587664566929133
11
7.5560239370078737
21
-4.2626854724409444
0
LINE
8
User.Eco2
6
CONTINUOUS
10
7.5560239370078737
20
-4.2626854724409444
11
7.5575526377952755
21
-4.267054212598425
0
LINE
8
User.Eco2
6
CONTINUOUS
10
7.5575526377952755
20
-4.267054212598425
11
7.5580708661417324
21
-4.2716535433070861
0
LINE
8
User.Eco2
6
CONTINUOUS
10
7.5580708661417324
20
-4.2716535433070861
11
7.5580708661417324
21
-4.7834645669291334
0
LINE
8
User.Eco2
6
CONTINUOUS
10
7.5580708661417324
20
-4.7834645669291334
11
7.5579959448818892
21
-4.783841220472441
0
LINE
8
User.Eco2
6
CONTINUOUS
10
7.5579959448818892
20
-4.783841220472441
11
7.5579043307086611
21
-4.7839327952755903
0
LINE
8
User.Eco2
6
CONTINUOUS
10
7.5579043307086611
20
-4.7839327952755903
11
7.5574438188976378
21
-4.7880199606299207
0
LINE
8
User.Eco2
6
CONTINUOUS
10
7.5574438188976378
20
-4.7880199606299207
11
7.555915118110236
21
-4.7923887007874013
0
LINE
8
User.Eco2
6
CONTINUOUS
10
7.555915118110236
20
-4.7923887007874013
11
7.5534526377952753
21
-4.7963077165354333
0
LINE
8
User.Eco2
6
CONTINUOUS
10
7.5534526377952753
20
-4.7963077165354333
11
7.5501798425196851
21
-4.7995805118110235
0
LINE
8
User.Eco2
6
CONTINUOUS
10
7.5501798425196851
20
-4.7995805118110235
11
7.5462608267716531
21
-4.8020429921259842
0
LINE
8
User.Eco2
6
CONTINUOUS
10
7.5462608267716531
20
-4.8020429921259842
11
7.5418920866141734
21
-4.803571692913386
0
LINE
8
User.Eco2
6
CONTINUOUS
10
7.5418920866141734
20
-4.803571692913386
11
7.5378049212598421
21
-4.8040322047244093
0
LINE
8
User.Eco2
6
CONTINUOUS
10
7.5378049212598421
20
-4.8040322047244093
11
7.5377782283464567
21
-4.8040589370078743
0
LINE
8
User.Eco2
6
CONTINUOUS
10
7.5377782283464567
20
-4.8040589370078743
11
7.5374015748031491
21
-4.8041338582677167
0
LINE
8
User.Eco2
6
CONTINUOUS
10
7.5374015748031491
20
-4.8041338582677167
11
7.0255905511811019
21
-4.8041338582677167
0
LINE
8
User.Eco2
6
CONTINUOUS
10
7.0255905511811019
20
-4.8041338582677167
11
7.0209912204724407
21
-4.8036156299212598
0
LINE
8
User.Eco2
6
CONTINUOUS
10
7.0209912204724407
20
-4.8036156299212598
11
7.0166224803149602
21
-4.8020869291338579
0
LINE
8
User.Eco2
6
CONTINUOUS
10
7.0166224803149602
20
-4.8020869291338579
11
7.0127034645669291
21
-4.7996244488188973
0
LINE
8
User.Eco2
6
CONTINUOUS
10
7.0127034645669291
20
-4.7996244488188973
11
7.0094306692913388
21
-4.7963516535433071
0
LINE
8
User.Eco2
6
CONTINUOUS
10
7.0094306692913388
20
-4.7963516535433071
11
7.0069681889763782
21
-4.7924326377952751
0
LINE
8
User.Eco2
6
CONTINUOUS
10
7.0069681889763782
20
-4.7924326377952751
11
7.0054394881889763
21
-4.7880638976377954
0
LINE
8
User.Eco2
6
CONTINUOUS
10
7.0054394881889763
20
-4.7880638976377954
11
7.0049212598425195
21
-4.7834645669291334
0
LINE
8
User.Eco2
6
CONTINUOUS
10
7.0049212598425195
20
-4.7834645669291334
11
7.0049212598425195
21
-4.2716535433070861
0
LINE
8
User.Eco2
6
CONTINUOUS
10
7.0049212598425195
20
-4.2716535433070861
11
7.0054394881889763
21
-4.267054212598425
0
LINE
8
User.Eco2
6
CONTINUOUS
10
7.0054394881889763
20
-4.267054212598425
11
7.0069681889763782
21
-4.2626854724409444
0
LINE
8
User.Eco2
6
CONTINUOUS
10
7.0069681889763782
20
-4.2626854724409444
11
7.0094306692913388
21
-4.2587664566929133
0
LINE
8
User.Eco2
6
CONTINUOUS
10
7.0094306692913388
20
-4.2587664566929133
11
7.0127034645669291
21
-4.2554936614173231
0
LINE
8
User.Eco2
6
CONTINUOUS
10
7.0127034645669291
20
-4.2554936614173231
11
7.0166224803149602
21
-4.2530311811023624
0
LINE
8
User.Eco2
6
CONTINUOUS
10
7.0166224803149602
20
-4.2530311811023624
11
7.0209912204724407
21
-4.2515024803149606
0
LINE
8
User.Eco2
6
CONTINUOUS
10
7.0209912204724407
20
-4.2515024803149606
11
7.0255905511811019
21
-4.2509842519685037
0
LINE
8
User.Eco2
6
CONTINUOUS
10
7.0255905511811019
20
-4.2509842519685037
11
7.5374015748031491
21
-4.2509842519685037
0
LINE
8
User.Eco2
6
CONTINUOUS
10
7.0255905511811019
20
-4.252952755905512
11
7.0231285433070862
21
-4.252952755905512
0
LINE
8
User.Eco2
6
CONTINUOUS
10
7.0231285433070862
20
-4.252952755905512
11
7.0183723228346455
21
-4.2542272047244092
0
LINE
8
User.Eco2
6
CONTINUOUS
10
7.0183723228346455
20
-4.2542272047244092
11
7.0141079921259841
21
-4.2566892125984248
0
LINE
8
User.Eco2
6
CONTINUOUS
10
7.0141079921259841
20
-4.2566892125984248
11
7.0106262204724406
21
-4.2601709842519684
0
LINE
8
User.Eco2
6
CONTINUOUS
10
7.0106262204724406
20
-4.2601709842519684
11
7.0081642125984249
21
-4.2644353149606298
0
LINE
8
User.Eco2
6
CONTINUOUS
10
7.0081642125984249
20
-4.2644353149606298
11
7.0068897637795278
21
-4.2691915354330705
0
LINE
8
User.Eco2
6
CONTINUOUS
10
7.0068897637795278
20
-4.2691915354330705
11
7.0068897637795278
21
-4.2716535433070861
0
LINE
8
User.Eco2
6
CONTINUOUS
10
7.0068897637795278
20
-4.2716535433070861
11
7.0068897637795278
21
-4.7834645669291334
0
LINE
8
User.Eco2
6
CONTINUOUS
10
7.0068897637795278
20
-4.7834645669291334
11
7.0068897637795278
21
-4.7859265748031499
0
LINE
8
User.Eco2
6
CONTINUOUS
10
7.0068897637795278
20
-4.7859265748031499
11
7.0081642125984249
21
-4.7906827952755906
0
LINE
8
User.Eco2
6
CONTINUOUS
10
7.0081642125984249
20
-4.7906827952755906
11
7.0106262204724406
21
-4.794947125984252
0
LINE
8
User.Eco2
6
CONTINUOUS
10
7.0106262204724406
20
-4.794947125984252
11
7.0141079921259841
21
-4.7984288976377956
0
LINE
8
User.Eco2
6
CONTINUOUS
10
7.0141079921259841
20
-4.7984288976377956
11
7.0183723228346455
21
-4.8008909055118112
0
LINE
8
User.Eco2
6
CONTINUOUS
10
7.0183723228346455
20
-4.8008909055118112
11
7.0231285433070862
21
-4.8021653543307083
0
LINE
8
User.Eco2
6
CONTINUOUS
10
7.0231285433070862
20
-4.8021653543307083
11
7.0255905511811019
21
-4.8021653543307083
0
LINE
8
User.Eco2
6
CONTINUOUS
10
7.0255905511811019
20
-4.8021653543307083
11
7.5371575590551183
21
-4.8021653543307083
0
LINE
8
User.Eco2
6
CONTINUOUS
10
7.5371575590551183
20
-4.8021653543307083
11
7.5372927559055114
21
-4.8021214173228346
0
LINE
8
User.Eco2
6
CONTINUOUS
10
7.5372927559055114
20
-4.8021214173228346
11
7.539754763779527
21
-4.8021214173228346
0
LINE
8
User.Eco2
6
CONTINUOUS
10
7.539754763779527
20
-4.8021214173228346
11
7.5445109842519686
21
-4.8008469685039366
0
LINE
8
User.Eco2
6
CONTINUOUS
10
7.5445109842519686
20
-4.8008469685039366
11
7.54877531496063
21
-4.7983849606299209
0
LINE
8
User.Eco2
6
CONTINUOUS
10
7.54877531496063
20
-4.7983849606299209
11
7.5522570866141727
21
-4.7949031889763782
0
LINE
8
User.Eco2
6
CONTINUOUS
10
7.5522570866141727
20
-4.7949031889763782
11
7.5547190944881892
21
-4.7906388582677168
0
LINE
8
User.Eco2
6
CONTINUOUS
10
7.5547190944881892
20
-4.7906388582677168
11
7.5559935433070864
21
-4.7858826377952752
0
LINE
8
User.Eco2
6
CONTINUOUS
10
7.5559935433070864
20
-4.7858826377952752
11
7.5559935433070864
21
-4.7834206299212596
0
LINE
8
User.Eco2
6
CONTINUOUS
10
7.5559935433070864
20
-4.7834206299212596
11
7.5561023622047241
21
-4.7830857086614174
0
LINE
8
User.Eco2
6
CONTINUOUS
10
7.5561023622047241
20
-4.7830857086614174
11
7.5561023622047241
21
-4.2716535433070861
0
LINE
8
User.Eco2
6
CONTINUOUS
10
7.5561023622047241
20
-4.2716535433070861
11
7.5561023622047241
21
-4.2691915354330705
0
LINE
8
User.Eco2
6
CONTINUOUS
10
7.5561023622047241
20
-4.2691915354330705
11
7.5548279133858269
21
-4.2644353149606298
0
LINE
8
User.Eco2
6
CONTINUOUS
10
7.5548279133858269
20
-4.2644353149606298
11
7.5523659055118104
21
-4.2601709842519684
0
LINE
8
User.Eco2
6
CONTINUOUS
10
7.5523659055118104
20
-4.2601709842519684
11
7.5488841338582677
21
-4.2566892125984248
0
LINE
8
User.Eco2
6
CONTINUOUS
10
7.5488841338582677
20
-4.2566892125984248
11
7.5446198031496063
21
-4.2542272047244092
0
LINE
8
User.Eco2
6
CONTINUOUS
10
7.5446198031496063
20
-4.2542272047244092
11
7.5398635826771656
21
-4.252952755905512
0
LINE
8
User.Eco2
6
CONTINUOUS
10
7.5398635826771656
20
-4.252952755905512
11
7.5374015748031491
21
-4.252952755905512
0
LINE
8
User.Eco2
6
CONTINUOUS
10
7.5374015748031491
20
-4.252952755905512
11
7.0255905511811019
21
-4.252952755905512
0
LINE
8
User.Eco2
6
CONTINUOUS
10
4.5846456692913389
20
-3.2667322834645667
11
4.589245
21
-3.2672505118110236
0
LINE
8
User.Eco2
6
CONTINUOUS
10
4.589245
20
-3.2672505118110236
11
4.5936137401574806
21
-3.268779212598425
0
LINE
8
User.Eco2
6
CONTINUOUS
10
4.5936137401574806
20
-3.268779212598425
11
4.5975327559055117
21
-3.2712416929133856
0
LINE
8
User.Eco2
6
CONTINUOUS
10
4.5975327559055117
20
-3.2712416929133856
11
4.6008055511811019
21
-3.2745144881889763
0
LINE
8
User.Eco2
6
CONTINUOUS
10
4.6008055511811019
20
-3.2745144881889763
11
4.6032680314960626
21
-3.2784335039370078
0
LINE
8
User.Eco2
6
CONTINUOUS
10
4.6032680314960626
20
-3.2784335039370078
11
4.6047967322834644
21
-3.282802244094488
0
LINE
8
User.Eco2
6
CONTINUOUS
10
4.6047967322834644
20
-3.282802244094488
11
4.6053149606299213
21
-3.2874015748031495
0
LINE
8
User.Eco2
6
CONTINUOUS
10
4.6053149606299213
20
-3.2874015748031495
11
4.6053149606299213
21
-3.7992125984251968
0
LINE
8
User.Eco2
6
CONTINUOUS
10
4.6053149606299213
20
-3.7992125984251968
11
4.605240039370079
21
-3.7995892519685039
0
LINE
8
User.Eco2
6
CONTINUOUS
10
4.605240039370079
20
-3.7995892519685039
11
4.60514842519685
21
-3.7996808267716533
0
LINE
8
User.Eco2
6
CONTINUOUS
10
4.60514842519685
20
-3.7996808267716533
11
4.6046879133858267
21
-3.8037679921259842
0
LINE
8
User.Eco2
6
CONTINUOUS
10
4.6046879133858267
20
-3.8037679921259842
11
4.6031592125984249
21
-3.8081367322834643
0
LINE
8
User.Eco2
6
CONTINUOUS
10
4.6031592125984249
20
-3.8081367322834643
11
4.6006967322834642
21
-3.8120557480314958
0
LINE
8
User.Eco2
6
CONTINUOUS
10
4.6006967322834642
20
-3.8120557480314958
11
4.597423937007874
21
-3.8153285433070865
0
LINE
8
User.Eco2
6
CONTINUOUS
10
4.597423937007874
20
-3.8153285433070865
11
4.593504921259842
21
-3.8177910236220471
0
LINE
8
User.Eco2
6
CONTINUOUS
10
4.593504921259842
20
-3.8177910236220471
11
4.5891361811023623
21
-3.8193197244094486
0
LINE
8
User.Eco2
6
CONTINUOUS
10
4.5891361811023623
20
-3.8193197244094486
11
4.585049015748031
21
-3.8197802362204722
0
LINE
8
User.Eco2
6
CONTINUOUS
10
4.585049015748031
20
-3.8197802362204722
11
4.5850223228346456
21
-3.8198069685039369
0
LINE
8
User.Eco2
6
CONTINUOUS
10
4.5850223228346456
20
-3.8198069685039369
11
4.5846456692913389
21
-3.8198818897637796
0
LINE
8
User.Eco2
6
CONTINUOUS
10
4.5846456692913389
20
-3.8198818897637796
11
4.0728346456692917
21
-3.8198818897637796
0
LINE
8
User.Eco2
6
CONTINUOUS
10
4.0728346456692917
20
-3.8198818897637796
11
4.0682353149606296
21
-3.8193636614173228
0
LINE
8
User.Eco2
6
CONTINUOUS
10
4.0682353149606296
20
-3.8193636614173228
11
4.0638665748031499
21
-3.8178349606299213
0
LINE
8
User.Eco2
6
CONTINUOUS
10
4.0638665748031499
20
-3.8178349606299213
11
4.0599475590551179
21
-3.8153724803149607
0
LINE
8
User.Eco2
6
CONTINUOUS
10
4.0599475590551179
20
-3.8153724803149607
11
4.0566747637795277
21
-3.81209968503937
0
LINE
8
User.Eco2
6
CONTINUOUS
10
4.0566747637795277
20
-3.81209968503937
11
4.0542122834645671
21
-3.8081806692913385
0
LINE
8
User.Eco2
6
CONTINUOUS
10
4.0542122834645671
20
-3.8081806692913385
11
4.0526835826771652
21
-3.8038119291338583
0
LINE
8
User.Eco2
6
CONTINUOUS
10
4.0526835826771652
20
-3.8038119291338583
11
4.0521653543307083
21
-3.7992125984251968
0
LINE
8
User.Eco2
6
CONTINUOUS
10
4.0521653543307083
20
-3.7992125984251968
11
4.0521653543307083
21
-3.2874015748031495
0
LINE
8
User.Eco2
6
CONTINUOUS
10
4.0521653543307083
20
-3.2874015748031495
11
4.0526835826771652
21
-3.282802244094488
0
LINE
8
User.Eco2
6
CONTINUOUS
10
4.0526835826771652
20
-3.282802244094488
11
4.0542122834645671
21
-3.2784335039370078
0
LINE
8
User.Eco2
6
CONTINUOUS
10
4.0542122834645671
20
-3.2784335039370078
11
4.0566747637795277
21
-3.2745144881889763
0
LINE
8
User.Eco2
6
CONTINUOUS
10
4.0566747637795277
20
-3.2745144881889763
11
4.0599475590551179
21
-3.2712416929133856
0
LINE
8
User.Eco2
6
CONTINUOUS
10
4.0599475590551179
20
-3.2712416929133856
11
4.0638665748031499
21
-3.268779212598425
0
LINE
8
User.Eco2
6
CONTINUOUS
10
4.0638665748031499
20
-3.268779212598425
11
4.0682353149606296
21
-3.2672505118110236
0
LINE
8
User.Eco2
6
CONTINUOUS
10
4.0682353149606296
20
-3.2672505118110236
11
4.0728346456692917
21
-3.2667322834645667
0
LINE
8
User.Eco2
6
CONTINUOUS
10
4.0728346456692917
20
-3.2667322834645667
11
4.5846456692913389
21
-3.2667322834645667
0
LINE
8
User.Eco2
6
CONTINUOUS
10
4.0728346456692917
20
-3.2687007874015745
11
4.0703726377952751
21
-3.2687007874015745
0
LINE
8
User.Eco2
6
CONTINUOUS
10
4.0703726377952751
20
-3.2687007874015745
11
4.0656164173228344
21
-3.2699752362204721
0
LINE
8
User.Eco2
6
CONTINUOUS
10
4.0656164173228344
20
-3.2699752362204721
11
4.061352086614173
21
-3.2724372440944882
0
LINE
8
User.Eco2
6
CONTINUOUS
10
4.061352086614173
20
-3.2724372440944882
11
4.0578703149606294
21
-3.2759190157480313
0
LINE
8
User.Eco2
6
CONTINUOUS
10
4.0578703149606294
20
-3.2759190157480313
11
4.0554083070866138
21
-3.2801833464566927
0
LINE
8
User.Eco2
6
CONTINUOUS
10
4.0554083070866138
20
-3.2801833464566927
11
4.0541338582677167
21
-3.2849395669291339
0
LINE
8
User.Eco2
6
CONTINUOUS
10
4.0541338582677167
20
-3.2849395669291339
11
4.0541338582677167
21
-3.2874015748031495
0
LINE
8
User.Eco2
6
CONTINUOUS
10
4.0541338582677167
20
-3.2874015748031495
11
4.0541338582677167
21
-3.7992125984251968
0
LINE
8
User.Eco2
6
CONTINUOUS
10
4.0541338582677167
20
-3.7992125984251968
11
4.0541338582677167
21
-3.8016746062992124
0
LINE
8
User.Eco2
6
CONTINUOUS
10
4.0541338582677167
20
-3.8016746062992124
11
4.0554083070866138
21
-3.8064308267716536
0
LINE
8
User.Eco2
6
CONTINUOUS
10
4.0554083070866138
20
-3.8064308267716536
11
4.0578703149606294
21
-3.810695157480315
0
LINE
8
User.Eco2
6
CONTINUOUS
10
4.0578703149606294
20
-3.810695157480315
11
4.061352086614173
21
-3.8141769291338581
0
LINE
8
User.Eco2
6
CONTINUOUS
10
4.061352086614173
20
-3.8141769291338581
11
4.0656164173228344
21
-3.8166389370078737
0
LINE
8
User.Eco2
6
CONTINUOUS
10
4.0656164173228344
20
-3.8166389370078737
11
4.0703726377952751
21
-3.8179133858267718
0
LINE
8
User.Eco2
6
CONTINUOUS
10
4.0703726377952751
20
-3.8179133858267718
11
4.0728346456692917
21
-3.8179133858267718
0
LINE
8
User.Eco2
6
CONTINUOUS
10
4.0728346456692917
20
-3.8179133858267718
11
4.5844016535433072
21
-3.8179133858267718
0
LINE
8
User.Eco2
6
CONTINUOUS
10
4.5844016535433072
20
-3.8179133858267718
11
4.5845368503937003
21
-3.8178694488188976
0
LINE
8
User.Eco2
6
CONTINUOUS
10
4.5845368503937003
20
-3.8178694488188976
11
4.5869988582677168
21
-3.8178694488188976
0
LINE
8
User.Eco2
6
CONTINUOUS
10
4.5869988582677168
20
-3.8178694488188976
11
4.5917550787401575
21
-3.816595
0
LINE
8
User.Eco2
6
CONTINUOUS
10
4.5917550787401575
20
-3.816595
11
4.5960194094488189
21
-3.8141329921259843
0
LINE
8
User.Eco2
6
CONTINUOUS
10
4.5960194094488189
20
-3.8141329921259843
11
4.5995011811023625
21
-3.8106512204724408
0
LINE
8
User.Eco2
6
CONTINUOUS
10
4.5995011811023625
20
-3.8106512204724408
11
4.6019631889763781
21
-3.8063868897637794
0
LINE
8
User.Eco2
6
CONTINUOUS
10
4.6019631889763781
20
-3.8063868897637794
11
4.6032376377952753
21
-3.8016306692913386
0
LINE
8
User.Eco2
6
CONTINUOUS
10
4.6032376377952753
20
-3.8016306692913386
11
4.6032376377952753
21
-3.7991686614173226
0
LINE
8
User.Eco2
6
CONTINUOUS
10
4.6032376377952753
20
-3.7991686614173226
11
4.603346456692913
21
-3.7988337401574803
0
LINE
8
User.Eco2
6
CONTINUOUS
10
4.603346456692913
20
-3.7988337401574803
11
4.603346456692913
21
-3.2874015748031495
0
LINE
8
User.Eco2
6
CONTINUOUS
10
4.603346456692913
20
-3.2874015748031495
11
4.603346456692913
21
-3.2849395669291339
0
LINE
8
User.Eco2
6
CONTINUOUS
10
4.603346456692913
20
-3.2849395669291339
11
4.6020720078740158
21
-3.2801833464566927
0
LINE
8
User.Eco2
6
CONTINUOUS
10
4.6020720078740158
20
-3.2801833464566927
11
4.5996100000000002
21
-3.2759190157480313
0
LINE
8
User.Eco2
6
CONTINUOUS
10
4.5996100000000002
20
-3.2759190157480313
11
4.5961282283464566
21
-3.2724372440944882
0
LINE
8
User.Eco2
6
CONTINUOUS
10
4.5961282283464566
20
-3.2724372440944882
11
4.5918638976377952
21
-3.2699752362204721
0
LINE
8
User.Eco2
6
CONTINUOUS
10
4.5918638976377952
20
-3.2699752362204721
11
4.5871076771653545
21
-3.2687007874015745
0
LINE
8
User.Eco2
6
CONTINUOUS
10
4.5871076771653545
20
-3.2687007874015745
11
4.5846456692913389
21
-3.2687007874015745
0
LINE
8
User.Eco2
6
CONTINUOUS
10
4.5846456692913389
20
-3.2687007874015745
11
4.0728346456692917
21
-3.2687007874015745
0
LINE
8
User.Eco2
6
CONTINUOUS
10
4.5846456692913389
20
-2.2824803149606301
11
4.589245
21
-2.2829985433070865
0
LINE
8
User.Eco2
6
CONTINUOUS
10
4.589245
20
-2.2829985433070865
11
4.5936137401574806
21
-2.2845272440944879
0
LINE
8
User.Eco2
6
CONTINUOUS
10
4.5936137401574806
20
-2.2845272440944879
11
4.5975327559055117
21
-2.2869897244094486
0
LINE
8
User.Eco2
6
CONTINUOUS
10
4.5975327559055117
20
-2.2869897244094486
11
4.6008055511811019
21
-2.2902625196850392
0
LINE
8
User.Eco2
6
CONTINUOUS
10
4.6008055511811019
20
-2.2902625196850392
11
4.6032680314960626
21
-2.2941815354330708
0
LINE
8
User.Eco2
6
CONTINUOUS
10
4.6032680314960626
20
-2.2941815354330708
11
4.6047967322834644
21
-2.2985502755905509
0
LINE
8
User.Eco2
6
CONTINUOUS
10
4.6047967322834644
20
-2.2985502755905509
11
4.6053149606299213
21
-2.3031496062992125
0
LINE
8
User.Eco2
6
CONTINUOUS
10
4.6053149606299213
20
-2.3031496062992125
11
4.6053149606299213
21
-2.8149606299212597
0
LINE
8
User.Eco2
6
CONTINUOUS
10
4.6053149606299213
20
-2.8149606299212597
11
4.605240039370079
21
-2.8153372834645669
0
LINE
8
User.Eco2
6
CONTINUOUS
10
4.605240039370079
20
-2.8153372834645669
11
4.60514842519685
21
-2.8154288582677163
0
LINE
8
User.Eco2
6
CONTINUOUS
10
4.60514842519685
20
-2.8154288582677163
11
4.6046879133858267
21
-2.8195160236220471
0
LINE
8
User.Eco2
6
CONTINUOUS
10
4.6046879133858267
20
-2.8195160236220471
11
4.6031592125984249
21
-2.8238847637795277
0
LINE
8
User.Eco2
6
CONTINUOUS
10
4.6031592125984249
20
-2.8238847637795277
11
4.6006967322834642
21
-2.8278037795275588
0
LINE
8
User.Eco2
6
CONTINUOUS
10
4.6006967322834642
20
-2.8278037795275588
11
4.597423937007874
21
-2.8310765748031494
0
LINE
8
User.Eco2
6
CONTINUOUS
10
4.597423937007874
20
-2.8310765748031494
11
4.593504921259842
21
-2.8335390551181101
0
LINE
8
User.Eco2
6
CONTINUOUS
10
4.593504921259842
20
-2.8335390551181101
11
4.5891361811023623
21
-2.835067755905512
0
LINE
8
User.Eco2
6
CONTINUOUS
10
4.5891361811023623
20
-2.835067755905512
11
4.585049015748031
21
-2.8355282677165352
0
LINE
8
User.Eco2
6
CONTINUOUS
10
4.585049015748031
20
-2.8355282677165352
11
4.5850223228346456
21
-2.8355549999999998
0
LINE
8
User.Eco2
6
CONTINUOUS
10
4.5850223228346456
20
-2.8355549999999998
11
4.5846456692913389
21
-2.8356299212598426
0
LINE
8
User.Eco2
6
CONTINUOUS
10
4.5846456692913389
20
-2.8356299212598426
11
4.0728346456692917
21
-2.8356299212598426
0
LINE
8
User.Eco2
6
CONTINUOUS
10
4.0728346456692917
20
-2.8356299212598426
11
4.0682353149606296
21
-2.8351116929133857
0
LINE
8
User.Eco2
6
CONTINUOUS
10
4.0682353149606296
20
-2.8351116929133857
11
4.0638665748031499
21
-2.8335829921259843
0
LINE
8
User.Eco2
6
CONTINUOUS
10
4.0638665748031499
20
-2.8335829921259843
11
4.0599475590551179
21
-2.8311205118110236
0
LINE
8
User.Eco2
6
CONTINUOUS
10
4.0599475590551179
20
-2.8311205118110236
11
4.0566747637795277
21
-2.827847716535433
0
LINE
8
User.Eco2
6
CONTINUOUS
10
4.0566747637795277
20
-2.827847716535433
11
4.0542122834645671
21
-2.8239287007874014
0
LINE
8
User.Eco2
6
CONTINUOUS
10
4.0542122834645671
20
-2.8239287007874014
11
4.0526835826771652
21
-2.8195599606299213
0
LINE
8
User.Eco2
6
CONTINUOUS
10
4.0526835826771652
20
-2.8195599606299213
11
4.0521653543307083
21
-2.8149606299212597
0
LINE
8
User.Eco2
6
CONTINUOUS
10
4.0521653543307083
20
-2.8149606299212597
11
4.0521653543307083
21
-2.3031496062992125
0
LINE
8
User.Eco2
6
CONTINUOUS
10
4.0521653543307083
20
-2.3031496062992125
11
4.0526835826771652
21
-2.2985502755905509
0
LINE
8
User.Eco2
6
CONTINUOUS
10
4.0526835826771652
20
-2.2985502755905509
11
4.0542122834645671
21
-2.2941815354330708
0
LINE
8
User.Eco2
6
CONTINUOUS
10
4.0542122834645671
20
-2.2941815354330708
11
4.0566747637795277
21
-2.2902625196850392
0
LINE
8
User.Eco2
6
CONTINUOUS
10
4.0566747637795277
20
-2.2902625196850392
11
4.0599475590551179
21
-2.2869897244094486
0
LINE
8
User.Eco2
6
CONTINUOUS
10
4.0599475590551179
20
-2.2869897244094486
11
4.0638665748031499
21
-2.2845272440944879
0
LINE
8
User.Eco2
6
CONTINUOUS
10
4.0638665748031499
20
-2.2845272440944879
11
4.0682353149606296
21
-2.2829985433070865
0
LINE
8
User.Eco2
6
CONTINUOUS
10
4.0682353149606296
20
-2.2829985433070865
11
4.0728346456692917
21
-2.2824803149606301
0
LINE
8
User.Eco2
6
CONTINUOUS
10
4.0728346456692917
20
-2.2824803149606301
11
4.5846456692913389
21
-2.2824803149606301
0
LINE
8
User.Eco2
6
CONTINUOUS
10
4.0728346456692917
20
-2.284448818897638
11
4.0703726377952751
21
-2.284448818897638
0
LINE
8
User.Eco2
6
CONTINUOUS
10
4.0703726377952751
20
-2.284448818897638
11
4.0656164173228344
21
-2.2857232677165356
0
LINE
8
User.Eco2
6
CONTINUOUS
10
4.0656164173228344
20
-2.2857232677165356
11
4.061352086614173
21
-2.2881852755905512
0
LINE
8
User.Eco2
6
CONTINUOUS
10
4.061352086614173
20
-2.2881852755905512
11
4.0578703149606294
21
-2.2916670472440943
0
LINE
8
User.Eco2
6
CONTINUOUS
10
4.0578703149606294
20
-2.2916670472440943
11
4.0554083070866138
21
-2.2959313779527557
0
LINE
8
User.Eco2
6
CONTINUOUS
10
4.0554083070866138
20
-2.2959313779527557
11
4.0541338582677167
21
-2.3006875984251969
0
LINE
8
User.Eco2
6
CONTINUOUS
10
4.0541338582677167
20
-2.3006875984251969
11
4.0541338582677167
21
-2.3031496062992125
0
LINE
8
User.Eco2
6
CONTINUOUS
10
4.0541338582677167
20
-2.3031496062992125
11
4.0541338582677167
21
-2.8149606299212597
0
LINE
8
User.Eco2
6
CONTINUOUS
10
4.0541338582677167
20
-2.8149606299212597
11
4.0541338582677167
21
-2.8174226377952754
0
LINE
8
User.Eco2
6
CONTINUOUS
10
4.0541338582677167
20
-2.8174226377952754
11
4.0554083070866138
21
-2.8221788582677165
0
LINE
8
User.Eco2
6
CONTINUOUS
10
4.0554083070866138
20
-2.8221788582677165
11
4.0578703149606294
21
-2.8264431889763779
0
LINE
8
User.Eco2
6
CONTINUOUS
10
4.0578703149606294
20
-2.8264431889763779
11
4.061352086614173
21
-2.829924960629921
0
LINE
8
User.Eco2
6
CONTINUOUS
10
4.061352086614173
20
-2.829924960629921
11
4.0656164173228344
21
-2.8323869685039371
0
LINE
8
User.Eco2
6
CONTINUOUS
10
4.0656164173228344
20
-2.8323869685039371
11
4.0703726377952751
21
-2.8336614173228347
0
LINE
8
User.Eco2
6
CONTINUOUS
10
4.0703726377952751
20
-2.8336614173228347
11
4.0728346456692917
21
-2.8336614173228347
0
LINE
8
User.Eco2
6
CONTINUOUS
10
4.0728346456692917
20
-2.8336614173228347
11
4.5844016535433072
21
-2.8336614173228347
0
LINE
8
User.Eco2
6
CONTINUOUS
10
4.5844016535433072
20
-2.8336614173228347
11
4.5845368503937003
21
-2.8336174803149605
0
LINE
8
User.Eco2
6
CONTINUOUS
10
4.5845368503937003
20
-2.8336174803149605
11
4.5869988582677168
21
-2.8336174803149605
0
LINE
8
User.Eco2
6
CONTINUOUS
10
4.5869988582677168
20
-2.8336174803149605
11
4.5917550787401575
21
-2.8323430314960629
0
LINE
8
User.Eco2
6
CONTINUOUS
10
4.5917550787401575
20
-2.8323430314960629
11
4.5960194094488189
21
-2.8298810236220473
0
LINE
8
User.Eco2
6
CONTINUOUS
10
4.5960194094488189
20
-2.8298810236220473
11
4.5995011811023625
21
-2.8263992519685037
0
LINE
8
User.Eco2
6
CONTINUOUS
10
4.5995011811023625
20
-2.8263992519685037
11
4.6019631889763781
21
-2.8221349212598423
0
LINE
8
User.Eco2
6
CONTINUOUS
10
4.6019631889763781
20
-2.8221349212598423
11
4.6032376377952753
21
-2.8173787007874016
0
LINE
8
User.Eco2
6
CONTINUOUS
10
4.6032376377952753
20
-2.8173787007874016
11
4.6032376377952753
21
-2.814916692913386
0
LINE
8
User.Eco2
6
CONTINUOUS
10
4.6032376377952753
20
-2.814916692913386
11
4.603346456692913
21
-2.8145817716535433
0
LINE
8
User.Eco2
6
CONTINUOUS
10
4.603346456692913
20
-2.8145817716535433
11
4.603346456692913
21
-2.3031496062992125
0
LINE
8
User.Eco2
6
CONTINUOUS
10
4.603346456692913
20
-2.3031496062992125
11
4.603346456692913
21
-2.3006875984251969
0
LINE
8
User.Eco2
6
CONTINUOUS
10
4.603346456692913
20
-2.3006875984251969
11
4.6020720078740158
21
-2.2959313779527557
0
LINE
8
User.Eco2
6
CONTINUOUS
10
4.6020720078740158
20
-2.2959313779527557
11
4.5996100000000002
21
-2.2916670472440943
0
LINE
8
User.Eco2
6
CONTINUOUS
10
4.5996100000000002
20
-2.2916670472440943
11
4.5961282283464566
21
-2.2881852755905512
0
LINE
8
User.Eco2
6
CONTINUOUS
10
4.5961282283464566
20
-2.2881852755905512
11
4.5918638976377952
21
-2.2857232677165356
0
LINE
8
User.Eco2
6
CONTINUOUS
10
4.5918638976377952
20
-2.2857232677165356
11
4.5871076771653545
21
-2.284448818897638
0
LINE
8
User.Eco2
6
CONTINUOUS
10
4.5871076771653545
20
-2.284448818897638
11
4.5846456692913389
21
-2.284448818897638
0
LINE
8
User.Eco2
6
CONTINUOUS
10
4.5846456692913389
20
-2.284448818897638
11
4.0728346456692917
21
-2.284448818897638
0
LINE
8
User.Eco2
6
CONTINUOUS
10
5.568897637795275
20
-2.2824803149606301
11
5.5734969685039371
21
-2.2829985433070865
0
LINE
8
User.Eco2
6
CONTINUOUS
10
5.5734969685039371
20
-2.2829985433070865
11
5.5778657086614176
21
-2.2845272440944879
0
LINE
8
User.Eco2
6
CONTINUOUS
10
5.5778657086614176
20
-2.2845272440944879
11
5.5817847244094487
21
-2.2869897244094486
0
LINE
8
User.Eco2
6
CONTINUOUS
10
5.5817847244094487
20
-2.2869897244094486
11
5.5850575196850389
21
-2.2902625196850392
0
LINE
8
User.Eco2
6
CONTINUOUS
10
5.5850575196850389
20
-2.2902625196850392
11
5.5875199999999996
21
-2.2941815354330708
0
LINE
8
User.Eco2
6
CONTINUOUS
10
5.5875199999999996
20
-2.2941815354330708
11
5.5890487007874015
21
-2.2985502755905509
0
LINE
8
User.Eco2
6
CONTINUOUS
10
5.5890487007874015
20
-2.2985502755905509
11
5.5895669291338583
21
-2.3031496062992125
0
LINE
8
User.Eco2
6
CONTINUOUS
10
5.5895669291338583
20
-2.3031496062992125
11
5.5895669291338583
21
-2.8149606299212597
0
LINE
8
User.Eco2
6
CONTINUOUS
10
5.5895669291338583
20
-2.8149606299212597
11
5.589492007874016
21
-2.8153372834645669
0
LINE
8
User.Eco2
6
CONTINUOUS
10
5.589492007874016
20
-2.8153372834645669
11
5.589400393700787
21
-2.8154288582677163
0
LINE
8
User.Eco2
6
CONTINUOUS
10
5.589400393700787
20
-2.8154288582677163
11
5.5889398818897638
21
-2.8195160236220471
0
LINE
8
User.Eco2
6
CONTINUOUS
10
5.5889398818897638
20
-2.8195160236220471
11
5.5874111811023619
21
-2.8238847637795277
0
LINE
8
User.Eco2
6
CONTINUOUS
10
5.5874111811023619
20
-2.8238847637795277
11
5.5849487007874012
21
-2.8278037795275588
0
LINE
8
User.Eco2
6
CONTINUOUS
10
5.5849487007874012
20
-2.8278037795275588
11
5.581675905511811
21
-2.8310765748031494
0
LINE
8
User.Eco2
6
CONTINUOUS
10
5.581675905511811
20
-2.8310765748031494
11
5.577756889763779
21
-2.8335390551181101
0
LINE
8
User.Eco2
6
CONTINUOUS
10
5.577756889763779
20
-2.8335390551181101
11
5.5733881496062994
21
-2.835067755905512
0
LINE
8
User.Eco2
6
CONTINUOUS
10
5.5733881496062994
20
-2.835067755905512
11
5.5693009842519681
21
-2.8355282677165352
0
LINE
8
User.Eco2
6
CONTINUOUS
10
5.5693009842519681
20
-2.8355282677165352
11
5.5692742913385826
21
-2.8355549999999998
0
LINE
8
User.Eco2
6
CONTINUOUS
10
5.5692742913385826
20
-2.8355549999999998
11
5.568897637795275
21
-2.8356299212598426
0
LINE
8
User.Eco2
6
CONTINUOUS
10
5.568897637795275
20
-2.8356299212598426
11
5.0570866141732278
21
-2.8356299212598426
0
LINE
8
User.Eco2
6
CONTINUOUS
10
5.0570866141732278
20
-2.8356299212598426
11
5.0524872834645667
21
-2.8351116929133857
0
LINE
8
User.Eco2
6
CONTINUOUS
10
5.0524872834645667
20
-2.8351116929133857
11
5.0481185433070861
21
-2.8335829921259843
0
LINE
8
User.Eco2
6
CONTINUOUS
10
5.0481185433070861
20
-2.8335829921259843
11
5.044199527559055
21
-2.8311205118110236
0
LINE
8
User.Eco2
6
CONTINUOUS
10
5.044199527559055
20
-2.8311205118110236
11
5.0409267322834648
21
-2.827847716535433
0
LINE
8
User.Eco2
6
CONTINUOUS
10
5.0409267322834648
20
-2.827847716535433
11
5.0384642519685041
21
-2.8239287007874014
0
LINE
8
User.Eco2
6
CONTINUOUS
10
5.0384642519685041
20
-2.8239287007874014
11
5.0369355511811023
21
-2.8195599606299213
0
LINE
8
User.Eco2
6
CONTINUOUS
10
5.0369355511811023
20
-2.8195599606299213
11
5.0364173228346454
21
-2.8149606299212597
0
LINE
8
User.Eco2
6
CONTINUOUS
10
5.0364173228346454
20
-2.8149606299212597
11
5.0364173228346454
21
-2.3031496062992125
0
LINE
8
User.Eco2
6
CONTINUOUS
10
5.0364173228346454
20
-2.3031496062992125
11
5.0369355511811023
21
-2.2985502755905509
0
LINE
8
User.Eco2
6
CONTINUOUS
10
5.0369355511811023
20
-2.2985502755905509
11
5.0384642519685041
21
-2.2941815354330708
0
LINE
8
User.Eco2
6
CONTINUOUS
10
5.0384642519685041
20
-2.2941815354330708
11
5.0409267322834648
21
-2.2902625196850392
0
LINE
8
User.Eco2
6
CONTINUOUS
10
5.0409267322834648
20
-2.2902625196850392
11
5.044199527559055
21
-2.2869897244094486
0
LINE
8
User.Eco2
6
CONTINUOUS
10
5.044199527559055
20
-2.2869897244094486
11
5.0481185433070861
21
-2.2845272440944879
0
LINE
8
User.Eco2
6
CONTINUOUS
10
5.0481185433070861
20
-2.2845272440944879
11
5.0524872834645667
21
-2.2829985433070865
0
LINE
8
User.Eco2
6
CONTINUOUS
10
5.0524872834645667
20
-2.2829985433070865
11
5.0570866141732278
21
-2.2824803149606301
0
LINE
8
User.Eco2
6
CONTINUOUS
10
5.0570866141732278
20
-2.2824803149606301
11
5.568897637795275
21
-2.2824803149606301
0
LINE
8
User.Eco2
6
CONTINUOUS
10
5.0570866141732278
20
-2.284448818897638
11
5.0546246062992122
21
-2.284448818897638
0
LINE
8
User.Eco2
6
CONTINUOUS
10
5.0546246062992122
20
-2.284448818897638
11
5.0498683858267714
21
-2.2857232677165356
0
LINE
8
User.Eco2
6
CONTINUOUS
10
5.0498683858267714
20
-2.2857232677165356
11
5.0456040551181101
21
-2.2881852755905512
0
LINE
8
User.Eco2
6
CONTINUOUS
10
5.0456040551181101
20
-2.2881852755905512
11
5.0421222834645665
21
-2.2916670472440943
0
LINE
8
User.Eco2
6
CONTINUOUS
10
5.0421222834645665
20
-2.2916670472440943
11
5.0396602755905509
21
-2.2959313779527557
0
LINE
8
User.Eco2
6
CONTINUOUS
10
5.0396602755905509
20
-2.2959313779527557
11
5.0383858267716537
21
-2.3006875984251969
0
LINE
8
User.Eco2
6
CONTINUOUS
10
5.0383858267716537
20
-2.3006875984251969
11
5.0383858267716537
21
-2.3031496062992125
0
LINE
8
User.Eco2
6
CONTINUOUS
10
5.0383858267716537
20
-2.3031496062992125
11
5.0383858267716537
21
-2.8149606299212597
0
LINE
8
User.Eco2
6
CONTINUOUS
10
5.0383858267716537
20
-2.8149606299212597
11
5.0383858267716537
21
-2.8174226377952754
0
LINE
8
User.Eco2
6
CONTINUOUS
10
5.0383858267716537
20
-2.8174226377952754
11
5.0396602755905509
21
-2.8221788582677165
0
LINE
8
User.Eco2
6
CONTINUOUS
10
5.0396602755905509
20
-2.8221788582677165
11
5.0421222834645665
21
-2.8264431889763779
0
LINE
8
User.Eco2
6
CONTINUOUS
10
5.0421222834645665
20
-2.8264431889763779
11
5.0456040551181101
21
-2.829924960629921
0
LINE
8
User.Eco2
6
CONTINUOUS
10
5.0456040551181101
20
-2.829924960629921
11
5.0498683858267714
21
-2.8323869685039371
0
LINE
8
User.Eco2
6
CONTINUOUS
10
5.0498683858267714
20
-2.8323869685039371
11
5.0546246062992122
21
-2.8336614173228347
0
LINE
8
User.Eco2
6
CONTINUOUS
10
5.0546246062992122
20
-2.8336614173228347
11
5.0570866141732278
21
-2.8336614173228347
0
LINE
8
User.Eco2
6
CONTINUOUS
10
5.0570866141732278
20
-2.8336614173228347
11
5.5686536220472442
21
-2.8336614173228347
0
LINE
8
User.Eco2
6
CONTINUOUS
10
5.5686536220472442
20
-2.8336614173228347
11
5.5687888188976373
21
-2.8336174803149605
0
LINE
8
User.Eco2
6
CONTINUOUS
10
5.5687888188976373
20
-2.8336174803149605
11
5.5712508267716538
21
-2.8336174803149605
0
LINE
8
User.Eco2
6
CONTINUOUS
10
5.5712508267716538
20
-2.8336174803149605
11
5.5760070472440946
21
-2.8323430314960629
0
LINE
8
User.Eco2
6
CONTINUOUS
10
5.5760070472440946
20
-2.8323430314960629
11
5.580271377952756
21
-2.8298810236220473
0
LINE
8
User.Eco2
6
CONTINUOUS
10
5.580271377952756
20
-2.8298810236220473
11
5.5837531496062986
21
-2.8263992519685037
0
LINE
8
User.Eco2
6
CONTINUOUS
10
5.5837531496062986
20
-2.8263992519685037
11
5.5862151574803152
21
-2.8221349212598423
0
LINE
8
User.Eco2
6
CONTINUOUS
10
5.5862151574803152
20
-2.8221349212598423
11
5.5874896062992123
21
-2.8173787007874016
0
LINE
8
User.Eco2
6
CONTINUOUS
10
5.5874896062992123
20
-2.8173787007874016
11
5.5874896062992123
21
-2.814916692913386
0
LINE
8
User.Eco2
6
CONTINUOUS
10
5.5874896062992123
20
-2.814916692913386
11
5.58759842519685
21
-2.8145817716535433
0
LINE
8
User.Eco2
6
CONTINUOUS
10
5.58759842519685
20
-2.8145817716535433
11
5.58759842519685
21
-2.3031496062992125
0
LINE
8
User.Eco2
6
CONTINUOUS
10
5.58759842519685
20
-2.3031496062992125
11
5.58759842519685
21
-2.3006875984251969
0
LINE
8
User.Eco2
6
CONTINUOUS
10
5.58759842519685
20
-2.3006875984251969
11
5.5863239763779529
21
-2.2959313779527557
0
LINE
8
User.Eco2
6
CONTINUOUS
10
5.5863239763779529
20
-2.2959313779527557
11
5.5838619685039372
21
-2.2916670472440943
0
LINE
8
User.Eco2
6
CONTINUOUS
10
5.5838619685039372
20
-2.2916670472440943
11
5.5803801968503937
21
-2.2881852755905512
0
LINE
8
User.Eco2
6
CONTINUOUS
10
5.5803801968503937
20
-2.2881852755905512
11
5.5761158661417323
21
-2.2857232677165356
0
LINE
8
User.Eco2
6
CONTINUOUS
10
5.5761158661417323
20
-2.2857232677165356
11
5.5713596456692915
21
-2.284448818897638
0
LINE
8
User.Eco2
6
CONTINUOUS
10
5.5713596456692915
20
-2.284448818897638
11
5.568897637795275
21
-2.284448818897638
0
LINE
8
User.Eco2
6
CONTINUOUS
10
5.568897637795275
20
-2.284448818897638
11
5.0570866141732278
21
-2.284448818897638
0
LINE
8
User.Eco2
6
CONTINUOUS
10
6.5531496062992121
20
-2.2824803149606301
11
6.5577489370078741
21
-2.2829985433070865
0
LINE
8
User.Eco2
6
CONTINUOUS
10
6.5577489370078741
20
-2.2829985433070865
11
6.5621176771653538
21
-2.2845272440944879
0
LINE
8
User.Eco2
6
CONTINUOUS
10
6.5621176771653538
20
-2.2845272440944879
11
6.5660366929133858
21
-2.2869897244094486
0
LINE
8
User.Eco2
6
CONTINUOUS
10
6.5660366929133858
20
-2.2869897244094486
11
6.569309488188976
21
-2.2902625196850392
0
LINE
8
User.Eco2
6
CONTINUOUS
10
6.569309488188976
20
-2.2902625196850392
11
6.5717719685039366
21
-2.2941815354330708
0
LINE
8
User.Eco2
6
CONTINUOUS
10
6.5717719685039366
20
-2.2941815354330708
11
6.5733006692913385
21
-2.2985502755905509
0
LINE
8
User.Eco2
6
CONTINUOUS
10
6.5733006692913385
20
-2.2985502755905509
11
6.5738188976377954
21
-2.3031496062992125
0
LINE
8
User.Eco2
6
CONTINUOUS
10
6.5738188976377954
20
-2.3031496062992125
11
6.5738188976377954
21
-2.8149606299212597
0
LINE
8
User.Eco2
6
CONTINUOUS
10
6.5738188976377954
20
-2.8149606299212597
11
6.573743976377953
21
-2.8153372834645669
0
LINE
8
User.Eco2
6
CONTINUOUS
10
6.573743976377953
20
-2.8153372834645669
11
6.573652362204724
21
-2.8154288582677163
0
LINE
8
User.Eco2
6
CONTINUOUS
10
6.573652362204724
20
-2.8154288582677163
11
6.5731918503937008
21
-2.8195160236220471
0
LINE
8
User.Eco2
6
CONTINUOUS
10
6.5731918503937008
20
-2.8195160236220471
11
6.5716631496062989
21
-2.8238847637795277
0
LINE
8
User.Eco2
6
CONTINUOUS
10
6.5716631496062989
20
-2.8238847637795277
11
6.5692006692913383
21
-2.8278037795275588
0
LINE
8
User.Eco2
6
CONTINUOUS
10
6.5692006692913383
20
-2.8278037795275588
11
6.5659278740157481
21
-2.8310765748031494
0
LINE
8
User.Eco2
6
CONTINUOUS
10
6.5659278740157481
20
-2.8310765748031494
11
6.5620088582677161
21
-2.8335390551181101
0
LINE
8
User.Eco2
6
CONTINUOUS
10
6.5620088582677161
20
-2.8335390551181101
11
6.5576401181102364
21
-2.835067755905512
0
LINE
8
User.Eco2
6
CONTINUOUS
10
6.5576401181102364
20
-2.835067755905512
11
6.5535529527559051
21
-2.8355282677165352
0
LINE
8
User.Eco2
6
CONTINUOUS
10
6.5535529527559051
20
-2.8355282677165352
11
6.5535262598425197
21
-2.8355549999999998
0
LINE
8
User.Eco2
6
CONTINUOUS
10
6.5535262598425197
20
-2.8355549999999998
11
6.5531496062992121
21
-2.8356299212598426
0
LINE
8
User.Eco2
6
CONTINUOUS
10
6.5531496062992121
20
-2.8356299212598426
11
6.0413385826771648
21
-2.8356299212598426
0
LINE
8
User.Eco2
6
CONTINUOUS
10
6.0413385826771648
20
-2.8356299212598426
11
6.0367392519685037
21
-2.8351116929133857
0
LINE
8
User.Eco2
6
CONTINUOUS
10
6.0367392519685037
20
-2.8351116929133857
11
6.0323705118110231
21
-2.8335829921259843
0
LINE
8
User.Eco2
6
CONTINUOUS
10
6.0323705118110231
20
-2.8335829921259843
11
6.028451496062992
21
-2.8311205118110236
0
LINE
8
User.Eco2
6
CONTINUOUS
10
6.028451496062992
20
-2.8311205118110236
11
6.0251787007874018
21
-2.827847716535433
0
LINE
8
User.Eco2
6
CONTINUOUS
10
6.0251787007874018
20
-2.827847716535433
11
6.0227162204724412
21
-2.8239287007874014
0
LINE
8
User.Eco2
6
CONTINUOUS
10
6.0227162204724412
20
-2.8239287007874014
11
6.0211875196850393
21
-2.8195599606299213
0
LINE
8
User.Eco2
6
CONTINUOUS
10
6.0211875196850393
20
-2.8195599606299213
11
6.0206692913385824
21
-2.8149606299212597
0
LINE
8
User.Eco2
6
CONTINUOUS
10
6.0206692913385824
20
-2.8149606299212597
11
6.0206692913385824
21
-2.3031496062992125
0
LINE
8
User.Eco2
6
CONTINUOUS
10
6.0206692913385824
20
-2.3031496062992125
11
6.0211875196850393
21
-2.2985502755905509
0
LINE
8
User.Eco2
6
CONTINUOUS
10
6.0211875196850393
20
-2.2985502755905509
11
6.0227162204724412
21
-2.2941815354330708
0
LINE
8
User.Eco2
6
CONTINUOUS
10
6.0227162204724412
20
-2.2941815354330708
11
6.0251787007874018
21
-2.2902625196850392
0
LINE
8
User.Eco2
6
CONTINUOUS
10
6.0251787007874018
20
-2.2902625196850392
11
6.028451496062992
21
-2.2869897244094486
0
LINE
8
User.Eco2
6
CONTINUOUS
10
6.028451496062992
20
-2.2869897244094486
11
6.0323705118110231
21
-2.2845272440944879
0
LINE
8
User.Eco2
6
CONTINUOUS
10
6.0323705118110231
20
-2.2845272440944879
11
6.0367392519685037
21
-2.2829985433070865
0
LINE
8
User.Eco2
6
CONTINUOUS
10
6.0367392519685037
20
-2.2829985433070865
11
6.0413385826771648
21
-2.2824803149606301
0
LINE
8
User.Eco2
6
CONTINUOUS
10
6.0413385826771648
20
-2.2824803149606301
11
6.5531496062992121
21
-2.2824803149606301
0
LINE
8
User.Eco2
6
CONTINUOUS
10
6.0413385826771648
20
-2.284448818897638
11
6.0388765748031492
21
-2.284448818897638
0
LINE
8
User.Eco2
6
CONTINUOUS
10
6.0388765748031492
20
-2.284448818897638
11
6.0341203543307085
21
-2.2857232677165356
0
LINE
8
User.Eco2
6
CONTINUOUS
10
6.0341203543307085
20
-2.2857232677165356
11
6.0298560236220471
21
-2.2881852755905512
0
LINE
8
User.Eco2
6
CONTINUOUS
10
6.0298560236220471
20
-2.2881852755905512
11
6.0263742519685035
21
-2.2916670472440943
0
LINE
8
User.Eco2
6
CONTINUOUS
10
6.0263742519685035
20
-2.2916670472440943
11
6.0239122440944879
21
-2.2959313779527557
0
LINE
8
User.Eco2
6
CONTINUOUS
10
6.0239122440944879
20
-2.2959313779527557
11
6.0226377952755907
21
-2.3006875984251969
0
LINE
8
User.Eco2
6
CONTINUOUS
10
6.0226377952755907
20
-2.3006875984251969
11
6.0226377952755907
21
-2.3031496062992125
0
LINE
8
User.Eco2
6
CONTINUOUS
10
6.0226377952755907
20
-2.3031496062992125
11
6.0226377952755907
21
-2.8149606299212597
0
LINE
8
User.Eco2
6
CONTINUOUS
10
6.0226377952755907
20
-2.8149606299212597
11
6.0226377952755907
21
-2.8174226377952754
0
LINE
8
User.Eco2
6
CONTINUOUS
10
6.0226377952755907
20
-2.8174226377952754
11
6.0239122440944879
21
-2.8221788582677165
0
LINE
8
User.Eco2
6
CONTINUOUS
10
6.0239122440944879
20
-2.8221788582677165
11
6.0263742519685035
21
-2.8264431889763779
0
LINE
8
User.Eco2
6
CONTINUOUS
10
6.0263742519685035
20
-2.8264431889763779
11
6.0298560236220471
21
-2.829924960629921
0
LINE
8
User.Eco2
6
CONTINUOUS
10
6.0298560236220471
20
-2.829924960629921
11
6.0341203543307085
21
-2.8323869685039371
0
LINE
8
User.Eco2
6
CONTINUOUS
10
6.0341203543307085
20
-2.8323869685039371
11
6.0388765748031492
21
-2.8336614173228347
0
LINE
8
User.Eco2
6
CONTINUOUS
10
6.0388765748031492
20
-2.8336614173228347
11
6.0413385826771648
21
-2.8336614173228347
0
LINE
8
User.Eco2
6
CONTINUOUS
10
6.0413385826771648
20
-2.8336614173228347
11
6.5529055905511813
21
-2.8336614173228347
0
LINE
8
User.Eco2
6
CONTINUOUS
10
6.5529055905511813
20
-2.8336614173228347
11
6.5530407874015744
21
-2.8336174803149605
0
LINE
8
User.Eco2
6
CONTINUOUS
10
6.5530407874015744
20
-2.8336174803149605
11
6.55550279527559
21
-2.8336174803149605
0
LINE
8
User.Eco2
6
CONTINUOUS
10
6.55550279527559
20
-2.8336174803149605
11
6.5602590157480316
21
-2.8323430314960629
0
LINE
8
User.Eco2
6
CONTINUOUS
10
6.5602590157480316
20
-2.8323430314960629
11
6.564523346456693
21
-2.8298810236220473
0
LINE
8
User.Eco2
6
CONTINUOUS
10
6.564523346456693
20
-2.8298810236220473
11
6.5680051181102357
21
-2.8263992519685037
0
LINE
8
User.Eco2
6
CONTINUOUS
10
6.5680051181102357
20
-2.8263992519685037
11
6.5704671259842522
21
-2.8221349212598423
0
LINE
8
User.Eco2
6
CONTINUOUS
10
6.5704671259842522
20
-2.8221349212598423
11
6.5717415748031494
21
-2.8173787007874016
0
LINE
8
User.Eco2
6
CONTINUOUS
10
6.5717415748031494
20
-2.8173787007874016
11
6.5717415748031494
21
-2.814916692913386
0
LINE
8
User.Eco2
6
CONTINUOUS
10
6.5717415748031494
20
-2.814916692913386
11
6.5718503937007871
21
-2.8145817716535433
0
LINE
8
User.Eco2
6
CONTINUOUS
10
6.5718503937007871
20
-2.8145817716535433
11
6.5718503937007871
21
-2.3031496062992125
0
LINE
8
User.Eco2
6
CONTINUOUS
10
6.5718503937007871
20
-2.3031496062992125
11
6.5718503937007871
21
-2.3006875984251969
0
LINE
8
User.Eco2
6
CONTINUOUS
10
6.5718503937007871
20
-2.3006875984251969
11
6.5705759448818899
21
-2.2959313779527557
0
LINE
8
User.Eco2
6
CONTINUOUS
10
6.5705759448818899
20
-2.2959313779527557
11
6.5681139370078743
21
-2.2916670472440943
0
LINE
8
User.Eco2
6
CONTINUOUS
10
6.5681139370078743
20
-2.2916670472440943
11
6.5646321653543307
21
-2.2881852755905512
0
LINE
8
User.Eco2
6
CONTINUOUS
10
6.5646321653543307
20
-2.2881852755905512
11
6.5603678346456693
21
-2.2857232677165356
0
LINE
8
User.Eco2
6
CONTINUOUS
10
6.5603678346456693
20
-2.2857232677165356
11
6.5556116141732286
21
-2.284448818897638
0
LINE
8
User.Eco2
6
CONTINUOUS
10
6.5556116141732286
20
-2.284448818897638
11
6.5531496062992121
21
-2.284448818897638
0
LINE
8
User.Eco2
6
CONTINUOUS
10
6.5531496062992121
20
-2.284448818897638
11
6.0413385826771648
21
-2.284448818897638
0
LINE
8
User.Eco2
6
CONTINUOUS
10
7.5374015748031491
20
-2.2824803149606301
11
7.5420009055118111
21
-2.2829985433070865
0
LINE
8
User.Eco2
6
CONTINUOUS
10
7.5420009055118111
20
-2.2829985433070865
11
7.5463696456692908
21
-2.2845272440944879
0
LINE
8
User.Eco2
6
CONTINUOUS
10
7.5463696456692908
20
-2.2845272440944879
11
7.5502886614173228
21
-2.2869897244094486
0
LINE
8
User.Eco2
6
CONTINUOUS
10
7.5502886614173228
20
-2.2869897244094486
11
7.553561456692913
21
-2.2902625196850392
0
LINE
8
User.Eco2
6
CONTINUOUS
10
7.553561456692913
20
-2.2902625196850392
11
7.5560239370078737
21
-2.2941815354330708
0
LINE
8
User.Eco2
6
CONTINUOUS
10
7.5560239370078737
20
-2.2941815354330708
11
7.5575526377952755
21
-2.2985502755905509
0
LINE
8
User.Eco2
6
CONTINUOUS
10
7.5575526377952755
20
-2.2985502755905509
11
7.5580708661417324
21
-2.3031496062992125
0
LINE
8
User.Eco2
6
CONTINUOUS
10
7.5580708661417324
20
-2.3031496062992125
11
7.5580708661417324
21
-2.8149606299212597
0
LINE
8
User.Eco2
6
CONTINUOUS
10
7.5580708661417324
20
-2.8149606299212597
11
7.5579959448818892
21
-2.8153372834645669
0
LINE
8
User.Eco2
6
CONTINUOUS
10
7.5579959448818892
20
-2.8153372834645669
11
7.5579043307086611
21
-2.8154288582677163
0
LINE
8
User.Eco2
6
CONTINUOUS
10
7.5579043307086611
20
-2.8154288582677163
11
7.5574438188976378
21
-2.8195160236220471
0
LINE
8
User.Eco2
6
CONTINUOUS
10
7.5574438188976378
20
-2.8195160236220471
11
7.555915118110236
21
-2.8238847637795277
0
LINE
8
User.Eco2
6
CONTINUOUS
10
7.555915118110236
20
-2.8238847637795277
11
7.5534526377952753
21
-2.8278037795275588
0
LINE
8
User.Eco2
6
CONTINUOUS
10
7.5534526377952753
20
-2.8278037795275588
11
7.5501798425196851
21
-2.8310765748031494
0
LINE
8
User.Eco2
6
CONTINUOUS
10
7.5501798425196851
20
-2.8310765748031494
11
7.5462608267716531
21
-2.8335390551181101
0
LINE
8
User.Eco2
6
CONTINUOUS
10
7.5462608267716531
20
-2.8335390551181101
11
7.5418920866141734
21
-2.835067755905512
0
LINE
8
User.Eco2
6
CONTINUOUS
10
7.5418920866141734
20
-2.835067755905512
11
7.5378049212598421
21
-2.8355282677165352
0
LINE
8
User.Eco2
6
CONTINUOUS
10
7.5378049212598421
20
-2.8355282677165352
11
7.5377782283464567
21
-2.8355549999999998
0
LINE
8
User.Eco2
6
CONTINUOUS
10
7.5377782283464567
20
-2.8355549999999998
11
7.5374015748031491
21
-2.8356299212598426
0
LINE
8
User.Eco2
6
CONTINUOUS
10
7.5374015748031491
20
-2.8356299212598426
11
7.0255905511811019
21
-2.8356299212598426
0
LINE
8
User.Eco2
6
CONTINUOUS
10
7.0255905511811019
20
-2.8356299212598426
11
7.0209912204724407
21
-2.8351116929133857
0
LINE
8
User.Eco2
6
CONTINUOUS
10
7.0209912204724407
20
-2.8351116929133857
11
7.0166224803149602
21
-2.8335829921259843
0
LINE
8
User.Eco2
6
CONTINUOUS
10
7.0166224803149602
20
-2.8335829921259843
11
7.0127034645669291
21
-2.8311205118110236
0
LINE
8
User.Eco2
6
CONTINUOUS
10
7.0127034645669291
20
-2.8311205118110236
11
7.0094306692913388
21
-2.827847716535433
0
LINE
8
User.Eco2
6
CONTINUOUS
10
7.0094306692913388
20
-2.827847716535433
11
7.0069681889763782
21
-2.8239287007874014
0
LINE
8
User.Eco2
6
CONTINUOUS
10
7.0069681889763782
20
-2.8239287007874014
11
7.0054394881889763
21
-2.8195599606299213
0
LINE
8
User.Eco2
6
CONTINUOUS
10
7.0054394881889763
20
-2.8195599606299213
11
7.0049212598425195
21
-2.8149606299212597
0
LINE
8
User.Eco2
6
CONTINUOUS
10
7.0049212598425195
20
-2.8149606299212597
11
7.0049212598425195
21
-2.3031496062992125
0
LINE
8
User.Eco2
6
CONTINUOUS
10
7.0049212598425195
20
-2.3031496062992125
11
7.0054394881889763
21
-2.2985502755905509
0
LINE
8
User.Eco2
6
CONTINUOUS
10
7.0054394881889763
20
-2.2985502755905509
11
7.0069681889763782
21
-2.2941815354330708
0
LINE
8
User.Eco2
6
CONTINUOUS
10
7.0069681889763782
20
-2.2941815354330708
11
7.0094306692913388
21
-2.2902625196850392
0
LINE
8
User.Eco2
6
CONTINUOUS
10
7.0094306692913388
20
-2.2902625196850392
11
7.0127034645669291
21
-2.2869897244094486
0
LINE
8
User.Eco2
6
CONTINUOUS
10
7.0127034645669291
20
-2.2869897244094486
11
7.0166224803149602
21
-2.2845272440944879
0
LINE
8
User.Eco2
6
CONTINUOUS
10
7.0166224803149602
20
-2.2845272440944879
11
7.0209912204724407
21
-2.2829985433070865
0
LINE
8
User.Eco2
6
CONTINUOUS
10
7.0209912204724407
20
-2.2829985433070865
11
7.0255905511811019
21
-2.2824803149606301
0
LINE
8
User.Eco2
6
CONTINUOUS
10
7.0255905511811019
20
-2.2824803149606301
11
7.5374015748031491
21
-2.2824803149606301
0
LINE
8
User.Eco2
6
CONTINUOUS
10
7.0255905511811019
20
-2.284448818897638
11
7.0231285433070862
21
-2.284448818897638
0
LINE
8
User.Eco2
6
CONTINUOUS
10
7.0231285433070862
20
-2.284448818897638
11
7.0183723228346455
21
-2.2857232677165356
0
LINE
8
User.Eco2
6
CONTINUOUS
10
7.0183723228346455
20
-2.2857232677165356
11
7.0141079921259841
21
-2.2881852755905512
0
LINE
8
User.Eco2
6
CONTINUOUS
10
7.0141079921259841
20
-2.2881852755905512
11
7.0106262204724406
21
-2.2916670472440943
0
LINE
8
User.Eco2
6
CONTINUOUS
10
7.0106262204724406
20
-2.2916670472440943
11
7.0081642125984249
21
-2.2959313779527557
0
LINE
8
User.Eco2
6
CONTINUOUS
10
7.0081642125984249
20
-2.2959313779527557
11
7.0068897637795278
21
-2.3006875984251969
0
LINE
8
User.Eco2
6
CONTINUOUS
10
7.0068897637795278
20
-2.3006875984251969
11
7.0068897637795278
21
-2.3031496062992125
0
LINE
8
User.Eco2
6
CONTINUOUS
10
7.0068897637795278
20
-2.3031496062992125
11
7.0068897637795278
21
-2.8149606299212597
0
LINE
8
User.Eco2
6
CONTINUOUS
10
7.0068897637795278
20
-2.8149606299212597
11
7.0068897637795278
21
-2.8174226377952754
0
LINE
8
User.Eco2
6
CONTINUOUS
10
7.0068897637795278
20
-2.8174226377952754
11
7.0081642125984249
21
-2.8221788582677165
0
LINE
8
User.Eco2
6
CONTINUOUS
10
7.0081642125984249
20
-2.8221788582677165
11
7.0106262204724406
21
-2.8264431889763779
0
LINE
8
User.Eco2
6
CONTINUOUS
10
7.0106262204724406
20
-2.8264431889763779
11
7.0141079921259841
21
-2.829924960629921
0
LINE
8
User.Eco2
6
CONTINUOUS
10
7.0141079921259841
20
-2.829924960629921
11
7.0183723228346455
21
-2.8323869685039371
0
LINE
8
User.Eco2
6
CONTINUOUS
10
7.0183723228346455
20
-2.8323869685039371
11
7.0231285433070862
21
-2.8336614173228347
0
LINE
8
User.Eco2
6
CONTINUOUS
10
7.0231285433070862
20
-2.8336614173228347
11
7.0255905511811019
21
-2.8336614173228347
0
LINE
8
User.Eco2
6
CONTINUOUS
10
7.0255905511811019
20
-2.8336614173228347
11
7.5371575590551183
21
-2.8336614173228347
0
LINE
8
User.Eco2
6
CONTINUOUS
10
7.5371575590551183
20
-2.8336614173228347
11
7.5372927559055114
21
-2.8336174803149605
0
LINE
8
User.Eco2
6
CONTINUOUS
10
7.5372927559055114
20
-2.8336174803149605
11
7.539754763779527
21
-2.8336174803149605
0
LINE
8
User.Eco2
6
CONTINUOUS
10
7.539754763779527
20
-2.8336174803149605
11
7.5445109842519686
21
-2.8323430314960629
0
LINE
8
User.Eco2
6
CONTINUOUS
10
7.5445109842519686
20
-2.8323430314960629
11
7.54877531496063
21
-2.8298810236220473
0
LINE
8
User.Eco2
6
CONTINUOUS
10
7.54877531496063
20
-2.8298810236220473
11
7.5522570866141727
21
-2.8263992519685037
0
LINE
8
User.Eco2
6
CONTINUOUS
10
7.5522570866141727
20
-2.8263992519685037
11
7.5547190944881892
21
-2.8221349212598423
0
LINE
8
User.Eco2
6
CONTINUOUS
10
7.5547190944881892
20
-2.8221349212598423
11
7.5559935433070864
21
-2.8173787007874016
0
LINE
8
User.Eco2
6
CONTINUOUS
10
7.5559935433070864
20
-2.8173787007874016
11
7.5559935433070864
21
-2.814916692913386
0
LINE
8
User.Eco2
6
CONTINUOUS
10
7.5559935433070864
20
-2.814916692913386
11
7.5561023622047241
21
-2.8145817716535433
0
LINE
8
User.Eco2
6
CONTINUOUS
10
7.5561023622047241
20
-2.8145817716535433
11
7.5561023622047241
21
-2.3031496062992125
0
LINE
8
User.Eco2
6
CONTINUOUS
10
7.5561023622047241
20
-2.3031496062992125
11
7.5561023622047241
21
-2.3006875984251969
0
LINE
8
User.Eco2
6
CONTINUOUS
10
7.5561023622047241
20
-2.3006875984251969
11
7.5548279133858269
21
-2.2959313779527557
0
LINE
8
User.Eco2
6
CONTINUOUS
10
7.5548279133858269
20
-2.2959313779527557
11
7.5523659055118104
21
-2.2916670472440943
0
LINE
8
User.Eco2
6
CONTINUOUS
10
7.5523659055118104
20
-2.2916670472440943
11
7.5488841338582677
21
-2.2881852755905512
0
LINE
8
User.Eco2
6
CONTINUOUS
10
7.5488841338582677
20
-2.2881852755905512
11
7.5446198031496063
21
-2.2857232677165356
0
LINE
8
User.Eco2
6
CONTINUOUS
10
7.5446198031496063
20
-2.2857232677165356
11
7.5398635826771656
21
-2.284448818897638
0
LINE
8
User.Eco2
6
CONTINUOUS
10
7.5398635826771656
20
-2.284448818897638
11
7.5374015748031491
21
-2.284448818897638
0
LINE
8
User.Eco2
6
CONTINUOUS
10
7.5374015748031491
20
-2.284448818897638
11
7.0255905511811019
21
-2.284448818897638
  0
ENDSEC
  0
EOF
