%TF.GenerationSoftware,KiCad,Pcbnew,10.0.0*%
%TF.CreationDate,2026-03-31T22:34:40+07:00*%
%TF.ProjectId,deck module,6465636b-206d-46f6-9475-6c652e6b6963,rev?*%
%TF.SameCoordinates,Original*%
%TF.FileFunction,Legend,Bot*%
%TF.FilePolarity,Positive*%
%FSLAX46Y46*%
G04 Gerber Fmt 4.6, Leading zero omitted, Abs format (unit mm)*
G04 Created by KiCad (PCBNEW 10.0.0) date 2026-03-31 22:34:40*
%MOMM*%
%LPD*%
G01*
G04 APERTURE LIST*
%ADD10C,0.150000*%
%ADD11C,0.120000*%
G04 APERTURE END LIST*
D10*
X154334819Y-86451905D02*
X153334819Y-86451905D01*
X153334819Y-86451905D02*
X153334819Y-86690000D01*
X153334819Y-86690000D02*
X153382438Y-86832857D01*
X153382438Y-86832857D02*
X153477676Y-86928095D01*
X153477676Y-86928095D02*
X153572914Y-86975714D01*
X153572914Y-86975714D02*
X153763390Y-87023333D01*
X153763390Y-87023333D02*
X153906247Y-87023333D01*
X153906247Y-87023333D02*
X154096723Y-86975714D01*
X154096723Y-86975714D02*
X154191961Y-86928095D01*
X154191961Y-86928095D02*
X154287200Y-86832857D01*
X154287200Y-86832857D02*
X154334819Y-86690000D01*
X154334819Y-86690000D02*
X154334819Y-86451905D01*
X153334819Y-87356667D02*
X153334819Y-87975714D01*
X153334819Y-87975714D02*
X153715771Y-87642381D01*
X153715771Y-87642381D02*
X153715771Y-87785238D01*
X153715771Y-87785238D02*
X153763390Y-87880476D01*
X153763390Y-87880476D02*
X153811009Y-87928095D01*
X153811009Y-87928095D02*
X153906247Y-87975714D01*
X153906247Y-87975714D02*
X154144342Y-87975714D01*
X154144342Y-87975714D02*
X154239580Y-87928095D01*
X154239580Y-87928095D02*
X154287200Y-87880476D01*
X154287200Y-87880476D02*
X154334819Y-87785238D01*
X154334819Y-87785238D02*
X154334819Y-87499524D01*
X154334819Y-87499524D02*
X154287200Y-87404286D01*
X154287200Y-87404286D02*
X154239580Y-87356667D01*
X154654819Y-83118095D02*
X153654819Y-83118095D01*
X154654819Y-83689523D02*
X154083390Y-83260952D01*
X153654819Y-83689523D02*
X154226247Y-83118095D01*
X96334819Y-166785714D02*
X95334819Y-166785714D01*
X95334819Y-166785714D02*
X95334819Y-167023809D01*
X95334819Y-167023809D02*
X95382438Y-167166666D01*
X95382438Y-167166666D02*
X95477676Y-167261904D01*
X95477676Y-167261904D02*
X95572914Y-167309523D01*
X95572914Y-167309523D02*
X95763390Y-167357142D01*
X95763390Y-167357142D02*
X95906247Y-167357142D01*
X95906247Y-167357142D02*
X96096723Y-167309523D01*
X96096723Y-167309523D02*
X96191961Y-167261904D01*
X96191961Y-167261904D02*
X96287200Y-167166666D01*
X96287200Y-167166666D02*
X96334819Y-167023809D01*
X96334819Y-167023809D02*
X96334819Y-166785714D01*
X96334819Y-168309523D02*
X96334819Y-167738095D01*
X96334819Y-168023809D02*
X95334819Y-168023809D01*
X95334819Y-168023809D02*
X95477676Y-167928571D01*
X95477676Y-167928571D02*
X95572914Y-167833333D01*
X95572914Y-167833333D02*
X95620533Y-167738095D01*
X95334819Y-169166666D02*
X95334819Y-168976190D01*
X95334819Y-168976190D02*
X95382438Y-168880952D01*
X95382438Y-168880952D02*
X95430057Y-168833333D01*
X95430057Y-168833333D02*
X95572914Y-168738095D01*
X95572914Y-168738095D02*
X95763390Y-168690476D01*
X95763390Y-168690476D02*
X96144342Y-168690476D01*
X96144342Y-168690476D02*
X96239580Y-168738095D01*
X96239580Y-168738095D02*
X96287200Y-168785714D01*
X96287200Y-168785714D02*
X96334819Y-168880952D01*
X96334819Y-168880952D02*
X96334819Y-169071428D01*
X96334819Y-169071428D02*
X96287200Y-169166666D01*
X96287200Y-169166666D02*
X96239580Y-169214285D01*
X96239580Y-169214285D02*
X96144342Y-169261904D01*
X96144342Y-169261904D02*
X95906247Y-169261904D01*
X95906247Y-169261904D02*
X95811009Y-169214285D01*
X95811009Y-169214285D02*
X95763390Y-169166666D01*
X95763390Y-169166666D02*
X95715771Y-169071428D01*
X95715771Y-169071428D02*
X95715771Y-168880952D01*
X95715771Y-168880952D02*
X95763390Y-168785714D01*
X95763390Y-168785714D02*
X95811009Y-168738095D01*
X95811009Y-168738095D02*
X95906247Y-168690476D01*
X96654819Y-163928095D02*
X95654819Y-163928095D01*
X96654819Y-164499523D02*
X96083390Y-164070952D01*
X95654819Y-164499523D02*
X96226247Y-163928095D01*
X194334819Y-86261905D02*
X193334819Y-86261905D01*
X193334819Y-86261905D02*
X193334819Y-86500000D01*
X193334819Y-86500000D02*
X193382438Y-86642857D01*
X193382438Y-86642857D02*
X193477676Y-86738095D01*
X193477676Y-86738095D02*
X193572914Y-86785714D01*
X193572914Y-86785714D02*
X193763390Y-86833333D01*
X193763390Y-86833333D02*
X193906247Y-86833333D01*
X193906247Y-86833333D02*
X194096723Y-86785714D01*
X194096723Y-86785714D02*
X194191961Y-86738095D01*
X194191961Y-86738095D02*
X194287200Y-86642857D01*
X194287200Y-86642857D02*
X194334819Y-86500000D01*
X194334819Y-86500000D02*
X194334819Y-86261905D01*
X193668152Y-87690476D02*
X194334819Y-87690476D01*
X193287200Y-87452381D02*
X194001485Y-87214286D01*
X194001485Y-87214286D02*
X194001485Y-87833333D01*
X194654819Y-82928095D02*
X193654819Y-82928095D01*
X194654819Y-83499523D02*
X194083390Y-83070952D01*
X193654819Y-83499523D02*
X194226247Y-82928095D01*
X147334819Y-141785714D02*
X146334819Y-141785714D01*
X146334819Y-141785714D02*
X146334819Y-142023809D01*
X146334819Y-142023809D02*
X146382438Y-142166666D01*
X146382438Y-142166666D02*
X146477676Y-142261904D01*
X146477676Y-142261904D02*
X146572914Y-142309523D01*
X146572914Y-142309523D02*
X146763390Y-142357142D01*
X146763390Y-142357142D02*
X146906247Y-142357142D01*
X146906247Y-142357142D02*
X147096723Y-142309523D01*
X147096723Y-142309523D02*
X147191961Y-142261904D01*
X147191961Y-142261904D02*
X147287200Y-142166666D01*
X147287200Y-142166666D02*
X147334819Y-142023809D01*
X147334819Y-142023809D02*
X147334819Y-141785714D01*
X147334819Y-143309523D02*
X147334819Y-142738095D01*
X147334819Y-143023809D02*
X146334819Y-143023809D01*
X146334819Y-143023809D02*
X146477676Y-142928571D01*
X146477676Y-142928571D02*
X146572914Y-142833333D01*
X146572914Y-142833333D02*
X146620533Y-142738095D01*
X147334819Y-144261904D02*
X147334819Y-143690476D01*
X147334819Y-143976190D02*
X146334819Y-143976190D01*
X146334819Y-143976190D02*
X146477676Y-143880952D01*
X146477676Y-143880952D02*
X146572914Y-143785714D01*
X146572914Y-143785714D02*
X146620533Y-143690476D01*
X147654819Y-138928095D02*
X146654819Y-138928095D01*
X147654819Y-139499523D02*
X147083390Y-139070952D01*
X146654819Y-139499523D02*
X147226247Y-138928095D01*
X172334819Y-166785714D02*
X171334819Y-166785714D01*
X171334819Y-166785714D02*
X171334819Y-167023809D01*
X171334819Y-167023809D02*
X171382438Y-167166666D01*
X171382438Y-167166666D02*
X171477676Y-167261904D01*
X171477676Y-167261904D02*
X171572914Y-167309523D01*
X171572914Y-167309523D02*
X171763390Y-167357142D01*
X171763390Y-167357142D02*
X171906247Y-167357142D01*
X171906247Y-167357142D02*
X172096723Y-167309523D01*
X172096723Y-167309523D02*
X172191961Y-167261904D01*
X172191961Y-167261904D02*
X172287200Y-167166666D01*
X172287200Y-167166666D02*
X172334819Y-167023809D01*
X172334819Y-167023809D02*
X172334819Y-166785714D01*
X172334819Y-168309523D02*
X172334819Y-167738095D01*
X172334819Y-168023809D02*
X171334819Y-168023809D01*
X171334819Y-168023809D02*
X171477676Y-167928571D01*
X171477676Y-167928571D02*
X171572914Y-167833333D01*
X171572914Y-167833333D02*
X171620533Y-167738095D01*
X171334819Y-168642857D02*
X171334819Y-169261904D01*
X171334819Y-169261904D02*
X171715771Y-168928571D01*
X171715771Y-168928571D02*
X171715771Y-169071428D01*
X171715771Y-169071428D02*
X171763390Y-169166666D01*
X171763390Y-169166666D02*
X171811009Y-169214285D01*
X171811009Y-169214285D02*
X171906247Y-169261904D01*
X171906247Y-169261904D02*
X172144342Y-169261904D01*
X172144342Y-169261904D02*
X172239580Y-169214285D01*
X172239580Y-169214285D02*
X172287200Y-169166666D01*
X172287200Y-169166666D02*
X172334819Y-169071428D01*
X172334819Y-169071428D02*
X172334819Y-168785714D01*
X172334819Y-168785714D02*
X172287200Y-168690476D01*
X172287200Y-168690476D02*
X172239580Y-168642857D01*
X172654819Y-163928095D02*
X171654819Y-163928095D01*
X172654819Y-164499523D02*
X172083390Y-164070952D01*
X171654819Y-164499523D02*
X172226247Y-163928095D01*
X147334819Y-61975714D02*
X146334819Y-61975714D01*
X146334819Y-61975714D02*
X146334819Y-62213809D01*
X146334819Y-62213809D02*
X146382438Y-62356666D01*
X146382438Y-62356666D02*
X146477676Y-62451904D01*
X146477676Y-62451904D02*
X146572914Y-62499523D01*
X146572914Y-62499523D02*
X146763390Y-62547142D01*
X146763390Y-62547142D02*
X146906247Y-62547142D01*
X146906247Y-62547142D02*
X147096723Y-62499523D01*
X147096723Y-62499523D02*
X147191961Y-62451904D01*
X147191961Y-62451904D02*
X147287200Y-62356666D01*
X147287200Y-62356666D02*
X147334819Y-62213809D01*
X147334819Y-62213809D02*
X147334819Y-61975714D01*
X147334819Y-63499523D02*
X147334819Y-62928095D01*
X147334819Y-63213809D02*
X146334819Y-63213809D01*
X146334819Y-63213809D02*
X146477676Y-63118571D01*
X146477676Y-63118571D02*
X146572914Y-63023333D01*
X146572914Y-63023333D02*
X146620533Y-62928095D01*
X147334819Y-63975714D02*
X147334819Y-64166190D01*
X147334819Y-64166190D02*
X147287200Y-64261428D01*
X147287200Y-64261428D02*
X147239580Y-64309047D01*
X147239580Y-64309047D02*
X147096723Y-64404285D01*
X147096723Y-64404285D02*
X146906247Y-64451904D01*
X146906247Y-64451904D02*
X146525295Y-64451904D01*
X146525295Y-64451904D02*
X146430057Y-64404285D01*
X146430057Y-64404285D02*
X146382438Y-64356666D01*
X146382438Y-64356666D02*
X146334819Y-64261428D01*
X146334819Y-64261428D02*
X146334819Y-64070952D01*
X146334819Y-64070952D02*
X146382438Y-63975714D01*
X146382438Y-63975714D02*
X146430057Y-63928095D01*
X146430057Y-63928095D02*
X146525295Y-63880476D01*
X146525295Y-63880476D02*
X146763390Y-63880476D01*
X146763390Y-63880476D02*
X146858628Y-63928095D01*
X146858628Y-63928095D02*
X146906247Y-63975714D01*
X146906247Y-63975714D02*
X146953866Y-64070952D01*
X146953866Y-64070952D02*
X146953866Y-64261428D01*
X146953866Y-64261428D02*
X146906247Y-64356666D01*
X146906247Y-64356666D02*
X146858628Y-64404285D01*
X146858628Y-64404285D02*
X146763390Y-64451904D01*
X147654819Y-59118095D02*
X146654819Y-59118095D01*
X147654819Y-59689523D02*
X147083390Y-59260952D01*
X146654819Y-59689523D02*
X147226247Y-59118095D01*
X147334819Y-166785714D02*
X146334819Y-166785714D01*
X146334819Y-166785714D02*
X146334819Y-167023809D01*
X146334819Y-167023809D02*
X146382438Y-167166666D01*
X146382438Y-167166666D02*
X146477676Y-167261904D01*
X146477676Y-167261904D02*
X146572914Y-167309523D01*
X146572914Y-167309523D02*
X146763390Y-167357142D01*
X146763390Y-167357142D02*
X146906247Y-167357142D01*
X146906247Y-167357142D02*
X147096723Y-167309523D01*
X147096723Y-167309523D02*
X147191961Y-167261904D01*
X147191961Y-167261904D02*
X147287200Y-167166666D01*
X147287200Y-167166666D02*
X147334819Y-167023809D01*
X147334819Y-167023809D02*
X147334819Y-166785714D01*
X147334819Y-168309523D02*
X147334819Y-167738095D01*
X147334819Y-168023809D02*
X146334819Y-168023809D01*
X146334819Y-168023809D02*
X146477676Y-167928571D01*
X146477676Y-167928571D02*
X146572914Y-167833333D01*
X146572914Y-167833333D02*
X146620533Y-167738095D01*
X146668152Y-169166666D02*
X147334819Y-169166666D01*
X146287200Y-168928571D02*
X147001485Y-168690476D01*
X147001485Y-168690476D02*
X147001485Y-169309523D01*
X147654819Y-163928095D02*
X146654819Y-163928095D01*
X147654819Y-164499523D02*
X147083390Y-164070952D01*
X146654819Y-164499523D02*
X147226247Y-163928095D01*
X214166666Y-52039580D02*
X214214285Y-52087200D01*
X214214285Y-52087200D02*
X214357142Y-52134819D01*
X214357142Y-52134819D02*
X214452380Y-52134819D01*
X214452380Y-52134819D02*
X214595237Y-52087200D01*
X214595237Y-52087200D02*
X214690475Y-51991961D01*
X214690475Y-51991961D02*
X214738094Y-51896723D01*
X214738094Y-51896723D02*
X214785713Y-51706247D01*
X214785713Y-51706247D02*
X214785713Y-51563390D01*
X214785713Y-51563390D02*
X214738094Y-51372914D01*
X214738094Y-51372914D02*
X214690475Y-51277676D01*
X214690475Y-51277676D02*
X214595237Y-51182438D01*
X214595237Y-51182438D02*
X214452380Y-51134819D01*
X214452380Y-51134819D02*
X214357142Y-51134819D01*
X214357142Y-51134819D02*
X214214285Y-51182438D01*
X214214285Y-51182438D02*
X214166666Y-51230057D01*
X213214285Y-52134819D02*
X213785713Y-52134819D01*
X213499999Y-52134819D02*
X213499999Y-51134819D01*
X213499999Y-51134819D02*
X213595237Y-51277676D01*
X213595237Y-51277676D02*
X213690475Y-51372914D01*
X213690475Y-51372914D02*
X213785713Y-51420533D01*
X172334819Y-141785714D02*
X171334819Y-141785714D01*
X171334819Y-141785714D02*
X171334819Y-142023809D01*
X171334819Y-142023809D02*
X171382438Y-142166666D01*
X171382438Y-142166666D02*
X171477676Y-142261904D01*
X171477676Y-142261904D02*
X171572914Y-142309523D01*
X171572914Y-142309523D02*
X171763390Y-142357142D01*
X171763390Y-142357142D02*
X171906247Y-142357142D01*
X171906247Y-142357142D02*
X172096723Y-142309523D01*
X172096723Y-142309523D02*
X172191961Y-142261904D01*
X172191961Y-142261904D02*
X172287200Y-142166666D01*
X172287200Y-142166666D02*
X172334819Y-142023809D01*
X172334819Y-142023809D02*
X172334819Y-141785714D01*
X172334819Y-143309523D02*
X172334819Y-142738095D01*
X172334819Y-143023809D02*
X171334819Y-143023809D01*
X171334819Y-143023809D02*
X171477676Y-142928571D01*
X171477676Y-142928571D02*
X171572914Y-142833333D01*
X171572914Y-142833333D02*
X171620533Y-142738095D01*
X171430057Y-143690476D02*
X171382438Y-143738095D01*
X171382438Y-143738095D02*
X171334819Y-143833333D01*
X171334819Y-143833333D02*
X171334819Y-144071428D01*
X171334819Y-144071428D02*
X171382438Y-144166666D01*
X171382438Y-144166666D02*
X171430057Y-144214285D01*
X171430057Y-144214285D02*
X171525295Y-144261904D01*
X171525295Y-144261904D02*
X171620533Y-144261904D01*
X171620533Y-144261904D02*
X171763390Y-144214285D01*
X171763390Y-144214285D02*
X172334819Y-143642857D01*
X172334819Y-143642857D02*
X172334819Y-144261904D01*
X172654819Y-138928095D02*
X171654819Y-138928095D01*
X172654819Y-139499523D02*
X172083390Y-139070952D01*
X171654819Y-139499523D02*
X172226247Y-138928095D01*
X97334819Y-142261905D02*
X96334819Y-142261905D01*
X96334819Y-142261905D02*
X96334819Y-142500000D01*
X96334819Y-142500000D02*
X96382438Y-142642857D01*
X96382438Y-142642857D02*
X96477676Y-142738095D01*
X96477676Y-142738095D02*
X96572914Y-142785714D01*
X96572914Y-142785714D02*
X96763390Y-142833333D01*
X96763390Y-142833333D02*
X96906247Y-142833333D01*
X96906247Y-142833333D02*
X97096723Y-142785714D01*
X97096723Y-142785714D02*
X97191961Y-142738095D01*
X97191961Y-142738095D02*
X97287200Y-142642857D01*
X97287200Y-142642857D02*
X97334819Y-142500000D01*
X97334819Y-142500000D02*
X97334819Y-142261905D01*
X97334819Y-143309524D02*
X97334819Y-143500000D01*
X97334819Y-143500000D02*
X97287200Y-143595238D01*
X97287200Y-143595238D02*
X97239580Y-143642857D01*
X97239580Y-143642857D02*
X97096723Y-143738095D01*
X97096723Y-143738095D02*
X96906247Y-143785714D01*
X96906247Y-143785714D02*
X96525295Y-143785714D01*
X96525295Y-143785714D02*
X96430057Y-143738095D01*
X96430057Y-143738095D02*
X96382438Y-143690476D01*
X96382438Y-143690476D02*
X96334819Y-143595238D01*
X96334819Y-143595238D02*
X96334819Y-143404762D01*
X96334819Y-143404762D02*
X96382438Y-143309524D01*
X96382438Y-143309524D02*
X96430057Y-143261905D01*
X96430057Y-143261905D02*
X96525295Y-143214286D01*
X96525295Y-143214286D02*
X96763390Y-143214286D01*
X96763390Y-143214286D02*
X96858628Y-143261905D01*
X96858628Y-143261905D02*
X96906247Y-143309524D01*
X96906247Y-143309524D02*
X96953866Y-143404762D01*
X96953866Y-143404762D02*
X96953866Y-143595238D01*
X96953866Y-143595238D02*
X96906247Y-143690476D01*
X96906247Y-143690476D02*
X96858628Y-143738095D01*
X96858628Y-143738095D02*
X96763390Y-143785714D01*
X97654819Y-138928095D02*
X96654819Y-138928095D01*
X97654819Y-139499523D02*
X97083390Y-139070952D01*
X96654819Y-139499523D02*
X97226247Y-138928095D01*
X122334819Y-61975714D02*
X121334819Y-61975714D01*
X121334819Y-61975714D02*
X121334819Y-62213809D01*
X121334819Y-62213809D02*
X121382438Y-62356666D01*
X121382438Y-62356666D02*
X121477676Y-62451904D01*
X121477676Y-62451904D02*
X121572914Y-62499523D01*
X121572914Y-62499523D02*
X121763390Y-62547142D01*
X121763390Y-62547142D02*
X121906247Y-62547142D01*
X121906247Y-62547142D02*
X122096723Y-62499523D01*
X122096723Y-62499523D02*
X122191961Y-62451904D01*
X122191961Y-62451904D02*
X122287200Y-62356666D01*
X122287200Y-62356666D02*
X122334819Y-62213809D01*
X122334819Y-62213809D02*
X122334819Y-61975714D01*
X122334819Y-63499523D02*
X122334819Y-62928095D01*
X122334819Y-63213809D02*
X121334819Y-63213809D01*
X121334819Y-63213809D02*
X121477676Y-63118571D01*
X121477676Y-63118571D02*
X121572914Y-63023333D01*
X121572914Y-63023333D02*
X121620533Y-62928095D01*
X121763390Y-64070952D02*
X121715771Y-63975714D01*
X121715771Y-63975714D02*
X121668152Y-63928095D01*
X121668152Y-63928095D02*
X121572914Y-63880476D01*
X121572914Y-63880476D02*
X121525295Y-63880476D01*
X121525295Y-63880476D02*
X121430057Y-63928095D01*
X121430057Y-63928095D02*
X121382438Y-63975714D01*
X121382438Y-63975714D02*
X121334819Y-64070952D01*
X121334819Y-64070952D02*
X121334819Y-64261428D01*
X121334819Y-64261428D02*
X121382438Y-64356666D01*
X121382438Y-64356666D02*
X121430057Y-64404285D01*
X121430057Y-64404285D02*
X121525295Y-64451904D01*
X121525295Y-64451904D02*
X121572914Y-64451904D01*
X121572914Y-64451904D02*
X121668152Y-64404285D01*
X121668152Y-64404285D02*
X121715771Y-64356666D01*
X121715771Y-64356666D02*
X121763390Y-64261428D01*
X121763390Y-64261428D02*
X121763390Y-64070952D01*
X121763390Y-64070952D02*
X121811009Y-63975714D01*
X121811009Y-63975714D02*
X121858628Y-63928095D01*
X121858628Y-63928095D02*
X121953866Y-63880476D01*
X121953866Y-63880476D02*
X122144342Y-63880476D01*
X122144342Y-63880476D02*
X122239580Y-63928095D01*
X122239580Y-63928095D02*
X122287200Y-63975714D01*
X122287200Y-63975714D02*
X122334819Y-64070952D01*
X122334819Y-64070952D02*
X122334819Y-64261428D01*
X122334819Y-64261428D02*
X122287200Y-64356666D01*
X122287200Y-64356666D02*
X122239580Y-64404285D01*
X122239580Y-64404285D02*
X122144342Y-64451904D01*
X122144342Y-64451904D02*
X121953866Y-64451904D01*
X121953866Y-64451904D02*
X121858628Y-64404285D01*
X121858628Y-64404285D02*
X121811009Y-64356666D01*
X121811009Y-64356666D02*
X121763390Y-64261428D01*
X122654819Y-59118095D02*
X121654819Y-59118095D01*
X122654819Y-59689523D02*
X122083390Y-59260952D01*
X121654819Y-59689523D02*
X122226247Y-59118095D01*
X172334819Y-61975714D02*
X171334819Y-61975714D01*
X171334819Y-61975714D02*
X171334819Y-62213809D01*
X171334819Y-62213809D02*
X171382438Y-62356666D01*
X171382438Y-62356666D02*
X171477676Y-62451904D01*
X171477676Y-62451904D02*
X171572914Y-62499523D01*
X171572914Y-62499523D02*
X171763390Y-62547142D01*
X171763390Y-62547142D02*
X171906247Y-62547142D01*
X171906247Y-62547142D02*
X172096723Y-62499523D01*
X172096723Y-62499523D02*
X172191961Y-62451904D01*
X172191961Y-62451904D02*
X172287200Y-62356666D01*
X172287200Y-62356666D02*
X172334819Y-62213809D01*
X172334819Y-62213809D02*
X172334819Y-61975714D01*
X171430057Y-62928095D02*
X171382438Y-62975714D01*
X171382438Y-62975714D02*
X171334819Y-63070952D01*
X171334819Y-63070952D02*
X171334819Y-63309047D01*
X171334819Y-63309047D02*
X171382438Y-63404285D01*
X171382438Y-63404285D02*
X171430057Y-63451904D01*
X171430057Y-63451904D02*
X171525295Y-63499523D01*
X171525295Y-63499523D02*
X171620533Y-63499523D01*
X171620533Y-63499523D02*
X171763390Y-63451904D01*
X171763390Y-63451904D02*
X172334819Y-62880476D01*
X172334819Y-62880476D02*
X172334819Y-63499523D01*
X171334819Y-64118571D02*
X171334819Y-64213809D01*
X171334819Y-64213809D02*
X171382438Y-64309047D01*
X171382438Y-64309047D02*
X171430057Y-64356666D01*
X171430057Y-64356666D02*
X171525295Y-64404285D01*
X171525295Y-64404285D02*
X171715771Y-64451904D01*
X171715771Y-64451904D02*
X171953866Y-64451904D01*
X171953866Y-64451904D02*
X172144342Y-64404285D01*
X172144342Y-64404285D02*
X172239580Y-64356666D01*
X172239580Y-64356666D02*
X172287200Y-64309047D01*
X172287200Y-64309047D02*
X172334819Y-64213809D01*
X172334819Y-64213809D02*
X172334819Y-64118571D01*
X172334819Y-64118571D02*
X172287200Y-64023333D01*
X172287200Y-64023333D02*
X172239580Y-63975714D01*
X172239580Y-63975714D02*
X172144342Y-63928095D01*
X172144342Y-63928095D02*
X171953866Y-63880476D01*
X171953866Y-63880476D02*
X171715771Y-63880476D01*
X171715771Y-63880476D02*
X171525295Y-63928095D01*
X171525295Y-63928095D02*
X171430057Y-63975714D01*
X171430057Y-63975714D02*
X171382438Y-64023333D01*
X171382438Y-64023333D02*
X171334819Y-64118571D01*
X172654819Y-59118095D02*
X171654819Y-59118095D01*
X172654819Y-59689523D02*
X172083390Y-59260952D01*
X171654819Y-59689523D02*
X172226247Y-59118095D01*
X119334819Y-20451905D02*
X118334819Y-20451905D01*
X118334819Y-20451905D02*
X118334819Y-20690000D01*
X118334819Y-20690000D02*
X118382438Y-20832857D01*
X118382438Y-20832857D02*
X118477676Y-20928095D01*
X118477676Y-20928095D02*
X118572914Y-20975714D01*
X118572914Y-20975714D02*
X118763390Y-21023333D01*
X118763390Y-21023333D02*
X118906247Y-21023333D01*
X118906247Y-21023333D02*
X119096723Y-20975714D01*
X119096723Y-20975714D02*
X119191961Y-20928095D01*
X119191961Y-20928095D02*
X119287200Y-20832857D01*
X119287200Y-20832857D02*
X119334819Y-20690000D01*
X119334819Y-20690000D02*
X119334819Y-20451905D01*
X118430057Y-21404286D02*
X118382438Y-21451905D01*
X118382438Y-21451905D02*
X118334819Y-21547143D01*
X118334819Y-21547143D02*
X118334819Y-21785238D01*
X118334819Y-21785238D02*
X118382438Y-21880476D01*
X118382438Y-21880476D02*
X118430057Y-21928095D01*
X118430057Y-21928095D02*
X118525295Y-21975714D01*
X118525295Y-21975714D02*
X118620533Y-21975714D01*
X118620533Y-21975714D02*
X118763390Y-21928095D01*
X118763390Y-21928095D02*
X119334819Y-21356667D01*
X119334819Y-21356667D02*
X119334819Y-21975714D01*
X119654819Y-17118095D02*
X118654819Y-17118095D01*
X119654819Y-17689523D02*
X119083390Y-17260952D01*
X118654819Y-17689523D02*
X119226247Y-17118095D01*
X215679580Y-32833333D02*
X215727200Y-32785714D01*
X215727200Y-32785714D02*
X215774819Y-32642857D01*
X215774819Y-32642857D02*
X215774819Y-32547619D01*
X215774819Y-32547619D02*
X215727200Y-32404762D01*
X215727200Y-32404762D02*
X215631961Y-32309524D01*
X215631961Y-32309524D02*
X215536723Y-32261905D01*
X215536723Y-32261905D02*
X215346247Y-32214286D01*
X215346247Y-32214286D02*
X215203390Y-32214286D01*
X215203390Y-32214286D02*
X215012914Y-32261905D01*
X215012914Y-32261905D02*
X214917676Y-32309524D01*
X214917676Y-32309524D02*
X214822438Y-32404762D01*
X214822438Y-32404762D02*
X214774819Y-32547619D01*
X214774819Y-32547619D02*
X214774819Y-32642857D01*
X214774819Y-32642857D02*
X214822438Y-32785714D01*
X214822438Y-32785714D02*
X214870057Y-32833333D01*
X214870057Y-33214286D02*
X214822438Y-33261905D01*
X214822438Y-33261905D02*
X214774819Y-33357143D01*
X214774819Y-33357143D02*
X214774819Y-33595238D01*
X214774819Y-33595238D02*
X214822438Y-33690476D01*
X214822438Y-33690476D02*
X214870057Y-33738095D01*
X214870057Y-33738095D02*
X214965295Y-33785714D01*
X214965295Y-33785714D02*
X215060533Y-33785714D01*
X215060533Y-33785714D02*
X215203390Y-33738095D01*
X215203390Y-33738095D02*
X215774819Y-33166667D01*
X215774819Y-33166667D02*
X215774819Y-33785714D01*
X147334819Y-112451905D02*
X146334819Y-112451905D01*
X146334819Y-112451905D02*
X146334819Y-112690000D01*
X146334819Y-112690000D02*
X146382438Y-112832857D01*
X146382438Y-112832857D02*
X146477676Y-112928095D01*
X146477676Y-112928095D02*
X146572914Y-112975714D01*
X146572914Y-112975714D02*
X146763390Y-113023333D01*
X146763390Y-113023333D02*
X146906247Y-113023333D01*
X146906247Y-113023333D02*
X147096723Y-112975714D01*
X147096723Y-112975714D02*
X147191961Y-112928095D01*
X147191961Y-112928095D02*
X147287200Y-112832857D01*
X147287200Y-112832857D02*
X147334819Y-112690000D01*
X147334819Y-112690000D02*
X147334819Y-112451905D01*
X146334819Y-113880476D02*
X146334819Y-113690000D01*
X146334819Y-113690000D02*
X146382438Y-113594762D01*
X146382438Y-113594762D02*
X146430057Y-113547143D01*
X146430057Y-113547143D02*
X146572914Y-113451905D01*
X146572914Y-113451905D02*
X146763390Y-113404286D01*
X146763390Y-113404286D02*
X147144342Y-113404286D01*
X147144342Y-113404286D02*
X147239580Y-113451905D01*
X147239580Y-113451905D02*
X147287200Y-113499524D01*
X147287200Y-113499524D02*
X147334819Y-113594762D01*
X147334819Y-113594762D02*
X147334819Y-113785238D01*
X147334819Y-113785238D02*
X147287200Y-113880476D01*
X147287200Y-113880476D02*
X147239580Y-113928095D01*
X147239580Y-113928095D02*
X147144342Y-113975714D01*
X147144342Y-113975714D02*
X146906247Y-113975714D01*
X146906247Y-113975714D02*
X146811009Y-113928095D01*
X146811009Y-113928095D02*
X146763390Y-113880476D01*
X146763390Y-113880476D02*
X146715771Y-113785238D01*
X146715771Y-113785238D02*
X146715771Y-113594762D01*
X146715771Y-113594762D02*
X146763390Y-113499524D01*
X146763390Y-113499524D02*
X146811009Y-113451905D01*
X146811009Y-113451905D02*
X146906247Y-113404286D01*
X147654819Y-109118095D02*
X146654819Y-109118095D01*
X147654819Y-109689523D02*
X147083390Y-109260952D01*
X146654819Y-109689523D02*
X147226247Y-109118095D01*
X122334819Y-166785714D02*
X121334819Y-166785714D01*
X121334819Y-166785714D02*
X121334819Y-167023809D01*
X121334819Y-167023809D02*
X121382438Y-167166666D01*
X121382438Y-167166666D02*
X121477676Y-167261904D01*
X121477676Y-167261904D02*
X121572914Y-167309523D01*
X121572914Y-167309523D02*
X121763390Y-167357142D01*
X121763390Y-167357142D02*
X121906247Y-167357142D01*
X121906247Y-167357142D02*
X122096723Y-167309523D01*
X122096723Y-167309523D02*
X122191961Y-167261904D01*
X122191961Y-167261904D02*
X122287200Y-167166666D01*
X122287200Y-167166666D02*
X122334819Y-167023809D01*
X122334819Y-167023809D02*
X122334819Y-166785714D01*
X122334819Y-168309523D02*
X122334819Y-167738095D01*
X122334819Y-168023809D02*
X121334819Y-168023809D01*
X121334819Y-168023809D02*
X121477676Y-167928571D01*
X121477676Y-167928571D02*
X121572914Y-167833333D01*
X121572914Y-167833333D02*
X121620533Y-167738095D01*
X121334819Y-169214285D02*
X121334819Y-168738095D01*
X121334819Y-168738095D02*
X121811009Y-168690476D01*
X121811009Y-168690476D02*
X121763390Y-168738095D01*
X121763390Y-168738095D02*
X121715771Y-168833333D01*
X121715771Y-168833333D02*
X121715771Y-169071428D01*
X121715771Y-169071428D02*
X121763390Y-169166666D01*
X121763390Y-169166666D02*
X121811009Y-169214285D01*
X121811009Y-169214285D02*
X121906247Y-169261904D01*
X121906247Y-169261904D02*
X122144342Y-169261904D01*
X122144342Y-169261904D02*
X122239580Y-169214285D01*
X122239580Y-169214285D02*
X122287200Y-169166666D01*
X122287200Y-169166666D02*
X122334819Y-169071428D01*
X122334819Y-169071428D02*
X122334819Y-168833333D01*
X122334819Y-168833333D02*
X122287200Y-168738095D01*
X122287200Y-168738095D02*
X122239580Y-168690476D01*
X122654819Y-163928095D02*
X121654819Y-163928095D01*
X122654819Y-164499523D02*
X122083390Y-164070952D01*
X121654819Y-164499523D02*
X122226247Y-163928095D01*
X172334819Y-112451905D02*
X171334819Y-112451905D01*
X171334819Y-112451905D02*
X171334819Y-112690000D01*
X171334819Y-112690000D02*
X171382438Y-112832857D01*
X171382438Y-112832857D02*
X171477676Y-112928095D01*
X171477676Y-112928095D02*
X171572914Y-112975714D01*
X171572914Y-112975714D02*
X171763390Y-113023333D01*
X171763390Y-113023333D02*
X171906247Y-113023333D01*
X171906247Y-113023333D02*
X172096723Y-112975714D01*
X172096723Y-112975714D02*
X172191961Y-112928095D01*
X172191961Y-112928095D02*
X172287200Y-112832857D01*
X172287200Y-112832857D02*
X172334819Y-112690000D01*
X172334819Y-112690000D02*
X172334819Y-112451905D01*
X171334819Y-113928095D02*
X171334819Y-113451905D01*
X171334819Y-113451905D02*
X171811009Y-113404286D01*
X171811009Y-113404286D02*
X171763390Y-113451905D01*
X171763390Y-113451905D02*
X171715771Y-113547143D01*
X171715771Y-113547143D02*
X171715771Y-113785238D01*
X171715771Y-113785238D02*
X171763390Y-113880476D01*
X171763390Y-113880476D02*
X171811009Y-113928095D01*
X171811009Y-113928095D02*
X171906247Y-113975714D01*
X171906247Y-113975714D02*
X172144342Y-113975714D01*
X172144342Y-113975714D02*
X172239580Y-113928095D01*
X172239580Y-113928095D02*
X172287200Y-113880476D01*
X172287200Y-113880476D02*
X172334819Y-113785238D01*
X172334819Y-113785238D02*
X172334819Y-113547143D01*
X172334819Y-113547143D02*
X172287200Y-113451905D01*
X172287200Y-113451905D02*
X172239580Y-113404286D01*
X172654819Y-109118095D02*
X171654819Y-109118095D01*
X172654819Y-109689523D02*
X172083390Y-109260952D01*
X171654819Y-109689523D02*
X172226247Y-109118095D01*
X122334819Y-112451905D02*
X121334819Y-112451905D01*
X121334819Y-112451905D02*
X121334819Y-112690000D01*
X121334819Y-112690000D02*
X121382438Y-112832857D01*
X121382438Y-112832857D02*
X121477676Y-112928095D01*
X121477676Y-112928095D02*
X121572914Y-112975714D01*
X121572914Y-112975714D02*
X121763390Y-113023333D01*
X121763390Y-113023333D02*
X121906247Y-113023333D01*
X121906247Y-113023333D02*
X122096723Y-112975714D01*
X122096723Y-112975714D02*
X122191961Y-112928095D01*
X122191961Y-112928095D02*
X122287200Y-112832857D01*
X122287200Y-112832857D02*
X122334819Y-112690000D01*
X122334819Y-112690000D02*
X122334819Y-112451905D01*
X121334819Y-113356667D02*
X121334819Y-114023333D01*
X121334819Y-114023333D02*
X122334819Y-113594762D01*
X122654819Y-109118095D02*
X121654819Y-109118095D01*
X122654819Y-109689523D02*
X122083390Y-109260952D01*
X121654819Y-109689523D02*
X122226247Y-109118095D01*
X122334819Y-141785714D02*
X121334819Y-141785714D01*
X121334819Y-141785714D02*
X121334819Y-142023809D01*
X121334819Y-142023809D02*
X121382438Y-142166666D01*
X121382438Y-142166666D02*
X121477676Y-142261904D01*
X121477676Y-142261904D02*
X121572914Y-142309523D01*
X121572914Y-142309523D02*
X121763390Y-142357142D01*
X121763390Y-142357142D02*
X121906247Y-142357142D01*
X121906247Y-142357142D02*
X122096723Y-142309523D01*
X122096723Y-142309523D02*
X122191961Y-142261904D01*
X122191961Y-142261904D02*
X122287200Y-142166666D01*
X122287200Y-142166666D02*
X122334819Y-142023809D01*
X122334819Y-142023809D02*
X122334819Y-141785714D01*
X122334819Y-143309523D02*
X122334819Y-142738095D01*
X122334819Y-143023809D02*
X121334819Y-143023809D01*
X121334819Y-143023809D02*
X121477676Y-142928571D01*
X121477676Y-142928571D02*
X121572914Y-142833333D01*
X121572914Y-142833333D02*
X121620533Y-142738095D01*
X121334819Y-143928571D02*
X121334819Y-144023809D01*
X121334819Y-144023809D02*
X121382438Y-144119047D01*
X121382438Y-144119047D02*
X121430057Y-144166666D01*
X121430057Y-144166666D02*
X121525295Y-144214285D01*
X121525295Y-144214285D02*
X121715771Y-144261904D01*
X121715771Y-144261904D02*
X121953866Y-144261904D01*
X121953866Y-144261904D02*
X122144342Y-144214285D01*
X122144342Y-144214285D02*
X122239580Y-144166666D01*
X122239580Y-144166666D02*
X122287200Y-144119047D01*
X122287200Y-144119047D02*
X122334819Y-144023809D01*
X122334819Y-144023809D02*
X122334819Y-143928571D01*
X122334819Y-143928571D02*
X122287200Y-143833333D01*
X122287200Y-143833333D02*
X122239580Y-143785714D01*
X122239580Y-143785714D02*
X122144342Y-143738095D01*
X122144342Y-143738095D02*
X121953866Y-143690476D01*
X121953866Y-143690476D02*
X121715771Y-143690476D01*
X121715771Y-143690476D02*
X121525295Y-143738095D01*
X121525295Y-143738095D02*
X121430057Y-143785714D01*
X121430057Y-143785714D02*
X121382438Y-143833333D01*
X121382438Y-143833333D02*
X121334819Y-143928571D01*
X122654819Y-138928095D02*
X121654819Y-138928095D01*
X122654819Y-139499523D02*
X122083390Y-139070952D01*
X121654819Y-139499523D02*
X122226247Y-138928095D01*
X97334819Y-61975714D02*
X96334819Y-61975714D01*
X96334819Y-61975714D02*
X96334819Y-62213809D01*
X96334819Y-62213809D02*
X96382438Y-62356666D01*
X96382438Y-62356666D02*
X96477676Y-62451904D01*
X96477676Y-62451904D02*
X96572914Y-62499523D01*
X96572914Y-62499523D02*
X96763390Y-62547142D01*
X96763390Y-62547142D02*
X96906247Y-62547142D01*
X96906247Y-62547142D02*
X97096723Y-62499523D01*
X97096723Y-62499523D02*
X97191961Y-62451904D01*
X97191961Y-62451904D02*
X97287200Y-62356666D01*
X97287200Y-62356666D02*
X97334819Y-62213809D01*
X97334819Y-62213809D02*
X97334819Y-61975714D01*
X97334819Y-63499523D02*
X97334819Y-62928095D01*
X97334819Y-63213809D02*
X96334819Y-63213809D01*
X96334819Y-63213809D02*
X96477676Y-63118571D01*
X96477676Y-63118571D02*
X96572914Y-63023333D01*
X96572914Y-63023333D02*
X96620533Y-62928095D01*
X96334819Y-63832857D02*
X96334819Y-64499523D01*
X96334819Y-64499523D02*
X97334819Y-64070952D01*
X97654819Y-59118095D02*
X96654819Y-59118095D01*
X97654819Y-59689523D02*
X97083390Y-59260952D01*
X96654819Y-59689523D02*
X97226247Y-59118095D01*
X97334819Y-112261905D02*
X96334819Y-112261905D01*
X96334819Y-112261905D02*
X96334819Y-112500000D01*
X96334819Y-112500000D02*
X96382438Y-112642857D01*
X96382438Y-112642857D02*
X96477676Y-112738095D01*
X96477676Y-112738095D02*
X96572914Y-112785714D01*
X96572914Y-112785714D02*
X96763390Y-112833333D01*
X96763390Y-112833333D02*
X96906247Y-112833333D01*
X96906247Y-112833333D02*
X97096723Y-112785714D01*
X97096723Y-112785714D02*
X97191961Y-112738095D01*
X97191961Y-112738095D02*
X97287200Y-112642857D01*
X97287200Y-112642857D02*
X97334819Y-112500000D01*
X97334819Y-112500000D02*
X97334819Y-112261905D01*
X96763390Y-113404762D02*
X96715771Y-113309524D01*
X96715771Y-113309524D02*
X96668152Y-113261905D01*
X96668152Y-113261905D02*
X96572914Y-113214286D01*
X96572914Y-113214286D02*
X96525295Y-113214286D01*
X96525295Y-113214286D02*
X96430057Y-113261905D01*
X96430057Y-113261905D02*
X96382438Y-113309524D01*
X96382438Y-113309524D02*
X96334819Y-113404762D01*
X96334819Y-113404762D02*
X96334819Y-113595238D01*
X96334819Y-113595238D02*
X96382438Y-113690476D01*
X96382438Y-113690476D02*
X96430057Y-113738095D01*
X96430057Y-113738095D02*
X96525295Y-113785714D01*
X96525295Y-113785714D02*
X96572914Y-113785714D01*
X96572914Y-113785714D02*
X96668152Y-113738095D01*
X96668152Y-113738095D02*
X96715771Y-113690476D01*
X96715771Y-113690476D02*
X96763390Y-113595238D01*
X96763390Y-113595238D02*
X96763390Y-113404762D01*
X96763390Y-113404762D02*
X96811009Y-113309524D01*
X96811009Y-113309524D02*
X96858628Y-113261905D01*
X96858628Y-113261905D02*
X96953866Y-113214286D01*
X96953866Y-113214286D02*
X97144342Y-113214286D01*
X97144342Y-113214286D02*
X97239580Y-113261905D01*
X97239580Y-113261905D02*
X97287200Y-113309524D01*
X97287200Y-113309524D02*
X97334819Y-113404762D01*
X97334819Y-113404762D02*
X97334819Y-113595238D01*
X97334819Y-113595238D02*
X97287200Y-113690476D01*
X97287200Y-113690476D02*
X97239580Y-113738095D01*
X97239580Y-113738095D02*
X97144342Y-113785714D01*
X97144342Y-113785714D02*
X96953866Y-113785714D01*
X96953866Y-113785714D02*
X96858628Y-113738095D01*
X96858628Y-113738095D02*
X96811009Y-113690476D01*
X96811009Y-113690476D02*
X96763390Y-113595238D01*
X97654819Y-108928095D02*
X96654819Y-108928095D01*
X97654819Y-109499523D02*
X97083390Y-109070952D01*
X96654819Y-109499523D02*
X97226247Y-108928095D01*
X97334819Y-87261905D02*
X96334819Y-87261905D01*
X96334819Y-87261905D02*
X96334819Y-87500000D01*
X96334819Y-87500000D02*
X96382438Y-87642857D01*
X96382438Y-87642857D02*
X96477676Y-87738095D01*
X96477676Y-87738095D02*
X96572914Y-87785714D01*
X96572914Y-87785714D02*
X96763390Y-87833333D01*
X96763390Y-87833333D02*
X96906247Y-87833333D01*
X96906247Y-87833333D02*
X97096723Y-87785714D01*
X97096723Y-87785714D02*
X97191961Y-87738095D01*
X97191961Y-87738095D02*
X97287200Y-87642857D01*
X97287200Y-87642857D02*
X97334819Y-87500000D01*
X97334819Y-87500000D02*
X97334819Y-87261905D01*
X97334819Y-88785714D02*
X97334819Y-88214286D01*
X97334819Y-88500000D02*
X96334819Y-88500000D01*
X96334819Y-88500000D02*
X96477676Y-88404762D01*
X96477676Y-88404762D02*
X96572914Y-88309524D01*
X96572914Y-88309524D02*
X96620533Y-88214286D01*
X97654819Y-83928095D02*
X96654819Y-83928095D01*
X97654819Y-84499523D02*
X97083390Y-84070952D01*
X96654819Y-84499523D02*
X97226247Y-83928095D01*
%TO.C,D3*%
D11*
X154880000Y-85670000D02*
X157120000Y-85670000D01*
X154880000Y-85790000D02*
X157120000Y-85790000D01*
X154880000Y-85910000D02*
X157120000Y-85910000D01*
X156000000Y-84420000D02*
X156000000Y-85070000D01*
X156000000Y-89960000D02*
X156000000Y-89310000D01*
X154880000Y-85070000D02*
X157120000Y-85070000D01*
X157120000Y-89310000D01*
X154880000Y-89310000D01*
X154880000Y-85070000D01*
%TO.C,D16*%
X96880000Y-166480000D02*
X99120000Y-166480000D01*
X96880000Y-166600000D02*
X99120000Y-166600000D01*
X96880000Y-166720000D02*
X99120000Y-166720000D01*
X98000000Y-165230000D02*
X98000000Y-165880000D01*
X98000000Y-170770000D02*
X98000000Y-170120000D01*
X96880000Y-165880000D02*
X99120000Y-165880000D01*
X99120000Y-170120000D01*
X96880000Y-170120000D01*
X96880000Y-165880000D01*
%TO.C,D4*%
X194880000Y-85480000D02*
X197120000Y-85480000D01*
X194880000Y-85600000D02*
X197120000Y-85600000D01*
X194880000Y-85720000D02*
X197120000Y-85720000D01*
X196000000Y-84230000D02*
X196000000Y-84880000D01*
X196000000Y-89770000D02*
X196000000Y-89120000D01*
X194880000Y-84880000D02*
X197120000Y-84880000D01*
X197120000Y-89120000D01*
X194880000Y-89120000D01*
X194880000Y-84880000D01*
%TO.C,D11*%
X147880000Y-141480000D02*
X150120000Y-141480000D01*
X147880000Y-141600000D02*
X150120000Y-141600000D01*
X147880000Y-141720000D02*
X150120000Y-141720000D01*
X149000000Y-140230000D02*
X149000000Y-140880000D01*
X149000000Y-145770000D02*
X149000000Y-145120000D01*
X147880000Y-140880000D02*
X150120000Y-140880000D01*
X150120000Y-145120000D01*
X147880000Y-145120000D01*
X147880000Y-140880000D01*
%TO.C,D13*%
X172880000Y-166480000D02*
X175120000Y-166480000D01*
X172880000Y-166600000D02*
X175120000Y-166600000D01*
X172880000Y-166720000D02*
X175120000Y-166720000D01*
X174000000Y-165230000D02*
X174000000Y-165880000D01*
X174000000Y-170770000D02*
X174000000Y-170120000D01*
X172880000Y-165880000D02*
X175120000Y-165880000D01*
X175120000Y-170120000D01*
X172880000Y-170120000D01*
X172880000Y-165880000D01*
%TO.C,D19*%
X147880000Y-61670000D02*
X150120000Y-61670000D01*
X147880000Y-61790000D02*
X150120000Y-61790000D01*
X147880000Y-61910000D02*
X150120000Y-61910000D01*
X149000000Y-60420000D02*
X149000000Y-61070000D01*
X149000000Y-65960000D02*
X149000000Y-65310000D01*
X147880000Y-61070000D02*
X150120000Y-61070000D01*
X150120000Y-65310000D01*
X147880000Y-65310000D01*
X147880000Y-61070000D01*
%TO.C,D14*%
X147880000Y-166480000D02*
X150120000Y-166480000D01*
X147880000Y-166600000D02*
X150120000Y-166600000D01*
X147880000Y-166720000D02*
X150120000Y-166720000D01*
X149000000Y-165230000D02*
X149000000Y-165880000D01*
X149000000Y-170770000D02*
X149000000Y-170120000D01*
X147880000Y-165880000D02*
X150120000Y-165880000D01*
X150120000Y-170120000D01*
X147880000Y-170120000D01*
X147880000Y-165880000D01*
%TO.C,C1*%
X213738748Y-49265000D02*
X214261252Y-49265000D01*
X213738748Y-50735000D02*
X214261252Y-50735000D01*
%TO.C,D12*%
X172880000Y-141480000D02*
X175120000Y-141480000D01*
X172880000Y-141600000D02*
X175120000Y-141600000D01*
X172880000Y-141720000D02*
X175120000Y-141720000D01*
X174000000Y-140230000D02*
X174000000Y-140880000D01*
X174000000Y-145770000D02*
X174000000Y-145120000D01*
X172880000Y-140880000D02*
X175120000Y-140880000D01*
X175120000Y-145120000D01*
X172880000Y-145120000D01*
X172880000Y-140880000D01*
%TO.C,D9*%
X97880000Y-141480000D02*
X100120000Y-141480000D01*
X97880000Y-141600000D02*
X100120000Y-141600000D01*
X97880000Y-141720000D02*
X100120000Y-141720000D01*
X99000000Y-140230000D02*
X99000000Y-140880000D01*
X99000000Y-145770000D02*
X99000000Y-145120000D01*
X97880000Y-140880000D02*
X100120000Y-140880000D01*
X100120000Y-145120000D01*
X97880000Y-145120000D01*
X97880000Y-140880000D01*
%TO.C,D18*%
X122880000Y-61670000D02*
X125120000Y-61670000D01*
X122880000Y-61790000D02*
X125120000Y-61790000D01*
X122880000Y-61910000D02*
X125120000Y-61910000D01*
X124000000Y-60420000D02*
X124000000Y-61070000D01*
X124000000Y-65960000D02*
X124000000Y-65310000D01*
X122880000Y-61070000D02*
X125120000Y-61070000D01*
X125120000Y-65310000D01*
X122880000Y-65310000D01*
X122880000Y-61070000D01*
%TO.C,D20*%
X172880000Y-61670000D02*
X175120000Y-61670000D01*
X172880000Y-61790000D02*
X175120000Y-61790000D01*
X172880000Y-61910000D02*
X175120000Y-61910000D01*
X174000000Y-60420000D02*
X174000000Y-61070000D01*
X174000000Y-65960000D02*
X174000000Y-65310000D01*
X172880000Y-61070000D02*
X175120000Y-61070000D01*
X175120000Y-65310000D01*
X172880000Y-65310000D01*
X172880000Y-61070000D01*
%TO.C,D2*%
X119880000Y-19670000D02*
X122120000Y-19670000D01*
X119880000Y-19790000D02*
X122120000Y-19790000D01*
X119880000Y-19910000D02*
X122120000Y-19910000D01*
X121000000Y-18420000D02*
X121000000Y-19070000D01*
X121000000Y-23960000D02*
X121000000Y-23310000D01*
X119880000Y-19070000D02*
X122120000Y-19070000D01*
X122120000Y-23310000D01*
X119880000Y-23310000D01*
X119880000Y-19070000D01*
%TO.C,C2*%
X216265000Y-32738748D02*
X216265000Y-33261252D01*
X217735000Y-32738748D02*
X217735000Y-33261252D01*
%TO.C,D6*%
X147880000Y-111670000D02*
X150120000Y-111670000D01*
X147880000Y-111790000D02*
X150120000Y-111790000D01*
X147880000Y-111910000D02*
X150120000Y-111910000D01*
X149000000Y-110420000D02*
X149000000Y-111070000D01*
X149000000Y-115960000D02*
X149000000Y-115310000D01*
X147880000Y-111070000D02*
X150120000Y-111070000D01*
X150120000Y-115310000D01*
X147880000Y-115310000D01*
X147880000Y-111070000D01*
%TO.C,D15*%
X122880000Y-166480000D02*
X125120000Y-166480000D01*
X122880000Y-166600000D02*
X125120000Y-166600000D01*
X122880000Y-166720000D02*
X125120000Y-166720000D01*
X124000000Y-165230000D02*
X124000000Y-165880000D01*
X124000000Y-170770000D02*
X124000000Y-170120000D01*
X122880000Y-165880000D02*
X125120000Y-165880000D01*
X125120000Y-170120000D01*
X122880000Y-170120000D01*
X122880000Y-165880000D01*
%TO.C,D5*%
X172880000Y-111670000D02*
X175120000Y-111670000D01*
X172880000Y-111790000D02*
X175120000Y-111790000D01*
X172880000Y-111910000D02*
X175120000Y-111910000D01*
X174000000Y-110420000D02*
X174000000Y-111070000D01*
X174000000Y-115960000D02*
X174000000Y-115310000D01*
X172880000Y-111070000D02*
X175120000Y-111070000D01*
X175120000Y-115310000D01*
X172880000Y-115310000D01*
X172880000Y-111070000D01*
%TO.C,D7*%
X122880000Y-111670000D02*
X125120000Y-111670000D01*
X122880000Y-111790000D02*
X125120000Y-111790000D01*
X122880000Y-111910000D02*
X125120000Y-111910000D01*
X124000000Y-110420000D02*
X124000000Y-111070000D01*
X124000000Y-115960000D02*
X124000000Y-115310000D01*
X122880000Y-111070000D02*
X125120000Y-111070000D01*
X125120000Y-115310000D01*
X122880000Y-115310000D01*
X122880000Y-111070000D01*
%TO.C,D10*%
X122880000Y-141480000D02*
X125120000Y-141480000D01*
X122880000Y-141600000D02*
X125120000Y-141600000D01*
X122880000Y-141720000D02*
X125120000Y-141720000D01*
X124000000Y-140230000D02*
X124000000Y-140880000D01*
X124000000Y-145770000D02*
X124000000Y-145120000D01*
X122880000Y-140880000D02*
X125120000Y-140880000D01*
X125120000Y-145120000D01*
X122880000Y-145120000D01*
X122880000Y-140880000D01*
%TO.C,D17*%
X97880000Y-61670000D02*
X100120000Y-61670000D01*
X97880000Y-61790000D02*
X100120000Y-61790000D01*
X97880000Y-61910000D02*
X100120000Y-61910000D01*
X99000000Y-60420000D02*
X99000000Y-61070000D01*
X99000000Y-65960000D02*
X99000000Y-65310000D01*
X97880000Y-61070000D02*
X100120000Y-61070000D01*
X100120000Y-65310000D01*
X97880000Y-65310000D01*
X97880000Y-61070000D01*
%TO.C,D8*%
X97880000Y-111480000D02*
X100120000Y-111480000D01*
X97880000Y-111600000D02*
X100120000Y-111600000D01*
X97880000Y-111720000D02*
X100120000Y-111720000D01*
X99000000Y-110230000D02*
X99000000Y-110880000D01*
X99000000Y-115770000D02*
X99000000Y-115120000D01*
X97880000Y-110880000D02*
X100120000Y-110880000D01*
X100120000Y-115120000D01*
X97880000Y-115120000D01*
X97880000Y-110880000D01*
%TO.C,D1*%
X97880000Y-86480000D02*
X100120000Y-86480000D01*
X97880000Y-86600000D02*
X100120000Y-86600000D01*
X97880000Y-86720000D02*
X100120000Y-86720000D01*
X99000000Y-85230000D02*
X99000000Y-85880000D01*
X99000000Y-90770000D02*
X99000000Y-90120000D01*
X97880000Y-85880000D02*
X100120000Y-85880000D01*
X100120000Y-90120000D01*
X97880000Y-90120000D01*
X97880000Y-85880000D01*
%TD*%
M02*
